<?xml version="1.0" encoding="utf-8"?>
<!-- Generator: Adobe Illustrator 24.0.3, SVG Export Plug-In . SVG Version: 6.00 Build 0)  -->
<!DOCTYPE svg PUBLIC "-//W3C//DTD SVG 1.1//EN" "http://www.w3.org/Graphics/SVG/1.1/DTD/svg11.dtd" [
	<!ENTITY ns_extend "http://ns.adobe.com/Extensibility/1.0/">
	<!ENTITY ns_ai "http://ns.adobe.com/AdobeIllustrator/10.0/">
	<!ENTITY ns_graphs "http://ns.adobe.com/Graphs/1.0/">
	<!ENTITY ns_vars "http://ns.adobe.com/Variables/1.0/">
	<!ENTITY ns_imrep "http://ns.adobe.com/ImageReplacement/1.0/">
	<!ENTITY ns_sfw "http://ns.adobe.com/SaveForWeb/1.0/">
	<!ENTITY ns_custom "http://ns.adobe.com/GenericCustomNamespace/1.0/">
	<!ENTITY ns_adobe_xpath "http://ns.adobe.com/XPath/1.0/">
]>
<svg version="1.1" xmlns:x="&ns_extend;" xmlns:i="&ns_ai;" xmlns:graph="&ns_graphs;"
	 xmlns="http://www.w3.org/2000/svg" xmlns:xlink="http://www.w3.org/1999/xlink" x="0px" y="0px" viewBox="0 0 997.5 1001.9"
	 style="enable-background:new 0 0 997.5 1001.9;" xml:space="preserve">
<style type="text/css">
	.st0{fill:#D3D3D3;}
	.st1{fill-rule:evenodd;clip-rule:evenodd;}
</style>
<metadata>
	<sfw  xmlns="&ns_sfw;">
		<slices></slices>
		<sliceSourceBounds  bottomLeftOrigin="true" height="1001.9" width="997.5" x="157.5" y="-997.4"></sliceSourceBounds>
	</sfw>
</metadata>
<g id="Background">
	<g id="Background_1_">
		<path class="st0" d="M309.8,327.7c17.1,4.6,34.2,9.3,51.2,13.9c-4,7.9-8,15.9-12,23.8C335.9,352.8,322.8,340.2,309.8,327.7z"/>
		<path class="st0" d="M33.8,595.3c0,0,45.3,60.4,20,121.3C53.8,716.7-30,720.2,33.8,595.3z"/>
		<path class="st0" d="M422,672.8c8.5,0.1,18,1,28.3,3.3c38.6,8.7,64.2,32.1,76.7,45.6c-6.5,5.3-20.9,15.4-39.6,15
			C458.4,736,430.6,710.4,422,672.8z"/>
		<path class="st0" d="M803.6,570.5c28.7,47.7,116.3,200.2,106.2,311.2c-1.3,14.2-4.6,32.8-18.6,45.9c-38.4,36-130.2,5.1-171.1-35
			c-29.7-29.1-40.5-64.9-40.5-64.9c-8-25.5-7.6-49.6,12.5-152.5c6.1-31.5,11.6-57.5,15.6-75.8c-5.9,34.4,8.8,62.6,28,67.9
			c19.8,5.5,40.9-14.6,45.2-18.6c14.3-13.6,18.9-29.6,21.1-37.5C806.7,593.7,805.1,578.8,803.6,570.5z"/>
		<path class="st0" d="M719.6,56.8c10.9,6.3,27.3,13.9,48.4,17.3c43.1,6.8,77.2-8.8,90.3-15.6c-15.3-11.5-29.7-17.9-39.6-21.5
			c-10.6-3.8-30-10.5-54.3-7.8c-18.1,2-26.9,8-28.9,9.5C726.9,44.6,722.1,52.1,719.6,56.8z"/>
	</g>
</g>
<g id="General_1_">
	<g id="General">
		<g id="Bag">
			<path class="st1" d="M764.3,511.8c0.9,0.9,1.7,1.9,2.5,2.9c0.7,0.9-0.2,0-1.4-1.5c-1.3-1.5-3.1-3.5-4.1-4.8
				c-3-3.4-6.7-7.3-8.2-9.1c-1.3-1.8-2.3-3.3-2-3.4c0.9-0.3,5.9,5,12.2,11.7c6.9,7.1,15.6,16.5,19.8,21.4
				c17.5,21.2,34.2,44.4,49.3,69c3.8,6.1,7.5,12.3,11,18.6c3.6,6.3,7,12.6,10.4,19c6.7,12.8,13.1,25.6,19.2,38.5
				c3.4,7.3,6.2,13.4,9,20.4c12.7,27.9,25.4,61.9,34.3,93.6c2.5,8.8,4.8,17.9,6.8,26.9c1.9,8.6,3.4,17.3,4.5,25.8
				c1.6,12.4,2.6,25.5,1.8,39.1c-0.4,6.8-1.3,13.7-2.9,20.5c-1.6,6.9-4,13.7-7.5,20.1c-1.8,3.2-3.7,6.3-6,9.2
				c-1.1,1.5-2.4,2.8-3.6,4.2c-0.6,0.7-1.3,1.3-2,2c-0.7,0.6-1.3,1.3-2,1.9c-5.6,4.9-12,8.7-18.7,11.6c-3.4,1.4-6.8,2.6-10.3,3.7
				c-3.5,1-7,1.8-10.6,2.5c-7.1,1.3-14.2,2-21.3,2.2c-10.4,0.3-20.8-0.3-31-1.8c-24-3.5-47.6-11.2-68.6-21.5
				c-21-10.3-39.2-23.6-52.7-37.8c-4.5-4.7-8.7-9.7-12.5-15.1l-1.4-2l-1.4-2.1c-0.9-1.4-1.8-2.8-2.6-4.2c-0.9-1.4-1.6-2.9-2.4-4.3
				c-0.4-0.7-0.8-1.4-1.2-2.2l-1.1-2.2c-2.9-6-5.4-12.2-7.2-18.7c-1.8-6.4-3.3-13-4.2-19.7c-1.8-13.3-2.1-26.8-1.4-40.2
				c0.7-13.4,2.2-26.8,4.3-40.1c2-11.9,5.4-30,8.1-43c6.9-32.9,15.8-69.1,24.1-99.7c1.9-6.8,4.2-14.9,6.4-22.8
				c2.3-8,4.9-17.3,6.8-22.7c1.4-3.9,2.4-4.7,4.1-10.8c0.4,2,3.8-5.1-0.5,11.7c-2.8,11.1-6.4,23.2-9.2,33.9
				c-4.5,17.2-9.3,35.7-14,54.9c-4.7,19.2-9.4,39.2-13.6,59.2c-4.2,20.1-7.8,40.3-10,60.1c-2.2,19.8-2.9,39.2-0.6,57
				c0.8,6.4,2.1,12.8,3.8,19.2c1.8,6.4,4.1,12.6,6.9,18.5l1.1,2.2l0.5,1.1l0.6,1.1c0.8,1.4,1.6,2.8,2.3,4.2c1.7,2.8,3.3,5.5,5.2,8
				c3.6,5.2,7.4,9.9,11.3,14.3c16.9,17.7,38.4,31.7,60.1,41.4c17.5,7.9,36,13.5,55,16.7c18.9,3.1,38.5,3.8,57.2,0
				c9.3-1.9,18.5-5,26.6-9.9c4-2.4,7.8-5.3,11.1-8.6c3.3-3.3,6.2-7.1,8.6-11.1c2.4-4,4.4-8.4,6-12.8c1.5-4.5,2.7-9.1,3.6-13.8
				c0.9-4.7,1.4-9.4,1.7-14.2c0.3-4.8,0.4-9.6,0.3-14.3c-0.1-5.3-0.5-10.6-1-15.9c-0.5-5.3-1.2-10.6-2-15.9
				c-1.6-10.5-3.9-21-6.5-31.5c-5.2-21-12-42.1-20-63.7c-7-18.9-14.8-37.4-23-55.5c-8.2-18.1-17-35.9-26.3-53.3
				c-18.7-34.8-40.6-67.7-65.5-98.7C778.8,528.8,770,517.9,764.3,511.8z"/>
			<path class="st1" d="M755,504.5l0.6,0.8c0.2,0.6-0.8-1-1.3-1.7c-0.7-0.9-1.5-2-1.8-2.5c-0.1-0.6-0.2-1.1,0.1-1.3
				c0.8-0.5,1.8,1.1,3.4,2.8c1.8,1.8,4.1,4.2,5.1,5.5c3.9,5.9,7.5,12.3,10.3,19.2c2.9,6.8,5.2,14,6.9,21.1c0.4,2,0.7,3.7,0.9,5.7
				c1.8,7.7,2.3,17,2.1,25.5c0,1.2,0,2.4,0,3.6c-0.1,1.2-0.1,2.4-0.2,3.5c-0.1,1.1-0.2,2.3-0.2,3.4c-0.1,1.1-0.3,2.2-0.4,3.3
				c-0.8,6.3-2.1,13.2-4.3,20.1c-2.2,6.9-5.4,13.8-9.8,19.8c-1.6,2.2-3.3,4.3-5.3,6.2c-4.7,4.5-10.7,8-17.2,9.2
				c-3.3,0.6-6.7,0.4-9.8-0.6c-3.1-1-5.8-3-7.6-5.1c-2.5-2.8-4.1-6-5.4-9.2c-0.7-1.6-1.2-3.2-1.8-4.7c-0.6-1.6-1.1-3.2-1.6-4.8
				c-2.1-6.4-3.8-13.1-5.1-19.8c-0.1-0.8-0.2-1.6-0.3-2.6c-0.1-0.9-0.2-1.9-0.4-2.9c-0.3-2-0.5-4-0.7-5.7c-0.9-8.6-1-18.2,0.3-26.2
				c0.3-1.8,0.8-3.9,1.3-5.9c0.5-2.1,0.9-4.5,1.5-5.9c0.4-1,1.2-1.1,1.5-2.7c0.9,0.6,2.5-1.1,2.2,3.2c-0.1,1.4-0.4,2.9-0.6,4.3
				c-0.3,1.4-0.6,2.9-0.8,4.2c-1.4,8.7-1.6,18.9-0.5,29.1c0.2,2.5,0.6,5.1,1,7.6c0.4,2.5,0.9,5,1.4,7.4c1,4.9,2.3,9.5,3.6,13.8
				c0.2,0.8,0.5,1.6,0.7,2.3c0.3,0.8,0.6,1.6,0.8,2.3c0.6,1.6,1.1,3.1,1.8,4.6c1.2,3,2.6,5.7,4.2,7.9c1.9,2.1,4.4,3.5,7.1,4.2
				c2.7,0.6,5.6,0.5,8.4-0.2c4.4-1.2,8.5-3.6,11.9-6.8c3.5-3.2,6.3-7,8.7-11.1c4.7-8.2,7.5-17.6,9.2-27c0.6-2.6,0.8-5.3,1.2-7.9
				c0.2-1.3,0.3-2.7,0.4-4c0.1-1.3,0.2-2.7,0.3-4c0.2-5.4,0.3-10.9-0.3-16.6c-1.6-20.1-7.8-39.1-18.1-56.2c-0.1-0.3-0.6-1.3-1.3-2.3
				c-0.3-0.5-0.7-1.1-1-1.6C755.7,505.4,755.3,504.9,755,504.5z"/>
			<path class="st1" d="M895.2,776.5l-1.3,0.2c-0.8-0.1,1.7-0.3,2.8-0.4c1.5-0.2,3.2-0.6,4-0.5c0.8,0.2,1.4,0.3,1.4,0.7
				c0,0.9-2.4,1.2-5.4,2c-3.2,0.8-7.3,2.1-9.4,2.5c-18.1,2.8-38,4.8-57.3,3.3c-2.7-0.2-5-0.5-7.5-1c-5.2-0.5-10.8-1.5-16.4-3
				c-5.6-1.5-11.2-3.6-16.3-5.9c-1.4-0.7-2.9-1.3-4.3-2l-2.1-1.1c-0.7-0.4-1.4-0.8-2.1-1.2c-2.6-1.5-5.1-3.2-7.6-4.8
				c-7-4.9-13.8-11.4-19.9-18.6c-6.1-7.3-11.6-15.2-16.4-23.3c-0.9-1.5-1.8-2.9-2.7-4.4l-1.3-2.2c-0.4-0.7-0.8-1.5-1.2-2.3
				c-3.8-7.1-7.3-14.5-10.3-21.7c-1.5-3.6-3-7.1-4.2-10.5c-0.6-1.7-1.2-3.4-1.8-5c-0.3-0.8-0.6-1.6-0.9-2.4
				c-0.2-0.8-0.5-1.6-0.7-2.4c-5.2-16.4-9.3-33.9-11.3-51.8c-0.1-2-0.2-4.6-0.4-7.2c-0.2-2.6-0.4-5.3-0.4-7.5
				c-0.5-11.3,0.1-23.9,1.9-34.4c0.4-2.3,1.1-5.1,1.7-7.8c0.6-2.7,1.3-5.9,2-7.7c0.5-1.3,1.3-1.5,1.7-3.6c0.8,0.7,2.6-1.5,2,4.2
				c-0.2,1.9-0.6,3.8-1,5.7c-0.2,1-0.4,1.9-0.6,2.9c-0.2,0.9-0.3,1.9-0.5,2.8c-2.1,11.5-3,25.1-2.4,38.7c0.5,13.6,2.5,27.2,5,38.9
				c0.5,2.1,0.9,4.3,1.4,6.4c0.6,2.1,1.2,4.3,1.7,6.4c1,4.3,2.4,8.4,3.3,12.2c0.3,1,0.7,1.9,1,2.9l1.1,2.9c0.7,1.9,1.4,3.9,2.1,5.8
				c0.7,2,1.5,3.8,2.3,5.7c0.8,1.9,1.5,3.8,2.3,5.6c5.1,11.7,11.3,23,18.2,33.8c7,10.7,15.1,20.8,24.7,29.1
				c10.6,9.2,23.2,15.7,38,19.6c6.4,1.7,13,2.8,19.5,3.5c6.6,0.7,13.1,0.9,19.7,0.9c13.1-0.1,26.2-1.3,39.3-2.9
				C887.8,777.6,892.5,777.1,895.2,776.5z"/>
			<path class="st1" d="M915.6,855.2l-1.1,0.3c-0.7,0,1.4-0.4,2.4-0.6c1.3-0.3,2.7-0.8,3.4-0.9c0.7,0.1,1.3,0.2,1.3,0.5
				c0.1,0.9-1.9,1.4-4.4,2.4c-2.7,1.1-6.2,2.5-8.1,3.1c-15.8,3.7-33.3,5.3-50.1,4.9c-2.4-0.1-4.4-0.2-6.5-0.5
				c-9.1-0.1-19.6-1.9-29.1-3.9c-2.6-0.6-5.3-1.1-8-1.8c-2.5-0.7-5-1.3-7.4-2.1c-14-4.1-30.1-11.1-44.1-19.8
				c-2.6-1.5-5.2-3.1-7.7-4.8c-5.8-4.1-11.5-8.4-16.7-12.9c-5.1-4.5-9.9-8.9-13.8-13.1c-10.4-10.9-20-23.4-28.1-37.1
				c-0.8-1.6-1.8-3.6-2.9-5.6c-1-2-2.1-4.1-3-5.9c-4.3-8.9-8.5-19.2-10.6-28.3c-0.5-2-0.8-4.5-1.3-6.9c-0.4-2.4-1-5.2-1-6.9
				c0-1.2,0.7-1.7,0.3-3.5c1,0.3,1.9-2.2,3.3,2.6c1,3.1,1.4,6.8,2.2,9.8c2.3,10,6.4,21.1,11.7,31.8c5.3,10.6,11.6,20.8,18,29.1
				c4.5,6,10,12.1,14.4,17.3c5.1,5,10.4,10.1,15.7,14.6c4.2,3.6,8.7,7,13.3,10.2c2.3,1.5,4.6,3.1,7,4.6l3.6,2.2l1.8,1.1l1.8,1
				c9.8,5.5,20,10,30.6,13.7c5.9,2,11.8,3.8,17.9,5.2c3,0.8,6.2,1.4,9.3,2c3.2,0.6,6.4,1.1,9.7,1.6c2.9,0.5,5.8,0.7,8.7,1
				c2.9,0.2,5.8,0.5,8.7,0.6c5.8,0.3,11.5,0.4,17.3,0.1c11.5-0.4,22.9-1.6,34.2-3.8C909.3,856.7,913.3,856,915.6,855.2z"/>
			<path class="st1" d="M877.3,706.3c-0.3-0.1-0.5-0.1-0.8-0.2c-0.2-0.2,0.1-0.1,0.5,0.1c0.4,0.1,1,0.3,1.3,0.4
				c1,0.3,2.1,0.5,2.6,0.8c0.4,0.4,0.7,0.8,0.6,1.1c-0.3,0.8-1.9,0.4-4,0.1c-1.2-0.1-2.4-0.3-3.7-0.5c-1.2-0.2-2.3-0.3-3.1-0.6
				c-6-2.2-11.8-5.4-17.2-9.3c-5.4-3.9-10.3-8.5-14.6-13.3c-1.3-1.3-2.2-2.6-3.1-4c-4.7-5.2-9-12.3-12.5-18.9
				c-0.9-1.9-2-3.7-2.9-5.6c-0.8-1.8-1.7-3.6-2.4-5.4c-4.6-10.2-8.6-22.9-12-34.8c-0.6-2.2-1.4-4.4-1.9-6.5
				c-2.7-10.3-5.6-20.8-8.2-28.9c-3.3-10.7-7.6-21.6-13.1-31.9c-0.5-1.2-1.3-2.7-2-4.2c-0.8-1.5-1.7-2.9-2.4-4.2
				c-3.6-6.3-8.5-12.8-12.6-18.3c-0.9-1.2-1.9-2.8-3.1-4.2c-0.6-0.7-1.2-1.5-1.8-2.2c-0.6-0.7-1.2-1.3-1.5-1.9
				c-0.5-0.8-0.2-1.5-1.3-2.5c0.9-0.5,0.4-2.7,3.7-0.4c1.1,0.8,2.1,1.7,3,2.8c0.9,1,1.8,2.1,2.6,3c5.3,6.2,10.8,13.7,15.5,21.7
				c2.4,4,4.5,8.1,6.5,12.2c1.9,4.1,3.7,8,5.2,11.9c2.2,5.4,4.5,11.4,5.7,16.5c1.9,5.2,3.4,10.7,4.8,15.9c4.5,16.6,9,33.3,15.3,49.2
				c0.8,2.2,1.8,4.4,2.7,6.6c1,2.1,1.9,4.3,3,6.4c2.1,4.3,4.5,8.5,7.3,12.8c2.4,3.8,5.1,7.3,7.8,10.7l2.2,2.5l1.1,1.2l1.1,1.2
				l2.3,2.3l2.4,2.2c6.4,5.9,13.7,10.7,21.8,14.3C872.7,704.7,875.5,705.9,877.3,706.3z"/>
			<path class="st1" d="M686.8,853.1l0.8-0.8c0.6-0.3-1.1,1-1.8,1.7c-1,0.9-2.1,2-2.7,2.4c-0.7,0.2-1.2,0.4-1.4,0.1
				c-0.5-0.7,1.1-2.1,2.9-4.2c1.9-2.2,4.2-5.2,5.5-6.6c11.4-11.3,23.2-23.9,33.8-36.8c1.5-1.8,2.7-3.3,4.3-4.9
				c2.7-3.6,5.6-7.5,8.7-11.4c3-4,6-8,8.8-11.9c1.6-2.2,3-4.5,4.5-6.7c1.4-2.1,2.8-4.3,4.2-6.4c3.9-6.1,8-12.9,12-19.9
				c4-7.1,8-14.5,11.6-21.8c1.3-2.7,2.6-5.4,3.9-8.1c3.1-6.3,5.9-12.8,8.3-19c2.5-6.3,4.5-12.3,6.2-17.7c4.4-14.2,7.6-29.4,9.4-44.9
				c0.7-3.5,1.2-8.8,1.6-12.6c1-9.7,1.3-20.6,1.9-29.9c0.2-2.1,0.4-4.5,0.6-7c0.1-2.4,0.1-5.3,0.4-7c0.2-1.2,0.9-1.6,0.9-3.5
				c1,0.5,2.2-2,2.9,3.2c0.4,3.4,0.1,7.2,0,10.5c-0.3,10.6-0.7,22.8-1.9,34.9c-0.6,6.1-1.3,12.1-2.2,18c-0.9,5.9-1.9,11.5-3.1,16.8
				c-1.6,7.6-3.4,15.8-6,22.4c-1.9,7.1-4.6,14.2-7.2,20.8c-4.3,10.6-9.2,21-14.5,31.2c-2.6,5.1-5.3,10.1-8.1,15.2
				c-2.8,5-5.7,10-8.7,14.8c-6.7,10.8-13.8,21.2-22.2,32c-7.3,9.5-14.9,18.5-22.8,27.2c-7.9,8.6-16.1,17-24.8,24.9
				C691.7,848.6,688.5,851.3,686.8,853.1z"/>
			<path class="st1" d="M776.1,935.2l0.6-0.8c0.5-0.4-0.8,1.1-1.4,1.9c-0.8,1-1.6,2.2-2.1,2.6c-0.6,0.3-1.1,0.5-1.4,0.3
				c-0.6-0.6,0.6-2.2,1.9-4.4c1.4-2.4,2.9-5.6,3.9-7.1c8.6-12.4,17.4-26,25-39.6c1.1-1.9,2-3.5,3.2-5.2c3.7-7.6,8.4-16.2,12.2-24.4
				c1-2.3,2-4.6,3-6.9c1-2.2,1.9-4.4,2.8-6.6c2.6-6.3,5.3-13.2,7.8-20.4c2.5-7.2,5-14.7,7.1-22c0.8-2.7,1.5-5.4,2.2-8.1
				c3.7-12.6,6.2-25.9,8-36.3c2.4-13.8,3.8-28.3,4.6-43c0.2-1.6,0.4-3.7,0.5-5.8c0.1-2.1,0.2-4.3,0.3-6.1c0.4-9.2,0.4-19.5,0.9-28.2
				c0.1-1.9,0.4-4.3,0.5-6.6c0.1-2.3,0.1-5,0.4-6.6c0.2-1.2,0.9-1.5,0.9-3.3c1,0.4,2.2-1.9,2.9,3c0.5,3.2,0.1,6.8,0.1,9.8
				c-0.2,9.9-0.3,21.3-0.8,32.7c-0.5,11.4-1.2,22.9-2.4,32.9c-0.8,7.2-1.6,15.1-3.2,21.5c-0.4,3.4-1,6.8-1.7,10.2
				c-0.3,1.7-0.7,3.4-1,5.1c-0.4,1.7-0.8,3.3-1.1,4.9c-4.8,20.9-10.8,41.8-18.9,61.8c-4.5,11.1-9.3,21.8-15.2,33.2
				c-10.4,19.9-21.9,38.4-35.2,56C779.8,930.3,777.4,933.2,776.1,935.2z"/>
			<path class="st1" d="M912.6,815l0,0.5c-0.2,0.3,0-0.7,0-1.1c0-0.6,0-1.3,0.1-1.6c0.3-0.3,0.6-0.5,0.9-0.5c0.9,0.1,0.8,1,1,2.2
				c0.3,1.3,0.8,3,0.9,3.9c-0.1,7.2-0.8,15-1.9,22.4c-0.1,1-0.3,1.9-0.7,2.9c-0.3,4-1.4,8.7-2.4,12.9c-0.2,1.2-0.4,2.4-0.7,3.6
				c-0.3,1.1-0.5,2.2-0.8,3.3c-1.5,6.4-3.6,13.8-6,20.7c-0.4,1.3-0.8,2.6-1.2,3.8c-2.3,5.9-4.6,12-6.6,16.6
				c-2.7,6.2-5.5,12.6-8.7,18.9c-1,1.3-2,3.4-3,4.9c-2.3,3.8-4.8,8-7.7,11.1c-0.6,0.7-1.6,1.4-2.4,2.2c-0.8,0.8-1.6,1.7-2.4,2.1
				c-0.5,0.3-1.2,0-1.8,0.6c-0.6-0.7-2.4-0.7-1.4-2.7c0.7-1.3,2-2.4,2.9-3.5c3-3.5,6-7.9,8.7-12.5c2.7-4.6,5-9.4,7.1-13.6
				c0.7-1.5,1.4-3.1,2.1-4.7c0.7-1.6,1.4-3.1,2.2-4.4c0.5-1.5,1.1-3,1.7-4.5c0.6-1.5,1.2-3,1.8-4.4c1.9-4.6,3.5-9.4,5-14.2
				c1.5-4.8,2.8-9.6,4.1-14.5c1.4-5.4,2.7-10.7,3.9-16.6c2.1-10.3,3.4-20.3,4.5-30.6C912.4,817.9,912.7,816.1,912.6,815z"/>
		</g>
		<g id="Apples">
			<path d="M846,915.2c-1.4,20.2-23,34.4-42.4,34.3c-22-0.1-45.1-18.7-43.4-40.5c1.6-20.1,23.6-34.3,43.4-33.8
				C825,875.8,847.5,893.6,846,915.2z"/>
			<path d="M732.7,861.7c-0.2,0-0.5,0-0.7,0l-0.7-8.4c11.7,3,23.8-6.2,23.8-6.2c-13.1-7.8-21-1.2-24.1,2.9l-0.5-5.7H727l1.5,17.6
				c-14.2,1.5-28.4,11.9-29.6,26.1c-1.3,17,16.6,31.5,33.8,31.5c15.1,0.1,31.9-10.9,33-26.7C766.8,876,749.3,862.1,732.7,861.7z"/>
			<path d="M849.3,832.6l4-24.6H848l-1.1,7.7c-4.7-4.6-14.5-10.1-29.8-0.4c0,0,14.3,9.2,29,6.1l-1.5,10.4c-1-0.1-1.9-0.2-2.9-0.2
				c-16.1-0.4-33.9,11.1-35.2,27.4c-1.4,17.7,17.3,32.8,35.2,32.9c15.7,0.1,33.3-11.4,34.4-27.8C877.1,849,863.9,836.3,849.3,832.6z
				"/>
			<path d="M914.6,903.1c-2.8-11.1-12.6-18.6-23.7-21.6l2.2-6.4c7.7,9.5,15.2,3.5,15.2,3.5c-4.2-5.9-11-6.1-14.4-5.8l1.3-3.8
				l-3.5-2.1l-5.9,13.5c-5.7-0.8-11.6-0.5-17,1.2c-16.5,5-30.8,22.7-26.7,39.7c4.5,18.5,28.6,27.6,46.9,21.7
				C904.9,937.8,918.9,920.2,914.6,903.1z"/>
		</g>
		<g id="Woman">
			<g id="Head">
				<path class="st1" d="M407.7,188.1l0.2,0.8c-0.1,0.5-0.2-1.1-0.4-1.8c-0.2-0.9-0.5-2-0.5-2.6c0.2-0.5,0.4-1,0.7-1
					c0.9-0.1,1.1,1.4,1.9,3.3c0.8,2,2,4.6,2.4,5.9c2.7,11.5,4.5,24.1,5.6,36.3c0.1,1.7,0.2,3.2,0.2,4.8c0.9,6.5,0.8,14.3,0.9,21.4
					c0,2,0.1,4,0.1,5.9c0,1.9-0.1,3.8-0.1,5.6c-0.2,10.6-0.5,23.1-1.9,35.2c-0.3,2.2-0.5,4.4-0.9,6.6c-1,5.2-2.4,10.4-4.7,15.3
					c-2.2,4.8-5.4,9.1-8.9,12c-4.7,3.9-10.4,6.3-16.2,7.7c-5.8,1.3-11.8,1.8-17.7,1.7c-2.6-0.3-6.6-0.5-9.5-0.8
					c-3.6-0.4-7.4-0.9-11.1-1.6c-3.8-0.6-7.4-1.5-10.7-2.7c-1.4-0.5-3.1-1.3-4.8-2.1c-1.7-0.7-3.6-1.5-4.7-2.2
					c-0.7-0.5-0.7-1.3-2-1.8c0.7-0.8-0.4-2.6,3.1-1.8c2.3,0.5,4.7,1.7,6.9,2.5c3.5,1.2,7.4,2.3,11.5,3c4.1,0.8,8.4,1.4,12.8,1.9
					c8.6,0.9,17.4,0.8,24.7-0.8c5.3-1.1,10.5-3.7,14.4-6.4c3.7-3.3,6.6-7.7,8.5-12.2c3.1-7.4,4.2-15.6,5-23.7
					c0.7-8.2,0.9-16.4,1.2-24.7c0.1-4.6,0.3-9.1,0.4-13.7c0.1-4.6,0-9.3-0.1-14.2c-0.5-17.2-2.4-33.8-5.2-50.5
					C408.6,192.8,408.3,189.8,407.7,188.1z"/>
				<path id="Hair" d="M420,153.4c-7.4-19.2-61.7-36.6-109.1-18.9c1.6-8.3,1.4-16.2,1.2-22.2c-1.7-50.8-41.1-96.8-53-91.9
					c-5.9,2.4-8,18.6,3.1,70.4c-5.1-7.6-39.7-58.9-60.2-52.7c-1,0.3-2.5,0.8-4,2.2c-13.1,12.7,20.9,65.1,27.3,74.8
					c-54.1-29.4-69.9-30-74.1-24.8c-9,11,21.6,64.8,70,79.6c10.6,3.2,24.5,5.3,38.3,4.4c-13.6,18.8-21.9,42-20.9,67.4
					c1.8,49.7,38.2,79.4,43.9,83.9c8.5-35,6.3-44.7,2.2-46.7c-3.4-1.6-6.5,2.9-12.1,1.6c-10.7-2.5-15.7-22.9-14.6-37.7
					c0.5-6,1.2-13.9,7.4-18.5c4-3,10.6-4.9,15-2.1c1.9,1.2,3.5,3.3,5.4,11.8c3,14,1.2,20.6,3.2,21.4c3.8,1.6,10-22.4,26.8-36.5
					c32.7-27.4,87.8-2.4,101.6-25.7c1-1.8,4.3-7.9,5.4-16.3C422.7,176.9,424.4,164.8,420,153.4z"/>
				<g id="Face">
					<path class="st1" d="M362.7,279.2l0.4,0.1c0.2,0.3-0.5-0.2-0.9-0.3c-0.5-0.2-1.1-0.3-1.2-0.5c-0.1-0.3-0.2-0.7-0.1-1
						c0.4-0.8,1.1-0.5,2.1-0.4c1.1,0.1,2.6-0.1,3.4,0c2.8,0.8,5.8,1.6,8.7,2.2c1.5,0.3,2.9,0.5,4.3,0.6c1.3,0.1,2.6,0,3.4-0.3
						c0.4-0.2,0.6-0.3,0.9-0.3c0.1-0.2,0.1-0.4,0.2-0.8c0.1-0.4,0.1-1,0-1.8c-0.1-1.5-0.5-3.3-1-4.9c-0.3-0.9-0.7-1.9-1-2.8
						c-0.3-0.9-0.6-1.8-0.9-2.7c-1.8-5.2-3.6-11.7-4.6-18.1c-0.2-1.2-0.5-2.3-0.6-3.5c-0.1-1.4-0.2-2.8-0.3-4.1
						c-0.1-1.4-0.1-2.9,0-4.3c0.1-2.8,0.6-5.5,1.4-7.8c1-3,2.4-6,4.4-8.6c1-1.3,2.1-2.6,3.3-3.7c0.6-0.6,1.2-1.1,1.8-1.6
						c0.6-0.5,1.3-1,2-1.5c0.7-0.3,1.5-0.8,2.4-1.2c0.9-0.4,1.7-0.9,2.5-1.2c3.8-1.6,8.4-2.5,12.1-1.9c0.8,0.1,1.8,0.5,2.8,0.8
						c0.9,0.3,2,0.5,2.7,1c0.4,0.3,0.5,1.1,1.1,1.3c-0.3,0.9,0.3,2.4-1.5,2.5c-1.2,0.1-2.4-0.5-3.6-0.6c-3.7-0.6-8.1-0.1-12,1.6
						c-3.9,1.7-7.4,4.6-9.7,7.5c-1.7,2.1-2.7,4.8-3.9,7c-0.6,2.5-1.1,5.1-1.1,7.6c-0.1,2,0.1,4.1,0.4,6.2c0.2,2.1,0.6,4.2,1,6.3
						c0.8,4.1,2,8.2,3.2,12.3c0.7,2.3,1.4,4.5,2.1,6.9c0.7,2.4,1.4,4.7,1.6,7.6c0.1,1.2,0,2.6-0.5,3.9c-0.5,1.3-1.6,2.4-2.8,3
						c-1.2,0.6-2.5,0.7-3.6,0.8c-1.2,0.1-2.3,0-3.5-0.2c-4.5-0.6-8.7-2.1-12.8-3.7C365,280,363.6,279.3,362.7,279.2z"/>
					<path class="st1" d="M319.8,227.4l0.1-0.1c0.2,0.1-0.1,0.1-0.3,0.2c-0.1,0.1-0.3,0.2-0.4,0.2c-0.2-0.2-0.4-0.4-0.6-0.7
						c-0.5-0.7-0.2-0.8-0.1-1.3c0.1-0.5,0.2-1.3,0.3-1.6c0.8-0.7,1.8-1.3,2.8-1.8c1-0.5,2-1,3.1-1.4c0.3-0.1,0.6-0.2,0.9-0.1
						c1-0.8,2.5-0.8,3.7-1.1c0.3-0.1,0.7-0.2,1-0.3c0.3-0.1,0.7-0.1,1-0.2c0.9-0.2,2-0.3,3.1-0.5c1.1-0.1,2.2-0.2,3.3-0.2
						c0.4,0,0.8-0.1,1.2-0.1c1.9,0.2,3.8,0.2,5.2,0.5c2,0.3,4,0.5,6.1,0.9c0.4,0.4,1.1,0.5,1.6,0.7c0.3,0.1,0.6,0.3,0.9,0.4
						c0.3,0.2,0.6,0.3,0.9,0.5c0.6,0.4,1.1,0.8,1.5,1.5c0.2,0.3,0.3,0.8,0.4,1.1c0.2,0.4,0.4,0.7,0.4,1.1c0,0.3-0.3,1-0.2,1.2
						c-0.5,0.8-0.9,2.1-1.6,2.2c-0.4,0-0.6-0.6-0.8-1c-1.5-2.3-4.7-3.1-7.2-3.5c-0.9-0.2-1.9-0.1-2.6-0.6c-0.9,0.1-1.7-0.1-2.5-0.2
						c-2.6-0.3-5.3,0.1-7.9,0.4c-1.5,0.2-2.9,0.4-4.5,0.8c-2.8,0.6-5.3,1.6-8,2.6C320.5,227,320,227.1,319.8,227.4z"/>
					<path class="st1" d="M398.8,303.5l-0.2,0.1c-0.2-0.1,0.2-0.1,0.4-0.2c0.2-0.1,0.5-0.3,0.6-0.2c0.2,0.2,0.4,0.4,0.6,0.7
						c0.4,0.8,0,0.9-0.4,1.4c-0.4,0.5-0.8,1.4-1.1,1.7c-2.8,1.5-6.1,2.5-9.4,3.2c-0.5,0.1-0.8,0.2-1.3,0c-0.8,0.3-1.8,0.5-2.8,0.6
						c-1,0.1-2,0.1-2.9,0.1c-0.5,0-1.1,0.2-1.6,0.2c-0.5,0-1,0-1.5,0c-2.9,0.1-6.3-0.3-9.5-0.8c-0.6-0.1-1.2-0.1-1.8-0.3
						c-2.7-0.7-5.5-1.5-7.5-2.4c-2.8-1.1-5.6-2.2-8.4-3.7c-0.5-0.6-1.4-1.1-2-1.5c-1.6-1.2-3.3-2.5-4.1-4.3c-0.2-0.4-0.3-1-0.5-1.5
						c-0.2-0.5-0.5-1-0.4-1.5c0-0.4,0.5-1,0.3-1.3c0.7-0.6,1.4-1.9,2.3-1.5c0.6,0.3,0.7,1.1,1,1.6c0.9,1.7,2.5,3.3,4.3,4.5
						c1.8,1.3,3.7,2.3,5.4,3.1c0.6,0.3,1.3,0.5,2,0.8c0.7,0.2,1.3,0.5,1.8,1c0.7,0.1,1.3,0.3,1.9,0.5c0.6,0.2,1.2,0.4,1.8,0.6
						c3.9,1.2,8.1,1.6,12.1,1.8c2.3,0.1,4.5,0.1,7-0.1c4.3-0.3,8.4-1.3,12.6-2.4C397.7,304,398.5,303.9,398.8,303.5z"/>
					<path class="st1" d="M352.6,301.9l0.2,0c0.1,0.2-0.2,0.1-0.3,0.1c-0.2,0-0.4,0.2-0.5,0.1c-0.2-0.2-0.3-0.5-0.4-0.8
						c-0.2-0.8,0.1-0.9,0.4-1.3c0.3-0.4,0.7-1.2,0.9-1.4c2.2-0.9,4.7-1.5,7.1-2c0.3-0.1,0.6-0.1,1,0c1.2-0.6,2.8-0.5,4.2-0.7
						c0.4,0,0.8-0.2,1.2-0.2c0.4,0,0.8-0.1,1.1-0.1c2.1-0.3,4.7-0.5,7.2-0.5c0.5,0,0.9-0.1,1.4-0.1c2.2,0.2,4.4,0.4,6.2,0.8
						c2.3,0.5,4.8,1.1,7.2,2.1c0.4,0.5,1.2,0.9,1.7,1.2c1.3,1,2.8,2.2,3.2,3.9c0.1,0.4,0.1,0.9,0.1,1.4c0.1,0.4,0.2,0.9,0,1.3
						c-0.1,0.3-0.7,0.8-0.6,1c-0.8,0.5-1.8,1.5-2.4,1.2c-0.4-0.2-0.2-0.8-0.3-1.3c-0.3-1.4-1.4-2.6-2.7-3.5c-1.3-0.9-2.8-1.5-4.1-2
						c-1-0.3-2.1-0.3-2.9-0.9c-1,0-2-0.2-2.9-0.3c-3.1-0.4-6.3,0-9.4,0.3c-1.8,0.2-3.5,0.3-5.4,0.5c-3.4,0.3-6.6,0.9-9.9,1.2
						C353.5,301.7,352.9,301.6,352.6,301.9z"/>
					<path class="st1" d="M353.2,241l-0.1,0c0-0.2,0.2,0,0.3,0.1c0.1,0.1,0.3,0.1,0.4,0.2c0,0.3-0.1,0.6-0.2,0.9
						c-0.3,0.8-0.5,0.7-0.9,0.9c-0.4,0.2-1,0.7-1.2,0.8c-1.7-0.2-3.3-0.7-5-0.9c-0.2,0-0.4-0.1-0.6-0.3c-1,0.2-2-0.2-3-0.3
						c-0.3,0-0.6,0-0.8,0c-0.3,0-0.5,0-0.8,0c-1.5,0-3.2,0-4.9,0.1c-0.3,0-0.6,0.2-0.9,0.2c-1.5,0-2.9,0.4-3.9,0.7
						c-1.4,0.4-2.6,1.1-3.6,2c-0.4,0-0.7,0.3-1,0.5c-0.8,0.5-1.5,1.2-2.8,1.4c-0.3,0-0.7,0-1.1,0c-0.4,0-0.7,0.2-1.1,0.1
						c-0.3-0.1-0.9-0.5-1.1-0.4c-0.7-0.6-1.9-1.3-1.8-2c0.1-0.4,0.8-0.4,1.2-0.6c1.3-0.5,2.5-1.4,3.7-2.2c1.2-0.9,2.5-1.7,3.6-2.3
						c0.8-0.4,1.7-1,2.6-0.8c0.8-0.5,1.7-0.6,2.5-0.7c2.6-0.4,5.2-0.8,7.9-0.7c1.5,0.1,2.9,0.2,4.4,0.6c2.7,0.6,5.2,1.3,7.5,2.6
						C352.5,240.7,352.9,241.1,353.2,241z"/>
					<path class="st1" d="M407.6,243.5L407.6,243.5c0.1-0.3,0,0,0.1,0.1c0.1,0.1,0.2,0.2,0.1,0.3c-0.2,0.2-0.4,0.4-0.7,0.6
						c-0.8,0.4-0.8,0.2-1.2,0.2c-0.4,0-1.1,0.1-1.3,0.1c-0.9-0.7-1.9-1.5-3-2c-0.2-0.1-0.3-0.2-0.3-0.4c-0.8,0.1-1.4-0.6-2.1-0.8
						c-0.2-0.1-0.4,0-0.7-0.1c-0.2,0-0.4-0.1-0.6-0.1c-1.2-0.2-2.6-0.3-4.1-0.3c-0.3,0-0.5,0.1-0.8,0.1c-1.3-0.1-2.6,0.1-3.6,0.3
						c-1.3,0.2-2.6,0.8-3.7,1.3c-0.4-0.1-0.7,0.1-1,0.2c-0.8,0.2-1.4,0.6-2.5,0.5c-0.3,0-0.7-0.2-1-0.2c-0.3,0-0.6,0-1-0.1
						c-0.3-0.1-0.9-0.6-1.1-0.5c-0.6-0.7-1.9-1.4-1.7-2.1c0.2-0.5,0.9-0.4,1.3-0.5c1.4-0.3,2.7-0.9,3.9-1.3c1.2-0.5,2.4-1,3.5-1.3
						c0.8-0.2,1.6-0.7,2.4-0.4c0.7-0.4,1.5-0.4,2.2-0.4c2.3-0.1,4.7-0.5,7.1-0.1c1.3,0.2,2.6,0.6,4,1.2c2.3,1.1,4.4,2.7,5.5,4.9
						C407.2,242.9,407.3,243.4,407.6,243.5z"/>
					<circle cx="344.9" cy="247.1" r="7.4"/>
					<circle cx="397.2" cy="246.7" r="7.4"/>
				</g>
				<path id="Ear" d="M283.1,259.3c-2.5-14.9-6.1-28.2-11.2-28.5c-2.1-0.1-3.8,2.1-4,2.5c-3.5,5.1,0.5,15.6,10,26.2
					c-4.6,0.7-7.8,2.9-8.3,5.1c-0.2,0.9-0.1,1.9,0.4,3.1c0.4,0.8,1.1,1.3,1.3,1.4C273.8,270.5,282.1,260.4,283.1,259.3z"/>
			</g>
			<g id="Body">
				<path class="st1" d="M493.5,645.5l-0.1-1.3c0.2-0.8,0.1,1.7,0.1,2.9c0.1,1.5,0.2,3.3,0.1,4.2c-0.2,0.8-0.5,1.4-0.8,1.3
					c-0.9-0.1-0.9-2.6-1.4-5.6c-0.5-3.3-1.4-7.6-1.7-9.7c-1.5-18.4-3.6-38.3-6.6-57.2c-0.4-2.7-0.7-4.9-0.9-7.4
					c-2.1-10.2-3.8-22.3-5.8-33.2c-0.6-3-1.2-6.1-1.9-9.1c-0.6-2.9-1.2-5.8-1.9-8.6c-1.9-8.1-4.1-16.9-7-25.7
					c-3-8.8-6.8-17.5-11.5-25.4c-0.4-0.7-0.8-1.5-1.3-2.2l-1.4-2.1l-1.4-2.1c-0.5-0.7-1-1.4-1.5-2.1c-4.5-6.5-9.7-12.7-15.2-18.1
					c-5.4-5.4-11-10.1-16.1-14c-6.7-5.2-14-10-21.7-14.3c-3.8-2.2-7.8-4.3-11.7-6.2c-4-1.9-8.1-3.7-12.3-5.9c-1.8-1-4.2-2.4-6.5-3.9
					c-2.3-1.5-4.6-3.3-6.4-5c-2.3-2.1-4.3-4.6-6-7.3l-0.6-1l-0.6-1.1c-0.4-0.7-0.8-1.4-1.1-2.1c-0.6-1.5-1.3-2.9-1.7-4.5
					c-0.5-1.5-0.9-3.1-1.2-4.6c-0.3-1.5-0.5-3.1-0.6-4.6c-0.2-1.5-0.2-3-0.2-4.5c0.1-1.5,0.1-2.9,0.3-4.3c0.2-2.5,0.9-5.4,1.5-8.1
					c0.6-2.8,1.5-6,2.4-7.8c0.6-1.3,1.4-1.4,2.1-3.5c0.8,0.8,2.7-1.3,1.6,4.4c-0.7,3.7-1.9,7.7-2.4,11.2c-0.4,2.9-0.6,5.9-0.6,8.9
					c0.1,3.1,0.5,6.2,1.3,9.3c0.8,3.1,2.1,6.1,3.7,9c1.7,2.8,3.8,5.4,6.3,7.6c5,4.4,11.3,7.4,17.4,10.3c3.1,1.4,6.1,2.9,9.1,4.4
					c2.9,1.5,5.7,3.1,8.4,4.6c7.7,4.4,16,9.6,22.2,14.8c6.9,4.9,13.4,10.8,19.1,16.8c4.6,4.8,8.9,9.9,12.8,15.3c1,1.4,2,2.7,2.9,4.1
					l2.7,4.2l2.5,4.3c0.9,1.4,1.6,2.9,2.4,4.4c6.1,11.9,10.2,24.6,13.4,37.4c0.9,3.6,1.7,7.1,2.5,10.7c0.7,3.6,1.5,7.2,2.2,10.8
					c0.7,3.6,1.4,7.3,2,11c0.7,3.7,1.3,7.5,1.9,11.4c4.6,27.1,7.9,53.5,9.1,80.5C493,637.9,493.1,642.6,493.5,645.5z"/>
				<path class="st1" d="M175.6,696.6l-2.3,0.3c-1.4,0,3.1-0.5,5.1-0.7c2.7-0.4,6-0.9,7.4-1c1.4,0.1,2.5,0.2,2.5,0.6
					c-0.1,0.9-4.5,1.5-10,2.6c-5.9,1.2-13.6,3-17.4,3.7c-16.6,2.5-33.8,5-51.4,7c-8.8,1-17.6,1.8-26.5,2.2
					c-8.9,0.4-17.8,0.5-26.8-0.4c-5-0.6-9.3-1.4-13.9-3.1c-1.2-0.4-2.4-0.8-3.6-1.3c-0.6-0.3-1.2-0.5-1.8-0.8
					c-0.6-0.3-1.2-0.6-1.8-0.9c-2.3-1.3-4.7-2.8-6.7-4.8c-0.5-0.5-1-1-1.5-1.5c-0.5-0.5-1-1.1-1.4-1.6l-1.2-1.7
					c-0.4-0.6-0.7-1.2-1.1-1.8c-1.4-2.4-2.6-5-3.5-7.7c-1.8-5.3-2.4-10.9-2.5-16.3c0-5.4,0.6-10.7,1.4-15.8c1-5.7,2.3-11.3,3.9-16.8
					c1.6-5.2,3.4-10.4,5.3-15.3c11.1-28.6,29.4-59.9,48.4-88.3c3.5-5.2,6.9-10.5,10.5-15.6c4.2-6,8.6-12,12.9-17.9
					c4.3-5.9,8.6-11.7,12.8-17.4c8.4-11.4,16.6-22.1,24.3-31.1c1.3-1.5,2.5-3,3.9-4.5c1.3-1.5,2.7-2.9,4-4.4
					c1.4-1.4,2.8-2.9,4.2-4.3c1.4-1.4,3-2.8,4.4-4.2c6-5.4,12.7-10.4,20-14.5c7.3-4.1,15.1-7.1,23.1-9.5c7.9-2.4,15.8-4.4,23.4-6.9
					c7-1.9,17-6.2,23.2-10.8c1-0.7,2-1.5,3-2.2c0.9-0.8,1.9-1.6,2.8-2.5c1-0.8,1.8-1.8,2.6-2.7c0.9-0.9,1.8-1.8,2.5-2.8
					c0.8-1,1.6-2,2.3-3c0.7-1.1,1.5-2.1,2.1-3.2c1.4-2.2,2.6-4.5,3.8-6.8c4.7-9.3,8.3-19.1,11.3-28.2c1.3-4,2.8-8.9,4-13.8
					c1.2-4.9,2.1-10.7,2.8-14.2c0.5-2.5,1.3-3.1,1.6-6.9c0.4,0.6,1.1-0.3,1.6,0c0.5,0.3,0.9,1.8,0.6,7.3c-0.5,7.2-2.2,14.9-4,21.6
					c-1.4,5.4-3.1,10.9-5,16.4c-1.9,5.5-4.2,11.2-6.8,16.7c-1.3,2.8-2.8,5.6-4.3,8.3c-1.6,2.7-3.3,5.4-5.4,7.9
					c-3.9,5.1-8.8,9.5-14.1,13.1c-5.4,3.6-11.2,6.4-17.2,8.6c-5.9,2.2-12,4-17.9,5.6c-11.8,3.3-23.2,6.4-32.7,11.8
					c-6.9,3.7-13.5,8.6-19.5,13.9c-6,5.3-11.4,11.1-16.2,16.4c-9.7,11.5-19,24-27.8,35.8c-7,9.5-14.1,19-20.9,28.7
					c-6.8,9.7-13.4,19.5-19.8,29.5c-12.7,20-24.6,40.6-34.4,62c-5.4,11.9-10.1,24.1-13.3,36.9c-1.5,6.4-2.7,12.9-3,19.6
					c-0.2,6.7,0.3,13.5,2.8,19.9c1,2.8,2.5,5.4,4.2,7.8c1.7,2.4,3.9,4.4,6.3,6c0.6,0.4,1.2,0.8,1.9,1.2l2,1c1.4,0.6,2.7,1.2,4.1,1.6
					c2.8,1,5.7,1.7,8.7,2.2c5.9,1,12,1.4,18,1.5c6,0.1,12.1-0.1,18.1-0.5c12.1-0.7,24.1-2,36.1-3.4c12-1.4,24-3,36.1-4.6
					C162.1,698.6,170.5,697.6,175.6,696.6z"/>
				<path class="st1" d="M671.6,614l-0.9,0.8c-0.7,0.4,1.2-1.1,2-1.8c1.1-1,2.3-2.2,2.9-2.6c0.7-0.3,1.3-0.5,1.5-0.2
					c0.5,0.7-1.2,2.3-3.2,4.5c-1,1.2-2.2,2.6-3.3,3.9c-1.1,1.3-2.1,2.5-2.8,3.2c-6.4,6-13.3,12-20.3,18
					c-7.1,5.9-14.3,11.7-21.5,17.3c-2,1.6-3.8,2.8-5.8,4.1c-7.6,6.2-17.2,12.7-25.9,18.6c-2.4,1.7-4.9,3.4-7.3,5
					c-2.3,1.6-4.7,3.1-7,4.6c-3.3,2.1-6.8,4.4-10.5,6.6c-3.6,2.3-7.4,4.5-11.3,6.7c-3.8,2.3-7.8,4.4-11.8,6.7c-2,1.1-4,2.1-6,3.2
					c-2,1-4,2.1-6,3.1c-1.5,0.7-2.9,1.5-4.4,2.2c-1.5,0.8-2.9,1.5-4.4,2.1c-1.8,0.8-3.5,1.6-5.3,2.3c-1.8,0.8-3.6,1.5-5.4,2.2
					c-0.9,0.4-1.8,0.7-2.7,1.1c-0.9,0.3-1.8,0.6-2.7,1c-1.8,0.6-3.6,1.3-5.4,1.8c-7.2,2.2-14.4,3.7-21.1,3.6c-4.4-0.1-9-1-13-2.6
					c-4.1-1.5-8.1-3.4-11.8-5.8c-3.7-2.4-7.2-5.2-10.4-8.2c-3.2-3.1-6.1-6.4-8.8-9.9c-2.2-3.3-5.6-8.3-7.6-12.1
					c-5.3-9.6-9.8-21-12-31c-0.5-2.2-0.9-4.9-1.3-7.6c-0.4-2.6-1-5.7-1-7.6c0-1.3,0.7-1.8,0.4-3.8c1,0.4,1.9-2.3,3.3,3
					c1,3.5,1.5,7.4,2.2,10.8c2.5,10.9,6.7,23.3,13.1,34.5c6.3,11.3,14.9,21.4,24.4,27.6c3.4,2.2,7.2,4.1,11,5.5
					c3.9,1.5,7.7,2.3,11.3,2.6c7.6,0,15.4-1.9,22.6-4.2c11.6-3.9,22.7-9.2,33.6-15l4.1-2.2c1.4-0.7,2.7-1.5,4-2.3
					c2.7-1.5,5.4-3,8-4.6c5.3-3.2,10.6-6.3,15.8-9.6c11.6-7.2,22.9-14.6,35-23.1c21.1-14.8,40.6-30.4,59.8-47.1
					C666.4,618.8,669.8,616,671.6,614z"/>
				<path class="st1" d="M635.6,495.4c-0.2,0.2-0.3,0.3-0.5,0.5c-0.5,0.2,0.7-0.7,1.1-1.1c0.6-0.6,1.3-1.4,1.7-1.6
					c0.5-0.1,0.9-0.2,1.2,0.1c0.6,0.7-0.5,1.6-1.5,3.1c-1.1,1.6-2.3,3.7-3.1,4.7c-7.1,7.6-15.1,15.6-22.7,23.4c-1.1,1.1-2,2-3.1,2.8
					c-3.8,4.4-8.9,9.1-13.4,13.5c-1.2,1.2-2.4,2.5-3.6,3.8c-1.2,1.2-2.4,2.4-3.5,3.5c-6.6,6.7-14.6,14.6-22,22.1
					c-1.4,1.4-2.7,2.9-4.1,4.2c-6.6,6.3-13.1,13.1-18.3,18.3c-6.9,6.9-13.8,14.2-21,21.6c-1.8,1.5-4.2,4-6,5.8
					c-4.6,4.5-9.6,9.5-14.5,13.2c-1.1,0.8-2.5,1.7-3.8,2.6c-1.3,0.9-2.7,2.1-3.8,2.6c-0.8,0.3-1.4,0-2.3,0.8
					c-0.4-0.9-2.5-0.8-0.3-3.4c1.4-1.7,3.5-3.1,5.1-4.4c10.5-8.7,22.8-21.4,32.5-31.3c3.5-3.5,7.1-7.6,10.6-10.5
					c3.2-3.5,6.7-6.9,9.9-10.1c10.5-10.4,20.8-21.1,31.2-31.5c5.8-5.8,11.6-11.5,17.9-17.6c11.1-10.8,21.7-21.3,32.7-31.7
					C632.6,498.4,634.6,496.7,635.6,495.4z"/>
				<path class="st1" d="M376,405.8l0,0.6c-0.2,0.4,0-0.9,0.1-1.4c0-0.8,0-1.7,0.2-2.1c0.3-0.4,0.6-0.7,0.9-0.6
					c0.9,0.1,0.8,1.3,1,2.9c0.1,0.9,0.4,1.9,0.5,2.8c0.1,0.9,0.3,1.8,0.3,2.4c-0.3,4.8-1,9.8-2.5,14.8c-1.4,5-3.6,9.8-6.6,14.2
					c-0.4,0.6-0.9,1.2-1.3,1.7c-0.4,0.5-0.9,1-1.5,1.4c-0.9,1.1-1.9,2.3-3.1,3.3c-1.2,1.1-2.5,1.9-3.9,2.8c-2.8,1.6-5.8,2.8-8.6,3.7
					c-0.8,0.2-1.6,0.5-2.4,0.7c-0.8,0.2-1.6,0.4-2.5,0.6c-0.8,0.2-1.6,0.3-2.4,0.4c-0.8,0.1-1.6,0.2-2.3,0.3
					c-9,0.9-19.4-0.8-28.7-3.7c-1.7-0.5-3.4-1-5.1-1.6c-7.8-3.1-15.5-6.8-21.3-10.2c-7.6-4.5-15.4-9.5-22.7-15.2
					c-1.5-1.5-4-3.4-5.7-5c-2.2-1.9-4.4-4-6.5-6.2c-2.1-2.2-4.1-4.4-5.7-6.6c-0.7-1-1.5-2.3-2.3-3.5c-0.8-1.2-1.8-2.5-2.2-3.5
					c-0.3-0.7,0.2-1.4-0.5-2.2c0.9-0.4,1-2.3,3.3-0.4c1.5,1.3,2.5,3.2,3.7,4.7c3.7,4.8,8.5,9.8,13.7,14.3
					c5.2,4.6,10.8,8.8,15.8,12.3c3.6,2.5,7.8,4.8,11,7.2c3.7,1.8,7.5,4,11.1,5.7c5.9,2.8,12,5.1,18.3,6.7c6.3,1.6,12.7,2.6,19.1,2.6
					c3.6,0,7.1-0.3,10.6-1.1c3.5-0.8,6.9-2.1,10.1-4c5.7-3.4,9.6-9,12.3-15c2.7-6.1,4.2-12.6,5.1-19.3
					C375.8,409.6,376.2,407.2,376,405.8z"/>
				<path class="st1" d="M292.3,568.3c-0.2,0.1-0.4,0.1-0.7,0.2c-0.5-0.1,0.9-0.3,1.5-0.4c0.8-0.2,1.7-0.5,2.1-0.5
					c0.5,0.2,0.8,0.3,0.9,0.7c0.2,0.9-1.1,1.2-2.6,1.9c-1.6,0.8-3.7,2-4.8,2.5c-9.4,2.9-19.7,5.7-29.6,8.5c-1.4,0.4-2.6,0.7-3.9,0.8
					c-5.2,1.8-11.6,3.2-17.3,4.8c-1.6,0.4-3.2,1-4.8,1.4c-1.5,0.4-3,0.8-4.5,1.2c-8.6,2.4-18.8,5.1-28.5,7.8
					c-1.8,0.5-3.5,1.1-5.3,1.5c-8.4,2.1-16.9,4.5-23.6,6.3c-8.9,2.4-18,5.1-27.3,7.8c-2.2,0.3-5.3,1.3-7.6,1.9
					c-5.9,1.5-12.4,3.3-18.1,4c-1.3,0.2-2.8,0.2-4.3,0.3c-1.5,0.2-3.2,0.5-4.3,0.3c-0.8-0.1-1.2-0.8-2.3-0.5c0.1-1-1.7-2,1.3-3.1
					c1.9-0.7,4.3-0.8,6.3-1.2c12.7-2.1,28.8-6.8,41.4-10.3c4.5-1.2,9.4-2.9,13.6-3.6c4.2-1.4,8.7-2.5,12.9-3.6
					c13.5-3.6,27-7.5,40.5-11.1c7.5-2,14.9-3.9,23-6c14.2-3.6,27.8-7.2,41.8-10.5C288.4,569.3,290.9,568.9,292.3,568.3z"/>
				<path class="st1" d="M203.7,505.6c-0.1,0.1-0.2,0.3-0.3,0.4c-0.3,0.1,0.4-0.5,0.6-0.9c0.3-0.5,0.7-1.1,0.9-1.3
					c0.4-0.1,0.7-0.1,1,0.1c0.7,0.5,0.1,1.3-0.3,2.4c-0.4,1.2-0.8,2.9-1.1,3.7c-3.6,6-7.9,12.2-11.9,18.3c-0.6,0.9-1.1,1.5-1.8,2.2
					c-1.9,3.5-4.7,7.1-7.1,10.5c-0.7,1-1.3,2-1.9,3c-0.6,0.9-1.3,1.8-1.9,2.8c-3.5,5.3-7.7,11.4-11.7,17.3c-0.7,1.1-1.4,2.2-2.1,3.3
					c-3.6,5-7,10.2-9.8,14.2c-3.7,5.4-7.3,11.1-11,16.8c-1.1,1.1-2.3,3.1-3.3,4.5c-2.5,3.5-5.2,7.4-8.1,10.3c-0.7,0.6-1.6,1.3-2.4,2
					c-0.8,0.7-1.6,1.7-2.4,2c-0.5,0.3-1.2,0-1.8,0.6c-0.6-0.7-2.4-0.7-1.4-2.7c0.7-1.3,2-2.4,2.9-3.4c6.2-6.8,12.6-16.7,17.7-24.4
					c1.9-2.8,3.6-5.9,5.7-8.2c1.6-2.7,3.5-5.4,5.2-7.9c5.6-8.1,11-16.5,16.6-24.6c3.1-4.5,6.2-8.9,9.6-13.8
					c6-8.4,11.7-16.6,17.8-24.7C202.1,508,203.3,506.6,203.7,505.6z"/>
				<path class="st1" d="M47.6,802.8c0.1-0.1,0.1-0.2,0.2-0.3c0.3-0.1-0.2,0.5-0.4,0.8c-0.2,0.4-0.4,0.9-0.6,1.1
					c-0.3,0.1-0.7,0.1-1-0.1c-0.8-0.4-0.4-1.1-0.2-2c0.1-1,0.2-2.5,0.3-3.1c2.2-5.1,4.9-10.4,7.4-15.5c0.4-0.7,0.7-1.3,1.2-1.9
					c1-2.9,3-6,4.5-8.9c0.4-0.8,0.8-1.7,1.2-2.5c0.4-0.8,0.8-1.6,1.2-2.3c2.2-4.5,5-9.7,7.5-14.7c0.5-0.9,0.8-1.9,1.3-2.8
					c2.4-4.2,4.5-8.7,6.3-12.1c2.4-4.6,4.6-9.4,6.9-14.3c0.8-1,1.5-2.6,2.2-3.8c1.6-3,3.4-6.3,5.5-8.8c0.5-0.5,1.2-1.1,1.8-1.8
					c0.6-0.6,1.2-1.4,1.8-1.8c0.4-0.2,1.2,0,1.5-0.5c0.7,0.6,2.4,0.5,1.8,2.2c-0.3,1.1-1.4,2-2.1,2.9c-4.5,5.8-8.4,14.2-11.7,20.8
					c-1.2,2.3-2.2,5-3.7,6.9c-0.9,2.3-2.2,4.6-3.3,6.7c-3.6,6.9-7,14-10.6,20.9c-2,3.8-4,7.6-6.3,11.7c-3.9,7.2-7.6,14.1-11.7,21
					C48.6,800.8,47.8,801.9,47.6,802.8z"/>
				<path class="st1" d="M114,799.1c-0.1,0-0.2,0-0.2,0c-0.2-0.2,0.3,0,0.5,0c0.3,0,0.6-0.1,0.8,0c0.2,0.3,0.3,0.5,0.3,0.9
					c0,0.9-0.4,0.8-1,1.2c-0.6,0.4-1.4,1.1-1.8,1.3c-3.5,0.6-7.2,0.8-10.8,1.2c-0.5,0-0.9,0-1.4-0.1c-1.9,0.5-4.2,0.3-6.3,0.5
					c-0.6,0-1.2,0.2-1.7,0.2c-0.6,0-1.1,0.1-1.7,0.1c-3.1,0.3-6.9,0.5-10.4,0.7c-0.6,0-1.3,0.2-1.9,0.2c-3.1,0-6.2,0.4-8.6,0.5
					c-3.2,0.2-6.6,0.7-10,1.1c-0.8-0.2-1.9,0-2.8,0c-2.1,0-4.5,0.2-6.6-0.5c-0.5-0.2-1-0.5-1.6-0.7c-0.5-0.2-1.2-0.3-1.6-0.7
					c-0.3-0.3-0.4-1-0.8-1.1c0-0.9-0.6-2.3,0.5-2.7c0.7-0.3,1.6,0.2,2.3,0.4c4.6,1,10.5,0.3,15.1-0.1c1.7-0.1,3.4-0.6,5-0.2
					c1.6-0.3,3.2-0.4,4.7-0.4c4.9-0.2,9.9-0.8,14.8-1.1c2.7-0.2,5.4-0.3,8.4-0.3c5.2-0.1,10.1-0.4,15.2-0.2
					C112.5,799.2,113.4,799.4,114,799.1z"/>
				<path class="st1" d="M296,569.6c0,0.1,0,0.2,0.1,0.4c-0.2,0.3-0.1-0.5-0.1-0.8c-0.1-0.4-0.2-0.9-0.1-1.2
					c0.2-0.3,0.5-0.5,0.8-0.5c0.9-0.1,0.9,0.6,1.4,1.4c0.5,0.9,1.3,2,1.6,2.6c1.2,5.2,2.2,10.8,3.2,16.3c0.1,0.8,0.2,1.4,0.1,2.2
					c0.9,2.9,1.1,6.4,1.6,9.5c0.1,0.9,0.4,1.7,0.5,2.6c0.1,0.8,0.3,1.7,0.4,2.5c0.9,4.7,1.7,10.3,2.6,15.7c0.2,1,0.5,1.9,0.6,2.9
					c0.6,4.6,1.5,9.3,2.1,13c0.8,4.9,1.9,9.9,2.9,15c0,1.2,0.3,2.9,0.5,4.2c0.4,3.2,1,6.8,0.7,10c-0.1,0.7-0.3,1.6-0.4,2.4
					c-0.1,0.8-0.1,1.8-0.4,2.4c-0.2,0.4-1,0.7-0.9,1.3c-0.9,0-2.2,1-2.8-0.6c-0.4-1.1-0.1-2.4-0.1-3.5c0.2-7-1.7-15.8-2.9-22.8
					c-0.4-2.5-1.2-5.2-1.1-7.5c-0.6-2.3-0.9-4.8-1.3-7.1c-1.1-7.4-2.6-14.8-3.8-22.2c-0.7-4.1-1.3-8.2-1.9-12.6
					c-1.1-7.8-2.2-15.3-3-23C296.4,571.7,296.4,570.3,296,569.6z"/>
				<g id="Apron">
					<path d="M421.2,417.1c-6.3-3.6-12.5-7.2-18.8-10.8c-11.5,32.7-22.9,65.4-34.4,98c-31.1,1.9-85.2,5.2-115.7,7.3l-20.3-125.6
						l-22.5,10.7l20.1,116.8c-12.7,27.2-25.4,54.5-38,81.7c34.8-9.3,69.6-18.5,104.3-27.8c2.1,5.4,4.2,10.7,6.3,16.1
						c26-12.5,51.9-24.9,77.9-37.4c5.8-4,11.7-8.1,17.5-12.1c-1.8-9.8-3.7-19.6-5.5-29.4L421.2,417.1z"/>
					<path d="M408.6,580.3c16.4,95.6,32.9,191.1,49.3,286.7c-122.5-8.2-244.9-16.5-367.4-24.7c19-47.1,38.1-94.2,57.1-141.4
						c55.4-9.9,110.8-19.8,166.1-29.7c-1.8-15.9-3.6-31.9-5.4-47.8c18.1-1.6,29.5-7.6,36.3-12.5c18.5-13.2,21.6-30.1,37.9-34.6
						C392.7,573.7,402.4,577.2,408.6,580.3z"/>
				</g>
				<path class="st1" d="M175.9,474.9C175.9,474.9,175.9,474.9,175.9,474.9c0,0.3,0,0-0.1-0.1c-0.1-0.1-0.3-0.2-0.2-0.3
					c0.1-0.2,0.3-0.5,0.5-0.7c0.6-0.6,0.8-0.4,1.2-0.4c0.5,0,1.2-0.1,1.5-0.1c1.5,1.1,2.9,2.5,4.3,3.8c0.2,0.2,0.3,0.4,0.4,0.7
					c1,0.5,1.6,1.6,2.4,2.4c0.2,0.2,0.5,0.4,0.7,0.6c0.2,0.2,0.4,0.4,0.6,0.6c1.2,1.2,2.6,2.6,3.9,4c0.2,0.2,0.6,0.4,0.8,0.7
					c1,1.3,2.2,2.4,3.1,3.3c1.2,1.3,2.6,2.4,4,3.6c0.1,0.5,0.6,0.9,0.9,1.2c0.7,0.9,1.6,1.8,1.8,3.1c0,0.3,0,0.8,0,1.2
					c0,0.4,0.1,0.7,0,1.2c-0.1,0.3-0.6,0.9-0.5,1.1c-0.7,0.6-1.5,1.8-2.1,1.6c-0.4-0.1-0.4-0.8-0.5-1.2c-0.7-2.7-3.2-4.7-4.9-6.4
					c-0.6-0.6-1.5-1.1-1.8-2c-0.8-0.4-1.3-1.1-1.8-1.7c-1.8-1.9-3.8-3.7-5.6-5.6c-1-1.1-1.9-2.1-2.9-3.4c-1.7-2.1-3.5-4.1-5.1-6.4
					C176.4,475.4,176.2,474.9,175.9,474.9z"/>
				<g id="Hands">
					<path class="st1" d="M729.2,550.4l-0.7-0.2c-0.4-0.3,0.9,0.2,1.5,0.4c0.8,0.2,1.7,0.4,2.1,0.6c0.3,0.4,0.6,0.7,0.5,1
						c-0.3,0.8-1.5,0.5-3.2,0.4c-1.8-0.1-4.2,0-5.3-0.1c-4.8-1-9.8-2-14.8-2.8c-1.2-0.2-2.5-0.4-3.7-0.6c-1.3-0.2-2.4-0.3-4-0.5
						c-1.5-0.3-3.1-0.7-4.7-1.6c-0.8-0.4-1.6-1-2.3-1.7c-0.7-0.7-1.3-1.6-1.8-2.5c-0.5-1-0.7-1.9-0.8-2.9c-0.1-1-0.1-2,0.2-3
						c0.1-0.6,0.2-1.2,0.5-1.8c0.3-0.6,0.7-1.3,1.2-1.7c1-1,2.1-1.6,3.1-1.9c2-0.7,3.8-0.7,5.5-0.7c3.4,0.1,6.6,0.7,9.6,1.2
						c1.7,0.3,3.3,0.6,5,0.9c1.6,0.4,3.1,0.7,4.6,1c4.4,1,9.1,2.1,14,3.5c2.5,0.7,5,1.5,7.6,2.6c1.3,0.6,2.7,1.3,4.1,2.6
						c0.7,0.7,1.3,1.5,1.7,2.5c0.4,0.9,0.6,1.8,0.7,2.7c0.3,2.7-0.4,5.1-1.3,7c-0.3,0.6-0.5,1.1-0.8,1.6l-0.4,0.8
						c-0.1,0.2-0.1,0.2-0.3,0.5l-0.3,0.4c-0.7,1-1.4,1.9-2.1,2.8c-1.5,1.8-3.1,3.4-4.7,4.9c-1.7,1.5-3.4,2.8-5.2,4
						c-0.9,0.6-1.7,1.1-2.8,1.6c-1,0.5-2,0.8-3,1.1c-2.7,0.7-5.3,0.8-7.8,0.7c-2.5-0.1-5-0.4-7.4-0.8c-4.8-0.7-9.4-1.6-14.1-2.2
						c-2.1-0.5-5.2-0.8-7.5-1c-5.8-0.5-12.2-0.2-17.8-0.1c-1.2,0-2.8-0.1-4.3,0c-1.5,0.1-3.2,0.4-4.3,0.3c-0.8-0.1-1.2-0.8-2.3-0.5
						c0-1-1.8-1.9,1.3-3.1c2-0.8,4.5-0.9,6.5-1c6.6-0.7,14.2-0.9,21.7-0.3c7.5,0.6,14.9,2.1,21.3,3.2c4.6,0.8,9.5,1.1,13.3,0.5
						c1-0.3,1.9-0.7,2.7-1.2c0.9-0.5,1.8-1.1,2.7-1.7c1.8-1.2,3.4-2.5,4.9-4c1.2-1.2,2.3-2.4,3.4-3.7c0.5-0.7,1-1.3,1.5-2l0.3-0.5
						c0,0,0.1-0.1,0.1-0.2l0.1-0.3l0.6-1.1c0.7-1.5,1.3-3,1.3-4.4c0-0.7-0.1-1.4-0.3-1.9c-0.2-0.6-0.5-1-1-1.5
						c-1-0.9-2.6-1.6-4.1-2.1c-1.6-0.6-3.2-1.1-4.9-1.6c-3.3-0.9-6.7-1.8-10.1-2.6c-3.8-0.9-7.5-1.9-11.2-2.7
						c-3.8-0.8-7.7-1.6-11.6-1.6c-1.7,0-3.5,0.2-4.6,0.9c-0.5,0.4-0.8,0.8-1,1.4c-0.2,0.6-0.1,1.4,0,2.1c0.3,1.5,1.2,2.7,2.6,3.4
						c1.4,0.8,3,1.1,4.8,1.4c7.1,1,14,2.8,21,4.6C725.2,549.5,727.6,550.3,729.2,550.4z"/>
					<path class="st1" d="M736.5,538.2L736,538c-0.2-0.3,0.6,0.2,0.9,0.4c0.5,0.2,1.1,0.4,1.3,0.7c0.1,0.3,0.2,0.7,0,1
						c-0.4,0.8-1.2,0.4-2.3,0.2c-1.2-0.2-2.8-0.2-3.6-0.4c-6-2.4-12.3-5.2-18.5-7.7c-0.9-0.4-1.6-0.7-2.3-1.2
						c-1.7-0.5-3.5-1.2-5.4-2c-1.8-0.8-3.8-1.6-5.6-2.5c-1-0.5-2.2-1-3.2-1.7c-1-0.6-2-1.4-3-2.4c-0.7-0.7-1.4-1.6-1.9-2.8
						c-0.5-1.2-0.8-2.7-0.5-4.1c0.3-1.4,0.9-2.5,1.6-3.5c0.7-0.9,1.7-1.9,2.8-2.5c1.1-0.6,2.3-1,3.4-1.1c1.1-0.2,2.1-0.1,3.1-0.1
						c2,0.1,3.7,0.5,5.4,1c1.2,0.3,2.5,0.6,3.7,1c2.8,1,5.5,2.1,8,3.1c2.5,1,4.9,2,7,2.8c2.8,1.1,5.7,2.3,8.6,3.5
						c2.9,1.3,5.9,2.6,8.9,4.4c1.2,1,3.2,2.5,4.4,3.9c1.6,1.8,3,4.2,3.4,6.7c0.5,2.5,0.3,4.9-0.5,6.9c-0.3,0.9-0.9,1.9-1.5,2.8
						c-0.5,0.9-1.1,2-1.8,2.4c-0.5,0.3-1.2,0.1-1.6,0.8c-0.8-0.6-2.3-0.5-1.9-2.2c0.3-1.2,1.2-2.2,1.6-3.3c0.7-1.7,1.1-3.6,0.9-5.6
						c-0.2-2-1.1-3.9-2.6-5.4c-1.5-1.6-3.4-2.9-5.4-4c-2-1.1-4-2.1-5.9-2.9c-2.8-1.2-6-2.2-8.4-3.7c-2.8-0.9-5.5-2.1-8.2-3.2
						c-4.2-1.7-8.5-3.3-12.7-4.1c-2.1-0.4-4.3-0.5-5.8,0.3l-0.5,0.3l-0.5,0.4c-0.3,0.3-0.6,0.6-0.8,1c-0.4,0.7-0.6,1.4-0.4,2
						c0.2,0.7,0.8,1.5,1.6,2.3c0.8,0.7,1.8,1.4,2.9,2c2.1,1.2,4.5,2.2,7,3.3c8.8,3.8,17.2,7.6,25.5,11.9
						C734.1,537.1,735.5,538,736.5,538.2z"/>
					<path class="st1" d="M741,520l-0.5-0.1c-0.3-0.2,0.6,0.1,1,0.1c0.5,0.1,1.2,0.1,1.4,0.2c0.2,0.3,0.4,0.6,0.4,0.9
						c-0.1,0.9-1,0.7-2.1,0.9c-1.2,0.2-2.9,0.6-3.7,0.6c-6.7-0.7-13.9-2.8-20.3-5.5c-0.9-0.4-1.7-0.7-2.4-1.3
						c-3.6-1.2-7.4-3.6-10.9-6c-1-0.7-2-1.4-2.9-2.3c-0.9-0.9-1.8-1.9-2.5-3.3c-0.1-0.3-0.3-0.5-0.4-0.8c-0.1-0.3-0.2-0.6-0.3-1
						c-0.1-0.4-0.1-0.7-0.1-1.1c0-0.4,0-0.8,0.1-1.2c0.2-1,0.5-1.7,0.9-2.3c0.4-0.6,0.8-1.1,1.2-1.5c1.7-1.6,3.8-2.5,5.9-2.9
						c2.1-0.4,4.1-0.4,5.9-0.2c1.9,0.2,3.7,0.6,5.4,1c1.3,0.3,2.5,0.6,3.7,1.1c5.6,2.1,11,4.8,15.1,7.1c2.7,1.5,5.4,3.2,8.1,4.8
						c2.7,1.6,5.5,3.4,8.3,5.5c1.1,1.2,2.9,2.8,4,4.3c1.4,1.9,2.7,4.4,2.9,7.2c0.2,2.7-0.7,5.4-2.1,7.1c-0.6,0.8-1.6,1.5-2.4,2.2
						c-0.8,0.7-1.8,1.4-2.6,1.6c-0.6,0.1-1.2-0.3-1.8,0.1c-0.5-0.8-2-1.3-0.9-2.8c0.7-1,1.9-1.6,2.7-2.4c1.2-1.3,2.1-2.9,2.2-4.8
						c0.1-0.9-0.1-1.9-0.4-2.8c-0.4-0.9-0.9-1.9-1.6-2.7c-1.3-1.8-3.2-3.3-5-4.6c-1.9-1.4-3.8-2.6-5.6-3.7c-2.6-1.7-5.6-3.2-7.8-4.9
						c-2.6-1.2-5.3-2.7-7.8-3.9c-4.1-1.9-8.4-3.6-12.7-4.3c-2.2-0.4-4.3-0.5-6.3-0.2c-1,0.2-1.9,0.5-2.7,0.9
						c-0.4,0.3-0.8,0.5-1.1,0.8c-0.3,0.3-0.6,0.6-0.7,0.9c-0.1,0.2-0.1,0.2-0.1,0.4c0,0.1,0,0.3,0,0.5c0.1,0.3,0.3,0.8,0.6,1.2
						c0.6,0.9,1.4,1.7,2.3,2.5c1.9,1.6,4.1,3,6.4,4.3c4.1,2.3,8.4,4.3,12.8,6c4.4,1.6,8.9,2.9,13.5,3.9
						C738.4,519.6,740,520.1,741,520z"/>
					<path class="st1" d="M756.8,519.9c0.1-0.1,0.2-0.1,0.4-0.2c0.3,0.1-0.5,0.3-0.8,0.3c-0.4,0.1-1,0.3-1.2,0.2
						c-0.3-0.2-0.5-0.5-0.5-0.8c-0.1-0.9,0.6-0.9,1.1-1.4c0.3-0.3,0.5-0.7,0.5-1c0-0.3,0-0.5-0.1-0.7c0.1-0.2,0.1-0.4,0.2-0.7
						c0-0.3,0-0.7-0.1-1.2c-0.1-1-0.5-2.1-0.9-3.2c-0.9-2.3-2.2-4.7-3.6-6.9c-0.4-0.6-0.7-1.2-0.9-1.9c-1.9-2.2-3.5-5.3-5.4-7.8
						c-0.5-0.7-1.1-1.4-1.7-2.1c-0.5-0.7-1-1.3-1.5-2c-1.5-1.9-3.1-3.9-4.8-6c-1.7-2.1-3.4-4.2-5.2-6c-0.7-0.7-1.4-1.2-2-1.8
						c-0.8-0.7-1.5-1.3-2.3-1.8c-0.7-0.4-1.4-0.7-1.9-0.7c-0.5,0-0.9,0.1-1.4,0.4c-0.5,0.3-1,0.7-1.3,1.2c-0.4,0.5-0.6,1.1-0.6,1.8
						c0,0.8,0.2,1.8,0.5,2.7c0.7,2,1.9,4.1,3.3,6.1c0.4,1.1,1.4,2.4,2.1,3.4c1.8,2.6,4.1,5.3,5.6,8c0.3,0.6,0.6,1.5,1,2.2
						c0.4,0.7,0.9,1.5,1.1,2.2c0.1,0.5-0.4,1.1,0,1.6c-0.8,0.6-1.1,2.1-2.7,1.1c-1-0.7-1.5-1.9-2.1-2.9c-2-3-4.5-6.2-6.9-9.6
						c-2.4-3.4-4.7-6.9-6-10.6c-0.4-1.3-0.8-2.8-0.8-4.4c0-1.6,0.6-3.3,1.6-4.4c0.7-1.2,1.8-2.3,3.2-3c1.4-0.7,3.1-0.9,4.6-0.6
						c2.4,0.5,4.1,1.8,5.7,3.1c1.6,1.3,2.9,2.7,4.3,4.1c2.7,2.9,5,5.8,7.4,8.8c2.6,3.4,5,6.7,7.5,10.6c2.1,3.4,4.2,6.8,5.8,10.4
						c0.8,1.8,1.5,3.7,1.9,5.7c0.2,1,0.3,2,0.2,3.1c-0.1,1-0.4,2.1-1.1,3c-0.1,0.1-0.5,0.4-0.9,0.7
						C757.6,519.4,757.1,519.6,756.8,519.9z"/>
					<path class="st1" d="M691.1,504.8l0.4-0.3c0.4,0-0.5,0.4-0.9,0.6c-0.5,0.3-1,0.8-1.3,0.9c-0.4,0-0.7-0.1-0.9-0.4
						c-0.5-0.7,0.3-1.2,1-2.2c0.8-1,1.7-2.5,2.2-3.1c5.2-4.5,10.7-9.4,15.4-14.6c0.7-0.7,1.3-1.3,2-1.9c1.1-1.5,2.4-3.1,3.6-4.6
						c0.6-0.8,1.1-1.6,1.5-2.3c0.4-0.7,0.7-1.4,0.7-1.9c0.1-0.5-0.1-0.7-0.3-1c-0.2-0.3-0.8-0.7-1.4-1.1c-0.5-0.2-1.1-0.4-1.7-0.6
						c-0.3-0.1-0.6-0.1-0.8-0.1c-0.1,0-0.3,0-0.4-0.1l-0.4,0c-1.1,0-2.2,0.4-3.4,1.1c-1.3,0.7-2.6,1.7-3.9,2.8
						c-1.3,1.1-2.7,2.3-4,3.4c-1,0.9-1.9,1.8-2.9,2.6c-4.8,3.9-10,7.8-14.4,10.4c-2.9,1.7-6,3.4-8.9,4.9c-1.5,0.8-2.9,1.5-4.2,2.3
						c-1.3,0.8-2.5,1.7-3.6,2.7c-1.2,0.7-2.7,2.3-3.8,3.4c-2.8,2.9-5.3,6.6-7.9,9.6c-0.6,0.7-1.4,1.4-2,2.3
						c-0.7,0.8-1.3,1.9-1.9,2.4c-0.5,0.4-1.2,0.2-1.6,1c-0.8-0.5-2.5-0.1-1.9-2.4c0.4-1.5,1.6-2.9,2.4-4.1c2.7-4,5.9-8.4,9.6-12.3
						c1.9-2,3.9-3.8,6.1-5.4c2.2-1.6,4.5-2.8,6.6-3.8c3-1.5,6-3.3,8.7-4.5c2.5-1.8,5.2-3.5,7.6-5.3c3.9-2.8,7.6-6.1,11.3-9.4
						c1.9-1.6,3.8-3.3,6.1-4.7c1.1-0.7,2.4-1.3,3.8-1.7c1.4-0.3,2.9-0.4,4.4-0.1c1.6,0.3,3,0.8,4.4,1.7c1.3,0.9,2.7,2.2,3.2,4.1
						c0.2,0.9,0.2,1.9,0,2.7c-0.2,0.8-0.5,1.6-0.8,2.3c-0.7,1.4-1.6,2.7-2.5,3.9c-1.6,2.1-3.4,4-5.2,5.8c-1.8,1.9-3.6,3.6-5.5,5.4
						c-3.7,3.4-7.7,6.6-11.8,9.6C693.4,503.1,691.8,504,691.1,504.8z"/>
					<path class="st1" d="M310,623.7c0.3,0,0.6,0,0.8,0c0.5,0.2-1.1,0-1.9,0c-1,0-2.2,0-2.7-0.2c-0.5-0.3-0.9-0.6-0.8-0.9
						c0.2-0.9,1.7-0.7,3.7-1c2.1-0.3,4.8-1.1,6.1-1.4c5.7-0.7,11.5-2.2,16.7-4.8c5.2-2.7,10.2-6.6,14.8-10.5c1.3-1.1,2.4-2,3.8-3
						c4.7-4.7,10.4-10,14.8-15.5c0.6-0.8,1.2-1.5,1.7-2.3l0.8-1.2c0.3-0.4,0.6-0.9,1-1.3c1.3-1.7,2.9-3.3,4.7-4.6
						c2.5-1.9,5.7-3.4,9.1-3.9c1.7-0.3,3.4-0.4,5.1-0.3c0.9,0,1.7,0.1,2.5,0.2c0.8,0.1,1.6,0.2,2.4,0.3c6.3,1,12.5,2.8,18.4,4.5
						c2.2,0.7,4.4,1.2,6.5,1.9c5,1.6,10.1,3.2,14.8,4.1c2.3,0.4,4.6,0.6,6.3,0.3c0.9-0.1,1.5-0.4,1.9-0.7c0.4-0.3,0.7-0.7,1-1.3
						c0.2-0.4,0.3-0.8,0.3-1.1c0-0.2,0-0.4,0-0.4c0,0,0,0,0,0c0,0,0,0,0,0c0,0-0.1-0.1-0.1-0.1c-0.1-0.1,0-0.1-0.1-0.2
						c-0.2-0.2-0.3-0.3-0.5-0.5l-0.6-0.5c-0.2-0.2-0.5-0.3-0.8-0.5c-2.1-1.4-4.6-2.6-7.2-3.8c-5.2-2.3-10.6-4.4-16.1-6.3
						c-2.4-1.1-6.2-2.5-8.9-3.4c-1.7-0.6-3.5-1.3-5.3-1.9c-1.8-0.6-3.4-1.2-5.1-1.5c-3.4-0.8-6.9-0.9-10.2-0.7
						c-1.5,0.1-3.3,0.1-5,0.5c-1.8,0.3-3.7,1.1-5,1.3c-0.9,0.2-1.5-0.4-2.8,0.3c-0.1-0.5-0.7-0.8-0.8-1.3c-0.2-0.5,0.1-1.2,1.8-2.3
						c2.4-1.5,5.4-2.2,8-2.6c4.2-0.8,8.8-1,13.4-0.2c2.3,0.4,4.6,1.1,6.8,1.9c2.1,0.8,4.3,1.5,6.4,2.3c8.6,3.1,17.2,6.2,24.6,9.6
						c2.6,1.3,5.4,2.5,8.1,4.2l1,0.7c0.3,0.2,0.6,0.5,1,0.8c0.6,0.5,1.2,1.2,1.8,2c0.2,0.5,0.5,1,0.6,1.5c0.1,0.5,0.1,1,0.1,1.5
						c-0.1,0.9-0.3,1.7-0.6,2.4c-0.3,0.8-0.6,1.6-1.2,2.3c-0.3,0.3-0.6,0.7-0.9,1c-0.3,0.3-0.7,0.6-1.1,0.8
						c-1.5,0.9-3.2,1.3-4.7,1.4c-1.5,0.1-3,0-4.4-0.2c-1.4-0.2-2.8-0.4-4.1-0.7c-4.3-0.9-8.4-2.2-12.5-3.4
						c-4.1-1.2-8.2-2.5-12.3-3.6c-4.1-1.1-8.2-2.1-12.4-2.8c-1-0.2-2.1-0.3-3.1-0.4c-1-0.1-2-0.2-3-0.2c-2,0-3.9,0.3-5.7,0.9
						c-2,0.7-3.9,1.8-5.5,3.3c-0.8,0.7-1.6,1.5-2.3,2.4c-0.4,0.4-0.7,0.9-1,1.3l-1.1,1.5c-2.9,3.9-6.3,7.6-9.9,11.2
						c-6.4,6.3-13.1,12.1-20.5,17.1c-3.7,2.5-7.6,4.6-11.9,6c-4.2,1.4-8.6,2.2-13,2.4c-0.3,0-1.3-0.1-2.4,0
						C312.1,623.6,310.9,623.6,310,623.7z"/>
					<path class="st1" d="M446.7,581.7l0.3,0.1c0.1,0.3-0.5-0.2-0.8-0.3c-0.4-0.2-0.9-0.4-1.1-0.6c-0.1-0.3-0.1-0.7,0.1-1
						c0.5-0.8,1-0.4,1.9-0.3c0.9,0.1,2.2-0.2,2.7-0.2c2.2,0.5,4.5,0.4,6-0.3c0.4-0.2,0.7-0.4,0.9-0.6c0.1-0.1,0.2-0.2,0.3-0.3
						c0.1-0.1,0.2-0.3,0.3-0.4c0.3-0.7,0.4-1.2,0.2-1.7c0-0.1-0.1-0.3-0.1-0.4c-0.1-0.2-0.1-0.3-0.1-0.6c-0.6-0.6-1.5-1.4-2.7-2.2
						c-1.1-0.8-2.5-1.6-3.9-2.2c-0.8-0.3-1.6-0.6-2.4-0.9c-0.8-0.3-1.6-0.6-2.3-0.9c-4.5-1.8-9.8-4-14.8-6c-0.9-0.4-1.9-0.6-2.8-1
						c-2.1-0.9-4.3-1.8-6.4-2.6c-2.1-0.8-4.1-1.5-5.6-1.9c-0.3-0.1-0.5-0.1-0.7-0.2l-0.9-0.2c-0.6-0.1-1.2-0.2-1.8-0.3
						c-1.2-0.2-2.4-0.4-3.7-0.5c-2.5-0.3-5-0.4-7.5-0.6c-1.1-0.3-2.9-0.3-4.1-0.4c-3.2-0.2-6.7-0.2-9.8-0.8
						c-0.7-0.1-1.5-0.5-2.3-0.7c-0.8-0.2-1.8-0.3-2.4-0.6c-0.4-0.3-0.6-1-1.2-1c0.1-0.9-0.9-2.3,0.9-2.7c1.1-0.3,2.4,0.1,3.6,0.2
						c3.6,0.4,7.6,0.6,11.7,0.8c4.1,0.2,8.1,0.5,11.7,1c1.3,0.2,2.6,0.3,3.9,0.5c0.7,0.1,1.3,0.2,1.9,0.4c0.3,0.1,0.6,0.2,0.9,0.2
						c0.3,0.1,0.6,0.2,0.9,0.4c2.5,0.4,4.8,1.4,7,2.3c7,2.8,14.2,5.4,21.1,8.3c1.9,0.8,3.8,1.6,5.8,2.5c2,0.9,4,1.9,6,3.3
						c1.7,1.2,3.4,2.7,4.2,4.9c0.4,1.1,0.5,2.3,0.3,3.4c-0.2,1.1-0.7,2.2-1.4,3.1c-1.4,1.8-3.6,2.7-5.6,2.8c-2.1,0.2-4.1-0.2-6-0.8
						C448.8,582.5,447.5,581.9,446.7,581.7z"/>
					<path class="st1" d="M453.5,569.3l0.7,0.3c0.3,0.4-0.9-0.4-1.5-0.7c-0.8-0.4-1.7-0.9-2.1-1.2c-0.2-0.5-0.4-0.9-0.2-1.2
						c0.6-0.7,1.7,0.1,3.3,0.6c1.8,0.6,4.1,0.8,5.2,0.9c2.3,0.6,4.6,0.7,6.4,0.2c0.9-0.2,1.5-0.7,1.9-1.1c0.5-0.7,0.9-1.5,0.9-2
						c0-0.3,0-0.5-0.1-0.7c-0.1-0.2-0.2-0.5-0.5-0.8c-0.5-0.6-1.4-1.3-2.4-1.9c-2.1-1.2-4.6-2.2-7.1-3.2c-1.4-0.5-2.6-1-3.9-1.7
						c-5.6-1.7-12.1-4.2-18.1-5.5l-0.7-0.1l-0.4-0.1l-0.2,0l-0.1,0c0.1,0,0.3,0,0.4,0l-0.5,0c-1.3-0.2-2.5-0.4-3.8-0.5
						c-1.7-0.3-3.4-0.5-5-0.8c-9.5-1.4-20.7-3.4-31-2.2c-1.9,0.2-3.8,0.6-5.7,0.8c-8.9,1.2-17.7,4.6-24.5,7.5
						c-4.5,1.9-9.1,4.1-13.8,6.3c-4.6,2.2-9.2,4.5-13.7,7c-2.2,0.9-5.3,2.6-7.5,3.8c-5.7,3.1-11.9,6.7-17.5,9.4
						c-1.2,0.6-2.8,1.1-4.3,1.8c-1.5,0.7-3.1,1.6-4.3,1.9c-0.8,0.2-1.4-0.3-2.5,0.3c-0.2-1-2.3-1.2,0.4-3.4c1.8-1.5,4.1-2.4,6.1-3.4
						c6.2-3.3,13.2-7.2,20.3-11.1c7.1-3.8,14.3-7.5,20.8-10.5c4.6-2.1,9.6-4.7,14-6.1c4.4-2.1,9.1-3.9,13.7-5.2
						c7.3-2.2,15-3.6,22.7-4c7.8-0.4,15.4,0.6,22.9,1.8c4.4,0.7,8.8,1.4,13.5,2.2l-0.2,0c0.1,0,0.2,0,0.3,0l0.1,0l0.2,0l0.4,0.1
						l0.7,0.2c0.5,0.1,1,0.2,1.4,0.3c1,0.2,1.9,0.5,2.9,0.8c2,0.5,4,1.2,6,1.8c3.8,1.3,7.5,2.6,11.1,4.1c1.8,0.7,3.6,1.5,5.4,2.3
						c1.8,0.8,3.6,1.7,5.2,3c0.8,0.6,1.6,1.3,2.2,2.2c0.6,0.9,1.1,2,1.2,3.1c0.1,1.1-0.2,2.3-0.7,3.2c-0.5,1-1.1,1.8-1.9,2.6
						c-1.7,1.4-3.8,1.9-5.8,2c-2,0-4-0.4-5.9-1C457.6,571,455.1,569.8,453.5,569.3z"/>
					<path class="st1" d="M409.4,543.9l0.5-0.2c0.4,0-0.6,0.3-1,0.5c-0.6,0.3-1.2,0.7-1.5,0.7c-0.4-0.1-0.8-0.2-0.9-0.5
						c-0.4-0.8,0.6-1.2,1.6-2.1c1.1-1,2.5-2.3,3.3-2.9c3.5-1.8,7.4-3.3,11.4-4.5c4-1.2,8.1-2,12.2-2.7c1.1-0.2,2.1-0.3,3.2-0.2
						c4.2-1,9.3-1,13-2.2c0.5-0.2,1-0.4,1.5-0.6l0.7-0.4l0.6-0.4c0.2-0.1,0.4-0.2,0.6-0.4l0.5-0.4c0.2-0.2,0.4-0.3,0.5-0.4l0.4-0.5
						c0.9-1,1.8-2.5,2-3.3c0-0.2,0-0.3,0-0.3c0,0,0,0.1,0.1,0.2c0.1,0.1-0.2-0.2-0.8-0.4c-1.2-0.4-3-0.6-4.8-0.6
						c-1.8,0-3.7,0.1-5.5,0.2c-1.4,0.1-2.7,0.4-4.1,0.6c-3.2,0.3-6.5,0.9-9.7,1.5c-3.2,0.6-6.1,1.2-8.6,1.8
						c-6.7,1.6-13.4,4.3-19.7,7.8c-1.5,0.5-3.7,1.8-5.2,2.7c-3.9,2.3-7.9,5.3-11.7,7.5c-0.8,0.5-2,1-3,1.6c-1,0.6-2.1,1.4-2.9,1.7
						c-0.6,0.2-1.3-0.2-1.9,0.4c-0.5-0.8-2.3-1-0.7-3c1-1.3,2.7-2.2,4-3.1c4.2-2.9,9-6.3,14.1-9.3c5-3,10.3-5.6,15.2-7.5
						c3.5-1.3,7.3-2.8,10.6-3.1c3.3-1.1,6.9-1.6,10.2-2.2c5.3-0.9,10.8-1.8,16.3-2.1c1.4-0.1,2.8-0.1,4.2,0c1.4,0.1,2.9,0.2,4.4,0.7
						c0.8,0.2,1.5,0.5,2.3,1c0.8,0.5,1.5,1.3,1.9,2.3c0.4,1,0.3,2.1,0.1,2.9c-0.2,0.9-0.5,1.6-0.9,2.3c-0.4,0.8-0.9,1.4-1.4,2.1
						c-0.5,0.6-1.1,1.3-1.7,1.9c-1.3,1.1-2.6,2.1-4.2,2.8c-3.1,1.4-6.3,1.8-9.5,2.2c-5.7,0.6-11.2,1.1-16.5,2.2
						c-5.4,1.1-10.6,2.6-15.7,4.7C412.2,542.5,410.3,543.2,409.4,543.9z"/>
				</g>
				<path class="st1" d="M206.9,496.8C206.9,496.7,206.9,496.7,206.9,496.8c0.1-0.2,0,0,0.1,0.1c0,0.1,0.2,0.2,0.1,0.3
					c-0.2,0.2-0.5,0.3-0.8,0.5c-0.8,0.3-0.8,0.1-1.2,0c-0.4-0.1-1.1-0.2-1.4-0.3c-0.9-1.3-1.6-2.9-2.3-4.3c-0.1-0.2-0.1-0.4,0-0.7
					c-0.7-0.6-0.8-1.7-1.1-2.6c-0.1-0.2-0.3-0.5-0.4-0.7c-0.1-0.2-0.2-0.5-0.3-0.7c-0.6-1.3-1.2-2.8-1.8-4.3
					c-0.1-0.3-0.3-0.5-0.4-0.8c-0.4-1.3-1-2.6-1.4-3.6c-0.5-1.3-1.4-2.6-2.1-4c0.1-0.4-0.2-0.9-0.3-1.2c-0.3-0.9-0.7-1.9-0.3-3.1
					c0.1-0.3,0.4-0.6,0.5-1c0.1-0.3,0.2-0.6,0.5-1c0.2-0.2,0.9-0.6,0.9-0.8c0.9-0.3,2.1-1.1,2.6-0.8c0.3,0.2,0,0.8-0.1,1.1
					c-0.4,2.4,0.9,4.7,1.7,6.6c0.3,0.7,0.9,1.3,0.8,2.1c0.5,0.6,0.7,1.3,0.9,1.9c0.8,2.1,1.8,4,2.7,6.1c0.4,1.1,0.8,2.3,1.2,3.6
					c0.7,2.2,1.5,4.3,1.9,6.6C206.7,496.2,206.7,496.6,206.9,496.8z"/>
				<path class="st1" d="M413.9,491L413.9,491c-0.3,0,0,0,0.1-0.1c0.1-0.1,0.2-0.3,0.3-0.2c0.2,0.1,0.5,0.3,0.7,0.5
					c0.6,0.6,0.4,0.7,0.4,1.2c0,0.5,0.2,1.2,0.2,1.5c-1,1.5-2.3,2.8-3.5,4.2c-0.2,0.2-0.3,0.3-0.7,0.4c-0.4,1-1.5,1.6-2.2,2.3
					c-0.2,0.2-0.4,0.5-0.6,0.7c-0.2,0.2-0.4,0.4-0.6,0.6c-1.1,1.2-2.4,2.5-3.6,3.8c-0.2,0.2-0.4,0.6-0.6,0.8c-1.2,1-2.2,2.2-3,3.1
					c-1.1,1.2-2.1,2.6-3.2,4c-0.4,0.1-0.8,0.6-1.1,0.9c-0.8,0.7-1.6,1.6-2.9,1.8c-0.3,0-0.8,0-1.1,0c-0.4,0-0.7,0.2-1.1,0
					c-0.3-0.1-0.9-0.6-1.1-0.5c-0.7-0.7-1.9-1.4-1.7-2c0.1-0.4,0.8-0.4,1.1-0.5c2.5-0.8,4.3-3.3,5.9-5c0.6-0.6,0.9-1.5,1.8-1.8
					c0.4-0.7,1-1.3,1.6-1.8c1.8-1.7,3.3-3.7,5.1-5.5c1-1,2-1.9,3.1-2.9c2-1.7,3.8-3.4,6-4.9C413.3,491.5,413.8,491.4,413.9,491z"/>
				<g id="Legs">
					<path class="st1" d="M424,989.8c0-0.2,0-0.4,0-0.6c0.2-0.4,0.1,0.8,0.1,1.3c0,0.7,0.2,1.5,0,1.8c-0.2,0.3-0.5,0.6-0.9,0.6
						c-0.9,0-0.9-1.1-1.3-2.4c-0.4-1.4-1.2-3.3-1.4-4.3c-0.8-8.1-1.4-16.9-1.9-25.3c-0.1-1.2-0.1-2.2,0-3.3
						c-0.7-4.5-0.6-9.9-0.9-14.8c-0.1-1.4-0.2-2.7-0.3-4.1c-0.1-1.3-0.2-2.6-0.2-3.9c-0.5-7.3-0.9-16.1-1.4-24.3
						c-0.1-1.5-0.3-3-0.4-4.5c-0.2-7.1-0.8-14.4-1.1-20.1c-0.4-7.6-1.1-15.5-1.8-23.4c0.1-1.8-0.1-4.5-0.2-6.5
						c-0.2-5-0.5-10.5,0-15.3c0.1-1.1,0.4-2.3,0.6-3.6c0.2-1.2,0.3-2.7,0.6-3.6c0.3-0.6,1-0.8,1-1.8c0.9,0.2,2.3-1,2.7,1.5
						c0.3,1.7-0.1,3.6-0.2,5.3c-0.7,10.7,0.4,24.4,1.1,35.2c0.2,3.9,0.8,8.1,0.6,11.6c0.5,3.7,0.6,7.5,0.8,11
						c0.6,11.5,1.5,23.1,2.1,34.6c0.3,6.4,0.6,12.7,0.9,19.6c0.5,12.1,1.1,23.7,1.3,35.5C423.8,986.5,423.7,988.6,424,989.8z"/>
					<path class="st1" d="M2.8,998.5c0.1-0.2,0.2-0.5,0.3-0.7c0.4-0.4-0.4,0.9-0.6,1.5c-0.4,0.8-0.7,1.8-1,2.2
						c-0.4,0.3-0.8,0.5-1.1,0.4c-0.8-0.4-0.2-1.7,0.2-3.5c0.4-1.9,0.8-4.5,1.1-5.8c3.8-10.2,8.3-21,12.5-31.4c0.6-1.5,1.1-2.7,1.9-4
						c1.9-5.8,5-12.2,7.5-18.2c0.7-1.7,1.3-3.4,2-5.1c0.7-1.6,1.3-3.2,2-4.8c3.7-9.1,8.2-19.8,12.4-30c0.8-1.9,1.4-3.8,2.2-5.6
						c3.8-8.7,7.4-17.8,10.3-24.8c3.9-9.3,7.6-19.1,11.6-29c1.1-2.1,2.4-5.5,3.5-7.9c2.6-6.1,5.4-12.9,8.6-18.4
						c0.7-1.2,1.7-2.6,2.5-4c0.9-1.4,1.7-3.1,2.5-4c0.6-0.6,1.4-0.5,1.9-1.7c0.7,0.7,2.6-0.2,1.6,3.1c-0.7,2.2-2.1,4.3-3.1,6.3
						c-6.6,12.5-13.3,29.6-18.7,43c-2,4.8-3.8,10.1-6,14.3c-1.6,4.6-3.7,9.2-5.5,13.6c-5.9,14.1-11.6,28.5-17.5,42.7
						c-3.3,7.9-6.5,15.6-10.2,24c-6.3,14.7-12.3,29-18.8,43.4C4.5,994.4,3.3,996.8,2.8,998.5z"/>
					<path class="st1" d="M247.1,808.4c-0.1,0.2-0.3,0.5-0.4,0.7c-0.4,0.3,0.5-0.9,0.8-1.5c0.5-0.8,0.9-1.8,1.3-2.2
						c0.5-0.3,0.9-0.5,1.2-0.3c0.7,0.5-0.1,1.8-0.7,3.6c-0.7,1.9-1.4,4.6-1.9,5.8c-5.2,10-11.1,20.7-16.7,31
						c-0.8,1.5-1.5,2.6-2.4,3.9c-2.7,5.7-6.6,12-9.9,17.9c-0.9,1.6-1.8,3.4-2.7,5c-0.9,1.6-1.8,3.2-2.6,4.7
						c-4.9,8.9-10.8,19.5-16.4,29.5c-1,1.8-1.9,3.7-3,5.6c-4.9,8.5-9.8,17.5-13.7,24.4c-5.1,9.2-10.2,18.9-15.5,28.6
						c-1.4,2.1-3.2,5.4-4.6,7.8c-3.5,6-7.2,12.7-11.1,18c-0.9,1.2-2.1,2.5-3.1,3.9c-1,1.4-2.2,3-3.1,3.9c-0.7,0.6-1.4,0.4-2.1,1.5
						c-0.6-0.8-2.6,0-1.2-3.3c1-2.2,2.7-4.2,4-6.1c8.3-12.2,17.3-29,24.5-42.1c2.6-4.7,5.2-10,7.9-14c2.3-4.6,4.9-9.1,7.3-13.4
						c7.8-13.9,15.4-28,23.2-42c4.3-7.7,8.7-15.3,13.4-23.6c8.3-14.5,16.2-28.5,24.6-42.6C244.9,812.5,246.5,810,247.1,808.4z"/>
					<path class="st1" d="M295,984.7c0-0.2-0.1-0.4-0.1-0.6c0.1-0.4,0.2,0.8,0.2,1.4c0.1,0.8,0.3,1.6,0.3,2
						c-0.2,0.4-0.4,0.8-0.8,0.8c-0.9,0.1-1-1.1-1.6-2.6c-0.6-1.6-1.6-3.6-1.9-4.7c-1.8-9.1-3.4-18.9-5-28.3
						c-0.2-1.3-0.4-2.5-0.4-3.7c-1.2-5-1.8-11.1-2.7-16.5c-0.2-1.5-0.6-3.1-0.8-4.6c-0.2-1.5-0.5-2.9-0.7-4.3
						c-1.4-8.2-2.9-18-4.4-27.2c-0.3-1.7-0.7-3.4-0.9-5.1c-1.1-8-2.5-16.2-3.6-22.5c-1.3-8.5-3-17.3-4.6-26.2c-0.1-2-0.7-5.1-1-7.3
						c-0.8-5.6-1.8-11.8-1.8-17.2c0-1.2,0.1-2.7,0.2-4.1c0-1.4-0.1-3.1,0.2-4.1c0.2-0.7,0.9-1,0.8-2.1c1,0.1,2.1-1.4,2.9,1.5
						c0.5,1.9,0.3,4.1,0.4,5.9c0.6,12.1,3.4,27.4,5.4,39.5c0.7,4.3,1.8,9,2,13c0.9,4.1,1.5,8.3,2.1,12.3c2,12.9,4.3,25.8,6.4,38.7
						c1.1,7.2,2.2,14.2,3.3,21.9c1.9,13.5,4,26.5,5.6,39.8C294.4,981,294.5,983.4,295,984.7z"/>
					<g id="Pattern">
						<circle cx="327.1" cy="910.6" r="7.9"/>
						<circle cx="389.4" cy="884.4" r="2.9"/>
						<circle cx="409" cy="959.7" r="4.9"/>
						<circle cx="351.6" cy="970.8" r="2.8"/>
						<circle cx="95.5" cy="862" r="4.9"/>
						<circle cx="184.4" cy="852.7" r="9.3"/>
						<circle cx="115.5" cy="948.6" r="3.7"/>
						<circle cx="38.7" cy="982" r="3.1"/>
					</g>
				</g>
				<path class="st1" d="M677.4,610.9c0-0.1-0.1-0.3-0.1-0.4c0.1-0.3,0.2,0.6,0.3,0.9c0.1,0.5,0.4,1.1,0.4,1.4
					c-0.2,0.3-0.4,0.6-0.7,0.7c-0.9,0.2-1.1-0.6-1.7-1.5c-0.7-1-1.7-2.2-2.1-2.9c-2.3-6-4.4-12.6-6.5-18.8c-0.3-0.9-0.5-1.6-0.6-2.5
					c-1.5-3.3-2.4-7.4-3.6-11.1c-0.3-1-0.7-2-1.1-3c-0.3-1-0.6-1.9-0.9-2.9c-1.8-5.5-3.9-12-5.9-18.2c-0.4-1.1-0.9-2.2-1.2-3.4
					c-1.6-5.4-3.4-10.8-4.8-15.1c-1.8-5.7-3.9-11.5-6-17.4c-0.2-1.4-0.9-3.4-1.4-4.9c-1.1-3.8-2.4-7.9-2.8-11.7
					c-0.1-0.8,0-1.9-0.1-2.9c-0.1-1-0.3-2.1-0.1-2.9c0.1-0.5,0.8-0.9,0.7-1.6c0.9-0.1,2-1.4,2.9,0.5c0.6,1.2,0.6,2.8,0.8,4.1
					c1.3,8.3,4.9,18.5,7.6,26.6c0.9,2.9,2.3,6,2.7,8.7c1.1,2.7,1.9,5.5,2.8,8.2c2.7,8.6,5.7,17.2,8.4,25.8c1.5,4.8,3,9.5,4.5,14.7
					c2.7,9.1,5.4,17.8,7.8,26.8C676.6,608.4,676.9,610.1,677.4,610.9z"/>
			</g>
		</g>
		<g id="Apple_bubble">
			<path class="st1" d="M783.5,408.9c-1.4,0.2-2.8,0.4-4.1,0.6c-2.5,0.2,5.5-0.8,9.1-1.3c1.2-0.2,2.5-0.4,3.8-0.5
				c1.3-0.2,2.5-0.4,3.7-0.6c2.4-0.4,4.4-0.7,5.7-0.9c2.4-0.1,4.4-0.2,4.3,0.2c-0.2,0.5-2.2,1-5.4,1.7c-3.2,0.7-7.6,1.5-12.6,2.4
				c-2.7,0.5-5.5,1-8.4,1.5c-2.9,0.5-5.8,0.9-8.7,1.4c-1.4,0.2-2.8,0.5-4.1,0.7c-1.3,0.2-2.6,0.4-3.9,0.5c-2.5,0.3-4.6,0.6-6.4,0.8
				c-29.9,3-61.3,3.7-92.7,1c-15.7-1.4-31.5-3.6-47-6.9c-15.5-3.3-30.8-7.8-45.4-13.6c-1-0.4-2-0.8-3-1.2c-1-0.4-1.9-0.9-2.9-1.3
				c-1.9-0.9-3.7-1.7-5.6-2.5c-1.8-0.9-3.6-1.8-5.3-2.7c-0.9-0.5-1.8-0.9-2.7-1.4c-0.9-0.5-1.8-1-2.7-1.5c-0.9-0.5-1.9-1-2.8-1.5
				c-0.9-0.5-1.9-1-2.8-1.6c-1.9-1.1-3.7-2.3-5.6-3.4c-1.8-1.2-3.7-2.5-5.5-3.8l-1.4-1l-1.4-1c-0.9-0.7-1.8-1.4-2.7-2.1
				c-7.2-5.7-14.1-12.2-20-19.7c-1.4-1.9-3-3.7-4.3-5.8c-1.3-2-2.7-4-3.8-6c-1.2-2.1-2.4-4.1-3.5-6.2c-1.1-2.1-2.1-4.2-3.2-6.3
				c-4-8.5-7.3-17.3-9.9-26c-0.7-2.4-1.4-4.9-2-7.4c-0.6-2.5-1.3-5-1.7-7.5c-1.1-5-1.9-10-2.6-15.1c-0.3-2.4-0.5-4.8-0.7-7.3l0-1
				l0-0.9l-0.1-1.8c0-1.2,0-2.4-0.1-3.6c-0.1-4.8,0.2-9.6,0.5-14.4c0.5-6.9,1.6-13.9,3.2-20.9c0.7-3.5,1.8-7,2.7-10.5
				c0.5-1.7,1.2-3.5,1.7-5.2c0.3-0.9,0.6-1.8,0.9-2.6l1-2.6c2.6-7,6.2-13.7,10.1-20.3c1-1.6,2.1-3.2,3.2-4.8c0.5-0.8,1-1.6,1.6-2.4
				l1.8-2.3c1.2-1.5,2.4-3.1,3.5-4.6c1.2-1.5,2.5-2.9,3.8-4.4c10.5-11.5,23.1-21.2,36.5-29.1c13.5-7.9,27.8-14.2,42.2-19.4
				c5.3-1.9,10.6-3.6,16-5.4c5.4-1.6,10.8-3.2,16.2-4.7c25.5-6.5,52.1-10.3,77.5-11.2c25.4-0.8,49.6,1.4,70.4,5.4
				c1.7,0.3,3.5,0.7,5.2,1c1.7,0.3,3.5,0.6,5.2,1.1c3.4,0.8,6.9,1.7,10.3,2.5l2.6,0.6c0.9,0.2,1.7,0.5,2.6,0.8
				c1.7,0.5,3.4,1,5.1,1.6c1.7,0.5,3.4,1,5.1,1.6l2.6,0.8l2.5,0.9c3.4,1.2,6.7,2.5,10.1,3.7c0.8,0.3,1.7,0.6,2.5,0.9l2.5,1.1l5,2.1
				c6.7,2.8,13.2,5.9,19.6,9.4c6.4,3.5,12.7,7.2,18.8,11.3c6.1,4.1,12,8.6,17.5,13.5c5.6,4.9,10.8,10.3,15.5,16
				c4.9,5.7,9.1,11.8,13,18.2c3.4,5.8,7.2,13.4,10.5,21.3c3.2,8,5.7,16.4,7.4,23.6c4.2,18.2,5,38.3,1.6,57.5
				c-3.3,19.2-10.9,37.2-20.2,52c-4.2,6.5-9.9,13.9-16.1,20.7c-1.6,1.7-3.2,3.4-4.9,5.1c-1.7,1.6-3.4,3.3-5.1,4.9
				c-3.5,3-6.7,5.8-9.3,7.5c-1.9,1.3-3.1,2-4.6,2.8c-1.5,0.8-3.3,1.8-6.1,3.7c0.5-0.9-1.1-0.5-1-1.2c0.1-0.4,0.6-1,2-2.2
				c0.7-0.6,1.7-1.4,2.9-2.3c0.3-0.2,0.6-0.5,1-0.8c0.3-0.3,0.7-0.6,1-0.9c0.7-0.6,1.6-1.3,2.4-2c2.4-1.9,4.7-4.1,7.1-6.1
				c1.2-1,2.3-2.2,3.5-3.3l3.5-3.3c1.1-1.2,2.2-2.3,3.3-3.5c1.1-1.2,2.2-2.3,3.2-3.5c2-2.4,4.1-4.7,5.8-7.1
				c11.5-15.2,20.9-34,25.6-54.8c2.4-10.4,3.5-21.3,3.3-32.2c-0.2-11-1.6-22-4.3-32.8c-5.4-21.5-15.7-41.9-29.6-58.4
				c-0.9-1-1.7-2.1-2.6-3.1c-0.9-1-1.8-2-2.7-2.9c-1.8-2-3.7-3.9-5.6-5.7c-3.9-3.7-7.9-7.1-12-10.3c-8.2-6.4-16.8-11.8-25.5-16.6
				c-3.1-1.7-6.3-3.4-9.5-4.9c-1.6-0.8-3.2-1.6-4.9-2.3c-1.7-0.7-3.3-1.4-5-2.1c-3.3-1.4-6.7-2.9-10-4.3c-3.4-1.2-6.8-2.5-10.2-3.7
				c-3.4-1.3-6.8-2.3-10.2-3.3c-1.7-0.5-3.4-1-5.1-1.6c-1.7-0.5-3.3-1.1-5-1.4c-6.7-1.7-13.2-3.5-19.5-4.7c-1.6-0.3-3.3-0.6-5-0.9
				c-1.7-0.3-3.3-0.7-5-0.9c-3.3-0.4-6.7-0.9-10.1-1.3c-1.7-0.2-3.3-0.5-5-0.6l-5.1-0.4c-3.4-0.3-6.7-0.6-10.1-0.8
				c-3.4-0.1-6.8-0.3-10.1-0.4c-1.7-0.1-3.4-0.2-5-0.2c-1.7,0-3.4,0-5,0c-3.3,0-6.7,0-10,0.1c-3.3,0.2-6.6,0.3-9.8,0.5
				c-21,1.2-41.8,4.5-62.3,9.5c-5.1,1.1-10.2,2.7-15.3,4.1c-5.1,1.3-10.1,3.2-15.1,4.8c-2.5,0.8-5,1.6-7.5,2.6
				c-2.5,0.9-4.9,1.9-7.4,2.8c-2.5,1-4.9,2-7.3,3c-2.4,1.1-4.8,2.1-7.2,3.2c-9.5,4.5-18.8,9.5-27.5,15.4c-4.4,2.9-8.5,6.1-12.6,9.4
				c-4,3.4-7.9,6.9-11.4,10.7c-1.9,1.8-3.5,3.9-5.2,5.8c-1.7,2-3.2,4.1-4.8,6.2l-1.2,1.6l-1.1,1.6l-2.1,3.3c-1.5,2.1-2.7,4.5-4,6.7
				c-5,9.1-8.9,18.9-11.6,29l-0.6,2.1l-0.5,2.1l-1,4.2c-0.3,1.4-0.5,2.9-0.8,4.3c-0.3,1.4-0.5,2.9-0.7,4.3
				c-0.9,5.7-1.3,11.5-1.5,17.3c-0.1,1.4-0.1,2.9-0.1,4.4c0,1.5,0,2.9,0,4.4l0.1,2.2l0,1.1l0.1,1c0.1,1.4,0.2,2.9,0.4,4.3
				c0.6,5.8,1.5,11.6,2.8,17.3c1.2,5.7,2.7,11.5,4.5,17.2l0.7,2.1l0.7,2.1c0.5,1.4,1,2.8,1.5,4.2c0.5,1.4,1.1,2.8,1.6,4.2
				c0.6,1.4,1.1,2.8,1.7,4.2c1.3,2.7,2.4,5.5,3.8,8.2c0.7,1.4,1.4,2.7,2.1,4.1c0.8,1.3,1.5,2.7,2.3,4l1.1,2c0.4,0.7,0.8,1.3,1.2,2
				c0.8,1.3,1.7,2.6,2.5,3.8c0.8,1.3,1.8,2.5,2.8,3.7l1.4,1.8c0.5,0.6,0.9,1.2,1.5,1.8c7.1,8.3,15.3,15.5,24.3,21.7
				c8.9,6.2,18.5,11.4,28.4,15.9c9.9,4.5,20.1,8.2,30.4,11.3c10.4,3.1,20.9,5.5,31.5,7.6c10.6,2,21.3,3.5,32,4.6
				c10.7,1.1,21.5,1.8,32.3,2.2l8.1,0.2l4,0.1l4,0l8.1,0l8.1-0.2l4.1-0.1l4.1-0.2l8.1-0.4l8.1-0.6c2.7-0.2,5.4-0.4,8.1-0.7
				c1.6-0.1,6.2-0.4,11.5-1C772.9,410.3,779,409.7,783.5,408.9z"/>
			<path class="st1" d="M880.3,466.7c-0.1-0.1-0.2-0.1-0.3-0.2c-0.1-0.3,0.4,0.3,0.6,0.5c0.3,0.3,0.8,0.5,0.9,0.8
				c0,0.3,0,0.7-0.3,0.9c-0.6,0.7-1.1,0.2-1.9-0.1c-0.9-0.3-2.3-0.5-2.8-0.8c-4.2-2.9-8.6-6.3-12.8-9.4c-0.6-0.4-1.1-0.9-1.5-1.4
				c-2.5-1.4-4.9-3.8-7.3-5.7c-0.7-0.5-1.4-1-2.1-1.5c-0.6-0.5-1.3-1-1.9-1.5c-3.7-2.8-7.9-6.2-12-9.4c-0.7-0.6-1.6-1.1-2.3-1.7
				c-3.4-2.9-7.1-5.6-9.9-7.8c-3.7-2.9-7.8-5.8-11.8-8.8c-0.7-0.9-2.1-1.9-3.1-2.7c-2.4-2-5.1-4.2-6.9-6.6c-0.4-0.5-0.8-1.3-1.2-2
				c-0.5-0.7-1.1-1.4-1.2-2c-0.1-0.5,0.3-1.1-0.1-1.5c0.7-0.6,1-2.2,2.5-1.4c1,0.5,1.6,1.6,2.3,2.4c4.4,5.1,11.4,10.2,16.7,14.3
				c1.9,1.5,4.2,2.9,5.6,4.6c2,1.2,3.8,2.8,5.5,4.2c5.6,4.5,11.5,8.8,17.1,13.3c3.1,2.5,6.2,5,9.5,7.7c5.8,4.8,11.5,9.4,17,14.3
				C878.6,465.5,879.5,466.4,880.3,466.7z"/>
			<path class="st1" d="M866,382.4c0,0.1,0,0.2,0.1,0.3c-0.2,0.2-0.1-0.4-0.1-0.7c0-0.4-0.2-0.8-0.1-1c0.2-0.2,0.5-0.4,0.8-0.5
				c0.9-0.1,0.9,0.5,1.4,1.2c0.5,0.7,1.3,1.7,1.5,2.1c1.1,4.4,1.9,9.1,2.8,13.7c0.1,0.6,0.2,1.2,0.1,1.8c0.8,2.4,1,5.4,1.4,8
				c0.1,0.7,0.3,1.5,0.5,2.2c0.1,0.7,0.2,1.4,0.4,2.1c0.7,4,1.5,8.7,2.3,13.2c0.1,0.8,0.4,1.6,0.5,2.5c0.5,3.9,1.3,7.8,1.8,10.9
				c0.7,4.1,1.7,8.4,2.6,12.7c-0.1,1,0.3,2.5,0.4,3.6c0.4,2.7,0.9,5.7,0.5,8.4c-0.1,0.6-0.3,1.3-0.5,2.1c-0.1,0.7-0.2,1.5-0.5,2.1
				c-0.2,0.4-1,0.6-0.9,1.1c-0.9,0-2.2,0.9-2.8-0.5c-0.4-0.9,0-2,0-2.9c0.3-6-1.3-13.4-2.4-19.2c-0.4-2.1-1.1-4.3-1-6.3
				c-0.6-2-0.8-4-1.1-6c-1-6.3-2.3-12.5-3.3-18.8c-0.6-3.5-1.1-6.9-1.6-10.7c-0.9-6.6-1.9-12.9-2.5-19.4
				C866.3,384.2,866.4,383.1,866,382.4z"/>
			<path class="st1" d="M700.9,32.9v0.2c-0.2,0.1,0-0.3,0-0.5c0-0.3-0.1-0.6,0.1-0.7c0.1-0.1,0.2-0.1,0.4-0.2c0.1,0,0.1-0.1,0.2-0.1
				c0.2,0,0.9,0.1,1.1,0.3c0.1,0.2,0.2,0.4,0.4,0.7c0.3,0.6,1,1.3,1.1,1.7c0.3,3.1,0.3,6.5,0.3,9.8c0,0.5,0,0.8-0.2,1.3
				c0.4,1.8,0,3.8-0.1,5.7c0,0.5,0.1,1.1,0.1,1.6c0,0.5,0,1,0,1.5c0,2.8-0.1,6.2-0.2,9.4c0,0.6,0.1,1.2,0,1.8
				c-0.2,2.8-0.2,5.6-0.3,7.8c-0.1,2.9,0,6-0.1,9.1c-0.2,0.7-0.2,1.7-0.3,2.5c-0.2,1.9-0.3,4.1-0.9,5.9c-0.1,0.4-0.4,0.9-0.5,1.4
				c-0.2,0.5-0.3,1-0.5,1.4c-0.2,0.2-0.6,0.3-0.7,0.7c-0.5-0.1-1.3,0.3-1.5-0.7c-0.2-0.7,0.1-1.4,0.2-2c0.7-4.1,0.5-9.4,0.4-13.6
				c0-1.5-0.3-3.1,0.1-4.5c-0.2-1.4-0.1-2.9-0.1-4.3c0.1-4.4-0.2-8.9-0.1-13.4c0-2.5,0.1-4.9,0.2-7.6c0.2-4.7,0.4-9.2,0.9-13.7
				C700.9,34.2,701.1,33.4,700.9,32.9z"/>
			<path class="st1" d="M720.3,34.6L720.3,34.6C720.2,34.4,720.3,34.6,720.3,34.6c0.2,0,0.2-0.1,0.3,0.1c0,0.1,0,0.2,0.1,0.4
				c0,0.1,0,0.1,0,0.2c0,0.2,0,0.9,0,1.1c0,0.1-0.1,0.2-0.2,0.4c-0.1,0.4-0.3,1-0.4,1.2c-0.9,0.4-1.9,0.4-2.9,0.5
				c-0.1,0-0.3,0-0.4-0.2c-0.5,0.4-1.1,0-1.7,0c-0.2,0-0.3,0.1-0.5,0.1c-0.2,0-0.3,0-0.4,0c-0.8,0-1.9-0.2-2.8-0.3
				c-0.2,0-0.4,0.1-0.5,0c-0.8-0.3-1.6-0.3-2.3-0.5c-0.9-0.2-1.8-0.2-2.7-0.3c-0.2-0.2-0.5-0.3-0.7-0.4c-0.5-0.2-1.2-0.4-1.6-1.1
				c-0.1-0.1-0.2-0.4-0.3-0.6c-0.1-0.2-0.3-0.3-0.3-0.6c0-0.2,0-0.6-0.1-0.7c0.1-0.5,0.1-1.3,0.4-1.5c0.2-0.1,0.4,0.2,0.5,0.3
				c1,0.8,2.6,0.8,3.7,0.8c0.4,0,0.9-0.2,1.3,0.2c0.4-0.2,0.8-0.1,1.2,0c1.2,0.2,2.5,0,3.8,0c0.7,0,1.4,0.1,2.1,0.3
				c1.3,0.2,2.6,0.3,3.9,0.7C719.9,34.6,720.2,34.8,720.3,34.6z"/>
			<path class="st1" d="M718.5,91.4l0-0.2c0.2-0.1,0,0.3,0,0.4c0,0.2,0.1,0.5-0.1,0.6c-0.1,0-0.2,0.1-0.4,0.1
				c-0.1,0-0.1,0.1-0.2,0.1c-0.2,0-0.9-0.1-1.1-0.2c-0.1-0.1-0.2-0.4-0.4-0.6c-0.4-0.5-1-1.1-1.2-1.4c-0.4-2.7-0.4-5.7-0.5-8.5
				c0-0.4,0-0.7,0.2-1.1c-0.4-1.5-0.1-3.3,0-5c0-0.5-0.1-0.9-0.1-1.4c0-0.4,0-0.9,0-1.3c0-2.5,0-5.4,0.1-8.2c0-0.5-0.1-1-0.1-1.5
				c0.2-2.4,0.1-4.9,0.2-6.8c0.1-2.6-0.1-5.2-0.1-7.9c0.2-0.6,0.2-1.5,0.2-2.2c0.1-1.7,0.2-3.6,0.8-5.1c0.1-0.4,0.4-0.8,0.5-1.2
				c0.2-0.4,0.3-0.9,0.5-1.2c0.2-0.2,0.6-0.3,0.6-0.6c0.5,0.1,1.3-0.3,1.6,0.5c0.2,0.6-0.1,1.2-0.2,1.8c-0.6,3.6-0.3,8.2-0.1,11.8
				c0.1,1.3,0.4,2.7,0,3.9c0.2,1.2,0.2,2.5,0.2,3.7c0,3.9,0.3,7.8,0.4,11.6c0,2.2,0,4.3-0.1,6.6c-0.2,4.1-0.2,8-0.6,12
				C718.5,90.3,718.3,91,718.5,91.4z"/>
			<path class="st1" d="M856.3,62.8l-0.5-0.3c-0.2-0.4,0.6,0.4,1,0.7c0.5,0.4,1.2,0.8,1.4,1.1c0,0.2,0.1,0.3,0.1,0.5
				c0,0.1,0.1,0.2,0,0.3c-0.2,0.2-0.8,0.6-1.2,0.4c-0.4-0.1-0.9-0.4-1.6-0.7c-1.4-0.5-3.2-1.1-4-1.4c-6.6-4.1-13.9-8.2-21.3-11.5
				c-1-0.5-1.9-0.9-2.8-1.5c-4.1-1.4-8.8-3.5-13.2-5c-1.2-0.4-2.5-0.7-3.8-1.1c-1.2-0.3-2.4-0.7-3.6-1c-6.8-1.8-15-3.5-22.9-4.3
				c-1.4-0.1-2.9-0.1-4.3-0.3c-6.8-0.7-13.8-0.5-19.2,0.1c-7.1,0.7-14.4,2.7-21.1,5.9c-1.6,0.6-3.8,1.8-5.4,2.8c-2,1.2-4,2.6-6,4.1
				c-1.9,1.5-3.7,3.1-5.4,4.6c-0.4,0.3-0.8,0.7-1.2,1.1c-0.4,0.4-0.8,0.8-1.3,1.2c-0.4,0.4-0.8,0.9-1.2,1.4
				c-0.4,0.5-0.8,0.9-1.1,1.2c-0.4,0.4-0.9,0.3-1.4,1.1c-0.3-0.5-1.6,0.2-0.5-2.2c0.3-0.8,0.9-1.6,1.4-2.3c0.6-0.7,1.2-1.4,1.7-2
				c3.5-4.1,8.1-8.1,13.3-11.4c5.2-3.3,10.9-5.7,16-7.2c3.7-1.1,7.8-2.1,11.3-2.2c3.6-0.7,7.4-0.8,10.9-0.8c5.7,0,11.4,0.3,17,0.9
				c5.7,0.6,11.3,1.5,16.8,2.9c6.1,1.5,12.1,3.3,18.4,5.8c5.5,2.2,10.8,4.7,15.9,7.4c5.1,2.8,10,5.8,14.6,9.3c0.1,0.2,0.6,0.6,1.2,1
				C855,62,855.7,62.5,856.3,62.8z"/>
			<path class="st1" d="M854.2,65.5l-0.5,0.2c-0.4,0,0.6-0.3,1-0.5c0.6-0.2,1.2-0.6,1.5-0.6c0.2,0.1,0.3,0.1,0.5,0.2
				c0.1,0,0.2,0.1,0.2,0.2c0.1,0.2,0.1,1-0.2,1.3c-0.3,0.3-0.8,0.6-1.3,1c-1.1,0.9-2.4,2.2-3.2,2.7c-6.8,3.4-14.5,6.3-22.1,8.6
				c-1.1,0.3-2,0.6-3,0.7c-4,1.5-9,2.4-13.4,3.3c-1.2,0.2-2.5,0.6-3.7,0.8c-1.2,0.2-2.4,0.4-3.6,0.6c-6.7,1.1-14.7,2.3-22.5,2.7
				c-1.4,0.1-2.9,0.3-4.3,0.3c-6.7,0.1-13.7-0.5-19-1.6c-3.5-0.7-7.1-1.5-10.6-2.7c-3.5-1.1-7.1-2.5-10.5-4.1
				c-1.4-0.9-3.7-2.1-5.3-3.1c-4-2.5-8.3-5.6-11.3-8.9c-0.7-0.7-1.4-1.7-2.1-2.6c-0.7-0.9-1.6-1.9-2-2.6c-0.3-0.5-0.1-0.9-0.6-1.6
				c0.6-0.2,0.4-1.5,2.2,0c1.2,1,2.3,2.3,3.3,3.4c3.4,3.4,7.8,6.8,12.6,9.5c4.8,2.7,10,4.9,14.7,6.2c3.3,1.1,7.1,1.6,10.2,2.6
				c3.3,0.4,6.7,0.8,9.9,1c10.4,0.6,20.9-1,31.3-2.7c5.8-0.9,11.4-1.9,17.6-3.3c10.7-2.5,20.8-5.9,31-9.8
				C851.4,66.8,853.3,66.2,854.2,65.5z"/>
			<circle cx="612.9" cy="234.9" r="10.2"/>
			<path class="st1" d="M854.3,63.7l-0.5-0.1c-0.2-0.3,0.6,0.1,1.1,0.3c0.6,0.2,1.3,0.2,1.5,0.4c0.1,0.1,0.2,0.3,0.3,0.4
				c0.1,0.1,0.1,0.2,0.1,0.3c-0.1,0.2-0.5,0.9-0.9,0.9c-0.4,0-0.9,0-1.5,0c-1.3,0-3.1,0.3-3.9,0.2c-6.9-1.3-14.3-2.9-21.5-4
				c-1-0.2-1.9-0.4-2.8-0.7c-2-0.1-4.1-0.5-6.2-0.8c-2.1-0.3-4.3-0.7-6.4-1c-1.2-0.2-2.4-0.2-3.5-0.3c-1.1-0.1-2.2-0.3-3.3-0.4
				c-3.1-0.3-6.6-0.6-10.1-1c-3.6-0.2-7.2-0.6-10.8-0.7c-1.3-0.1-2.6,0-3.9-0.1c-3.1-0.2-6.2-0.2-9.1-0.3c-3,0-5.8,0-8.2,0.1
				c-6.5,0.2-13.3,0.6-20.2,1.3c-1.6,0-3.9,0.2-5.6,0.3c-2.1,0.2-4.4,0.4-6.7,0.6c-2.2,0.2-4.4,0.4-6.5,0.5c-0.9,0-2-0.1-3.1,0
				c-1.1,0-2.3,0.1-3.1,0c-0.6-0.1-0.8-0.5-1.6-0.4c0.1-0.6-1-1.2,1.2-1.8c1.4-0.4,3.1-0.4,4.6-0.5c2.3-0.2,4.8-0.5,7.3-0.9
				c2.6-0.3,5.2-0.6,7.9-0.9c2.7-0.3,5.3-0.6,7.9-0.9c2.6-0.3,5.1-0.5,7.4-0.7c1.7-0.2,3.4-0.3,5.2-0.4c1.7-0.1,3.4-0.2,4.9-0.1
				c3.2-0.3,6.5-0.3,9.6-0.3c10,0,20.2,0.2,30.2,1.2c2.8,0.2,5.5,0.6,8.3,0.9c2.8,0.4,5.6,0.8,8.6,1.3c10.4,1.7,20.3,3.8,30.2,6.6
				C851.5,63,853.2,63.6,854.3,63.7z"/>
			<path class="st1" d="M802.8,56.1L802.8,56.1C803,56.1,802.8,56.1,802.8,56.1c-0.1,0.1,0,0.2-0.2,0.2c-0.1,0-0.2-0.1-0.3-0.1
				c-0.1,0-0.1,0-0.2-0.1c-0.2-0.1-0.8-0.5-0.9-0.6c-0.1-0.1-0.1-0.2-0.2-0.3c-0.2-0.3-0.7-0.8-0.8-1c0.2-0.9,0.7-1.8,1.2-2.6
				c0.1-0.1,0.2-0.2,0.4-0.2c0-0.6,0.6-0.9,1-1.3c0.1-0.1,0.1-0.3,0.2-0.4l0.3-0.3c0.5-0.7,1.2-1.3,1.8-2c0.1-0.1,0.1-0.3,0.3-0.4
				c0.7-0.5,1.2-1,1.7-1.4c0.6-0.5,1.2-1.2,1.8-1.8c0.3,0,0.5-0.2,0.7-0.3c0.5-0.3,1-0.6,1.8-0.5c0.2,0,0.4,0.1,0.6,0.2
				c0.2,0,0.4,0,0.6,0.1c0.2,0.1,0.5,0.4,0.6,0.4c0.3,0.4,0.9,0.9,0.9,1.3c0,0.2-0.3,0.1-0.5,0.2c-1.2,0.2-2.1,1.3-2.8,2.2
				c-0.3,0.3-0.3,0.8-0.8,0.8c-0.1,0.4-0.4,0.6-0.6,0.9c-0.8,0.8-1.3,1.9-2.1,2.8c-0.4,0.5-0.8,1-1.3,1.4c-0.9,0.9-1.6,1.8-2.6,2.6
				C803,55.8,802.7,55.9,802.8,56.1z"/>
			<path class="st1" d="M800,83.9L800,83.9c0-0.3,0,0,0.1,0.1c0.1,0.1,0.2,0.2,0.2,0.4c-0.1,0.1-0.2,0.2-0.2,0.3
				c-0.1,0.1-0.1,0.1-0.2,0.2c-0.2,0.1-0.8,0.5-1,0.5c-0.2,0-0.3-0.1-0.5-0.1c-0.5,0-1.2,0-1.5-0.1c-1.3-1.2-2.4-2.8-3.4-4.2
				c-0.1-0.2-0.2-0.4-0.2-0.7c-0.9-0.6-1.2-1.8-1.7-2.7c-0.1-0.3-0.4-0.5-0.5-0.7c-0.1-0.2-0.3-0.5-0.4-0.7c-0.8-1.3-1.7-3-2.5-4.6
				c-0.1-0.3-0.4-0.5-0.5-0.8c-0.5-1.4-1.3-2.8-1.8-3.9c-0.6-1.5-1.5-3-2.2-4.5c0-0.4-0.2-1-0.3-1.4c-0.3-1-0.7-2.2-0.5-3.3
				c0-0.3,0.2-0.6,0.2-0.9c0-0.3,0-0.6,0.2-0.9c0.1-0.2,0.5-0.4,0.5-0.6c0.5-0.2,1.1-0.7,1.6-0.3c0.3,0.3,0.2,0.7,0.2,1.1
				c0.2,2.3,1.6,4.8,2.7,6.8c0.4,0.7,1,1.4,1,2.2c0.5,0.6,0.8,1.3,1.2,2c1.1,2.1,2.5,4.1,3.7,6.1c0.7,1.1,1.3,2.3,2,3.5
				c1.2,2.2,2.5,4.2,3.5,6.5C799.6,83.4,799.7,83.8,800,83.9z"/>
			<path class="st1" d="M761,36.6L761,36.6C760.8,36.6,761,36.5,761,36.6c0.1-0.1,0.1-0.3,0.2-0.2c0.1,0,0.2,0.1,0.3,0.1
				c0.1,0,0.1,0,0.2,0.1c0.2,0.1,0.8,0.4,0.9,0.5c0.1,0.1,0.1,0.2,0.2,0.3c0.2,0.3,0.7,0.8,0.8,1c-0.1,1-0.6,2-1,3
				c-0.1,0.1-0.1,0.2-0.4,0.3c0.1,0.7-0.5,1.1-0.8,1.6c-0.1,0.1-0.1,0.3-0.2,0.5c-0.1,0.1-0.1,0.3-0.2,0.4c-0.4,0.8-1,1.7-1.5,2.6
				c-0.1,0.2-0.1,0.4-0.2,0.5c-0.6,0.7-1,1.5-1.3,2.1c-0.5,0.8-0.8,1.7-1.3,2.6c-0.3,0.1-0.4,0.4-0.6,0.6c-0.4,0.5-0.8,1.1-1.6,1.3
				c-0.2,0.1-0.5,0.1-0.7,0.2c-0.2,0.1-0.4,0.2-0.6,0.2c-0.2,0-0.6-0.2-0.7-0.1c-0.5-0.3-1.2-0.5-1.3-0.9c-0.1-0.3,0.3-0.4,0.5-0.5
				c1.2-0.9,1.7-2.5,2.2-3.8c0.2-0.4,0.1-1,0.7-1.3c0-0.5,0.3-0.9,0.5-1.3c0.7-1.2,1.1-2.6,1.7-3.9c0.4-0.7,0.8-1.4,1.3-2.1
				c0.9-1.2,1.6-2.5,2.7-3.6C760.8,36.9,761.2,36.8,761,36.6z"/>
			<circle cx="713.7" cy="234.9" r="10.2"/>
			<path class="st1" d="M584.8,279.6c0.5,0.1,1,0.2,1.5,0.3c0.8,0.4-1.9-0.5-3.2-0.5c-0.4,0-0.9-0.1-1.3,0c-0.2,0-0.4,0-0.7,0.1
				c-0.2,0-0.4,0.1-0.6,0.1c-0.8,0.2-1.4,0.5-1.8,0.7c-0.4,0.1-0.8,0.3-1.1,0.4c-0.3,0.1-0.6,0.1-0.7,0c-0.1-0.2-0.1-0.5,0.1-0.8
				c0.1-0.2,0.2-0.4,0.5-0.6c0.2-0.2,0.5-0.4,0.8-0.7c0.3-0.2,0.7-0.4,1.1-0.6c0.4-0.2,0.8-0.3,1.3-0.4c0.9-0.2,1.9-0.3,2.9-0.3
				c2.2,0,4.5,0.4,6.6,0.8c2.1,0.4,4,0.9,5.2,1.3c5.1,1.8,10.2,3.8,15.4,5.5c5.2,1.8,10.5,3.4,15.8,4.7c10.7,2.7,21.8,4.3,32.7,4.7
				c3.1,0.1,5.7,0.2,8.5,0.3c5.9-0.3,12.3-0.7,18.8-1.5c6.5-0.8,13-2,19.2-3.4c3.4-0.8,6.9-1.8,10.4-2.7c3.3-0.9,6.6-1.8,9.9-2.7
				c2.4-0.6,4.9-1.2,7.6-1.6c1.4-0.2,2.8-0.3,4.3-0.3c1.5,0,3.2,0.2,4.8,0.7c1.7,0.5,3.4,1.6,4.6,3c1.2,1.4,2.1,3,2.6,4.7
				c0.5,1.6,0.7,3.3,0.7,4.9c0,1.6-0.1,3.1-0.4,4.6c-1.1,6-3.4,11.3-6.2,16.4c-2.8,5.1-6,9.7-9.6,14.1c-2.6,3.2-5.3,6.3-8.3,9.2
				c-3.5,3.3-7.4,6.4-11.5,9.1c-0.5,0.3-1,0.7-1.5,1l-1.6,0.9c-1,0.6-2.1,1.2-3.1,1.8c-1.1,0.5-2.1,1.1-3.2,1.6
				c-1.1,0.5-2.1,1.1-3.2,1.5c-8.6,3.7-17.4,5.8-25.1,6.7c-10.3,1.1-20.9,0.7-31.4-1.7c-5.2-1.2-10.4-2.7-15.4-4.8
				c-5-2.1-9.8-4.6-14.4-7.5c-2-1.4-4.5-3.2-7-5.1c-1.2-0.9-2.4-2-3.6-2.9c-1.1-1-2.2-2-3.2-2.9c-4.9-4.6-9.8-9.9-14-15.6
				c-2.1-2.8-4-5.8-5.7-8.8c-1.7-3-3.1-6-4.3-9c-1-2.7-1.9-6-2.6-9.3c-0.3-1.7-0.6-3.5-0.6-5.2c-0.1-1.7,0.1-3.3,0.5-4.4
				c0.6-1.6,1.3-1.9,2.5-3.7c0.2,0.5,0.9,0.5,1.2,0.9c0.2,0.2,0.3,0.5,0.2,0.9c0,0.4-0.2,1.1-0.3,2.4c-0.3,3.4,0.5,8.2,1.7,12.1
				c2,6.3,5.4,12.9,9.8,19.2c4.3,6.3,9.6,12.3,15.5,17.6c5.9,5.3,12.4,9.9,19.3,13.5c3.4,1.8,6.9,3.3,10.3,4.6
				c1.8,0.6,3.5,1.2,5.2,1.7c0.9,0.2,1.7,0.5,2.6,0.7c0.9,0.2,1.7,0.5,2.6,0.6c4.9,1.2,10.1,1.8,15.2,2.1c5.1,0.3,10.1,0.1,14.7-0.1
				c9.4-1.3,19-3.7,27.3-7.9l2.5-1.2c0.8-0.4,1.6-0.9,2.4-1.4l2.4-1.4c0.8-0.5,1.5-1,2.3-1.6c3.1-2,6-4.4,8.8-6.9
				c5.5-5.1,10.4-10.8,14.5-17c2.1-3.1,4-6.3,5.6-9.7c1.6-3.3,2.9-6.8,3.7-10.4c0.4-1.8,0.6-3.5,0.5-5.3c-0.1-1.7-0.4-3.4-1.2-4.7
				c-0.8-1.4-1.9-2.4-3.3-2.9c-1.4-0.5-3.2-0.6-5-0.5c-4,0.3-8,1.4-12.1,2.4c-4.1,1.1-8.1,2.2-12.3,3.3c-8.3,2.1-16.9,3.9-26,4.9
				c-15.9,1.8-31.8,1.4-47.2-1.3c-7.7-1.4-15.3-3.3-22.7-5.7c-7.4-2.4-14.6-5.3-21.9-8.2C593.2,282.1,588.1,280,584.8,279.6z"/>
			<path class="st1" d="M655.7,268.1l-0.6,0.1c-0.4-0.1,0.8-0.1,1.4-0.2c0.7-0.1,1.6-0.4,2-0.3c0.4,0.2,0.8,0.4,0.8,0.8
				c0.1,0.9-1.1,1.1-2.6,1.6c-1.6,0.6-3.7,1.6-4.8,1.8c-2.4,0.3-4.8,0.5-7.5,0.4c-0.7,0-1.3-0.1-2-0.2c-0.7-0.1-1.4-0.2-2-0.3
				c-0.7-0.1-1.4-0.4-2.1-0.6c-0.4-0.1-0.7-0.3-1.1-0.4c-0.4-0.1-0.7-0.3-1.1-0.5c-1.4-0.7-2.7-1.9-3.8-3.3c-1-1.5-1.6-3.2-1.8-4.8
				c-0.3-3.3,0.4-6,1.2-8.4c0.4-1.4,0.9-2.5,1.6-3.6c1.6-5,4.5-10.2,6.4-15.2c0.5-1.4,1-2.8,1.4-4.3c0.5-1.4,0.9-2.7,1.3-4
				c2.3-7.7,4.7-17.1,5.6-26c0.2-1.6,0.2-3.3,0.3-4.9c0.2-3.8,0.2-7.7-0.5-11.2c-0.1-0.9-0.4-1.7-0.5-2.5c-0.2-0.8-0.4-1.6-0.7-2.3
				c-0.2-0.8-0.6-1.4-0.9-2.1c-0.4-0.6-0.7-1.3-1.1-1.8c-1-1.4-2.2-2.6-3.7-3.5c-1.5-0.9-3.3-1.5-5.2-1.9c-1.9-0.4-3.9-0.6-5.9-0.6
				c-2,0-4.1,0.2-6.2,0.4c-1.9,0-4.8,0.5-6.9,0.9c-5.3,1-11.1,2.8-16.3,3.8c-1.1,0.2-2.6,0.3-3.9,0.6c-1.4,0.3-2.9,0.7-3.9,0.7
				c-0.7,0-1.2-0.6-2.2-0.3c-0.1-1-1.9-1.7,0.7-3.2c1.7-1,3.9-1.3,5.7-1.8c5.9-1.5,12.5-3.4,19.4-4.7c6.8-1.3,14-2.1,20.3-0.7
				c2.3,0.5,4.6,1.2,6.8,2.5c2.1,1.2,3.9,3,5,4.9c1.4,1.8,2.4,3.8,3.1,5.9c0.7,2.1,1.1,4.2,1.4,6.3c0.8,6.6,0.4,13.2-0.4,19.7
				c-0.9,6.5-2.3,12.9-4,19.1c-2,6.9-4.4,13.7-7.7,20.7c-1.4,3.1-2.9,6.1-4,9.1c-0.6,1.5-1.1,3-1.4,4.6c-0.3,1.5-0.4,3.1,0,4.4
				c0.4,1.4,1.3,2.6,2.5,3.4c1.2,0.9,2.7,1.4,4.2,1.8c3.1,0.7,6.4,0.7,9.7,0.5C652,268.6,654.3,268.5,655.7,268.1z"/>
			<path class="st1" d="M755.7,183.1l-0.2-0.1c0-0.2,0.2,0.1,0.3,0.2c0.2,0.1,0.4,0.1,0.5,0.3c0,0.3-0.1,0.6-0.3,0.9
				c-0.4,0.8-0.7,0.6-1.2,0.7c-0.6,0.1-1.3,0.4-1.7,0.4c-2.3-0.8-4.7-1.9-7-2.9c-0.3-0.1-0.6-0.3-0.8-0.6c-1.4-0.2-2.7-1.1-4.1-1.7
				c-0.4-0.2-0.8-0.2-1.2-0.4c-0.4-0.1-0.7-0.3-1.1-0.4c-2.1-0.8-4.5-1.7-6.8-2.6c-0.4-0.2-0.9-0.2-1.3-0.4c-2-0.9-4.1-1.4-5.7-2
				c-2.2-0.7-4.5-1.1-6.8-1.6c-0.5-0.4-1.3-0.5-1.8-0.7c-1.4-0.5-3-0.9-4.2-2c-0.3-0.2-0.6-0.7-0.9-1c-0.3-0.3-0.7-0.6-0.9-1
				c-0.1-0.3,0-1.1-0.3-1.2c0.3-0.9,0.2-2.3,1-2.5c0.6-0.1,1,0.5,1.5,0.8c2.9,2,7.1,2.7,10.3,3.6c1.1,0.3,2.5,0.4,3.4,1.1
				c1.1,0.1,2.2,0.5,3.3,0.9c3.3,1.2,6.8,2.2,10,3.5c1.8,0.8,3.6,1.6,5.5,2.5c3.3,1.7,6.5,3.3,9.5,5.3
				C754.8,182.6,755.3,183.1,755.7,183.1z"/>
			<path class="st1" d="M490,132.8c-0.1-0.1-0.2-0.2-0.3-0.2c0-0.3,0.4,0.3,0.6,0.5c0.3,0.3,0.7,0.5,0.8,0.8c0,0.3-0.1,0.7-0.3,0.9
				c-0.6,0.6-1.1,0.1-1.9-0.2c-0.9-0.3-2.2-0.6-2.7-0.9c-3.9-3-7.9-6.6-11.7-9.9c-0.5-0.5-1-0.9-1.3-1.5c-2.3-1.5-4.5-4-6.7-6
				c-0.6-0.6-1.3-1-1.9-1.6c-0.6-0.5-1.2-1.1-1.8-1.6c-3.4-2.9-7.2-6.5-11-9.9c-0.7-0.6-1.5-1.1-2.1-1.8c-3.1-3-6.5-5.9-9-8.2
				c-3.4-3.1-7.1-6.1-10.8-9.2c-0.7-0.9-1.9-2-2.8-2.8c-2.2-2.1-4.7-4.3-6.3-6.9c-0.3-0.6-0.7-1.4-1-2c-0.4-0.7-0.9-1.4-1-2
				c-0.1-0.5,0.4-1.1,0-1.5c0.7-0.6,1.1-2.1,2.5-1.3c0.9,0.5,1.4,1.7,2,2.5c3.9,5.3,10.3,10.6,15.2,15c1.8,1.6,3.9,3,5.2,4.8
				c1.8,1.3,3.5,2.9,5,4.4c5.1,4.7,10.5,9.2,15.7,13.9c2.9,2.6,5.6,5.2,8.7,8.1c5.3,5.1,10.5,9.8,15.5,15
				C488.5,131.5,489.3,132.5,490,132.8z"/>
			<path class="st1" d="M590.3,72.1c0-0.1-0.1-0.2-0.1-0.3c0.1-0.2,0.1,0.3,0.2,0.6c0.1,0.3,0.3,0.6,0.2,0.8
				c-0.2,0.2-0.4,0.5-0.8,0.6c-0.8,0.3-0.9-0.2-1.5-0.8c-0.6-0.5-1.4-1.2-1.8-1.6c-1.6-3.6-3-7.5-4.4-11.3c-0.2-0.5-0.3-1-0.3-1.6
				c-1.1-1.9-1.6-4.5-2.4-6.7c-0.2-0.6-0.5-1.2-0.7-1.8c-0.2-0.6-0.4-1.2-0.6-1.7c-1.2-3.3-2.5-7.3-3.8-11c-0.2-0.7-0.6-1.3-0.8-2
				c-1-3.3-2.2-6.5-3.1-9.1c-1.2-3.4-2.6-6.9-4-10.5c-0.1-0.9-0.6-2.1-0.8-3c-0.7-2.3-1.5-4.8-1.5-7.2c0-0.5,0.2-1.2,0.2-1.9
				c0-0.6,0-1.3,0.2-1.9c0.2-0.4,0.9-0.7,0.8-1.1c0.9-0.2,2.1-1.2,2.8-0.1c0.5,0.7,0.3,1.7,0.3,2.5c0.4,5.2,2.9,11.3,4.6,16.2
				c0.6,1.7,1.6,3.5,1.7,5.3c0.8,1.6,1.3,3.3,1.8,5c1.7,5.2,3.8,10.4,5.5,15.6c1,2.9,1.9,5.8,2.8,8.9c1.7,5.5,3.4,10.8,4.8,16.3
				C589.8,70.5,589.9,71.6,590.3,72.1z"/>
			<path class="st1" d="M936.5,152c0.1-0.1,0.1-0.1,0.2-0.2c0.3,0-0.3,0.3-0.5,0.4c-0.3,0.2-0.5,0.6-0.7,0.6
				c-0.3-0.1-0.6-0.2-0.8-0.5c-0.6-0.7-0.1-1,0.2-1.7c0.3-0.8,0.6-1.9,0.9-2.3c2.8-3.1,6.1-6.1,9.3-9.2c0.4-0.4,0.8-0.8,1.4-1
				c1.4-1.9,3.7-3.5,5.6-5.2c0.5-0.5,1-1,1.5-1.5c0.5-0.5,1-0.9,1.5-1.4c2.7-2.6,6.1-5.6,9.2-8.5c0.6-0.5,1.1-1.1,1.7-1.6
				c2.8-2.3,5.5-5,7.7-6.9c2.9-2.6,5.7-5.5,8.6-8.4c0.8-0.5,1.8-1.4,2.6-2.1c2-1.7,4-3.6,6.4-4.6c0.5-0.2,1.3-0.4,1.9-0.6
				c0.6-0.2,1.3-0.6,1.9-0.6c0.4,0,1,0.5,1.4,0.2c0.5,0.8,1.9,1.4,1.2,2.5c-0.5,0.7-1.6,1-2.3,1.4c-4.9,2.7-9.9,7.7-13.9,11.5
				c-1.5,1.4-2.8,3.1-4.5,3.9c-1.2,1.5-2.7,2.7-4.1,3.9c-4.4,3.9-8.6,8.1-13,12.1c-2.4,2.2-4.9,4.3-7.6,6.6c-4.7,4-9.1,8-13.9,11.8
				C937.8,150.9,936.8,151.4,936.5,152z"/>
		</g>
	</g>
</g>
</svg>
