<svg width="1172" height="1071" viewBox="0 0 1172 1071" fill="none" xmlns="http://www.w3.org/2000/svg">
<g clip-path="url(#clip0_403_4897)">
<path d="M885.6 63.1001L725 512.6L745.8 496.3L756.3 542.7C811.7 387.5 867.1 232.4 922.5 77.2001C910.3 72.5001 897.9 67.8001 885.6 63.1001Z" fill="#2C2C2C"/>
<path d="M1.7998 241.5C9.7998 231.9 17.7998 222.2 25.6998 212.6C149 331.1 272.3 449.5 395.6 568C392.6 570.6 388.1 575.3 384.6 582.2C380.7 589.8 379.7 596.7 379.5 600.8C253.6 481 127.7 361.3 1.7998 241.5Z" fill="#2C2C2C"/>
<path fill-rule="evenodd" clip-rule="evenodd" d="M755 389.8L753.4 389.9C752.4 389.5 755.5 389.8 756.9 389.7C758.8 389.7 761 389 762 389.5C762.9 390.6 763.7 392.5 763.6 394.5C763.5 397.1 762.7 397.4 761.5 397C760.9 396.8 760.1 396.5 759.3 396.2C758.5 395.9 757.6 395.6 756.6 395.5C755.6 395.3 754.5 395.3 753.4 395.3C752.3 395.4 751.2 395.6 750.1 395.8C747.9 396.1 745.9 396.3 744.6 396.4C733.2 395.8 721.4 395.6 709.4 396.1C703.4 396.4 697.5 396.8 691.5 397.3C688.5 397.6 685.6 397.9 682.6 398.1C679.6 398.4 676.7 398.7 673.8 399C670.5 399.4 667.7 399.6 664.6 399.6C658.3 400.6 651.4 401.2 644.4 402.1C637.4 402.9 630.4 404.5 623.7 405.7C620 406.4 616.2 407.3 612.5 407.9C610.7 408.2 608.9 408.4 607.1 408.7C605.3 409 603.6 409.3 601.8 409.6C581.6 413 557.6 417.3 535.1 422.3C531 423.2 526.9 424.4 522.8 425.2C503.4 429.3 483.7 434.7 468.4 439.2C448.1 445.1 427.4 452.6 406.7 460.7C401.8 462 394.8 464.9 389.7 466.8C383.2 469.2 376.4 472 369.6 474.6C362.8 477.2 356.1 479.6 349.7 481.3C346.8 482 343.3 482.6 339.9 483.4C336.5 484.2 332.6 485.5 330 485.5C328.1 485.5 326.8 483.7 324.3 484.6C323.9 482 319.2 479.6 325.7 476C330 473.6 335.5 472.9 340 471.7C354.5 467.7 370.7 461.8 386.9 456C403.1 450.2 419.4 444.3 433.9 439.6C439.1 437.9 444.5 436.1 449.8 434.3C455.1 432.6 460.4 431.1 465.2 430.2C470.1 428.5 475.1 427 480.2 425.6C485.2 424.2 490.2 422.9 495.1 421.7C526.5 413.7 558.3 406.3 590.3 401.2C599.2 399.9 608 398.5 617.1 397.5C621.6 397 626.2 396.6 630.9 396.2C635.5 395.8 640.3 395.4 645.1 395C661.9 393.3 678.5 392.1 695.1 391.2C711.6 390.4 728.1 389.6 744.7 389.6C745.6 390 751.5 390.4 755 389.8Z" fill="white"/>
<path fill-rule="evenodd" clip-rule="evenodd" d="M251.7 511C249.6 512 247.6 512.9 245.5 513.9C243.4 514.4 245.5 513.4 248.7 512C250.3 511.3 252.2 510.5 254.1 509.7C255.9 508.9 257.7 508.2 259.1 507.6C262.8 505.9 266.8 504.1 270.3 502.5C273.9 500.9 277.1 499.6 279.1 499C283.1 498.3 286.4 498 286.6 499.3C287.1 502.5 275.3 507.4 261.3 515.7C257.5 517.9 253.5 520.4 249.5 522.9C245.5 525.5 241.5 528.1 237.7 530.7C233.9 533.3 230.3 535.8 227 538.1C223.8 540.4 220.9 542.4 218.6 544C198.3 556.5 178.3 570.1 159.9 585.6C150.7 593.3 141.8 601.4 133.7 610.1C125.5 618.7 118 627.8 111.6 637.4C98.7001 656.5 90.6002 677.7 90.4002 698.9C90.3002 704.2 90.7001 709.4 91.5001 714.6C92.3001 719.7 93.7002 724.8 95.4002 729.3C95.8002 730.4 96.3002 731.5 96.8002 732.6L98.4002 736C99.6002 738.2 100.8 740.4 102.2 742.5C105 746.7 108.2 750.7 111.8 754.5C115.9 758.8 120.1 762.4 124.4 766C126.5 767.8 128.7 769.5 130.9 771.3C133.2 773 135.4 774.8 137.9 776.6C159.5 788.3 185.9 797.7 213.8 805C241.8 812.2 271.2 817.2 299.6 820.1C315.4 821.7 331.6 822.4 347.5 823.1C362.8 823.8 378.1 824.2 393 824.3C436.3 824.5 483.9 822.4 532.7 818.1C581.5 813.7 631.5 807 679.8 798.2C697.5 794.9 715.2 791 732.7 787.3C774.1 778.6 815.6 767.6 854.4 755.1C893.3 742.6 929.4 728.6 960.1 714.3C980.5 704.9 1000.7 694.4 1020.2 682.5C1039.7 670.6 1058.6 657.3 1075.6 641.7C1084.1 633.9 1092.2 625.7 1099.4 616.6C1103 612.1 1106.4 607.4 1109.5 602.6C1112.5 597.7 1115.5 592.8 1117.9 587.6C1120.3 582.4 1122.5 577.1 1124.1 571.6C1125.7 566.1 1126.9 560.6 1127.6 554.9C1129 543.6 1128.1 532.1 1125.1 521.1C1122.7 511.1 1117.3 499.2 1109.4 488.5C1101.5 477.8 1091.3 468.7 1082 461.9C1070.3 453.2 1057 446.1 1043.1 440C1029.2 433.9 1014.5 428.9 999.8 424.8C970.2 416.6 940.2 411.6 912.5 407.8C900.2 406.1 885.5 404 870.9 402.5C856.3 401 839.2 400 829 398.6C821.8 397.5 819.9 395 808.6 394.5C810.2 392.9 807.5 390.8 808.4 389C809.2 387.3 813.6 385.9 829.3 386.4C850 387.1 872.6 390.7 892.2 393.4C923.8 398 957.6 403.8 991.9 413.4C1009 418.3 1026.1 424.1 1042.9 431.5C1047 433.5 1051.2 435.3 1055.3 437.4C1057.3 438.5 1059.4 439.5 1061.4 440.6L1067.4 444C1075.3 448.7 1083.1 453.8 1090.3 459.6C1097.5 465.4 1104.2 471.9 1110.2 479.1C1116.2 486.2 1121.3 494.1 1125.1 502.6C1133 519.4 1136 538.4 1133.6 556.4C1131.3 574.5 1124.2 591.3 1114.9 605.9C1105.6 620.6 1094.2 633.2 1082.4 644.4C1065.4 660.5 1045.8 675.1 1025.7 687.8C1005.6 700.6 985.1 711.5 966.1 720.4C946.4 730.3 925.9 739.3 905.3 747.6C884.7 755.9 863.9 763.4 843.6 770.2C778.2 792 711 809.1 643 822.2C575 835.2 506.1 844.3 437 847.7C398.6 849.5 360.3 849.7 321.4 847.3C301.9 846.1 282.3 844.2 262.4 841.4C242.5 838.6 222.5 834.8 202.2 829.5C184.5 824.8 167.1 819.1 150.3 811.6C133.6 804.1 117.4 794.9 103.3 782.7C96.3002 776.6 89.7001 769.8 84.2001 762.2C82.9001 760.3 81.5002 758.4 80.3002 756.3L78.4002 753.3L76.7001 750.2C75.5001 748.1 74.6001 746 73.6001 743.8C72.6001 741.7 71.7001 739.4 71.0001 737.1C65.0001 719.2 64.1001 700.1 67.5001 681.9C70.8001 663.7 78.4002 646.7 88.3002 631.6C98.2002 616.5 110.3 603 123.4 591C129.9 584.9 136.8 579.2 143.8 573.8C150.8 568.3 158 563.2 165.4 558.2C172.7 553.2 180.3 548.6 187.9 544C195.6 539.5 203.3 535.1 211.1 531C213.5 530 220.3 526.8 228.1 522.9C236.2 518.9 245.1 514.5 251.7 511Z" fill="white"/>
<path fill-rule="evenodd" clip-rule="evenodd" d="M98.5999 938C98.7999 939.5 99.1999 941 99.4999 942.4C99.5999 943.8 99.2999 942.3 98.8999 940C98.6999 938.8 98.4999 937.5 98.2999 936.2C98.0999 934.9 97.9999 933.6 97.8999 932.7C97.1999 927.4 96.8999 921.1 97.0999 918.3C97.4999 915.7 97.8999 913.6 98.2999 913.8C99.4999 914.3 99.2999 922.8 101.6 933.1C102.9 938.6 104.9 944.8 107.4 950.1C109.8 955.5 112.6 960 114.5 962.9C122 975.9 133 986.7 145.7 995.6C158.4 1004.5 172.8 1011.5 187.9 1017.1C218.1 1028.4 250.7 1034.6 283 1038.4C284.1 1038.5 285.3 1038.7 286.4 1038.8C287.5 1038.9 288.6 1039 289.7 1039.1C291.8 1039.3 293.9 1039.6 296 1039.8C300.1 1040.3 304.1 1041 308.3 1041.9C325.9 1042.6 345 1043.4 364.5 1044.1C384 1044.7 403.9 1045.1 422.9 1044.5C433.5 1044.2 444.2 1043.3 454.7 1042.7C464.8 1042.1 474.9 1041.5 484.8 1040.7C499.1 1039.5 514 1038.2 529.4 1036.6C537.1 1035.9 544.9 1034.9 552.7 1034C560.6 1033 568.5 1031.9 576.5 1030.9C584.5 1029.9 592.5 1028.8 600.6 1027.8C608.7 1026.6 616.8 1025.4 624.8 1024.1C640.9 1021.5 657.1 1018.8 672.9 1015.8C678.7 1014.7 684.5 1013.4 690.3 1012.1C696.1 1010.8 701.9 1009.5 707.7 1008.4C762.3 998.1 817.5 982.8 859.9 969.5C888.1 960.7 916.5 950.4 944.6 938.8C972.7 927.2 1000.6 914.1 1027.5 899.3C1029.1 898.6 1030.8 897.8 1032.5 897C1034.2 896.1 1036 895.2 1037.8 894.2C1039.6 893.2 1041.5 892.2 1043.4 891.2C1045.3 890.1 1047.2 889 1049.1 887.9C1053 885.7 1056.7 883.3 1060.4 881C1064.1 878.7 1067.5 876.4 1070.7 874.4C1086.7 863.9 1102.8 851.6 1117.1 837.9C1124.3 831.1 1131 823.9 1136.9 816.4C1142.9 808.9 1148.1 801.2 1152.3 793.3C1152.8 792.4 1153.3 791.5 1153.7 790.6C1154.2 789.7 1154.6 788.7 1155.1 787.7C1156.1 785.8 1156.9 783.7 1157.9 781.6C1159.6 777.4 1161.2 772.8 1162.2 768.2C1163.4 763.6 1164 758.4 1164.4 753.6C1164.7 748.8 1164.7 744.3 1164.7 740.9C1164.7 738.5 1164.9 736.9 1164.9 735.1C1164.9 733.2 1164.8 731 1164 727.4C1164.8 728.3 1165.2 726.4 1165.9 726.8C1166.3 727 1166.8 727.8 1167.6 729.8C1168.4 731.8 1169.4 735.1 1170.4 740.4C1171.7 747.4 1172.1 754.9 1171.5 762.3C1170.9 769.7 1169.4 777 1167.5 783.5C1165.9 788.8 1164 794 1161.7 799.2C1159.3 804.3 1156.8 809.5 1153.8 814.4C1147.9 824.3 1140.8 833.8 1132.9 842.8C1125 851.8 1116.3 860.3 1107.1 868.3C1097.9 876.3 1088.3 883.9 1078.3 891C1068.4 898.2 1058.2 904.9 1047.8 911.3C1042.7 914.5 1037.4 917.6 1032.2 920.6C1027 923.6 1021.8 926.6 1016.6 929.4C995.8 940.8 975 950.8 955.4 959.5C927.2 971.9 896.3 985.5 869.1 992.1C841.9 1002.7 812.8 1010.9 785.4 1018.1C741.2 1029.7 696.5 1039.7 651.4 1048C628.9 1052.1 606.2 1055.8 583.5 1058.6L566.5 1060.9C560.8 1061.6 555.2 1062.4 549.5 1063C543.8 1063.6 538.1 1064.2 532.4 1064.7C526.7 1065.2 521 1065.8 515.3 1066.2C490 1068.2 464.8 1069.5 439.1 1069.9C413.4 1070.2 387.2 1069.8 359.9 1068C347.9 1067.3 336.1 1066.2 324.2 1065C312.4 1063.8 300.7 1062 289 1060.3C283.1 1059.5 277.3 1058.5 271.5 1057.4C265.7 1056.3 259.9 1055.1 254.2 1053.9C242.7 1051.4 231.3 1048.4 220.1 1045C208.9 1041.6 197.8 1037.6 187 1033C184.3 1031.9 181.6 1030.6 179 1029.4C176.4 1028.1 173.7 1026.9 171.1 1025.5C165.9 1022.8 160.8 1019.9 155.8 1016.8C150.8 1013.7 146 1010.3 141.3 1006.7C136.6 1003.1 132.2 999.2 128.1 994.9C124 990.7 120.1 986.2 116.7 981.4C113.3 976.6 110.2 971.5 107.7 966.2C107 964.6 105.1 960 103.3 954.5C101.1 949.2 99.5999 942.8 98.5999 938Z" fill="white"/>
<path fill-rule="evenodd" clip-rule="evenodd" d="M110.1 957.7C110.1 957.4 110 957.2 110 956.9C110.2 956.4 110.2 958 110.3 958.7C110.4 959.7 110.8 960.8 110.7 961.3C110.4 961.8 110.1 962.3 109.7 962.3C108.6 962.4 108.4 960.9 107.6 959C106.8 957 105.5 954.5 105.1 953.1C102.6 941.6 100.4 929.2 98.2001 917.2C97.9001 915.5 97.7001 914.1 97.7001 912.5C96.1001 906.1 95.2001 898.5 94.0001 891.5C93.7001 889.6 93.2001 887.6 92.9001 885.7C92.6001 883.9 92.3001 882 91.9001 880.2C90.0001 869.8 87.9001 857.4 85.9001 845.7C85.5001 843.5 85.0001 841.4 84.7001 839.3C83.2001 829.2 81.2001 818.8 79.8001 810.7C77.9001 799.9 75.7001 788.8 73.5001 777.5C73.4001 774.9 72.6001 771.1 72.2001 768.3C71.1001 761.2 69.7001 753.3 69.6001 746.5C69.6001 745 69.8001 743.1 69.8001 741.3C69.8001 739.5 69.7001 737.4 70.0001 736.1C70.2001 735.2 71.2001 734.8 71.0001 733.4C72.2001 733.6 73.8001 731.6 74.8001 735.2C75.5001 737.6 75.3001 740.4 75.4001 742.7C76.3001 758 80.2001 777.5 82.9001 792.8C83.9001 798.3 85.3001 804.2 85.6001 809.3C86.8001 814.5 87.6001 819.9 88.5001 824.9C91.2001 841.2 94.4001 857.6 97.2001 873.9C98.8001 883 100.2 891.9 101.7 901.7C104.4 918.8 107.2 935.3 109.5 952.2C109.2 953 109.5 956 110.1 957.7Z" fill="white"/>
<path fill-rule="evenodd" clip-rule="evenodd" d="M1134.6 556.7L1134.7 557.4C1134.5 557.9 1134.5 556.4 1134.4 555.8C1134.3 554.9 1134 553.9 1134.1 553.4C1134.4 552.9 1134.7 552.5 1135.1 552.5C1136.2 552.4 1136.4 553.8 1137.1 555.5C1137.8 557.4 1139.1 559.7 1139.5 560.9C1141.6 571.5 1143.5 583 1145.3 594C1145.6 595.6 1145.7 596.9 1145.7 598.4C1147.2 604.3 1147.8 611.4 1148.8 617.7C1149.1 619.5 1149.5 621.3 1149.8 623C1150.1 624.7 1150.3 626.4 1150.6 628.1C1152.2 637.7 1153.9 649.1 1155.6 659.9C1155.9 661.9 1156.4 663.8 1156.7 665.8C1158 675.1 1159.6 684.7 1160.7 692.2C1162.2 702.1 1164.2 712.4 1166 722.8C1166.1 725.2 1166.7 728.7 1167.1 731.3C1168 737.9 1169.1 745.1 1169.1 751.4C1169.1 752.8 1168.8 754.5 1168.8 756.2C1168.7 757.9 1168.8 759.8 1168.5 761C1168.3 761.9 1167.3 762.2 1167.4 763.5C1166.2 763.3 1164.6 765.1 1163.7 761.8C1163.1 759.6 1163.4 757 1163.3 754.8C1162.8 740.7 1159.5 722.7 1157.2 708.6C1156.4 703.5 1155.1 698.1 1154.9 693.4C1153.8 688.6 1153.2 683.7 1152.5 679C1150.3 663.9 1147.5 648.8 1145.2 633.8C1143.9 625.4 1142.7 617.2 1141.5 608.2C1139.3 592.4 1137 577.2 1135.2 561.6C1135.2 561 1135.1 558.3 1134.6 556.7Z" fill="white"/>
<path d="M163.501 820.5L283.901 1054.4C198.701 1042.1 134.501 1014.5 109.601 968.5C108.901 967.2 108.301 966 107.601 964.7C108.401 962.9 109.101 961 109.901 959C131.801 905 163.501 820.5 163.501 820.5Z" fill="white"/>
<path d="M402.3 847.8L554.2 1052.9C467.6 1062.9 383.9 1065.1 312.3 1057.9L402.3 847.8Z" fill="white"/>
<path d="M691.3 820.5L841 992.7C765.8 1016.1 684 1034.5 603 1046.5L691.3 820.5Z" fill="white"/>
<path d="M945.7 733.4L1077.4 883.7C1029.7 918.1 965.7 949 893.2 975.1L945.7 733.4Z" fill="white"/>
<path d="M1164.9 766.5C1161.2 794.3 1145.7 821.2 1121 846.7L1136.8 569.1C1146.4 628.7 1156 688.3 1165.6 748C1166 753.5 1165.8 759.7 1164.9 766.5Z" fill="white"/>
<path fill-rule="evenodd" clip-rule="evenodd" d="M714.1 531.7C714.3 531.1 714.5 530.5 714.7 529.9C715.3 528.9 713.9 532.3 713.3 533.8C712.5 535.9 711.8 538.4 711.2 539.4C710.5 540.3 709.9 541 709.5 540.8C708.5 540.2 709.8 536.9 710.9 532.5C712.1 527.8 713.4 521.6 714.3 518.6C722.8 493.1 732.5 465.8 741.7 439.5C743 435.8 744.1 432.7 745.6 429.3C750.1 415 756.4 398.5 761.8 383.3C763.3 379.1 764.7 374.8 766.2 370.5C767.6 366.4 769.1 362.4 770.4 358.5C778.4 335.6 788.1 308.5 797.2 282.8C798.9 278.1 800.4 273.3 802.1 268.6C810.1 246.6 818.1 223.8 824.4 206C832.8 182.4 841.2 157.8 849.8 133C852.1 127.5 855 119 857.2 112.9C862.8 97.3999 868.9 80.1999 875.1 65.8999C876.5 62.6999 878.3 58.9999 880 55.2999C881.7 51.5999 883.4 47.1999 884.9 44.6999C885.9 42.8999 887 42.7999 888.2 39.8999C889 41.0999 892 38.0999 889.6 46.2999C888 51.6999 885.3 57.2999 883.2 62.2999C869.9 94.5999 855.2 137.6 843.3 171.2C839 183.3 834.8 196.5 830.4 207.2C826.6 218.7 822.4 230.4 818.4 241.5C805.6 277.2 793.2 313.3 780.4 349.1C773.3 369 766.3 388.5 758.5 409.8C744.9 447.1 732 483.2 718.4 519.8C717.8 521.4 715.2 527.7 714.1 531.7Z" fill="white"/>
<path fill-rule="evenodd" clip-rule="evenodd" d="M743.601 558.9C743.801 558.3 744.001 557.7 744.201 557.1C744.801 556.1 743.401 559.5 742.801 561.1C742.001 563.2 741.201 565.8 740.701 566.9C740.001 567.8 739.401 568.6 738.901 568.3C737.901 567.7 739.201 564.3 740.301 559.8C741.501 554.9 742.901 548.6 743.801 545.5C752.601 519.3 762.601 491.2 772.001 464.2C773.301 460.4 774.501 457.2 776.001 453.7C780.701 439 787.201 422 792.701 406.4C794.201 402.1 795.701 397.6 797.201 393.3C798.701 389.1 800.101 385 801.601 380.9C809.901 357.4 819.801 329.5 829.201 303.1C830.901 298.3 832.501 293.3 834.201 288.5C842.501 265.8 850.601 242.4 857.101 224.1C865.701 199.9 874.401 174.5 883.201 149C885.501 143.4 888.501 134.6 890.801 128.4C896.601 112.5 902.901 94.7998 909.201 80.0998C910.601 76.7998 912.501 72.9998 914.201 69.1998C915.901 65.3998 917.701 60.7998 919.201 58.2998C920.201 56.4998 921.401 56.2998 922.501 53.2998C923.301 54.5998 926.401 51.4998 923.801 59.8998C922.101 65.4998 919.301 71.2998 917.201 76.3998C903.601 109.7 888.401 153.8 876.201 188.4C871.801 200.8 867.401 214.4 862.901 225.5C859.001 237.4 854.601 249.4 850.501 260.8C837.301 297.5 824.501 334.7 811.401 371.4C804.101 391.8 796.901 411.9 788.901 433.9C775.301 472.2 762.001 509.3 748.001 547C747.401 548.3 744.701 554.8 743.601 558.9Z" fill="white"/>
<path fill-rule="evenodd" clip-rule="evenodd" d="M709.6 538.7L709.7 539.1C709.5 539.4 709.6 538.6 709.5 538.3C709.4 537.9 709.2 537.4 709.4 537.1C709.7 536.8 710 536.6 710.5 536.5C711.6 536.3 711.7 537 712.3 537.9C712.9 538.8 714 539.9 714.3 540.5C715.7 545.9 716.4 551.9 716.8 557.7C716.9 558.5 716.9 559.2 716.6 560C717.3 563.1 716.9 566.8 716.8 570.1C716.8 571 716.9 572 716.8 572.9C716.8 573.8 716.7 574.7 716.7 575.6C716.5 580.6 715.8 586.6 715 592.2C714.8 593.2 714.8 594.3 714.6 595.3C713.6 600.1 712.7 604.9 711.8 608.7C710.6 613.7 709.6 619 708.3 624.2C707.7 625.3 707.3 627.1 706.8 628.3C705.7 631.5 704.6 635.1 702.7 637.8C702.3 638.4 701.5 639.1 701 639.7C700.5 640.4 700 641.2 699.3 641.6C698.8 641.9 697.8 641.7 697.6 642.2C696.5 641.7 694.5 641.8 694.7 640.1C694.8 639 695.8 637.9 696.4 637C700.2 630.8 702.4 621.8 704.1 614.9C704.7 612.4 705 609.6 706.1 607.5C706.3 605.1 707 602.6 707.5 600.3C709.2 592.8 709.9 585.2 710.5 577.7C710.8 573.5 711.1 569.3 711.2 564.8C711.4 556.8 710.8 549.1 710.1 541.2C710 540.9 710 539.5 709.6 538.7Z" fill="white"/>
<path fill-rule="evenodd" clip-rule="evenodd" d="M748.501 541.9L748.301 542.2C748.001 542.3 748.501 541.7 748.701 541.4C748.901 541 749.101 540.5 749.401 540.3C749.801 540.3 750.201 540.3 750.601 540.5C751.601 541.1 751.201 541.7 751.101 542.7C751.001 543.8 751.101 545.3 751.001 546C748.801 551.1 746.001 556.5 743.501 561.7C743.101 562.4 742.801 563 742.201 563.6C741.201 566.6 739.201 569.7 737.701 572.7C737.301 573.5 737.001 574.4 736.601 575.3C736.201 576.1 735.801 576.9 735.401 577.7C733.301 582.3 730.601 587.6 728.301 592.7C727.901 593.6 727.601 594.7 727.101 595.6C724.901 599.9 723.001 604.6 721.501 608.1C719.501 612.8 718.201 617.9 716.801 623.1C716.201 624.2 715.701 626 715.301 627.2C715.001 628.1 714.701 629.1 714.401 630.1C714.201 630.6 714.101 631.1 713.901 631.6C713.701 632.2 713.501 632.9 713.301 633.5L713.401 633C713.001 634.2 712.501 635.4 711.701 636.6C711.301 637.2 710.601 638 710.201 638.8C709.701 639.6 709.301 640.5 708.601 641.1L708.501 641.2V641.3C708.001 641.6 707.201 641.6 707.001 642.2C705.901 641.8 704.001 642.3 703.801 640.6V641.7V641.6C703.801 640.3 704.701 638.8 705.201 637.5C706.001 635.6 706.701 633.6 707.301 631.6L707.401 631.2V631.3C707.401 631.4 707.401 631.4 707.401 631.4V631.3L707.501 631L707.701 630.4L708.101 629.3L708.801 627C709.301 625.5 709.701 623.9 710.201 622.4C711.101 619.3 712.001 616.3 712.901 613.6C713.701 611.1 714.401 608.1 715.901 606.1C716.601 603.6 717.701 601.3 718.701 599C722.001 591.8 725.101 584.4 728.601 577.3C730.601 573.3 732.601 569.5 734.901 565.3C738.901 558 742.701 551 747.101 544.1C747.401 543.9 748.401 542.8 748.501 541.9Z" fill="white"/>
<path d="M708.1 641.3C705.1 641 702 640.8 699 640.5C702.6 629.1 706.2 617.4 708.4 605.7C710.8 607.6 713.4 609.6 716 611.6C712.3 621.2 709.7 631.1 708.1 641.3Z" fill="white"/>
<path fill-rule="evenodd" clip-rule="evenodd" d="M740.1 508.3L740 508.4C739.8 508.3 740.1 508.2 740.2 508.2C740.3 508.1 740.4 507.9 740.6 507.9C740.9 508.1 741.2 508.3 741.6 508.6C742.4 509.4 742.2 509.5 742.2 510.1C742.3 510.7 742.5 511.6 742.5 511.9C741.4 513.7 739.8 515.4 738.3 517C738.1 517.2 737.9 517.4 737.5 517.4C737.1 518.6 735.8 519.3 734.9 520.2C734.7 520.4 734.5 520.8 734.2 521C734 521.2 733.7 521.5 733.5 521.7C732.2 523.1 730.6 524.7 729.1 526.2C728.8 526.5 728.7 526.9 728.4 527.1C727 528.3 725.7 529.7 724.7 530.8C723.3 532.2 722.1 533.9 720.8 535.5C720.3 535.6 719.8 536.2 719.4 536.5C718.4 537.3 717.4 538.4 715.8 538.5C715.4 538.5 714.8 538.4 714.4 538.4C713.9 538.4 713.5 538.5 713 538.3C712.6 538.2 711.9 537.5 711.6 537.6C710.8 536.7 709.2 535.7 709.4 534.9C709.5 534.4 710.3 534.5 710.8 534.4C714 533.6 716.1 530.8 718.1 528.7C718.8 528 719.3 526.9 720.3 526.7C720.7 525.8 721.5 525.2 722.2 524.6C724.4 522.6 726.2 520.2 728.4 518.1C729.6 516.9 730.8 515.8 732.2 514.7C734.6 512.7 736.8 510.6 739.4 508.8C739.5 508.9 740 508.7 740.1 508.3Z" fill="white"/>
<path fill-rule="evenodd" clip-rule="evenodd" d="M736.001 543.7V543.6C736.301 543.5 736.001 543.8 736.001 543.9C736.001 544 736.101 544.2 735.901 544.3C735.601 544.3 735.201 544.4 734.701 544.3C733.601 544.2 733.701 544 733.301 543.6C732.901 543.2 732.101 542.8 731.901 542.5C731.601 540.7 731.801 538.9 731.901 537.1C731.901 536.8 732.001 536.6 732.301 536.4C731.901 535.4 732.501 534.3 732.601 533.3C732.601 533 732.601 532.7 732.601 532.4C732.601 532.1 732.701 531.8 732.701 531.6C732.801 530 733.101 528.2 733.301 526.4C733.301 526.1 733.201 525.7 733.301 525.4C733.701 523.9 733.701 522.4 733.901 521.1C734.101 519.5 734.001 517.8 734.001 516.1C734.301 515.7 734.301 515.2 734.401 514.8C734.701 513.8 734.801 512.6 736.001 511.7C736.301 511.5 736.801 511.3 737.101 511.1C737.401 510.9 737.701 510.6 738.201 510.4C738.601 510.3 739.601 510.4 739.701 510.2C740.901 510.4 742.701 510.3 743.101 510.9C743.301 511.3 742.601 511.6 742.301 511.9C740.301 514 740.501 516.9 740.301 519.2C740.201 520 740.501 521 739.901 521.6C740.101 522.4 739.901 523.2 739.801 523.9C739.401 526.3 739.501 528.8 739.101 531.2C738.901 532.6 738.701 533.9 738.301 535.3C737.701 537.8 737.301 540.3 736.401 542.7C736.101 543 735.701 543.4 736.001 543.7Z" fill="white"/>
<path fill-rule="evenodd" clip-rule="evenodd" d="M746.2 541.1C746.3 541 746.1 540.8 746.2 541.1C746.3 541.1 746.4 541 746.4 541.1C746.5 541.4 746.6 541.8 746.7 542.2C747 543.3 746.9 543.2 746.8 543.7C746.8 544.2 746.8 545 746.8 545.2C746.1 545.8 745.3 546 744.5 546.2C744.4 546.2 744.3 546.2 744.1 546C743.8 546.6 743.2 546.2 742.7 546.3C742.6 546.3 742.5 546.4 742.3 546.5C742.2 546.5 742.1 546.5 741.9 546.6C741.2 546.8 740.4 546.8 739.6 546.9C739.5 546.9 739.3 547.1 739.2 547.1C738.5 546.9 737.8 547.1 737.3 547.1C736.6 547.1 735.8 547.5 735.1 547.7C734.9 547.4 734.6 547.5 734.5 547.5C734 547.4 733.5 547.4 733 546.3C732.9 546.1 732.7 545.6 732.6 545.2C732.5 544.9 732.3 544.7 732.2 544.1C732.1 543.7 732.1 542.7 732 542.6C732 541.4 731.8 539.6 732 539.2C732.1 538.9 732.3 539.6 732.5 539.9C733.5 541.6 734.7 541.1 735.6 541C735.9 541 736.3 540.5 736.6 541.1C736.9 540.8 737.2 540.9 737.6 540.9C738.6 541 739.6 540.5 740.6 540.4C741.2 540.4 741.7 540.4 742.4 540.5C743.5 540.6 744.5 540.6 745.7 540.9C746 541.1 746.2 541.4 746.2 541.1Z" fill="white"/>
<path d="M933.601 34.4L920.301 69.4L881.101 54.4L894.401 19.4C898.701 8.09998 911.001 2.19998 921.801 6.39998C927.201 8.49998 931.301 12.6 933.401 17.7C935.501 22.8 935.701 28.7 933.601 34.4Z" fill="white"/>
<path fill-rule="evenodd" clip-rule="evenodd" d="M912.901 93.5L912.701 93.4C912.701 93.1 913.001 93.5 913.101 93.5C913.301 93.6 913.601 93.6 913.701 93.8C913.701 94.2 913.701 94.5 913.501 95C913.101 96.1 912.801 95.9 912.201 96.1C911.601 96.4 910.701 96.9 910.301 97C907.401 96.5 904.301 95.7 901.401 95C901.001 94.9 900.601 94.8 900.301 94.4C898.601 94.5 896.801 93.7 895.101 93.3C894.601 93.2 894.101 93.2 893.601 93.1C893.101 93 892.701 92.9 892.201 92.8C889.601 92.4 886.501 91.8 883.501 91.4C883.001 91.3 882.401 91.4 881.901 91.3C879.401 90.8 876.701 90.6 874.701 90.5C872.001 90.3 869.101 90.5 866.201 90.6C865.601 90.3 864.601 90.4 863.901 90.3C862.101 90.1 860.101 90.2 858.401 89.2C858.001 89 857.501 88.5 857.101 88.2C856.601 87.9 856.101 87.7 855.701 87.2C855.501 86.8 855.301 85.8 855.001 85.8C855.001 84.6 854.501 82.8 855.401 82.3C856.001 82 856.801 82.6 857.401 82.9C861.501 84.5 866.601 84.1 870.701 84.2C872.201 84.3 873.801 83.9 875.001 84.6C876.401 84.4 877.801 84.6 879.101 84.8C883.401 85.4 887.701 85.6 892.001 86.5C894.401 87 896.601 87.5 899.101 88.3C903.401 89.6 907.601 90.9 911.601 92.8C911.801 93.1 912.401 93.6 912.901 93.5Z" fill="white"/>
<path fill-rule="evenodd" clip-rule="evenodd" d="M903.201 145.9L903.001 145.8C903.001 145.5 903.301 146 903.401 146.1C903.601 146.3 904.001 146.4 904.001 146.6C903.901 147 903.801 147.3 903.601 147.7C903.001 148.7 902.601 148.3 901.901 148.4C901.101 148.4 900.001 148.7 899.601 148.7C896.501 147.2 893.401 145.2 890.401 143.4C890.001 143.1 889.701 142.9 889.401 142.4C887.501 141.8 885.901 140.1 884.301 139C883.801 138.7 883.301 138.4 882.801 138.1C882.401 137.8 881.901 137.5 881.501 137.2C878.901 135.5 876.001 133.3 873.201 131.3C872.701 130.9 872.101 130.7 871.601 130.3C869.301 128.4 866.801 126.6 864.901 125.2C862.401 123.3 859.601 121.5 856.801 119.6C856.401 118.9 855.501 118.3 854.801 117.7C853.201 116.3 851.401 114.8 850.601 112.8C850.401 112.3 850.301 111.6 850.101 111C849.901 110.4 849.601 109.9 849.601 109.2C849.601 108.7 850.201 107.9 850.001 107.6C850.801 106.7 851.601 105 852.701 105.4C853.401 105.6 853.601 106.6 854.001 107.3C856.301 111.4 861.101 114.6 864.601 117.3C865.901 118.3 867.501 119 868.301 120.3C869.701 121 870.901 122 872.001 122.9C875.701 125.8 879.801 128.4 883.601 131.2C885.701 132.8 887.801 134.3 890.101 136.1C894.001 139.2 898.001 141.9 901.801 145.1C902.001 145.2 902.601 145.9 903.201 145.9Z" fill="white"/>
<path d="M839.8 260.1C845.378 260.1 849.9 255.578 849.9 250C849.9 244.422 845.378 239.9 839.8 239.9C834.222 239.9 829.7 244.422 829.7 250C829.7 255.578 834.222 260.1 839.8 260.1Z" fill="white"/>
<path d="M784.5 368.4C786.489 368.4 788.1 366.788 788.1 364.8C788.1 362.812 786.489 361.2 784.5 361.2C782.512 361.2 780.9 362.812 780.9 364.8C780.9 366.788 782.512 368.4 784.5 368.4Z" fill="white"/>
<path d="M754.7 467.1C759.947 467.1 764.2 462.847 764.2 457.6C764.2 452.353 759.947 448.1 754.7 448.1C749.453 448.1 745.2 452.353 745.2 457.6C745.2 462.847 749.453 467.1 754.7 467.1Z" fill="white"/>
<path d="M861.101 159.1C863.034 159.1 864.601 157.533 864.601 155.6C864.601 153.667 863.034 152.1 861.101 152.1C859.168 152.1 857.601 153.667 857.601 155.6C857.601 157.533 859.168 159.1 861.101 159.1Z" fill="white"/>
<path d="M816 315C818.651 315 820.8 312.851 820.8 310.2C820.8 307.549 818.651 305.4 816 305.4C813.349 305.4 811.2 307.549 811.2 310.2C811.2 312.851 813.349 315 816 315Z" fill="white"/>
<path d="M754.8 509.6C757.451 509.6 759.6 507.451 759.6 504.8C759.6 502.149 757.451 500 754.8 500C752.149 500 750 502.149 750 504.8C750 507.451 752.149 509.6 754.8 509.6Z" fill="white"/>
<path fill-rule="evenodd" clip-rule="evenodd" d="M548.401 452.1C548.301 452.3 548.2 452.5 548.1 452.7C547.7 453 548.401 451.9 548.701 451.3C549.001 450.6 549.301 449.6 549.701 449.3C550.201 449.1 550.601 448.9 551.001 449.1C552.001 449.6 551.401 450.8 551.201 452.4C550.901 454.2 550.801 456.6 550.501 457.7C547.001 466.8 542.801 476.5 538.901 485.8C538.301 487.1 537.8 488.2 537.1 489.3C535.4 494.5 532.4 500.2 530.1 505.6C529.4 507.1 528.901 508.7 528.201 510.2C527.601 511.6 527.001 513.1 526.401 514.5C522.901 522.6 518.701 532.2 514.701 541.3C514.001 543 513.4 544.7 512.6 546.4C509 554.1 505.6 562.2 502.8 568.5C499.1 576.8 495.701 585.6 492.001 594.5C490.901 596.4 489.601 599.4 488.601 601.5C486.101 606.9 483.401 613 480.201 617.8C479.501 618.9 478.401 620 477.501 621.3C476.601 622.5 475.701 624 474.801 624.8C474.201 625.3 473.201 625.1 472.601 626.1C471.601 625.3 469.401 625.9 470.301 622.9C470.901 620.9 472.401 619.1 473.401 617.4C480.001 606.4 486.201 591.1 491.401 579.2C493.201 574.9 494.901 570.1 497.101 566.5C498.601 562.3 500.5 558.2 502.3 554.3C507.9 541.7 513.201 528.8 518.701 516.2C521.801 509.2 524.901 502.3 528.401 494.8C534.401 481.7 540.101 468.9 546.401 456.2C546.801 455.8 548.101 453.6 548.401 452.1Z" fill="white"/>
<path fill-rule="evenodd" clip-rule="evenodd" d="M284.5 612.7L284.9 612.9C285.1 613.2 284.3 612.7 284 612.5C283.5 612.3 282.9 612.2 282.7 611.9C282.6 611.5 282.5 611.1 282.7 610.6C283.2 609.6 283.9 609.9 285.1 610C286.4 610 288.1 609.8 288.9 609.9C295.2 611.9 301.7 614.4 308.1 616.8C309 617.1 309.7 617.5 310.5 618C314.1 618.9 317.9 620.8 321.6 622.3C322.6 622.7 323.7 623 324.7 623.4C325.7 623.8 326.7 624.2 327.6 624.5C333.1 626.6 339.6 629.2 345.8 631.7C346.9 632.1 348.1 632.4 349.2 632.9C354.4 635.2 360 637.2 364.2 638.9C369.9 641.2 375.9 643.2 381.9 645.3C383.1 646.1 385.2 646.8 386.7 647.5C390.4 649.1 394.5 650.7 397.7 653.1C398.4 653.6 399.2 654.5 400 655.1C400.8 655.8 401.8 656.4 402.3 657.1C402.6 657.6 402.4 658.6 403.1 659C402.5 660 402.7 662.1 400.6 661.7C399.2 661.4 398 660.3 396.9 659.5C389.6 654.8 379.1 651.1 371 648C368.1 646.9 364.8 646 362.4 644.4C359.5 643.6 356.7 642.4 354.1 641.3C345.5 637.8 336.7 634.7 328.1 631.3C323.3 629.4 318.6 627.4 313.6 625.3C304.7 621.5 296 618 287.4 613.9C287 613.6 285.5 612.8 284.5 612.7Z" fill="white"/>
<path fill-rule="evenodd" clip-rule="evenodd" d="M588.9 546C588.8 546.1 588.6 546.2 588.5 546.4C588.1 546.4 589 545.9 589.4 545.6C589.9 545.2 590.4 544.6 590.8 544.5C591.3 544.5 591.7 544.7 592 545C592.7 545.9 591.9 546.5 591.2 547.7C590.5 549 589.7 550.8 589.1 551.5C583.6 557 577.4 562.6 571.4 568C570.6 568.8 569.8 569.4 568.9 569.9C566 573.2 561.9 576.2 558.4 579.3C557.4 580.2 556.5 581.1 555.6 582C554.7 582.8 553.8 583.6 552.9 584.5C547.7 589.2 541.5 594.7 535.6 599.9C534.5 600.9 533.5 601.9 532.4 602.9C527.2 607.2 522.1 612 518 615.6C512.6 620.4 507.2 625.6 501.7 630.8C500.2 631.7 498.3 633.5 496.9 634.7C493.3 637.8 489.3 641.3 485.2 643.4C484.3 643.9 483.1 644.3 482 644.8C480.9 645.3 479.7 646.1 478.8 646.2C478.1 646.3 477.3 645.7 476.6 646.2C476 645.1 473.9 644.5 475.5 642.6C476.5 641.3 478.3 640.6 479.7 639.8C488.4 634.4 497.9 625.3 505.5 618.5C508.2 616 511 613.1 513.9 611.3C516.3 608.7 519.1 606.4 521.7 604.2C530 597 538 589.4 546.2 582.2C550.8 578.2 555.3 574.3 560.3 570.1C569.1 562.7 577.4 555.4 586.2 548.4C586.6 548.1 588.2 547 588.9 546Z" fill="white"/>
<path d="M384.4 611.5C386.8 626.5 399.4 639.1 414 642C437.5 646.6 464.2 625.4 462.4 600.6C461.1 582.3 444.7 566.3 426 565.2C401.5 563.7 380.7 588.5 384.4 611.5Z" fill="white"/>
<path fill-rule="evenodd" clip-rule="evenodd" d="M388.9 594.7C388.4 594.3 388 593.8 387.5 593.4C386.8 592.4 389.4 595.2 390.6 596.3C392.2 597.9 394.3 599.7 395 600.6C395.6 601.6 396 602.5 395.6 602.8C394.7 603.5 392.1 600.9 388.4 598C384.5 594.9 379.3 591 376.8 589C356.5 570.3 334.9 549.7 314.1 530C311.2 527.2 308.7 524.8 306.2 522.1C294.7 511.8 281.8 499 269.9 487.5C266.6 484.3 263.1 481.2 259.8 478C256.6 475 253.4 471.9 250.3 469C232.2 451.8 210.8 431.3 190.5 412C186.8 408.4 182.9 405 179.3 401.4C162 384.6 143.9 367.5 130 354.2C111.4 336.4 91.8003 318.2 72.1003 299.7C67.9003 295.3 61.2003 289 56.4003 284.3C44.2003 272.5 30.6003 259.5 19.8003 247.7C17.4003 245.1 14.7003 241.8 11.9003 238.7C9.10029 235.6 5.70029 232.1 4.00029 229.7C2.80029 228 3.10029 226.9 0.800293 224.6C2.30029 224.4 0.700293 220.3 7.40029 226.1C11.8003 229.9 15.9003 234.8 19.8003 238.8C44.6003 264.8 78.7003 296.7 105.2 322C114.7 331.1 125.4 340.7 133.6 349.3C142.8 357.7 152 366.6 160.8 375C188.9 402 217.6 428.9 245.8 455.9C261.5 470.9 276.8 485.7 293.6 502C322.9 530.4 351.4 557.7 380 585.9C380.8 586.9 385.7 592 388.9 594.7Z" fill="white"/>
<path fill-rule="evenodd" clip-rule="evenodd" d="M415 568.6C414.5 568.2 414.1 567.7 413.6 567.3C412.9 566.3 415.5 569.1 416.7 570.2C418.3 571.8 420.4 573.6 421.1 574.5C421.7 575.5 422.1 576.4 421.7 576.7C420.8 577.4 418.2 574.8 414.5 571.9C410.6 568.8 405.4 564.9 402.9 562.9C382.6 544.2 361 523.6 340.2 503.9C337.3 501.1 334.8 498.7 332.3 496C320.8 485.7 307.9 472.9 296 461.4C292.7 458.2 289.2 455.1 285.9 451.9C282.7 448.9 279.5 445.8 276.4 442.9C258.3 425.7 236.9 405.2 216.6 385.9C212.9 382.3 209 378.9 205.4 375.3C188.1 358.5 170 341.4 156.1 328.1C137.5 310.3 117.9 292.1 98.2004 273.6C94.0004 269.2 87.3004 262.9 82.5004 258.2C70.3004 246.4 56.7004 233.4 45.9004 221.6C43.5004 219 40.8004 215.7 38.0004 212.6C35.2004 209.5 31.8004 206 30.1004 203.6C28.9004 201.9 29.2004 200.8 26.9004 198.5C28.4004 198.3 26.8004 194.2 33.5004 200C37.9004 203.8 42.0004 208.7 45.9004 212.7C70.7004 238.7 104.8 270.6 131.3 295.9C140.8 305 151.5 314.6 159.7 323.2C168.9 331.6 178.1 340.5 186.9 348.9C215 375.9 243.7 402.8 271.9 429.8C287.6 444.8 302.9 459.6 319.7 475.9C349 504.3 377.5 531.6 406.1 559.8C406.8 560.8 411.7 565.9 415 568.6Z" fill="white"/>
<path fill-rule="evenodd" clip-rule="evenodd" d="M27.8002 198.6L27.7002 198.7C27.5002 198.6 27.8002 198.6 27.9002 198.5C28.0002 198.4 28.1002 198.2 28.3002 198.2C28.6002 198.4 28.9002 198.6 29.3002 198.9C30.1002 199.7 29.9002 199.8 30.0002 200.3C30.1002 200.9 30.4002 201.7 30.4002 202.1C29.4002 203.8 28.0002 205.4 26.7002 207C26.5002 207.2 26.3002 207.4 26.0002 207.4C25.7002 208.6 24.4002 209.2 23.6002 210.1C23.4002 210.3 23.2002 210.7 23.0002 210.9C22.8002 211.1 22.6002 211.4 22.4002 211.6C21.3002 213 19.8002 214.4 18.5002 215.9C18.3002 216.2 18.1002 216.5 17.8002 216.8C16.5002 217.9 15.4002 219.3 14.4002 220.3C13.1002 221.6 12.1002 223.2 11.0002 224.8C10.5002 224.9 10.1002 225.5 9.70017 225.8C8.80017 226.6 7.90017 227.6 6.30017 227.7C6.00017 227.7 5.40017 227.6 4.90017 227.6C4.50017 227.6 4.10017 227.7 3.50017 227.5C3.10017 227.4 2.40017 226.7 2.10017 226.8C1.20017 226 -0.299833 225 -0.199833 224.2C-0.0998329 223.7 0.700167 223.8 1.10017 223.7C4.10017 223 6.00017 220.2 7.70017 218.3C8.30017 217.6 8.70017 216.6 9.70017 216.3C10.1002 215.4 10.8002 214.9 11.4002 214.3C13.4002 212.4 15.0002 210.1 16.9002 208.1C18.0002 207 19.1002 206 20.3002 204.8C22.5002 202.9 24.4002 200.9 26.8002 199.2C27.3002 199.2 27.8002 199.1 27.8002 198.6Z" fill="white"/>
<path fill-rule="evenodd" clip-rule="evenodd" d="M81.7003 315.4C81.6003 316.1 81.6003 316.8 81.6003 317.5C81.4003 318.1 81.5003 317.4 81.6003 316.4C81.7003 315.3 81.9003 313.9 82.0003 313C82.3003 310.6 82.5003 307.7 82.9003 306.4C83.4003 305.3 83.9003 304.4 84.3003 304.5C85.4003 304.9 84.7003 308.7 84.7003 313.6C84.6003 318.9 85.3003 325.7 85.6003 329C85.9003 336.2 86.8003 343.5 88.6003 350.6C90.3003 357.7 92.9003 364.7 96.4003 371.3C103.3 384.5 113.9 395.7 125.8 404.6C127.5 405.9 129.1 407 130.6 408.1C132.2 409.2 133.6 410.3 135.3 411.5C149.2 419.8 166.6 427.9 183.4 432.9C188.1 434.3 192.9 435.5 197.6 436.7C202.1 437.8 206.7 438.8 211.2 439.6C224.2 442 238.6 443.9 253.4 444.6C268.3 445.3 283.6 445 298.4 443.4C303.8 442.8 309.2 441.9 314.6 441.1C327.2 439.1 339.8 435.9 351.2 431.6C362.7 427.3 372.9 422 381.1 416.1C391.9 408.4 401.3 398.2 406.2 385.7C411.3 373.2 412.6 359 411.5 345.1C411.4 338.8 409.6 329.3 407.8 322.6C405.6 314.1 402.2 305.3 398.1 297.1C394 288.9 389.1 281.2 384.1 274.4C382.9 272.9 381.8 271.3 380.4 269.6C379 268 377.7 266.2 376.1 264.6C373.1 261.3 369.2 257.9 367 255.7C365.5 254.1 365.5 253 362.7 251C364.2 250.6 361.5 246.5 369.9 251.8C375.4 255.4 380.3 260.7 384.3 265.3C387.6 269.1 390.8 273.1 393.7 277.5C395.2 279.6 396.6 281.9 398.1 284.2C399.4 286.5 400.9 288.9 402.1 291.3C404.7 296.1 407 301.2 409.1 306.4C411.1 311.6 412.9 317 414.3 322.5C415.7 328 416.8 333.6 417.5 339.2C418.2 344.8 418.5 350.4 418.4 356C418.2 367.1 416.2 377.8 412.5 387.3C409.8 394.1 405.9 400.8 401.1 406.5C398.7 409.4 396.2 412 393.5 414.3C390.9 416.7 388.1 418.7 385.4 420.5C374.5 428.8 361.5 434.7 349.1 438.9C329 445.6 307.9 449.2 286.8 450.6C265.6 451.9 244.4 451.1 223.5 448C211.9 446.3 200.5 443.9 189 440.7C177.6 437.5 166.1 433.5 154.6 428.2C149.6 425.9 144.7 423.4 139.9 420.6C135.1 417.9 130.5 414.9 126.1 411.7C117.2 405.4 109.1 397.9 102.3 389.5C98.9003 385.3 95.8003 380.7 93.2003 376C90.6003 371.2 88.5003 366.2 86.7003 361.1C83.3003 350.8 81.7003 340 81.6003 329.1C81.7003 328.3 81.7003 326 81.9003 323.4C81.5003 320.7 81.7003 317.7 81.7003 315.4Z" fill="white"/>
<path fill-rule="evenodd" clip-rule="evenodd" d="M736.2 625.2C738.4 624.3 740.5 623.4 742.7 622.6C744.7 621.9 742.6 622.8 739.2 624.1C735.8 625.5 731.2 627.2 728.5 628.5C720.9 631.9 712.3 636.6 708.5 638.6C704.8 640.3 701.8 641.7 701.8 641.1C701.9 639.7 713.3 632.7 728.6 625.4C732.8 623.5 737.3 621.6 741.8 619.5C744.1 618.5 746.5 617.7 748.8 616.8C751.1 615.9 753.4 615 755.7 614.2C760.3 612.8 764.7 611.2 768.8 610.1C772.9 609 776.5 608.1 779.4 607.4C791.9 604.8 804.6 603 817.5 602.1C830.4 601.2 843.5 601.2 856.5 601.7C863 602 869.5 602.4 876 602.8C882.5 603.2 888.8 603.5 895.2 603.3C898.4 603.2 901.6 603 904.7 602.7C907.9 602.3 911.1 602 914.2 601.5C920.5 600.5 926.8 599.2 933 597.6C957.9 591 981.7 579.6 1003.7 565.7C1025.7 551.8 1046 535.3 1064.4 517.3C1074.8 507.1 1083 498.1 1091.9 487.9C1100.7 477.1 1109.2 465.4 1117.2 452.9C1125.1 440.4 1132.4 427 1138.2 412.9C1144 398.9 1148.4 384 1149.8 369.1C1150.2 365.4 1150.3 361.7 1150.2 358C1150 354.3 1149.8 350.6 1149.2 347.1C1148.7 343.5 1147.7 340 1146.7 336.6C1146.1 334.9 1145.6 333.2 1144.8 331.5L1143.8 329L1142.7 326.5C1135.8 312 1125.3 298.7 1112.2 289.6C1106 285.2 1099.1 281.8 1091.9 279.7C1084.7 277.6 1077.2 276.9 1069.8 277.2C1064.4 277.4 1058.9 278.1 1053.3 279.1C1047.7 280.1 1042 281.3 1036 282.3C1030 283.3 1023.7 284 1017 283.2C1013.7 282.8 1010.3 281.9 1007.1 280.4C1003.9 278.9 1001.1 276.9 998.5 274.5C996 272 993.9 269.1 992.3 266C990.7 262.8 989.8 259.5 989.1 256.1C987.9 249.4 988 242.8 988.5 236.4C989.5 223.6 991.7 211.1 992.9 198.6C994.2 186.1 994.7 173.5 993.4 161.1C992.7 154.9 991.7 148.7 990.1 142.7L988.9 138.2C988.5 136.7 987.9 135.2 987.4 133.7C986.5 130.7 985.2 127.8 984.1 124.9C979.2 113.3 972.7 102.4 965.3 92.2999C957.8 82.1999 949.3 72.8999 940.1 64.3999C926.6 51.9999 911.5 41.1999 895.5 32.2999C876.7 21.7999 856.3 13.6999 835.3 9.39995C824.8 7.29995 814.2 5.99995 803.7 6.09995H799.8H797.8L795.8 6.19995C793.2 6.39995 790.6 6.59995 788 6.79995C785.4 7.19995 782.9 7.59995 780.3 7.99995C777.8 8.49995 775.3 9.09995 772.8 9.69995C762.9 12.2999 753.6 16.1999 745 21.1999C736.4 26.1999 728.5 32.1999 721.2 38.4999C713.9 44.7999 707.1 51.5999 700.6 58.2999C694.1 64.9999 687.9 71.5999 681.8 77.9999C665.7 94.8999 648.7 111.9 629.2 126.2C628 127.1 626.8 128 625.6 128.9L621.9 131.5C619.4 133.2 617 135 614.4 136.6C611.8 138.2 609.3 139.8 606.7 141.4C604.1 142.9 601.4 144.4 598.8 145.9L596.8 147L594.8 148L590.7 150.1L586.6 152.2C585.2 152.9 583.8 153.5 582.4 154.1C579.6 155.3 576.8 156.6 574 157.8C571.2 158.9 568.3 160 565.5 161.1C564.1 161.6 562.7 162.2 561.2 162.7L556.8 164.2C553.9 165.2 551 166.2 548.1 167.1L539.2 169.6L534.8 170.9C533.3 171.3 531.8 171.6 530.3 172L521.3 174L519 174.5L516.7 174.9L512.1 175.7L507.5 176.5C506 176.8 504.5 177 502.9 177.2L493.7 178.3C490.6 178.7 487.5 178.9 484.5 179.1C481.4 179.3 478.3 179.6 475.2 179.7C469 179.9 462.8 180.2 456.6 180C450.4 180 444.2 179.6 438 179.3C434.9 179.1 431.8 178.8 428.7 178.6L424.1 178.2C422.6 178.1 421 177.9 419.5 177.7C408.4 176.4 394.6 174.1 380.5 171.6C366.5 169 352.3 166.1 340.4 163.7C325.3 160.7 309.9 157.6 294.2 155.5C278.5 153.3 262.6 152.2 246.9 153C231.2 153.8 215.8 156.6 201.5 161.7C197.9 162.8 194.4 164.4 191 165.9C187.5 167.3 184.2 169.1 180.9 170.8L178.4 172.1C177.6 172.5 176.8 172.9 176 173.4C174.4 174.4 172.9 175.3 171.3 176.3C169.7 177.2 168.2 178.2 166.7 179.1C165.2 180.1 163.7 181.1 162.3 182.2C157.1 185.8 151.6 190.1 146 194.8C140.5 199.6 135.1 204.9 130.1 210.5C125.1 216.1 120 222.6 115.6 228.7C111.1 234.9 107.4 240.9 104.6 245.3C102.6 248.5 101.2 250.4 99.6003 252.8C98.0003 255.2 96.2003 258.1 93.7003 263.4C93.9003 261.6 92.0003 263.8 91.8003 262.8C91.7003 262.3 92.0003 260.9 93.1003 257.9C94.3003 254.9 96.4003 250.1 100.3 242.9C105.4 233.4 111.7 224 118.7 215.3C125.7 206.5 133.3 198.5 140.9 191.6C153.2 180.4 167.4 170.4 183.3 162.6C199.2 154.7 217 149.8 235.3 147.7C253.7 145.5 272.5 146.6 291.1 148.9C309.7 151.2 328.3 155 346.7 158.7C365.2 162.4 383.6 166.2 402.1 168.9C420.6 171.7 439 173.5 457.3 173.7C475.5 173.9 493.5 172.6 510.7 169.6C527.9 166.6 544.5 162.2 560.1 156.5C571.2 152.3 582.3 147.5 593.1 141.8C603.8 136 614.1 129.4 623.9 122.3C643.5 108 660.4 91.2999 675.5 75.8999C683.3 67.6999 691 59.2999 699 51.0999C707 42.8999 715.4 34.8999 724.5 27.6999C733.6 20.4999 743.4 14.2999 754 9.69995C764.5 5.09995 775.7 2.09995 786.8 0.899948C795.8 -5.14984e-05 804.8 -0.300052 813.7 0.299948C822.7 0.899949 831.6 2.29995 840.3 4.29995C858.2 8.29995 875 14.7999 891 22.8999C899 26.9999 906.7 31.4999 914.2 36.4999C921.7 41.3999 928.9 46.7999 935.8 52.4999C942.7 58.2999 949.2 64.3999 955.4 70.8999C961.5 77.3999 967.3 84.3999 972.5 91.6999C977.7 98.9999 982.4 106.7 986.4 114.8C990.4 122.9 993.6 131.4 996 140.1C998.4 148.8 999.8 157.8 1000.3 166.8C1000.9 175.8 1000.6 184.8 999.8 193.7C999.1 202.6 997.9 211.5 996.7 220.3C995.6 229.1 994.4 237.9 994.6 246.5C994.7 250.8 995.2 255.1 996.4 259C997.6 263 999.7 266.6 1002.6 269.5C1002.9 269.9 1003.3 270.2 1003.7 270.6L1004.9 271.6C1005.7 272.3 1006.6 272.8 1007.4 273.4C1009.2 274.4 1011 275.4 1013 275.9C1016.9 277.2 1021.1 277.4 1025.4 277.3C1030.1 277.1 1034.9 276.3 1039.8 275.4C1044.6 274.5 1049.5 273.5 1054.4 272.7C1064.2 271.1 1074.4 270.3 1084.4 271.7C1089.4 272.4 1094.4 273.7 1099.1 275.5C1100.3 275.9 1101.5 276.4 1102.6 276.9L1104.3 277.7L1106 278.6L1109.4 280.4L1112.6 282.4C1113.7 283 1114.7 283.8 1115.8 284.5C1116.8 285.2 1117.9 285.9 1118.9 286.7C1120.9 288.3 1122.9 289.8 1124.7 291.6C1126.6 293.3 1128.3 295.1 1130.1 296.9C1131 297.8 1131.8 298.8 1132.6 299.7L1133.9 301.1L1135.1 302.6C1138.3 306.5 1141.1 310.8 1143.8 315.2C1146.4 319.6 1148.7 324.2 1150.6 329C1152.5 333.8 1154.1 338.7 1155.1 343.8C1156.1 348.9 1156.5 354.1 1156.6 359.3C1156.7 364.5 1156.2 369.7 1155.5 374.9C1154.8 380.1 1153.7 385.2 1152.5 390.3C1151.2 395.4 1149.6 400.4 1147.9 405.4C1146.1 410.4 1144.2 415.3 1142 420.2C1134.4 437.3 1124.8 453.3 1114.2 468.5C1103.5 483.6 1091.7 497.8 1079.1 511.1C1066.4 524.4 1052.9 536.8 1038.5 548.1C1024.2 559.4 1009 569.7 993.1 578.6C977.2 587.5 960.5 595 943 600.3C925.6 605.6 907.4 608.7 889.1 608.3C880 608.1 870.9 607.2 861.9 606.7C852.9 606.2 843.8 605.9 834.7 605.9C816.6 606.1 798.4 607.8 780.6 611.4C779.3 611.7 776.8 612.2 773.5 612.9C771.9 613.3 770 613.6 768 614.1C766 614.6 764 615.2 761.8 615.8C759.6 616.4 757.4 617 755.2 617.7C753 618.5 750.8 619.2 748.6 620C743.8 621.8 739.7 623.7 736.2 625.2Z" fill="white"/>
<path d="M390.501 142C383.201 167.5 375.801 193 368.501 218.5C392.101 223.8 415.701 229.1 439.401 234.3C416.601 242.1 393.701 249.8 370.901 257.6C367.001 280.7 363.201 303.8 359.301 326.8C348.301 304.8 337.301 282.8 326.401 260.8C301.001 268.1 275.501 275.3 250.101 282.6C268.401 262 286.701 241.4 305.001 220.8C292.201 203.2 279.301 185.6 266.501 167.9C287.901 179.1 309.201 190.3 330.601 201.5C350.501 181.8 370.501 161.9 390.501 142Z" fill="white"/>
</g>
<defs>
<clipPath id="clip0_403_4897">
<rect width="1171.6" height="1070.2" fill="white"/>
</clipPath>
</defs>
</svg>
