<?xml version="1.0" encoding="utf-8"?>
<!-- Generator: Adobe Illustrator 24.0.3, SVG Export Plug-In . SVG Version: 6.00 Build 0)  -->
<!DOCTYPE svg PUBLIC "-//W3C//DTD SVG 1.1//EN" "http://www.w3.org/Graphics/SVG/1.1/DTD/svg11.dtd" [
	<!ENTITY ns_extend "http://ns.adobe.com/Extensibility/1.0/">
	<!ENTITY ns_ai "http://ns.adobe.com/AdobeIllustrator/10.0/">
	<!ENTITY ns_graphs "http://ns.adobe.com/Graphs/1.0/">
	<!ENTITY ns_vars "http://ns.adobe.com/Variables/1.0/">
	<!ENTITY ns_imrep "http://ns.adobe.com/ImageReplacement/1.0/">
	<!ENTITY ns_sfw "http://ns.adobe.com/SaveForWeb/1.0/">
	<!ENTITY ns_custom "http://ns.adobe.com/GenericCustomNamespace/1.0/">
	<!ENTITY ns_adobe_xpath "http://ns.adobe.com/XPath/1.0/">
]>
<svg version="1.1" xmlns:x="&ns_extend;" xmlns:i="&ns_ai;" xmlns:graph="&ns_graphs;"
	 xmlns="http://www.w3.org/2000/svg" xmlns:xlink="http://www.w3.org/1999/xlink" x="0px" y="0px" viewBox="0 0 1171.6 1070.2"
	 style="enable-background:new 0 0 1171.6 1070.2;" xml:space="preserve">
<style type="text/css">
	.st0{fill:#D3D3D3;}
	.st1{fill-rule:evenodd;clip-rule:evenodd;}
</style>
<metadata>
	<sfw  xmlns="&ns_sfw;">
		<slices></slices>
		<sliceSourceBounds  bottomLeftOrigin="true" height="1070.2" width="1171.6" x="146.1" y="-963.4"></sliceSourceBounds>
	</sfw>
</metadata>
<g id="Background_1_">
	<g id="Background">
		<path class="st0" d="M885.6,63.1L725,512.6l20.8-16.3l10.5,46.4c55.4-155.2,110.8-310.3,166.2-465.5
			C910.3,72.5,897.9,67.8,885.6,63.1z"/>
		<path class="st0" d="M1.8,241.5c8-9.6,16-19.3,23.9-28.9C149,331.1,272.3,449.5,395.6,568c-3,2.6-7.5,7.3-11,14.2
			c-3.9,7.6-4.9,14.5-5.1,18.6C253.6,481,127.7,361.3,1.8,241.5z"/>
	</g>
</g>
<g id="General_1_">
	<g id="General">
		<g id="Drum">
			<path class="st1" d="M755,389.8l-1.6,0.1c-1-0.4,2.1-0.1,3.5-0.2c1.9,0,4.1-0.7,5.1-0.2c0.9,1.1,1.7,3,1.6,5
				c-0.1,2.6-0.9,2.9-2.1,2.5c-0.6-0.2-1.4-0.5-2.2-0.8c-0.8-0.3-1.7-0.6-2.7-0.7c-1-0.2-2.1-0.2-3.2-0.2c-1.1,0.1-2.2,0.3-3.3,0.5
				c-2.2,0.3-4.2,0.5-5.5,0.6c-11.4-0.6-23.2-0.8-35.2-0.3c-6,0.3-11.9,0.7-17.9,1.2c-3,0.3-5.9,0.6-8.9,0.8c-3,0.3-5.9,0.6-8.8,0.9
				c-3.3,0.4-6.1,0.6-9.2,0.6c-6.3,1-13.2,1.6-20.2,2.5c-7,0.8-14,2.4-20.7,3.6c-3.7,0.7-7.5,1.6-11.2,2.2c-1.8,0.3-3.6,0.5-5.4,0.8
				c-1.8,0.3-3.5,0.6-5.3,0.9c-20.2,3.4-44.2,7.7-66.7,12.7c-4.1,0.9-8.2,2.1-12.3,2.9c-19.4,4.1-39.1,9.5-54.4,14
				c-20.3,5.9-41,13.4-61.7,21.5c-4.9,1.3-11.9,4.2-17,6.1c-6.5,2.4-13.3,5.2-20.1,7.8c-6.8,2.6-13.5,5-19.9,6.7
				c-2.9,0.7-6.4,1.3-9.8,2.1c-3.4,0.8-7.3,2.1-9.9,2.1c-1.9,0-3.2-1.8-5.7-0.9c-0.4-2.6-5.1-5,1.4-8.6c4.3-2.4,9.8-3.1,14.3-4.3
				c14.5-4,30.7-9.9,46.9-15.7c16.2-5.8,32.5-11.7,47-16.4c5.2-1.7,10.6-3.5,15.9-5.3c5.3-1.7,10.6-3.2,15.4-4.1
				c4.9-1.7,9.9-3.2,15-4.6c5-1.4,10-2.7,14.9-3.9c31.4-8,63.2-15.4,95.2-20.5c8.9-1.3,17.7-2.7,26.8-3.7c4.5-0.5,9.1-0.9,13.8-1.3
				c4.6-0.4,9.4-0.8,14.2-1.2c16.8-1.7,33.4-2.9,50-3.8c16.5-0.8,33-1.6,49.6-1.6C745.6,390,751.5,390.4,755,389.8z"/>
			<path class="st1" d="M251.7,511c-2.1,1-4.1,1.9-6.2,2.9c-2.1,0.5,0-0.5,3.2-1.9c1.6-0.7,3.5-1.5,5.4-2.3c1.8-0.8,3.6-1.5,5-2.1
				c3.7-1.7,7.7-3.5,11.2-5.1c3.6-1.6,6.8-2.9,8.8-3.5c4-0.7,7.3-1,7.5,0.3c0.5,3.2-11.3,8.1-25.3,16.4c-3.8,2.2-7.8,4.7-11.8,7.2
				c-4,2.6-8,5.2-11.8,7.8c-3.8,2.6-7.4,5.1-10.7,7.4c-3.2,2.3-6.1,4.3-8.4,5.9c-20.3,12.5-40.3,26.1-58.7,41.6
				c-9.2,7.7-18.1,15.8-26.2,24.5c-8.2,8.6-15.7,17.7-22.1,27.3c-12.9,19.1-21,40.3-21.2,61.5c-0.1,5.3,0.3,10.5,1.1,15.7
				c0.8,5.1,2.2,10.2,3.9,14.7c0.4,1.1,0.9,2.2,1.4,3.3l1.6,3.4c1.2,2.2,2.4,4.4,3.8,6.5c2.8,4.2,6,8.2,9.6,12
				c4.1,4.3,8.3,7.9,12.6,11.5c2.1,1.8,4.3,3.5,6.5,5.3c2.3,1.7,4.5,3.5,7,5.3c21.6,11.7,48,21.1,75.9,28.4
				c28,7.2,57.4,12.2,85.8,15.1c15.8,1.6,32,2.3,47.9,3c15.3,0.7,30.6,1.1,45.5,1.2c43.3,0.2,90.9-1.9,139.7-6.2
				c48.8-4.4,98.8-11.1,147.1-19.9c17.7-3.3,35.4-7.2,52.9-10.9c41.4-8.7,82.9-19.7,121.7-32.2c38.9-12.5,75-26.5,105.7-40.8
				c20.4-9.4,40.6-19.9,60.1-31.8c19.5-11.9,38.4-25.2,55.4-40.8c8.5-7.8,16.6-16,23.8-25.1c3.6-4.5,7-9.2,10.1-14
				c3-4.9,6-9.8,8.4-15c2.4-5.2,4.6-10.5,6.2-16c1.6-5.5,2.8-11,3.5-16.7c1.4-11.3,0.5-22.8-2.5-33.8c-2.4-10-7.8-21.9-15.7-32.6
				c-7.9-10.7-18.1-19.8-27.4-26.6c-11.7-8.7-25-15.8-38.9-21.9c-13.9-6.1-28.6-11.1-43.3-15.2c-29.6-8.2-59.6-13.2-87.3-17
				c-12.3-1.7-27-3.8-41.6-5.3c-14.6-1.5-31.7-2.5-41.9-3.9c-7.2-1.1-9.1-3.6-20.4-4.1c1.6-1.6-1.1-3.7-0.2-5.5
				c0.8-1.7,5.2-3.1,20.9-2.6c20.7,0.7,43.3,4.3,62.9,7c31.6,4.6,65.4,10.4,99.7,20c17.1,4.9,34.2,10.7,51,18.1
				c4.1,2,8.3,3.8,12.4,5.9c2,1.1,4.1,2.1,6.1,3.2l6,3.4c7.9,4.7,15.7,9.8,22.9,15.6c7.2,5.8,13.9,12.3,19.9,19.5
				c6,7.1,11.1,15,14.9,23.5c7.9,16.8,10.9,35.8,8.5,53.8c-2.3,18.1-9.4,34.9-18.7,49.5c-9.3,14.7-20.7,27.3-32.5,38.5
				c-17,16.1-36.6,30.7-56.7,43.4c-20.1,12.8-40.6,23.7-59.6,32.6c-19.7,9.9-40.2,18.9-60.8,27.2c-20.6,8.3-41.4,15.8-61.7,22.6
				c-65.4,21.8-132.6,38.9-200.6,52c-68,13-136.9,22.1-206,25.5c-38.4,1.8-76.7,2-115.6-0.4c-19.5-1.2-39.1-3.1-59-5.9
				c-19.9-2.8-39.9-6.6-60.2-11.9c-17.7-4.7-35.1-10.4-51.9-17.9c-16.7-7.5-32.9-16.7-47-28.9c-7-6.1-13.6-12.9-19.1-20.5
				c-1.3-1.9-2.7-3.8-3.9-5.9l-1.9-3l-1.7-3.1c-1.2-2.1-2.1-4.2-3.1-6.4c-1-2.1-1.9-4.4-2.6-6.7c-6-17.9-6.9-37-3.5-55.2
				c3.3-18.2,10.9-35.2,20.8-50.3c9.9-15.1,22-28.6,35.1-40.6c6.5-6.1,13.4-11.8,20.4-17.2c7-5.5,14.2-10.6,21.6-15.6
				c7.3-5,14.9-9.6,22.5-14.2c7.7-4.5,15.4-8.9,23.2-13c2.4-1,9.2-4.2,17-8.1C236.2,518.9,245.1,514.5,251.7,511z"/>
			<path class="st1" d="M98.6,938c0.2,1.5,0.6,3,0.9,4.4c0.1,1.4-0.2-0.1-0.6-2.4c-0.2-1.2-0.4-2.5-0.6-3.8
				c-0.2-1.3-0.3-2.6-0.4-3.5c-0.7-5.3-1-11.6-0.8-14.4c0.4-2.6,0.8-4.7,1.2-4.5c1.2,0.5,1,9,3.3,19.3c1.3,5.5,3.3,11.7,5.8,17
				c2.4,5.4,5.2,9.9,7.1,12.8c7.5,13,18.5,23.8,31.2,32.7c12.7,8.9,27.1,15.9,42.2,21.5c30.2,11.3,62.8,17.5,95.1,21.3
				c1.1,0.1,2.3,0.3,3.4,0.4c1.1,0.1,2.2,0.2,3.3,0.3c2.1,0.2,4.2,0.5,6.3,0.7c4.1,0.5,8.1,1.2,12.3,2.1c17.6,0.7,36.7,1.5,56.2,2.2
				c19.5,0.6,39.4,1,58.4,0.4c10.6-0.3,21.3-1.2,31.8-1.8c10.1-0.6,20.2-1.2,30.1-2c14.3-1.2,29.2-2.5,44.6-4.1
				c7.7-0.7,15.5-1.7,23.3-2.6c7.9-1,15.8-2.1,23.8-3.1c8-1,16-2.1,24.1-3.1c8.1-1.2,16.2-2.4,24.2-3.7c16.1-2.6,32.3-5.3,48.1-8.3
				c5.8-1.1,11.6-2.4,17.4-3.7c5.8-1.3,11.6-2.6,17.4-3.7c54.6-10.3,109.8-25.6,152.2-38.9c28.2-8.8,56.6-19.1,84.7-30.7
				c28.1-11.6,56-24.7,82.9-39.5c1.6-0.7,3.3-1.5,5-2.3c1.7-0.9,3.5-1.8,5.3-2.8c1.8-1,3.7-2,5.6-3c1.9-1.1,3.8-2.2,5.7-3.3
				c3.9-2.2,7.6-4.6,11.3-6.9c3.7-2.3,7.1-4.6,10.3-6.6c16-10.5,32.1-22.8,46.4-36.5c7.2-6.8,13.9-14,19.8-21.5
				c6-7.5,11.2-15.2,15.4-23.1c0.5-0.9,1-1.8,1.4-2.7c0.5-0.9,0.9-1.9,1.4-2.9c1-1.9,1.8-4,2.8-6.1c1.7-4.2,3.3-8.8,4.3-13.4
				c1.2-4.6,1.8-9.8,2.2-14.6c0.3-4.8,0.3-9.3,0.3-12.7c0-2.4,0.2-4,0.2-5.8c0-1.9-0.1-4.1-0.9-7.7c0.8,0.9,1.2-1,1.9-0.6
				c0.4,0.2,0.9,1,1.7,3c0.8,2,1.8,5.3,2.8,10.6c1.3,7,1.7,14.5,1.1,21.9c-0.6,7.4-2.1,14.7-4,21.2c-1.6,5.3-3.5,10.5-5.8,15.7
				c-2.4,5.1-4.9,10.3-7.9,15.2c-5.9,9.9-13,19.4-20.9,28.4c-7.9,9-16.6,17.5-25.8,25.5c-9.2,8-18.8,15.6-28.8,22.7
				c-9.9,7.2-20.1,13.9-30.5,20.3c-5.1,3.2-10.4,6.3-15.6,9.3c-5.2,3-10.4,6-15.6,8.8c-20.8,11.4-41.6,21.4-61.2,30.1
				c-28.2,12.4-59.1,26-86.3,32.6c-27.2,10.6-56.3,18.8-83.7,26c-44.2,11.6-88.9,21.6-134,29.9c-22.5,4.1-45.2,7.8-67.9,10.6
				l-17,2.3c-5.7,0.7-11.3,1.5-17,2.1c-5.7,0.6-11.4,1.2-17.1,1.7c-5.7,0.5-11.4,1.1-17.1,1.5c-25.3,2-50.5,3.3-76.2,3.7
				c-25.7,0.3-51.9-0.1-79.2-1.9c-12-0.7-23.8-1.8-35.7-3c-11.8-1.2-23.5-3-35.2-4.7c-5.9-0.8-11.7-1.8-17.5-2.9
				c-5.8-1.1-11.6-2.3-17.3-3.5c-11.5-2.5-22.9-5.5-34.1-8.9c-11.2-3.4-22.3-7.4-33.1-12c-2.7-1.1-5.4-2.4-8-3.6
				c-2.6-1.3-5.3-2.5-7.9-3.9c-5.2-2.7-10.3-5.6-15.3-8.7c-5-3.1-9.8-6.5-14.5-10.1c-4.7-3.6-9.1-7.5-13.2-11.8
				c-4.1-4.2-8-8.7-11.4-13.5c-3.4-4.8-6.5-9.9-9-15.2c-0.7-1.6-2.6-6.2-4.4-11.7C101.1,949.2,99.6,942.8,98.6,938z"/>
			<path class="st1" d="M110.1,957.7c0-0.3-0.1-0.5-0.1-0.8c0.2-0.5,0.2,1.1,0.3,1.8c0.1,1,0.5,2.1,0.4,2.6c-0.3,0.5-0.6,1-1,1
				c-1.1,0.1-1.3-1.4-2.1-3.3c-0.8-2-2.1-4.5-2.5-5.9c-2.5-11.5-4.7-23.9-6.9-35.9c-0.3-1.7-0.5-3.1-0.5-4.7c-1.6-6.4-2.5-14-3.7-21
				c-0.3-1.9-0.8-3.9-1.1-5.8c-0.3-1.8-0.6-3.7-1-5.5c-1.9-10.4-4-22.8-6-34.5c-0.4-2.2-0.9-4.3-1.2-6.4
				c-1.5-10.1-3.5-20.5-4.9-28.6c-1.9-10.8-4.1-21.9-6.3-33.2c-0.1-2.6-0.9-6.4-1.3-9.2c-1.1-7.1-2.5-15-2.6-21.8
				c0-1.5,0.2-3.4,0.2-5.2c0-1.8-0.1-3.9,0.2-5.2c0.2-0.9,1.2-1.3,1-2.7c1.2,0.2,2.8-1.8,3.8,1.8c0.7,2.4,0.5,5.2,0.6,7.5
				c0.9,15.3,4.8,34.8,7.5,50.1c1,5.5,2.4,11.4,2.7,16.5c1.2,5.2,2,10.6,2.9,15.6c2.7,16.3,5.9,32.7,8.7,49c1.6,9.1,3,18,4.5,27.8
				c2.7,17.1,5.5,33.6,7.8,50.5C109.2,953,109.5,956,110.1,957.7z"/>
			<path class="st1" d="M1134.6,556.7l0.1,0.7c-0.2,0.5-0.2-1-0.3-1.6c-0.1-0.9-0.4-1.9-0.3-2.4c0.3-0.5,0.6-0.9,1-0.9
				c1.1-0.1,1.3,1.3,2,3c0.7,1.9,2,4.2,2.4,5.4c2.1,10.6,4,22.1,5.8,33.1c0.3,1.6,0.4,2.9,0.4,4.4c1.5,5.9,2.1,13,3.1,19.3
				c0.3,1.8,0.7,3.6,1,5.3c0.3,1.7,0.5,3.4,0.8,5.1c1.6,9.6,3.3,21,5,31.8c0.3,2,0.8,3.9,1.1,5.9c1.3,9.3,2.9,18.9,4,26.4
				c1.5,9.9,3.5,20.2,5.3,30.6c0.1,2.4,0.7,5.9,1.1,8.5c0.9,6.6,2,13.8,2,20.1c0,1.4-0.3,3.1-0.3,4.8c-0.1,1.7,0,3.6-0.3,4.8
				c-0.2,0.9-1.2,1.2-1.1,2.5c-1.2-0.2-2.8,1.6-3.7-1.7c-0.6-2.2-0.3-4.8-0.4-7c-0.5-14.1-3.8-32.1-6.1-46.2
				c-0.8-5.1-2.1-10.5-2.3-15.2c-1.1-4.8-1.7-9.7-2.4-14.4c-2.2-15.1-5-30.2-7.3-45.2c-1.3-8.4-2.5-16.6-3.7-25.6
				c-2.2-15.8-4.5-31-6.3-46.6C1135.2,561,1135.1,558.3,1134.6,556.7z"/>
			<path d="M163.5,820.5l120.4,233.9c-85.2-12.3-149.4-39.9-174.3-85.9c-0.7-1.3-1.3-2.5-2-3.8c0.8-1.8,1.5-3.7,2.3-5.7
				C131.8,905,163.5,820.5,163.5,820.5z"/>
			<path d="M402.3,847.8l151.9,205.1c-86.6,10-170.3,12.2-241.9,5L402.3,847.8z"/>
			<path d="M691.3,820.5L841,992.7c-75.2,23.4-157,41.8-238,53.8L691.3,820.5z"/>
			<path d="M945.7,733.4l131.7,150.3c-47.7,34.4-111.7,65.3-184.2,91.4L945.7,733.4z"/>
			<path d="M1164.9,766.5c-3.7,27.8-19.2,54.7-43.9,80.2l15.8-277.6c9.6,59.6,19.2,119.2,28.8,178.9
				C1166,753.5,1165.8,759.7,1164.9,766.5z"/>
		</g>
		<g id="Pencil">
			<path class="st1" d="M714.1,531.7c0.2-0.6,0.4-1.2,0.6-1.8c0.6-1-0.8,2.4-1.4,3.9c-0.8,2.1-1.5,4.6-2.1,5.6
				c-0.7,0.9-1.3,1.6-1.7,1.4c-1-0.6,0.3-3.9,1.4-8.3c1.2-4.7,2.5-10.9,3.4-13.9c8.5-25.5,18.2-52.8,27.4-79.1
				c1.3-3.7,2.4-6.8,3.9-10.2c4.5-14.3,10.8-30.8,16.2-46c1.5-4.2,2.9-8.5,4.4-12.8c1.4-4.1,2.9-8.1,4.2-12
				c8-22.9,17.7-50,26.8-75.7c1.7-4.7,3.2-9.5,4.9-14.2c8-22,16-44.8,22.3-62.6c8.4-23.6,16.8-48.2,25.4-73c2.3-5.5,5.2-14,7.4-20.1
				c5.6-15.5,11.7-32.7,17.9-47c1.4-3.2,3.2-6.9,4.9-10.6c1.7-3.7,3.4-8.1,4.9-10.6c1-1.8,2.1-1.9,3.3-4.8c0.8,1.2,3.8-1.8,1.4,6.4
				c-1.6,5.4-4.3,11-6.4,16c-13.3,32.3-28,75.3-39.9,108.9c-4.3,12.1-8.5,25.3-12.9,36c-3.8,11.5-8,23.2-12,34.3
				c-12.8,35.7-25.2,71.8-38,107.6c-7.1,19.9-14.1,39.4-21.9,60.7c-13.6,37.3-26.5,73.4-40.1,110
				C717.8,521.4,715.2,527.7,714.1,531.7z"/>
			<path class="st1" d="M743.6,558.9c0.2-0.6,0.4-1.2,0.6-1.8c0.6-1-0.8,2.4-1.4,4c-0.8,2.1-1.6,4.7-2.1,5.8
				c-0.7,0.9-1.3,1.7-1.8,1.4c-1-0.6,0.3-4,1.4-8.5c1.2-4.9,2.6-11.2,3.5-14.3c8.8-26.2,18.8-54.3,28.2-81.3c1.3-3.8,2.5-7,4-10.5
				c4.7-14.7,11.2-31.7,16.7-47.3c1.5-4.3,3-8.8,4.5-13.1c1.5-4.2,2.9-8.3,4.4-12.4c8.3-23.5,18.2-51.4,27.6-77.8
				c1.7-4.8,3.3-9.8,5-14.6c8.3-22.7,16.4-46.1,22.9-64.4c8.6-24.2,17.3-49.6,26.1-75.1c2.3-5.6,5.3-14.4,7.6-20.6
				c5.8-15.9,12.1-33.6,18.4-48.3c1.4-3.3,3.3-7.1,5-10.9c1.7-3.8,3.5-8.4,5-10.9c1-1.8,2.2-2,3.3-5c0.8,1.3,3.9-1.8,1.3,6.6
				c-1.7,5.6-4.5,11.4-6.6,16.5c-13.6,33.3-28.8,77.4-41,112c-4.4,12.4-8.8,26-13.3,37.1c-3.9,11.9-8.3,23.9-12.4,35.3
				c-13.2,36.7-26,73.9-39.1,110.6c-7.3,20.4-14.5,40.5-22.5,62.5C775.3,472.2,762,509.3,748,547
				C747.4,548.3,744.7,554.8,743.6,558.9z"/>
			<path class="st1" d="M709.6,538.7l0.1,0.4c-0.2,0.3-0.1-0.5-0.2-0.8c-0.1-0.4-0.3-0.9-0.1-1.2c0.3-0.3,0.6-0.5,1.1-0.6
				c1.1-0.2,1.2,0.5,1.8,1.4c0.6,0.9,1.7,2,2,2.6c1.4,5.4,2.1,11.4,2.5,17.2c0.1,0.8,0.1,1.5-0.2,2.3c0.7,3.1,0.3,6.8,0.2,10.1
				c0,0.9,0.1,1.9,0,2.8c0,0.9-0.1,1.8-0.1,2.7c-0.2,5-0.9,11-1.7,16.6c-0.2,1-0.2,2.1-0.4,3.1c-1,4.8-1.9,9.6-2.8,13.4
				c-1.2,5-2.2,10.3-3.5,15.5c-0.6,1.1-1,2.9-1.5,4.1c-1.1,3.2-2.2,6.8-4.1,9.5c-0.4,0.6-1.2,1.3-1.7,1.9c-0.5,0.7-1,1.5-1.7,1.9
				c-0.5,0.3-1.5,0.1-1.7,0.6c-1.1-0.5-3.1-0.4-2.9-2.1c0.1-1.1,1.1-2.2,1.7-3.1c3.8-6.2,6-15.2,7.7-22.1c0.6-2.5,0.9-5.3,2-7.4
				c0.2-2.4,0.9-4.9,1.4-7.2c1.7-7.5,2.4-15.1,3-22.6c0.3-4.2,0.6-8.4,0.7-12.9c0.2-8-0.4-15.7-1.1-23.6
				C710,540.9,710,539.5,709.6,538.7z"/>
			<path class="st1" d="M748.5,541.9l-0.2,0.3c-0.3,0.1,0.2-0.5,0.4-0.8c0.2-0.4,0.4-0.9,0.7-1.1c0.4,0,0.8,0,1.2,0.2
				c1,0.6,0.6,1.2,0.5,2.2c-0.1,1.1,0,2.6-0.1,3.3c-2.2,5.1-5,10.5-7.5,15.7c-0.4,0.7-0.7,1.3-1.3,1.9c-1,3-3,6.1-4.5,9.1
				c-0.4,0.8-0.7,1.7-1.1,2.6c-0.4,0.8-0.8,1.6-1.2,2.4c-2.1,4.6-4.8,9.9-7.1,15c-0.4,0.9-0.7,2-1.2,2.9c-2.2,4.3-4.1,9-5.6,12.5
				c-2,4.7-3.3,9.8-4.7,15c-0.6,1.1-1.1,2.9-1.5,4.1c-0.3,0.9-0.6,1.9-0.9,2.9c-0.2,0.5-0.3,1-0.5,1.5c-0.2,0.6-0.4,1.3-0.6,1.9
				l0.1-0.5c-0.4,1.2-0.9,2.4-1.7,3.6c-0.4,0.6-1.1,1.4-1.5,2.2c-0.5,0.8-0.9,1.7-1.6,2.3c0,0-0.1,0.1-0.1,0.1l0,0.1
				c-0.5,0.3-1.3,0.3-1.5,0.9c-1.1-0.4-3,0.1-3.2-1.6l0,1.1c0,0,0-0.1,0-0.1c0-1.3,0.9-2.8,1.4-4.1c0.8-1.9,1.5-3.9,2.1-5.9l0.1-0.4
				l0,0l0,0c0,0,0,0.1,0,0.1c0,0.1,0,0.1,0,0.1l0-0.1l0.1-0.3l0.2-0.6l0.4-1.1l0.7-2.3c0.5-1.5,0.9-3.1,1.4-4.6
				c0.9-3.1,1.8-6.1,2.7-8.8c0.8-2.5,1.5-5.5,3-7.5c0.7-2.5,1.8-4.8,2.8-7.1c3.3-7.2,6.4-14.6,9.9-21.7c2-4,4-7.8,6.3-12
				c4-7.3,7.8-14.3,12.2-21.2C747.4,543.9,748.4,542.8,748.5,541.9z"/>
			<path d="M708.1,641.3c-3-0.3-6.1-0.5-9.1-0.8c3.6-11.4,7.2-23.1,9.4-34.8c2.4,1.9,5,3.9,7.6,5.9
				C712.3,621.2,709.7,631.1,708.1,641.3z"/>
			<path class="st1" d="M740.1,508.3c0,0-0.1,0.1-0.1,0.1c-0.2-0.1,0.1-0.2,0.2-0.2c0.1-0.1,0.2-0.3,0.4-0.3c0.3,0.2,0.6,0.4,1,0.7
				c0.8,0.8,0.6,0.9,0.6,1.5c0.1,0.6,0.3,1.5,0.3,1.8c-1.1,1.8-2.7,3.5-4.2,5.1c-0.2,0.2-0.4,0.4-0.8,0.4c-0.4,1.2-1.7,1.9-2.6,2.8
				c-0.2,0.2-0.4,0.6-0.7,0.8c-0.2,0.2-0.5,0.5-0.7,0.7c-1.3,1.4-2.9,3-4.4,4.5c-0.3,0.3-0.4,0.7-0.7,0.9c-1.4,1.2-2.7,2.6-3.7,3.7
				c-1.4,1.4-2.6,3.1-3.9,4.7c-0.5,0.1-1,0.7-1.4,1c-1,0.8-2,1.9-3.6,2c-0.4,0-1-0.1-1.4-0.1c-0.5,0-0.9,0.1-1.4-0.1
				c-0.4-0.1-1.1-0.8-1.4-0.7c-0.8-0.9-2.4-1.9-2.2-2.7c0.1-0.5,0.9-0.4,1.4-0.5c3.2-0.8,5.3-3.6,7.3-5.7c0.7-0.7,1.2-1.8,2.2-2
				c0.4-0.9,1.2-1.5,1.9-2.1c2.2-2,4-4.4,6.2-6.5c1.2-1.2,2.4-2.3,3.8-3.4c2.4-2,4.6-4.1,7.2-5.9C739.5,508.9,740,508.7,740.1,508.3
				z"/>
			<path class="st1" d="M736,543.7c0,0,0-0.1,0-0.1c0.3-0.1,0,0.2,0,0.3c0,0.1,0.1,0.3-0.1,0.4c-0.3,0-0.7,0.1-1.2,0
				c-1.1-0.1-1-0.3-1.4-0.7c-0.4-0.4-1.2-0.8-1.4-1.1c-0.3-1.8-0.1-3.6,0-5.4c0-0.3,0.1-0.5,0.4-0.7c-0.4-1,0.2-2.1,0.3-3.1
				c0-0.3,0-0.6,0-0.9c0-0.3,0.1-0.6,0.1-0.8c0.1-1.6,0.4-3.4,0.6-5.2c0-0.3-0.1-0.7,0-1c0.4-1.5,0.4-3,0.6-4.3
				c0.2-1.6,0.1-3.3,0.1-5c0.3-0.4,0.3-0.9,0.4-1.3c0.3-1,0.4-2.2,1.6-3.1c0.3-0.2,0.8-0.4,1.1-0.6c0.3-0.2,0.6-0.5,1.1-0.7
				c0.4-0.1,1.4,0,1.5-0.2c1.2,0.2,3,0.1,3.4,0.7c0.2,0.4-0.5,0.7-0.8,1c-2,2.1-1.8,5-2,7.3c-0.1,0.8,0.2,1.8-0.4,2.4
				c0.2,0.8,0,1.6-0.1,2.3c-0.4,2.4-0.3,4.9-0.7,7.3c-0.2,1.4-0.4,2.7-0.8,4.1c-0.6,2.5-1,5-1.9,7.4
				C736.1,543,735.7,543.4,736,543.7z"/>
			<path class="st1" d="M746.2,541.1L746.2,541.1C746.1,540.8,746.3,541,746.2,541.1c0.1,0,0.2-0.1,0.2,0c0.1,0.3,0.2,0.7,0.3,1.1
				c0.3,1.1,0.2,1,0.1,1.5c0,0.5,0,1.3,0,1.5c-0.7,0.6-1.5,0.8-2.3,1c-0.1,0-0.2,0-0.4-0.2c-0.3,0.6-0.9,0.2-1.4,0.3
				c-0.1,0-0.2,0.1-0.4,0.2c-0.1,0-0.2,0-0.4,0.1c-0.7,0.2-1.5,0.2-2.3,0.3c-0.1,0-0.3,0.2-0.4,0.2c-0.7-0.2-1.4,0-1.9,0
				c-0.7,0-1.5,0.4-2.2,0.6c-0.2-0.3-0.5-0.2-0.6-0.2c-0.5-0.1-1-0.1-1.5-1.2c-0.1-0.2-0.3-0.7-0.4-1.1c-0.1-0.3-0.3-0.5-0.4-1.1
				c-0.1-0.4-0.1-1.4-0.2-1.5c0-1.2-0.2-3,0-3.4c0.1-0.3,0.3,0.4,0.5,0.7c1,1.7,2.2,1.2,3.1,1.1c0.3,0,0.7-0.5,1,0.1
				c0.3-0.3,0.6-0.2,1-0.2c1,0.1,2-0.4,3-0.5c0.6,0,1.1,0,1.8,0.1c1.1,0.1,2.1,0.1,3.3,0.4C746,541.1,746.2,541.4,746.2,541.1z"/>
			<path d="M933.6,34.4l-13.3,35l-39.2-15l13.3-35c4.3-11.3,16.6-17.2,27.4-13c5.4,2.1,9.5,6.2,11.6,11.3
				C935.5,22.8,935.7,28.7,933.6,34.4z"/>
			<path class="st1" d="M912.9,93.5l-0.2-0.1c0-0.3,0.3,0.1,0.4,0.1c0.2,0.1,0.5,0.1,0.6,0.3c0,0.4,0,0.7-0.2,1.2
				c-0.4,1.1-0.7,0.9-1.3,1.1c-0.6,0.3-1.5,0.8-1.9,0.9c-2.9-0.5-6-1.3-8.9-2c-0.4-0.1-0.8-0.2-1.1-0.6c-1.7,0.1-3.5-0.7-5.2-1.1
				c-0.5-0.1-1-0.1-1.5-0.2c-0.5-0.1-0.9-0.2-1.4-0.3c-2.6-0.4-5.7-1-8.7-1.4c-0.5-0.1-1.1,0-1.6-0.1c-2.5-0.5-5.2-0.7-7.2-0.8
				c-2.7-0.2-5.6,0-8.5,0.1c-0.6-0.3-1.6-0.2-2.3-0.3c-1.8-0.2-3.8-0.1-5.5-1.1c-0.4-0.2-0.9-0.7-1.3-1c-0.5-0.3-1-0.5-1.4-1
				c-0.2-0.4-0.4-1.4-0.7-1.4c0-1.2-0.5-3,0.4-3.5c0.6-0.3,1.4,0.3,2,0.6c4.1,1.6,9.2,1.2,13.3,1.3c1.5,0.1,3.1-0.3,4.3,0.4
				c1.4-0.2,2.8,0,4.1,0.2c4.3,0.6,8.6,0.8,12.9,1.7c2.4,0.5,4.6,1,7.1,1.8c4.3,1.3,8.5,2.6,12.5,4.5
				C911.8,93.1,912.4,93.6,912.9,93.5z"/>
			<path class="st1" d="M903.2,145.9l-0.2-0.1c0-0.3,0.3,0.2,0.4,0.3c0.2,0.2,0.6,0.3,0.6,0.5c-0.1,0.4-0.2,0.7-0.4,1.1
				c-0.6,1-1,0.6-1.7,0.7c-0.8,0-1.9,0.3-2.3,0.3c-3.1-1.5-6.2-3.5-9.2-5.3c-0.4-0.3-0.7-0.5-1-1c-1.9-0.6-3.5-2.3-5.1-3.4
				c-0.5-0.3-1-0.6-1.5-0.9c-0.4-0.3-0.9-0.6-1.3-0.9c-2.6-1.7-5.5-3.9-8.3-5.9c-0.5-0.4-1.1-0.6-1.6-1c-2.3-1.9-4.8-3.7-6.7-5.1
				c-2.5-1.9-5.3-3.7-8.1-5.6c-0.4-0.7-1.3-1.3-2-1.9c-1.6-1.4-3.4-2.9-4.2-4.9c-0.2-0.5-0.3-1.2-0.5-1.8c-0.2-0.6-0.5-1.1-0.5-1.8
				c0-0.5,0.6-1.3,0.4-1.6c0.8-0.9,1.6-2.6,2.7-2.2c0.7,0.2,0.9,1.2,1.3,1.9c2.3,4.1,7.1,7.3,10.6,10c1.3,1,2.9,1.7,3.7,3
				c1.4,0.7,2.6,1.7,3.7,2.6c3.7,2.9,7.8,5.5,11.6,8.3c2.1,1.6,4.2,3.1,6.5,4.9c3.9,3.1,7.9,5.8,11.7,9
				C902,145.2,902.6,145.9,903.2,145.9z"/>
			<g id="Pattern">
				<circle cx="839.8" cy="250" r="10.1"/>
				<circle cx="784.5" cy="364.8" r="3.6"/>
				<circle cx="754.7" cy="457.6" r="9.5"/>
				<circle cx="861.1" cy="155.6" r="3.5"/>
				<circle cx="816" cy="310.2" r="4.8"/>
				<circle cx="754.8" cy="504.8" r="4.8"/>
			</g>
		</g>
		<g id="Lines">
			<path class="st1" d="M548.4,452.1c-0.1,0.2-0.2,0.4-0.3,0.6c-0.4,0.3,0.3-0.8,0.6-1.4c0.3-0.7,0.6-1.7,1-2
				c0.5-0.2,0.9-0.4,1.3-0.2c1,0.5,0.4,1.7,0.2,3.3c-0.3,1.8-0.4,4.2-0.7,5.3c-3.5,9.1-7.7,18.8-11.6,28.1c-0.6,1.3-1.1,2.4-1.8,3.5
				c-1.7,5.2-4.7,10.9-7,16.3c-0.7,1.5-1.2,3.1-1.9,4.6c-0.6,1.4-1.2,2.9-1.8,4.3c-3.5,8.1-7.7,17.7-11.7,26.8
				c-0.7,1.7-1.3,3.4-2.1,5.1c-3.6,7.7-7,15.8-9.8,22.1c-3.7,8.3-7.1,17.1-10.8,26c-1.1,1.9-2.4,4.9-3.4,7
				c-2.5,5.4-5.2,11.5-8.4,16.3c-0.7,1.1-1.8,2.2-2.7,3.5c-0.9,1.2-1.8,2.7-2.7,3.5c-0.6,0.5-1.6,0.3-2.2,1.3
				c-1-0.8-3.2-0.2-2.3-3.2c0.6-2,2.1-3.8,3.1-5.5c6.6-11,12.8-26.3,18-38.2c1.8-4.3,3.5-9.1,5.7-12.7c1.5-4.2,3.4-8.3,5.2-12.2
				c5.6-12.6,10.9-25.5,16.4-38.1c3.1-7,6.2-13.9,9.7-21.4c6-13.1,11.7-25.9,18-38.6C546.8,455.8,548.1,453.6,548.4,452.1z"/>
			<path class="st1" d="M284.5,612.7l0.4,0.2c0.2,0.3-0.6-0.2-0.9-0.4c-0.5-0.2-1.1-0.3-1.3-0.6c-0.1-0.4-0.2-0.8,0-1.3
				c0.5-1,1.2-0.7,2.4-0.6c1.3,0,3-0.2,3.8-0.1c6.3,2,12.8,4.5,19.2,6.9c0.9,0.3,1.6,0.7,2.4,1.2c3.6,0.9,7.4,2.8,11.1,4.3
				c1,0.4,2.1,0.7,3.1,1.1c1,0.4,2,0.8,2.9,1.1c5.5,2.1,12,4.7,18.2,7.2c1.1,0.4,2.3,0.7,3.4,1.2c5.2,2.3,10.8,4.3,15,6
				c5.7,2.3,11.7,4.3,17.7,6.4c1.2,0.8,3.3,1.5,4.8,2.2c3.7,1.6,7.8,3.2,11,5.6c0.7,0.5,1.5,1.4,2.3,2c0.8,0.7,1.8,1.3,2.3,2
				c0.3,0.5,0.1,1.5,0.8,1.9c-0.6,1-0.4,3.1-2.5,2.7c-1.4-0.3-2.6-1.4-3.7-2.2c-7.3-4.7-17.8-8.4-25.9-11.5c-2.9-1.1-6.2-2-8.6-3.6
				c-2.9-0.8-5.7-2-8.3-3.1c-8.6-3.5-17.4-6.6-26-10c-4.8-1.9-9.5-3.9-14.5-6c-8.9-3.8-17.6-7.3-26.2-11.4
				C287,613.6,285.5,612.8,284.5,612.7z"/>
			<path class="st1" d="M588.9,546c-0.1,0.1-0.3,0.2-0.4,0.4c-0.4,0,0.5-0.5,0.9-0.8c0.5-0.4,1-1,1.4-1.1c0.5,0,0.9,0.2,1.2,0.5
				c0.7,0.9-0.1,1.5-0.8,2.7c-0.7,1.3-1.5,3.1-2.1,3.8c-5.5,5.5-11.7,11.1-17.7,16.5c-0.8,0.8-1.6,1.4-2.5,1.9
				c-2.9,3.3-7,6.3-10.5,9.4c-1,0.9-1.9,1.8-2.8,2.7c-0.9,0.8-1.8,1.6-2.7,2.5c-5.2,4.7-11.4,10.2-17.3,15.4c-1.1,1-2.1,2-3.2,3
				c-5.2,4.3-10.3,9.1-14.4,12.7c-5.4,4.8-10.8,10-16.3,15.2c-1.5,0.9-3.4,2.7-4.8,3.9c-3.6,3.1-7.6,6.6-11.7,8.7
				c-0.9,0.5-2.1,0.9-3.2,1.4c-1.1,0.5-2.3,1.3-3.2,1.4c-0.7,0.1-1.5-0.5-2.2,0c-0.6-1.1-2.7-1.7-1.1-3.6c1-1.3,2.8-2,4.2-2.8
				c8.7-5.4,18.2-14.5,25.8-21.3c2.7-2.5,5.5-5.4,8.4-7.2c2.4-2.6,5.2-4.9,7.8-7.1c8.3-7.2,16.3-14.8,24.5-22
				c4.6-4,9.1-7.9,14.1-12.1c8.8-7.4,17.1-14.7,25.9-21.7C586.6,548.1,588.2,547,588.9,546z"/>
		</g>
		<g id="Drum_stick">
			<g>
				<path d="M384.4,611.5c2.4,15,15,27.6,29.6,30.5c23.5,4.6,50.2-16.6,48.4-41.4c-1.3-18.3-17.7-34.3-36.4-35.4
					C401.5,563.7,380.7,588.5,384.4,611.5z"/>
			</g>
			<path class="st1" d="M388.9,594.7c-0.5-0.4-0.9-0.9-1.4-1.3c-0.7-1,1.9,1.8,3.1,2.9c1.6,1.6,3.7,3.4,4.4,4.3c0.6,1,1,1.9,0.6,2.2
				c-0.9,0.7-3.5-1.9-7.2-4.8c-3.9-3.1-9.1-7-11.6-9c-20.3-18.7-41.9-39.3-62.7-59c-2.9-2.8-5.4-5.2-7.9-7.9
				c-11.5-10.3-24.4-23.1-36.3-34.6c-3.3-3.2-6.8-6.3-10.1-9.5c-3.2-3-6.4-6.1-9.5-9c-18.1-17.2-39.5-37.7-59.8-57
				c-3.7-3.6-7.6-7-11.2-10.6c-17.3-16.8-35.4-33.9-49.3-47.2c-18.6-17.8-38.2-36-57.9-54.5c-4.2-4.4-10.9-10.7-15.7-15.4
				c-12.2-11.8-25.8-24.8-36.6-36.6c-2.4-2.6-5.1-5.9-7.9-9c-2.8-3.1-6.2-6.6-7.9-9c-1.2-1.7-0.9-2.8-3.2-5.1
				c1.5-0.2-0.1-4.3,6.6,1.5c4.4,3.8,8.5,8.7,12.4,12.7c24.8,26,58.9,57.9,85.4,83.2c9.5,9.1,20.2,18.7,28.4,27.3
				c9.2,8.4,18.4,17.3,27.2,25.7c28.1,27,56.8,53.9,85,80.9c15.7,15,31,29.8,47.8,46.1c29.3,28.4,57.8,55.7,86.4,83.9
				C380.8,586.9,385.7,592,388.9,594.7z"/>
			<path class="st1" d="M415,568.6c-0.5-0.4-0.9-0.9-1.4-1.3c-0.7-1,1.9,1.8,3.1,2.9c1.6,1.6,3.7,3.4,4.4,4.3c0.6,1,1,1.9,0.6,2.2
				c-0.9,0.7-3.5-1.9-7.2-4.8c-3.9-3.1-9.1-7-11.6-9c-20.3-18.7-41.9-39.3-62.7-59c-2.9-2.8-5.4-5.2-7.9-7.9
				c-11.5-10.3-24.4-23.1-36.3-34.6c-3.3-3.2-6.8-6.3-10.1-9.5c-3.2-3-6.4-6.1-9.5-9c-18.1-17.2-39.5-37.7-59.8-57
				c-3.7-3.6-7.6-7-11.2-10.6c-17.3-16.8-35.4-33.9-49.3-47.2c-18.6-17.8-38.2-36-57.9-54.5c-4.2-4.4-10.9-10.7-15.7-15.4
				c-12.2-11.8-25.8-24.8-36.6-36.6c-2.4-2.6-5.1-5.9-7.9-9c-2.8-3.1-6.2-6.6-7.9-9c-1.2-1.7-0.9-2.8-3.2-5.1
				c1.5-0.2-0.1-4.3,6.6,1.5c4.4,3.8,8.5,8.7,12.4,12.7c24.8,26,58.9,57.9,85.4,83.2c9.5,9.1,20.2,18.7,28.4,27.3
				c9.2,8.4,18.4,17.3,27.2,25.7c28.1,27,56.8,53.9,85,80.9c15.7,15,31,29.8,47.8,46.1c29.3,28.4,57.8,55.7,86.4,83.9
				C406.8,560.8,411.7,565.9,415,568.6z"/>
			<path class="st1" d="M27.8,198.6c0,0-0.1,0.1-0.1,0.1c-0.2-0.1,0.1-0.1,0.2-0.2c0.1-0.1,0.2-0.3,0.4-0.3c0.3,0.2,0.6,0.4,1,0.7
				c0.8,0.8,0.6,0.9,0.7,1.4c0.1,0.6,0.4,1.4,0.4,1.8c-1,1.7-2.4,3.3-3.7,4.9c-0.2,0.2-0.4,0.4-0.7,0.4c-0.3,1.2-1.6,1.8-2.4,2.7
				c-0.2,0.2-0.4,0.6-0.6,0.8c-0.2,0.2-0.4,0.5-0.6,0.7c-1.1,1.4-2.6,2.8-3.9,4.3c-0.2,0.3-0.4,0.6-0.7,0.9
				c-1.3,1.1-2.4,2.5-3.4,3.5c-1.3,1.3-2.3,2.9-3.4,4.5c-0.5,0.1-0.9,0.7-1.3,1c-0.9,0.8-1.8,1.8-3.4,1.9c-0.3,0-0.9-0.1-1.4-0.1
				c-0.4,0-0.8,0.1-1.4-0.1c-0.4-0.1-1.1-0.8-1.4-0.7c-0.9-0.8-2.4-1.8-2.3-2.6c0.1-0.5,0.9-0.4,1.3-0.5c3-0.7,4.9-3.5,6.6-5.4
				c0.6-0.7,1-1.7,2-2c0.4-0.9,1.1-1.4,1.7-2c2-1.9,3.6-4.2,5.5-6.2c1.1-1.1,2.2-2.1,3.4-3.3c2.2-1.9,4.1-3.9,6.5-5.6
				C27.3,199.2,27.8,199.1,27.8,198.6z"/>
		</g>
		<g id="Line">
			<path class="st1" d="M81.7,315.4c-0.1,0.7-0.1,1.4-0.1,2.1c-0.2,0.6-0.1-0.1,0-1.1c0.1-1.1,0.3-2.5,0.4-3.4
				c0.3-2.4,0.5-5.3,0.9-6.6c0.5-1.1,1-2,1.4-1.9c1.1,0.4,0.4,4.2,0.4,9.1c-0.1,5.3,0.6,12.1,0.9,15.4c0.3,7.2,1.2,14.5,3,21.6
				c1.7,7.1,4.3,14.1,7.8,20.7c6.9,13.2,17.5,24.4,29.4,33.3c1.7,1.3,3.3,2.4,4.8,3.5c1.6,1.1,3,2.2,4.7,3.4
				c13.9,8.3,31.3,16.4,48.1,21.4c4.7,1.4,9.5,2.6,14.2,3.8c4.5,1.1,9.1,2.1,13.6,2.9c13,2.4,27.4,4.3,42.2,5
				c14.9,0.7,30.2,0.4,45-1.2c5.4-0.6,10.8-1.5,16.2-2.3c12.6-2,25.2-5.2,36.6-9.5c11.5-4.3,21.7-9.6,29.9-15.5
				c10.8-7.7,20.2-17.9,25.1-30.4c5.1-12.5,6.4-26.7,5.3-40.6c-0.1-6.3-1.9-15.8-3.7-22.5c-2.2-8.5-5.6-17.3-9.7-25.5
				c-4.1-8.2-9-15.9-14-22.7c-1.2-1.5-2.3-3.1-3.7-4.8c-1.4-1.6-2.7-3.4-4.3-5c-3-3.3-6.9-6.7-9.1-8.9c-1.5-1.6-1.5-2.7-4.3-4.7
				c1.5-0.4-1.2-4.5,7.2,0.8c5.5,3.6,10.4,8.9,14.4,13.5c3.3,3.8,6.5,7.8,9.4,12.2c1.5,2.1,2.9,4.4,4.4,6.7c1.3,2.3,2.8,4.7,4,7.1
				c2.6,4.8,4.9,9.9,7,15.1c2,5.2,3.8,10.6,5.2,16.1c1.4,5.5,2.5,11.1,3.2,16.7c0.7,5.6,1,11.2,0.9,16.8
				c-0.2,11.1-2.2,21.8-5.9,31.3c-2.7,6.8-6.6,13.5-11.4,19.2c-2.4,2.9-4.9,5.5-7.6,7.8c-2.6,2.4-5.4,4.4-8.1,6.2
				c-10.9,8.3-23.9,14.2-36.3,18.4c-20.1,6.7-41.2,10.3-62.3,11.7c-21.2,1.3-42.4,0.5-63.3-2.6c-11.6-1.7-23-4.1-34.5-7.3
				c-11.4-3.2-22.9-7.2-34.4-12.5c-5-2.3-9.9-4.8-14.7-7.6c-4.8-2.7-9.4-5.7-13.8-8.9c-8.9-6.3-17-13.8-23.8-22.2
				c-3.4-4.2-6.5-8.8-9.1-13.5c-2.6-4.8-4.7-9.8-6.5-14.9c-3.4-10.3-5-21.1-5.1-32c0.1-0.8,0.1-3.1,0.3-5.7
				C81.5,320.7,81.7,317.7,81.7,315.4z"/>
			<path class="st1" d="M736.2,625.2c2.2-0.9,4.3-1.8,6.5-2.6c2-0.7-0.1,0.2-3.5,1.5c-3.4,1.4-8,3.1-10.7,4.4
				c-7.6,3.4-16.2,8.1-20,10.1c-3.7,1.7-6.7,3.1-6.7,2.5c0.1-1.4,11.5-8.4,26.8-15.7c4.2-1.9,8.7-3.8,13.2-5.9c2.3-1,4.7-1.8,7-2.7
				c2.3-0.9,4.6-1.8,6.9-2.6c4.6-1.4,9-3,13.1-4.1c4.1-1.1,7.7-2,10.6-2.7c12.5-2.6,25.2-4.4,38.1-5.3c12.9-0.9,26-0.9,39-0.4
				c6.5,0.3,13,0.7,19.5,1.1c6.5,0.4,12.8,0.7,19.2,0.5c3.2-0.1,6.4-0.3,9.5-0.6c3.2-0.4,6.4-0.7,9.5-1.2c6.3-1,12.6-2.3,18.8-3.9
				c24.9-6.6,48.7-18,70.7-31.9c22-13.9,42.3-30.4,60.7-48.4c10.4-10.2,18.6-19.2,27.5-29.4c8.8-10.8,17.3-22.5,25.3-35
				c7.9-12.5,15.2-25.9,21-40c5.8-14,10.2-28.9,11.6-43.8c0.4-3.7,0.5-7.4,0.4-11.1c-0.2-3.7-0.4-7.4-1-10.9
				c-0.5-3.6-1.5-7.1-2.5-10.5c-0.6-1.7-1.1-3.4-1.9-5.1l-1-2.5l-1.1-2.5c-6.9-14.5-17.4-27.8-30.5-36.9c-6.2-4.4-13.1-7.8-20.3-9.9
				c-7.2-2.1-14.7-2.8-22.1-2.5c-5.4,0.2-10.9,0.9-16.5,1.9c-5.6,1-11.3,2.2-17.3,3.2c-6,1-12.3,1.7-19,0.9
				c-3.3-0.4-6.7-1.3-9.9-2.8c-3.2-1.5-6-3.5-8.6-5.9c-2.5-2.5-4.6-5.4-6.2-8.5c-1.6-3.2-2.5-6.5-3.2-9.9
				c-1.2-6.7-1.1-13.3-0.6-19.7c1-12.8,3.2-25.3,4.4-37.8c1.3-12.5,1.8-25.1,0.5-37.5c-0.7-6.2-1.7-12.4-3.3-18.4l-1.2-4.5
				c-0.4-1.5-1-3-1.5-4.5c-0.9-3-2.2-5.9-3.3-8.8c-4.9-11.6-11.4-22.5-18.8-32.6c-7.5-10.1-16-19.4-25.2-27.9
				c-13.5-12.4-28.6-23.2-44.6-32.1c-18.8-10.5-39.2-18.6-60.2-22.9c-10.5-2.1-21.1-3.4-31.6-3.3l-3.9,0l-2,0l-2,0.1
				c-2.6,0.2-5.2,0.4-7.8,0.6c-2.6,0.4-5.1,0.8-7.7,1.2c-2.5,0.5-5,1.1-7.5,1.7c-9.9,2.6-19.2,6.5-27.8,11.5
				c-8.6,5-16.5,11-23.8,17.3c-7.3,6.3-14.1,13.1-20.6,19.8c-6.5,6.7-12.7,13.3-18.8,19.7c-16.1,16.9-33.1,33.9-52.6,48.2
				c-1.2,0.9-2.4,1.8-3.6,2.7l-3.7,2.6c-2.5,1.7-4.9,3.5-7.5,5.1c-2.6,1.6-5.1,3.2-7.7,4.8c-2.6,1.5-5.3,3-7.9,4.5l-2,1.1l-2,1
				l-4.1,2.1l-4.1,2.1c-1.4,0.7-2.8,1.3-4.2,1.9c-2.8,1.2-5.6,2.5-8.4,3.7c-2.8,1.1-5.7,2.2-8.5,3.3c-1.4,0.5-2.8,1.1-4.3,1.6
				l-4.4,1.5c-2.9,1-5.8,2-8.7,2.9l-8.9,2.5l-4.4,1.3c-1.5,0.4-3,0.7-4.5,1.1l-9,2l-2.3,0.5l-2.3,0.4l-4.6,0.8l-4.6,0.8
				c-1.5,0.3-3,0.5-4.6,0.7l-9.2,1.1c-3.1,0.4-6.2,0.6-9.2,0.8c-3.1,0.2-6.2,0.5-9.3,0.6c-6.2,0.2-12.4,0.5-18.6,0.3
				c-6.2,0-12.4-0.4-18.6-0.7c-3.1-0.2-6.2-0.5-9.3-0.7l-4.6-0.4c-1.5-0.1-3.1-0.3-4.6-0.5c-11.1-1.3-24.9-3.6-39-6.1
				c-14-2.6-28.2-5.5-40.1-7.9c-15.1-3-30.5-6.1-46.2-8.2c-15.7-2.2-31.6-3.3-47.3-2.5c-15.7,0.8-31.1,3.6-45.4,8.7
				c-3.6,1.1-7.1,2.7-10.5,4.2c-3.5,1.4-6.8,3.2-10.1,4.9l-2.5,1.3c-0.8,0.4-1.6,0.8-2.4,1.3c-1.6,1-3.1,1.9-4.7,2.9
				c-1.6,0.9-3.1,1.9-4.6,2.8c-1.5,1-3,2-4.4,3.1c-5.2,3.6-10.7,7.9-16.3,12.6c-5.5,4.8-10.9,10.1-15.9,15.7
				c-5,5.6-10.1,12.1-14.5,18.2c-4.5,6.2-8.2,12.2-11,16.6c-2,3.2-3.4,5.1-5,7.5c-1.6,2.4-3.4,5.3-5.9,10.6c0.2-1.8-1.7,0.4-1.9-0.6
				c-0.1-0.5,0.2-1.9,1.3-4.9c1.2-3,3.3-7.8,7.2-15c5.1-9.5,11.4-18.9,18.4-27.6c7-8.8,14.6-16.8,22.2-23.7
				c12.3-11.2,26.5-21.2,42.4-29c15.9-7.9,33.7-12.8,52-14.9c18.4-2.2,37.2-1.1,55.8,1.2c18.6,2.3,37.2,6.1,55.6,9.8
				c18.5,3.7,36.9,7.5,55.4,10.2c18.5,2.8,36.9,4.6,55.2,4.8c18.2,0.2,36.2-1.1,53.4-4.1c17.2-3,33.8-7.4,49.4-13.1
				c11.1-4.2,22.2-9,33-14.7c10.7-5.8,21-12.4,30.8-19.5c19.6-14.3,36.5-31,51.6-46.4c7.8-8.2,15.5-16.6,23.5-24.8
				c8-8.2,16.4-16.2,25.5-23.4c9.1-7.2,18.9-13.4,29.5-18c10.5-4.6,21.7-7.6,32.8-8.8c9-0.9,18-1.2,26.9-0.6c9,0.6,17.9,2,26.6,4
				C858.2,8.3,875,14.8,891,22.9c8,4.1,15.7,8.6,23.2,13.6c7.5,4.9,14.7,10.3,21.6,16c6.9,5.8,13.4,11.9,19.6,18.4
				c6.1,6.5,11.9,13.5,17.1,20.8c5.2,7.3,9.9,15,13.9,23.1c4,8.1,7.2,16.6,9.6,25.3c2.4,8.7,3.8,17.7,4.3,26.7
				c0.6,9,0.3,18-0.5,26.9c-0.7,8.9-1.9,17.8-3.1,26.6c-1.1,8.8-2.3,17.6-2.1,26.2c0.1,4.3,0.6,8.6,1.8,12.5c1.2,4,3.3,7.6,6.2,10.5
				c0.3,0.4,0.7,0.7,1.1,1.1l1.2,1c0.8,0.7,1.7,1.2,2.5,1.8c1.8,1,3.6,2,5.6,2.5c3.9,1.3,8.1,1.5,12.4,1.4c4.7-0.2,9.5-1,14.4-1.9
				c4.8-0.9,9.7-1.9,14.6-2.7c9.8-1.6,20-2.4,30-1c5,0.7,10,2,14.7,3.8c1.2,0.4,2.4,0.9,3.5,1.4l1.7,0.8l1.7,0.9l3.4,1.8l3.2,2
				c1.1,0.6,2.1,1.4,3.2,2.1c1,0.7,2.1,1.4,3.1,2.2c2,1.6,4,3.1,5.8,4.9c1.9,1.7,3.6,3.5,5.4,5.3c0.9,0.9,1.7,1.9,2.5,2.8l1.3,1.4
				l1.2,1.5c3.2,3.9,6,8.2,8.7,12.6c2.6,4.4,4.9,9,6.8,13.8c1.9,4.8,3.5,9.7,4.5,14.8c1,5.1,1.4,10.3,1.5,15.5
				c0.1,5.2-0.4,10.4-1.1,15.6c-0.7,5.2-1.8,10.3-3,15.4c-1.3,5.1-2.9,10.1-4.6,15.1c-1.8,5-3.7,9.9-5.9,14.8
				c-7.6,17.1-17.2,33.1-27.8,48.3c-10.7,15.1-22.5,29.3-35.1,42.6c-12.7,13.3-26.2,25.7-40.6,37c-14.3,11.3-29.5,21.6-45.4,30.5
				c-15.9,8.9-32.6,16.4-50.1,21.7c-17.4,5.3-35.6,8.4-53.9,8c-9.1-0.2-18.2-1.1-27.2-1.6c-9-0.5-18.1-0.8-27.2-0.8
				c-18.1,0.2-36.3,1.9-54.1,5.5c-1.3,0.3-3.8,0.8-7.1,1.5c-1.6,0.4-3.5,0.7-5.5,1.2c-2,0.5-4,1.1-6.2,1.7c-2.2,0.6-4.4,1.2-6.6,1.9
				c-2.2,0.8-4.4,1.5-6.6,2.3C743.8,621.8,739.7,623.7,736.2,625.2z"/>
		</g>
		<path id="Star" d="M390.5,142c-7.3,25.5-14.7,51-22,76.5c23.6,5.3,47.2,10.6,70.9,15.8c-22.8,7.8-45.7,15.5-68.5,23.3
			c-3.9,23.1-7.7,46.2-11.6,69.2c-11-22-22-44-32.9-66c-25.4,7.3-50.9,14.5-76.3,21.8c18.3-20.6,36.6-41.2,54.9-61.8
			c-12.8-17.6-25.7-35.2-38.5-52.9c21.4,11.2,42.7,22.4,64.1,33.6C350.5,181.8,370.5,161.9,390.5,142z"/>
	</g>
</g>
</svg>
