<svg width="1303" height="818" viewBox="0 0 1303 818" fill="none" xmlns="http://www.w3.org/2000/svg">
<g clip-path="url(#clip0_403_4846)">
<path d="M166.5 107.9C161.5 135.5 156.5 163.2 151.5 190.8C166.1 186.6 182.8 183.5 200.6 183.2C283.8 182.1 339.7 243.8 348.5 253.7C344 258.7 267.3 342.1 174.3 325.9C166.6 324.6 149.2 321.5 129.5 312.5C123.1 347.6 116.8 382.7 110.5 417.7H765.3L780.8 102.1L166.5 107.9ZM552.4 327.7C496.1 319.4 459.8 286.9 459.8 286.9C447.3 275.7 438.8 264.4 433.5 256.3C441.7 245.6 454 231.5 470.9 217.2C482.3 207.6 526.9 170 578.8 163.7C668.2 152.8 737.2 239.7 741.9 245.8C686.4 306 613.9 336.8 552.4 327.7Z" fill="#2C2C2C"/>
<path d="M542.9 524.1L578.1 675C578.1 675 679.9 570.6 685 574.4C690 578.2 759.4 639.8 759.4 639.8L556.7 789.4L496.3 525L542.9 524.1Z" fill="#2C2C2C"/>
<path d="M1239.6 313.7C1222 333.1 1190.3 341 1165.2 334C1082 310.7 1040.3 114.4 1103.2 62.3C1125.2 44.1 1153.8 48.5 1155.1 48.8C1216.8 59.4 1238.6 166.8 1246.4 205.5C1255.1 248.5 1263.1 287.8 1239.6 313.7Z" fill="#2C2C2C"/>
<path fill-rule="evenodd" clip-rule="evenodd" d="M5.5 400.4C5.5 400 5.5 399.6 5.5 399.3C5.7 398.6 5.5 400.8 5.5 401.8C5.5 403.1 5.6 404.7 5.4 405.4C5.1 406.1 4.8 406.6 4.4 406.5C3.4 406.4 3.5 404.2 3.1 401.5C2.7 398.6 2 394.8 1.8 392.9C1.3 376.6 1.3 359 1.1 342.1C1.1 339.7 1.1 337.7 1.3 335.5C0.8 326.4 1.2 315.7 1.1 305.9C1.1 303.2 1 300.4 1 297.7C1 295.1 1 292.5 1 290C0.9 275.3 0.9 257.8 0.8 241.3C0.8 238.3 0.6 235.2 0.7 232.2C0.8 218 0.7 203.3 0.6 191.9C0.6 176.7 0.2 160.9 0 145C0.2 141.4 0.1 136 0.2 132C0.3 122 0.2 110.9 1.1 101.5C1.3 99.4003 1.7 96.9003 2 94.4003C2.3 91.9003 2.4 89.1003 2.9 87.3003C3.2 86.1003 4 85.8003 4.1 83.9003C5.1 84.4003 6.6 82.1003 7 87.3003C7.2 90.7003 6.7 94.5003 6.5 97.8003C5.1 119 5.6 146.5 5.8 168.2C5.8 176 6.2 184.4 5.8 191.4C6.1 198.8 6 206.3 6 213.5C6 236.5 6.4 259.7 6.4 282.7C6.4 295.5 6.4 308.1 6.3 321.9C6.1 346 6.2 369.3 5.7 392.9C5.5 393.8 5.3 397.9 5.5 400.4Z" fill="white"/>
<path fill-rule="evenodd" clip-rule="evenodd" d="M16.5001 406.7H19.2001C20.8001 406.9 15.6001 406.8 13.3001 406.8C10.1001 406.8 6.40014 406.9 4.80014 406.8C3.30014 406.5 2.00014 406.2 2.10014 405.8C2.40014 404.8 7.40014 404.9 13.8001 404.4C20.7001 404 29.6001 403.2 34.1001 403C72.3001 402.3 113.6 401.9 153.2 401.4C158.8 401.3 163.5 401.3 168.7 401.5C190.1 400.9 215.2 401 238.2 400.8C244.6 400.7 251.1 400.6 257.4 400.5C263.5 400.4 269.6 400.4 275.6 400.3C310.1 400 351.1 399.6 389.9 399.2C397 399.1 404.2 398.9 411.3 398.9C444.7 398.8 479.1 398.3 505.9 398.1C541.5 397.8 578.5 397.2 616 396.7C624.4 396.9 637.2 396.7 646.5 396.6C669.9 396.5 696 396.3 718.1 396.9C723 397.1 728.9 397.4 734.7 397.6C740.5 397.8 747.2 397.9 751.3 398.3C754.2 398.6 754.9 399.4 759.3 399.5C758.1 400.5 763.5 402 751.3 402.5C743.3 402.8 734.4 402.3 726.7 402.2C677 401.2 612.3 402.2 561.6 402.7C543.4 402.9 523.6 403.4 507.1 403.1C489.9 403.5 472.1 403.6 455.3 403.7C401.3 404.2 346.9 404.8 292.9 405.3C262.9 405.5 233.3 405.7 201 405.9C144.5 406.2 89.9001 406.6 34.3001 406.6C32.1001 406.6 22.4001 406.4 16.5001 406.7Z" fill="white"/>
<path fill-rule="evenodd" clip-rule="evenodd" d="M746 89.2C745.1 89.2 744.2 89.2 743.3 89.2C741.7 89 746.9 89.2 749.2 89.2C752.4 89.2 756.1 89.2 757.7 89.3C759.2 89.6 760.5 89.9 760.4 90.3C760.1 91.3 755 91.2 748.6 91.5C741.7 91.8 732.8 92.5 728.3 92.7C690.1 92.9 648.8 92.7 609.2 92.6C603.6 92.6 598.9 92.5 593.7 92.3C572.3 92.6 547.2 92.1 524.3 92C517.9 92 511.4 92 505.1 92C499 92 492.9 91.9 486.9 91.9C452.4 91.8 411.4 91.5 372.6 91.3C365.5 91.3 358.3 91.4 351.2 91.3C317.8 91 283.4 90.9 256.6 90.7C221 90.5 184 90.6 146.6 90.6C138.2 90.3 125.4 90.3 116.2 90.2C92.8 90 66.7 89.8 44.6 88.8C39.7 88.6 33.8 88.1 28 87.8C22.2 87.5 15.5 87.3 11.4 86.8C8.50003 86.5 7.80003 85.6 3.40003 85.5C4.70003 84.5 -0.799968 82.9 11.4 82.6C19.4 82.4 28.3 83 36 83.3C85.7 85 150.3 84.9 201.1 85.1C219.3 85.2 239.1 84.9 255.6 85.5C272.9 85.3 290.6 85.5 307.4 85.6C361.4 86 415.8 86 469.8 86.3C499.8 86.5 529.4 86.7 561.7 87C618.2 87.5 672.8 87.9 728.4 88.7C730.4 89.1 740.1 89.4 746 89.2Z" fill="white"/>
<path fill-rule="evenodd" clip-rule="evenodd" d="M760.1 95.5001V96.6001C759.9 97.3001 760.1 95.1001 760.1 94.2001C760.1 92.9001 760 91.4001 760.2 90.7001C760.5 90.1001 760.8 89.6001 761.2 89.6001C762.2 89.7001 762.1 91.8001 762.4 94.4001C762.8 97.2001 763.4 100.9 763.6 102.7C763.9 118.3 763.8 135.2 763.8 151.4C763.8 153.7 763.8 155.6 763.5 157.7C763.9 166.4 763.5 176.7 763.4 186.1C763.4 188.7 763.4 191.4 763.5 194C763.5 196.5 763.5 199 763.5 201.4C763.4 215.5 763.3 232.2 763.2 248.1C763.2 251 763.3 253.9 763.3 256.8C763 270.4 763.1 284.5 763 295.4C762.9 309.9 763.1 325.1 763.2 340.4C762.9 343.8 763 349.1 762.9 352.8C762.7 362.4 762.7 373 761.7 382C761.5 384 761 386.4 760.8 388.8C760.5 391.2 760.3 393.9 759.9 395.6C759.6 396.8 758.7 397.1 758.6 398.9C757.6 398.4 756 400.6 755.7 395.6C755.5 392.3 756.1 388.7 756.3 385.6C757.9 365.3 757.6 338.9 757.7 318.2C757.7 310.8 757.4 302.7 757.9 295.9C757.7 288.9 757.8 281.6 757.9 274.7C758.1 252.6 758 230.4 758.1 208.3C758.2 196 758.3 184 758.6 170.8C759 147.7 759.2 125.4 759.8 102.7C760.1 101.8 760.3 97.8001 760.1 95.5001Z" fill="white"/>
<path fill-rule="evenodd" clip-rule="evenodd" d="M325.3 239.4L324.6 238.5C324.3 237.8 325.6 239.7 326.2 240.5C327 241.6 328.1 242.8 328.4 243.5C328.6 244.2 328.7 244.8 328.3 245C327.4 245.5 326.2 243.7 324.2 241.8C322.1 239.7 319.1 237.3 317.7 236C306.8 224 293.8 212.2 279.8 203C277.8 201.7 276.2 200.6 274.4 199.3C266.5 194.9 257.2 189.8 248.2 186.2C245.7 185.2 243.1 184.4 240.5 183.5C238.1 182.6 235.6 182 233.2 181.2C226.2 179.3 218.4 177.6 210.3 176.6C208.3 176.4 206.2 176.2 204.2 176C202.1 175.9 200.1 175.7 198 175.6C195.9 175.5 193.9 175.5 191.8 175.5C190.8 175.5 189.7 175.5 188.7 175.5H187.2L185.7 175.6C182.7 175.8 179.7 176.1 176.7 176.2C173.2 176.6 169.7 177 166.2 177.4C162.7 178 159.3 178.7 156 179.3C152.7 180.1 149.5 180.9 146.4 181.7C143.4 182.6 140.5 183.6 137.8 184.4C136 184.9 134.2 185.6 132.5 186.3C130.7 187 129 187.7 127.2 188.4C126.3 188.7 125.4 189.2 124.6 189.6L122 190.8C120.3 191.6 118.5 192.5 116.8 193.3C115.1 194.2 113.4 195.2 111.7 196.1L109.1 197.5L107.8 198.2L106.6 199C105 200.1 103.3 201.1 101.6 202.2L99.1002 203.8C98.3002 204.4 97.5002 205 96.7002 205.5C95.2002 206.4 93.3002 207.7 91.5002 209C90.5002 209.6 89.7002 210.4 88.8002 211.1C87.9002 211.8 87.1002 212.5 86.3002 213.1C82.3002 216.1 78.6002 219.7 74.7002 223.1C72.8002 224.9 71.0002 226.7 69.2002 228.4C68.3002 229.3 67.4002 230.1 66.5002 230.9C65.6002 231.8 64.8002 232.6 64.0002 233.4C62.5002 234.9 60.5002 236.5 58.8002 238.2C57.1002 240 55.2002 242.2 53.9002 243.4C52.9002 244.2 52.0002 244 50.8002 245.5C50.3002 244.5 47.6002 245.5 50.5002 241C52.5002 238 55.1002 235.2 57.5002 232.8C64.9002 224.8 73.9002 216.2 83.7002 208.4C93.5002 200.6 104.1 193.8 113.9 188.8C115.7 187.9 117.5 187.1 119.3 186.2C121.1 185.3 123 184.4 124.8 183.6C126.7 182.9 128.5 182.1 130.4 181.5C132.2 180.8 134 180.2 135.7 179.8C137.5 179.2 139.3 178.5 141.1 177.9L143.8 177C144.7 176.7 145.6 176.5 146.5 176.3C148.3 175.8 150.2 175.4 152 174.9C152.9 174.7 153.8 174.5 154.7 174.2C155.6 174 156.5 173.9 157.4 173.7C168.9 171.3 180.7 170.3 192.5 170.4C204.3 170.3 216.1 171.7 227.6 174.4C240.3 177.4 252.5 181.8 265 188.3C286.7 199.8 305.3 215.1 320.6 233.6C321 234.2 323.5 237.6 325.3 239.4Z" fill="white"/>
<path fill-rule="evenodd" clip-rule="evenodd" d="M54.6998 250.9L55.3998 251.8C55.6998 252.5 54.3998 250.6 53.7998 249.9C52.9998 248.8 51.8998 247.6 51.5998 247C51.3998 246.3 51.2998 245.7 51.6998 245.5C52.5998 245 53.7998 246.8 55.7998 248.6C57.8998 250.6 60.8998 253 62.2998 254.3C73.2998 266.1 86.2998 277.7 100.3 286.8C102.3 288.1 103.9 289.2 105.7 290.5C113.6 294.8 122.9 299.9 131.9 303.3C133.2 303.8 134.4 304.2 135.7 304.7C137 305.1 138.3 305.5 139.5 305.9C140.7 306.3 141.9 306.7 143.2 307C144.4 307.4 145.6 307.7 146.8 308.1C153.8 310 161.6 311.6 169.6 312.6C177.7 313.6 186.1 314 194.2 313.7C195.7 313.7 197.2 313.6 198.7 313.4C200.2 313.3 201.7 313.1 203.2 313C210.2 312.5 217.3 311.5 223.9 310C230.5 308.5 236.7 306.8 242 305C256.2 300.2 270.2 293.1 283.1 284.2C284.6 283.3 286.5 282 288.3 280.7C290.1 279.3 292 277.9 293.5 276.8C297.4 273.8 301.3 270.4 305.2 266.9C309 263.4 312.7 259.9 316.1 256.7C317.6 255.3 319.6 253.7 321.3 251.9C323.1 250.2 325 248 326.4 246.9C327.4 246.1 328.2 246.3 329.4 244.9C329.9 245.9 332.6 244.9 329.7 249.4C327.8 252.4 324.9 255 322.6 257.4C315.1 265.2 306.1 273.8 296.2 281.4C291.3 285.2 286.2 288.8 281.1 292.1C275.9 295.3 270.9 298.3 265.9 300.7C258.9 304.2 251 307.8 244.1 309.7C237.1 312.4 229.6 314.2 222.5 315.6C211 317.8 199.3 319 187.6 318.9C175.9 318.8 164.1 317.6 152.7 314.9C140 312 127.9 307.7 115.4 301.3C93.6998 290.1 75.0998 274.9 59.5998 256.7C58.9998 256 56.4998 252.7 54.6998 250.9Z" fill="white"/>
<path d="M297.9 263.4C297.9 268.9 297.2 274.2 295.9 279.3C268.4 301.3 234.6 314.7 199.1 316.8C181.7 305.4 170.2 285.7 170.2 263.4C170.2 228.1 198.8 199.5 234.1 199.5C269.4 199.5 297.9 228.1 297.9 263.4Z" fill="white"/>
<path fill-rule="evenodd" clip-rule="evenodd" d="M706.7 240.7L706 239.8C705.7 239.1 707 241 707.6 241.8C708.4 242.9 709.5 244.1 709.8 244.8C710 245.5 710.1 246.1 709.7 246.3C708.8 246.8 707.6 245 705.6 243.1C703.5 241 700.5 238.6 699.1 237.3C688.2 225.3 675.2 213.5 661.2 204.3C659.2 203 657.6 201.9 655.8 200.6C647.9 196.2 638.6 191.1 629.6 187.5C627.1 186.5 624.5 185.7 621.9 184.8C619.5 183.9 617 183.3 614.6 182.5C607.6 180.6 599.8 178.9 591.7 177.9C589.7 177.7 587.6 177.5 585.6 177.3C583.5 177.2 581.5 177 579.4 176.9C577.3 176.8 575.3 176.8 573.2 176.8C572.2 176.8 571.1 176.8 570.1 176.8H568.6L567.1 176.9C564.1 177.1 561.1 177.4 558.1 177.5C554.6 177.9 551.1 178.3 547.6 178.7C544.1 179.3 540.7 180 537.4 180.6C534.1 181.4 530.9 182.2 527.8 183C524.8 183.9 521.9 184.9 519.2 185.7C517.4 186.2 515.6 186.9 513.9 187.6C512.1 188.3 510.4 189 508.6 189.7C507.7 190 506.8 190.5 506 190.9L503.4 192.1C501.7 192.9 499.9 193.8 498.2 194.6C496.5 195.5 494.8 196.5 493.1 197.4L490.5 198.8L489.2 199.5L488 200.3C486.4 201.4 484.7 202.4 483 203.5L480.5 205.1C479.7 205.7 478.9 206.3 478.1 206.8C476.6 207.7 474.7 209 472.9 210.3C471.9 210.9 471.1 211.7 470.2 212.4C469.3 213.1 468.5 213.8 467.7 214.4C463.7 217.4 460 221 456.1 224.4C454.2 226.2 452.4 228 450.6 229.7C449.7 230.6 448.8 231.4 447.9 232.2C447 233.1 446.2 233.9 445.4 234.7C443.9 236.2 441.9 237.8 440.2 239.5C438.5 241.3 436.6 243.5 435.3 244.7C434.3 245.5 433.4 245.3 432.2 246.8C431.7 245.8 429 246.8 431.9 242.3C433.9 239.3 436.5 236.5 438.9 234.1C446.3 226.1 455.3 217.5 465.1 209.7C474.9 201.9 485.5 195.1 495.3 190.1C497.1 189.2 498.9 188.4 500.7 187.5C502.5 186.6 504.4 185.7 506.2 184.9C508.1 184.2 509.9 183.4 511.8 182.8C513.6 182.1 515.4 181.5 517.1 181.1C518.9 180.5 520.7 179.8 522.5 179.2L525.2 178.3C526.1 178 527 177.8 527.9 177.6C529.7 177.1 531.6 176.7 533.4 176.2C534.3 176 535.2 175.8 536.1 175.5C537 175.3 537.9 175.2 538.8 175C550.3 172.6 562.1 171.6 573.9 171.7C585.7 171.6 597.5 173 609 175.7C621.7 178.7 633.9 183.1 646.4 189.6C668.1 201.1 686.7 216.4 702 234.9C702.4 235.5 705 238.9 706.7 240.7Z" fill="white"/>
<path fill-rule="evenodd" clip-rule="evenodd" d="M436.1 252.2L436.8 253.1C437.1 253.8 435.8 251.9 435.2 251.2C434.4 250.1 433.3 248.9 433 248.3C432.8 247.6 432.7 247 433.1 246.8C434 246.3 435.2 248.1 437.2 249.9C439.3 251.9 442.3 254.3 443.7 255.6C454.7 267.4 467.7 279 481.7 288.1C483.7 289.4 485.3 290.5 487.1 291.8C495 296.1 504.3 301.2 513.3 304.6C514.6 305.1 515.8 305.5 517.1 306C518.4 306.4 519.7 306.8 520.9 307.2C522.1 307.6 523.3 308 524.6 308.3C525.8 308.7 527 309 528.2 309.4C535.2 311.3 543 312.9 551 313.9C559.1 314.9 567.5 315.3 575.6 315C577.1 315 578.6 314.9 580.1 314.7C581.6 314.6 583.1 314.4 584.6 314.3C591.6 313.8 598.7 312.8 605.3 311.3C611.9 309.8 618.1 308.1 623.4 306.3C637.6 301.5 651.6 294.4 664.5 285.5C666 284.6 667.9 283.3 669.7 282C671.5 280.6 673.4 279.2 674.9 278.1C678.8 275.1 682.7 271.7 686.6 268.2C690.4 264.7 694.1 261.2 697.5 258C699 256.6 701 255 702.7 253.2C704.5 251.5 706.4 249.3 707.8 248.2C708.8 247.4 709.6 247.6 710.8 246.2C711.3 247.2 714 246.2 711.1 250.7C709.2 253.7 706.3 256.3 704 258.7C696.5 266.5 687.5 275.1 677.6 282.7C672.7 286.5 667.6 290.1 662.5 293.4C657.3 296.6 652.3 299.6 647.3 302C640.3 305.5 632.4 309.1 625.5 311C618.5 313.7 611 315.5 603.9 316.9C592.4 319.1 580.7 320.3 569 320.2C557.3 320.1 545.5 318.9 534.1 316.2C521.4 313.3 509.3 309 496.8 302.6C475 291.4 456.4 276.2 441 258C440.5 257.3 437.9 254 436.1 252.2Z" fill="white"/>
<path d="M679.3 264.7C679.3 270.2 678.6 275.5 677.3 280.6C649.8 302.6 616 316 580.5 318.1C563.1 306.7 551.6 287 551.6 264.7C551.6 229.4 580.2 200.8 615.5 200.8C650.8 200.8 679.3 229.4 679.3 264.7Z" fill="white"/>
<path fill-rule="evenodd" clip-rule="evenodd" d="M402.3 808.4C402.3 808 402.3 807.5 402.3 807.1C402.5 806.3 402.3 808.8 402.3 809.9C402.3 811.4 402.4 813.2 402.2 814C401.9 814.7 401.6 815.3 401.2 815.3C400.2 815.2 400.3 812.7 399.9 809.7C399.5 806.4 398.8 802.1 398.6 800C398.2 781.7 398.2 761.8 398 742.8C398 740.1 398 737.9 398.2 735.4C397.7 725.1 398.1 713.1 398.1 702.1C398.1 699 398 695.9 398 692.9C398 690 398 687 398 684.2C397.9 667.6 398 648 397.9 629.3C397.9 625.9 397.8 622.5 397.8 619C398 603 397.8 586.5 397.8 573.6C397.8 556.5 397.5 538.7 397.3 520.8C397.6 516.8 397.5 510.6 397.5 506.2C397.6 494.9 397.6 482.5 398.5 471.8C398.7 469.4 399.1 466.6 399.4 463.8C399.7 461 399.8 457.8 400.3 455.8C400.6 454.4 401.4 454.1 401.5 452C402.5 452.6 404 450 404.4 455.8C404.6 459.7 404.1 463.9 403.9 467.6C402.5 491.5 402.9 522.5 403 546.8C403 555.5 403.4 565.1 402.9 573C403.2 581.3 403.1 589.8 403 597.9C402.9 623.8 403.2 649.9 403.2 675.9C403.2 690.3 403.1 704.5 403 720C402.8 747.1 402.7 773.3 402.2 800C402.3 800.9 402.1 805.6 402.3 808.4Z" fill="white"/>
<path fill-rule="evenodd" clip-rule="evenodd" d="M773.5 806.5C773.1 806.5 772.6 806.5 772.2 806.5C771.4 806.3 774 806.4 775.1 806.4C776.7 806.4 778.5 806.3 779.4 806.4C780.2 806.7 780.8 807 780.8 807.4C780.7 808.4 778.1 808.4 774.9 808.8C771.5 809.3 767 810 764.8 810.3C745.7 811.1 725.1 811.5 705.2 812.1C702.4 812.2 700 812.2 697.4 812C686.7 812.7 674.1 812.6 662.7 812.8C659.5 812.9 656.3 813 653.1 813.1C650 813.2 647 813.2 644 813.3C626.7 813.7 606.2 814.1 586.8 814.5C583.2 814.6 579.7 814.8 576.1 814.8C559.4 815 542.2 815.5 528.8 815.7C511 816.1 492.5 816.7 473.8 817.3C469.6 817.1 463.2 817.3 458.6 817.4C446.9 817.5 433.9 817.8 422.8 817.1C420.3 817 417.4 816.6 414.5 816.4C411.6 816.2 408.2 816.1 406.2 815.7C404.8 815.4 404.4 814.6 402.2 814.6C402.8 813.6 400 812.1 406.1 811.6C410.1 811.3 414.5 811.8 418.4 811.9C443.3 812.8 475.6 811.7 501 811.2C510.1 811 520 810.4 528.3 810.7C536.9 810.2 545.8 810.2 554.2 810C581.2 809.5 608.4 808.7 635.4 808.1C650.4 807.8 665.2 807.6 681.4 807.4C709.7 807 737 806.5 764.8 806.5C765.7 806.6 770.6 806.8 773.5 806.5Z" fill="white"/>
<path fill-rule="evenodd" clip-rule="evenodd" d="M402.5 454C402.6 454 402.7 454 402.8 454C403 454.2 402.4 454 402.2 454C401.9 454 401.5 454.1 401.3 453.9C401.1 453.6 401 453.3 401 452.9C401 451.9 401.6 452 402.2 451.7C402.9 451.3 403.8 450.6 404.3 450.5C408.3 450.2 412.6 450.2 416.7 450.1C417.3 450.1 417.8 450.1 418.3 450.4C420.5 450 423.1 450.4 425.5 450.4C426.2 450.4 426.8 450.3 427.5 450.3C428.1 450.3 428.8 450.3 429.4 450.3C433 450.3 437.3 450.4 441.3 450.4C442 450.4 442.8 450.3 443.5 450.3C447 450.5 450.5 450.4 453.3 450.5C457 450.6 460.9 450.3 464.7 450.2C465.6 450.5 466.9 450.4 467.9 450.5C470.3 450.6 473 450.7 475.3 451.6C475.8 451.8 476.4 452.2 477 452.5C477.6 452.8 478.3 453 478.7 453.4C479 453.7 479.1 454.6 479.5 454.6C479.4 455.6 479.9 457.2 478.7 457.5C477.9 457.7 476.9 457.1 476.1 456.9C470.9 455.4 464.2 455.7 458.9 455.7C457 455.7 454.9 456 453.2 455.5C451.4 455.7 449.6 455.6 447.8 455.6C442.2 455.4 436.5 455.7 430.9 455.6C427.8 455.5 424.7 455.4 421.3 455.3C415.4 455 409.7 454.9 404 454.3C404.1 454 403.1 453.7 402.5 454Z" fill="white"/>
<path fill-rule="evenodd" clip-rule="evenodd" d="M781.1 801.2C781.1 800.9 781.1 800.5 781.1 800.2C781.3 799.6 781.1 801.5 781.1 802.4C781.1 803.6 781.2 805 781 805.6C780.7 806.2 780.4 806.7 780 806.6C779 806.5 779.1 804.6 778.8 802.2C778.4 799.6 777.7 796.2 777.6 794.5C777.3 780.1 777.3 764.5 777.3 749.5C777.3 747.4 777.3 745.6 777.6 743.7C777.2 735.6 777.6 726.1 777.6 717.5C777.6 715.1 777.5 712.6 777.5 710.2C777.5 707.9 777.5 705.6 777.5 703.3C777.5 690.3 777.6 674.8 777.7 660.2C777.7 657.5 777.6 654.8 777.6 652.1C777.8 639.5 777.8 626.5 777.8 616.4C777.9 603 777.6 589 777.5 574.9C777.8 571.7 777.7 566.9 777.8 563.4C777.9 554.6 778 544.7 778.9 536.4C779.1 534.5 779.5 532.3 779.8 530.2C780.1 528 780.3 525.5 780.7 524C781 522.9 781.9 522.6 781.9 521C782.9 521.5 784.5 519.4 784.8 524C785 527 784.4 530.4 784.2 533.3C782.7 552 783 576.4 782.9 595.6C782.9 602.5 783.2 610 782.7 616.2C782.9 622.7 782.8 629.4 782.8 635.8C782.6 656.2 782.8 676.7 782.7 697.1C782.6 708.4 782.5 719.6 782.3 731.8C782 753.1 781.8 773.7 781.2 794.7C781.1 795.3 780.9 799 781.1 801.2Z" fill="white"/>
<path d="M543.4 780.2C602.6 734.9 661.7 689.5 720.9 644.2L681.4 597C643.3 633.1 605.1 669.2 567 705.4C554.6 645.2 542.2 585.1 529.8 524.9C513.2 524.3 496.6 523.7 480 523.1C479.6 510.2 479.2 497.4 478.8 484.5C470.1 486 461.4 487.5 452.6 489C482.9 586 513.1 683.1 543.4 780.2Z" fill="white"/>
<path fill-rule="evenodd" clip-rule="evenodd" d="M476.3 404.1C476.3 404.2 476.3 404.4 476.3 404.5C476.1 404.8 476.3 403.9 476.3 403.5C476.3 403 476.2 402.4 476.3 402.1C476.6 401.8 476.9 401.6 477.3 401.6C478.3 401.6 478.2 402.4 478.6 403.5C479 404.6 479.7 406 479.9 406.8C480.4 413 480.6 419.7 480.8 426.2C480.8 427.1 480.8 427.9 480.6 428.7C481.1 432.2 480.8 436.3 480.9 440C480.9 441 481 442.1 481.1 443.1C481.1 444.1 481.1 445.1 481.2 446.1C481.4 451.7 481.5 458.4 481.6 464.7C481.6 465.9 481.8 467 481.8 468.2C481.7 473.6 482 479.2 482.1 483.6C482.2 489.4 482.6 495.4 482.9 501.5C482.7 502.9 482.8 505 482.8 506.5C482.8 510.3 482.9 514.6 482 518.2C481.8 519 481.4 520 481.2 520.9C480.9 521.8 480.8 523 480.4 523.6C480.1 524.1 479.3 524.2 479.2 524.9C478.2 524.7 476.7 525.7 476.3 523.7C476 522.4 476.6 520.9 476.8 519.7C478.1 511.6 477.5 501.1 477.2 492.8C477.1 489.8 476.7 486.6 477.1 483.9C476.8 481.1 476.8 478.2 476.8 475.5C476.7 466.7 476.2 457.9 476.1 449.1C476 444.2 476 439.4 476 434.1C476 424.9 475.9 416 476.3 407C476.3 406.6 476.5 405.1 476.3 404.1Z" fill="white"/>
<path fill-rule="evenodd" clip-rule="evenodd" d="M490.2 525.1H492.2C493.4 525.3 489.5 525.2 487.8 525.2C485.4 525.2 482.6 525.3 481.3 525.2C480.1 524.9 479.2 524.6 479.3 524.2C479.5 523.2 483.3 523.3 488.2 522.8C493.4 522.4 500.1 521.6 503.5 521.4C532.4 520.7 563.5 520.3 593.5 519.8C597.7 519.7 601.3 519.7 605.2 519.9C621.3 519.3 640.3 519.4 657.7 519.2C662.5 519.1 667.4 519 672.2 518.9C676.8 518.8 681.4 518.8 685.9 518.7C712 518.4 742.9 518 772.2 517.6C777.6 517.5 783 517.3 788.3 517.3C813.5 517.2 839.5 516.7 859.7 516.5C886.6 516.2 914.6 515.6 942.8 515.1C949.2 515.3 958.8 515.1 965.8 515C983.5 514.9 1003.2 514.7 1019.9 515.4C1023.6 515.6 1028.1 515.9 1032.4 516.1C1036.8 516.3 1041.9 516.4 1044.9 516.8C1047.1 517.1 1047.6 517.9 1051 518C1050.1 519 1054.2 520.5 1045 521C1038.9 521.3 1032.2 520.8 1026.4 520.7C988.9 519.7 940 520.7 901.7 521.2C888 521.4 873 521.9 860.5 521.6C847.5 522 834 522.1 821.4 522.2C780.6 522.6 739.5 523.4 698.7 523.8C676 524 653.7 524.2 629.3 524.4C586.6 524.7 545.4 525.1 503.4 525.1C502 524.9 494.7 524.8 490.2 525.1Z" fill="white"/>
<path fill-rule="evenodd" clip-rule="evenodd" d="M765.5 218H766.5C767.1 218.2 765.1 218 764.2 218C763 218 761.5 218.1 760.9 217.9C760.3 217.6 759.8 217.3 759.9 216.9C760 215.9 762 216 764.5 215.7C767.2 215.3 770.6 214.7 772.4 214.5C787.2 214.2 803.2 214.3 818.5 214.2C820.7 214.2 822.5 214.2 824.5 214.5C832.8 214.1 842.5 214.5 851.4 214.6C853.9 214.6 856.4 214.6 858.8 214.5C861.2 214.5 863.5 214.5 865.8 214.5C879.2 214.6 895 214.6 910 214.7C912.8 214.7 915.5 214.6 918.3 214.6C931.2 214.8 944.5 214.8 954.9 214.9C968.7 215 983 214.8 997.5 214.7C1000.8 215 1005.7 214.9 1009.3 215C1018.4 215.2 1028.4 215.2 1037 216.1C1038.9 216.3 1041.2 216.7 1043.4 217C1045.6 217.3 1048.3 217.5 1049.8 217.9C1050.9 218.2 1051.2 219.1 1052.9 219.1C1052.4 220.1 1054.5 221.7 1049.8 222C1046.7 222.2 1043.3 221.6 1040.3 221.4C1021.1 219.9 996.1 220.1 976.4 220.1C969.4 220.1 961.7 220.4 955.3 219.9C948.6 220.1 941.7 220 935.2 219.9C914.3 219.7 893.3 219.9 872.3 219.7C860.7 219.6 849.2 219.5 836.7 219.3C814.8 218.9 793.7 218.8 772.2 218.1C771.6 218.1 767.8 217.8 765.5 218Z" fill="white"/>
<path fill-rule="evenodd" clip-rule="evenodd" d="M947.7 510L946.1 510.1C945.1 509.9 948.3 510 949.7 510C951.6 509.9 953.9 509.8 954.9 509.9C955.9 510.2 956.6 510.4 956.6 510.8C956.5 511.8 953.4 511.8 949.4 512.3C945.2 512.9 939.7 513.5 936.9 513.7C925.1 513.8 912.7 513.1 900.3 510.8C898.7 510.6 897.2 510.2 895.7 509.8C894.2 509.4 892.6 509.1 891.1 508.7C888.1 507.8 885 506.9 882 505.7C876 503.4 870.2 500.5 865 496.7C863.6 495.6 862.3 494.5 861 493.4C859.8 492.2 858.7 491.1 857.6 489.7C856.4 488.4 855.1 487.1 854.1 485.6C853.6 484.9 853 484.1 852.5 483.4C852 482.6 851.5 481.8 851 481C849.1 477.7 847.6 474.2 846.4 470.5C844 463.2 843.1 455.5 842.7 448.3C842.5 444.3 842.4 440.2 842.5 436.2C842.6 432.4 842.9 428.6 843.2 424.9C844.1 414.2 845.8 402.7 847.4 390.9C848.2 385 849.1 379.1 849.7 373.2C850.3 367.3 850.7 361.4 850.3 355.8C850 351.7 849.2 347.7 847.6 344.6C846.6 342.8 845.4 341.2 843.8 340.2C843.1 339.7 841.9 339.2 840.8 338.6C839.6 338.1 838.5 337.5 837.4 337C832.8 334.8 828.2 332.7 823.7 330.5C819.2 328.4 814.9 326.2 810.8 324.2C808.9 323.2 806.5 322.2 804.5 320.8C802.4 319.4 800.5 317.7 799.1 315.7C798.1 314.4 797.3 312.9 796.7 311.3C796.1 309.8 795.7 308.2 795.5 306.5C795.4 305.7 795.4 304.8 795.4 303.8C795.5 302.9 795.7 301.8 796 300.9C796.7 299 797.9 297.3 799.3 296.2C802 293.8 804.8 292.6 807.6 291.5C810.4 290.4 813.1 289.5 815.9 288.7C821.3 287.1 826.8 285.6 832.2 284C837.6 282.4 843 280.6 848.4 278.9C853.3 277.6 860.6 275 865.6 272.8C871.9 270 878.2 266.4 882.4 261.2C886.6 256.1 888.4 249.1 889.6 242.7C890.1 239.8 890.8 236.4 890.9 232.9C891 229.4 890.6 225.4 890.5 222.9C890.4 221.1 891.1 220.5 890.4 217.8C891 218 891.4 217.2 892 217.2C892.6 217.2 893.4 218.1 894.5 221.9C895.9 227 895.8 232.8 895.4 237.8C895 241.8 894.4 245.8 893.4 249.9C892.9 252 892.2 254 891.4 256.1C891 257.1 890.5 258.1 890 259.2C889.4 260.2 888.9 261.2 888.3 262.1C885.8 265.9 882.4 269.1 878.6 271.7C874.8 274.3 870.8 276.3 866.7 278C862.6 279.8 858.4 281.2 854.2 282.6C850 284 845.9 285.3 841.8 286.6C833.6 289.2 825.5 291.3 818.1 293.4C815.4 294.2 812.8 295 810.2 296C807.6 297 805.1 298.2 803.2 299.7C802.3 300.5 801.6 301.3 801.2 302.3C801 302.8 800.9 303.2 800.8 303.8C800.7 304.3 800.7 304.9 800.8 305.5C800.9 306.7 801.1 307.9 801.5 309C801.8 310.1 802.3 311.1 802.9 312.1C804.3 314 806.1 315.6 808.2 316.9C809.3 317.5 810.4 318.1 811.6 318.7L815.2 320.5C820 322.9 824.7 325.2 829.3 327.4C833 329.2 836.8 330.9 840.5 332.7C842.4 333.6 844.2 334.4 846.2 335.5C848.2 336.7 850 338.3 851.3 340.2C853.9 344 854.9 348.4 855.5 352.7C856 357 856 361.2 855.8 365.4C855.4 373.8 854.3 382.1 853.1 390.3C852 398.5 850.7 406.7 849.8 414.9C848.7 424 847.9 433 847.9 442.2C848 451.4 848.8 460.8 851.9 469.9C853.3 473.9 855.1 477.7 857.4 481.2C859.6 484.7 862.6 487.7 865.7 490.5C872 495.9 879.6 499.8 887.5 502.5C895.4 505.3 903.7 506.9 912 508C916.2 508.7 920.4 508.9 924.6 509.3C926.7 509.4 928.8 509.5 930.9 509.6C933 509.7 935.1 509.8 937.3 509.8C937.9 509.9 939.7 510 941.8 510C942.8 510 944 510 945.1 510C945.8 510.2 946.9 510.1 947.7 510Z" fill="white"/>
<path fill-rule="evenodd" clip-rule="evenodd" d="M877 320H876.9C876.9 319.8 877.1 320.1 877.2 320.1C877.3 320.2 877.6 320.2 877.6 320.3C877.6 320.6 877.5 320.9 877.3 321.3C876.9 322.2 876.7 322 876.3 322.2C875.9 322.4 875.2 322.9 875 323C873.3 322.7 871.5 322.3 869.7 322C869.5 322 869.3 321.9 869.1 321.6C868.6 321.7 868.1 321.7 867.6 321.6C867.1 321.5 866.5 321.4 866 321.3C865.7 321.3 865.4 321.4 865.1 321.4C864.8 321.4 864.6 321.4 864.3 321.4C862.8 321.5 860.9 321.6 859.3 322C859 322.1 858.7 322.3 858.4 322.3C856.9 322.5 855.5 323.1 854.4 323.5C852.9 324.1 851.6 325.2 850.3 326.2C849.8 326.2 849.4 326.6 849.1 326.8C848.2 327.3 847.3 328.1 845.9 328.2C845.6 328.2 845.1 328.1 844.7 328.1C844.3 328.1 843.9 328.2 843.5 328.1C843.2 328 842.5 327.5 842.3 327.6C841.6 326.9 840.2 326.1 840.4 325.3C840.5 324.8 841.3 324.8 841.8 324.7C844.7 323.8 847.2 321.5 849.6 320.1C850.4 319.6 851.3 318.8 852.3 318.9C853 318.3 854 318 854.8 317.8C857.6 317 860.4 316.2 863.3 316.1C864.9 316 866.5 316.2 868.2 316.5C871.1 317.1 873.9 317.8 876.4 319.3C876.3 319.7 876.6 320.1 877 320Z" fill="white"/>
<path d="M1052 218.5C1051.8 298.2 1051.6 378 1051.4 457.7C1051.3 477.5 1051.3 497.4 1051.2 517.2C999.9 517.9 948.6 518.6 897.2 519.3C898.7 515.7 900.4 511.7 902.4 507.6C914.1 483.5 935.8 461.8 935.8 461.8C975.8 421.8 991.4 424.5 998.3 402.9C1002.6 389.3 1002.1 370.6 993.1 356.7C983.3 341.5 969.8 342.3 949.8 320.1C944 313.7 937.8 306.7 934.2 298.2C920.7 266.3 950.2 226.5 956.6 218.2C963.3 218.2 970.1 218.2 976.8 218.3C1001.9 218.4 1026.9 218.4 1052 218.5Z" fill="white"/>
<path fill-rule="evenodd" clip-rule="evenodd" d="M885.7 426H886.6C887.1 426.2 885.4 426 884.7 425.9C883.7 425.8 882.4 425.8 881.9 425.6C881.4 425.3 881 424.9 881.1 424.5C881.3 423.5 882.9 423.8 885 423.5C887.2 423.3 890 422.6 891.4 422.4C897.4 422.1 903.6 421.3 909.6 419.8C912.6 419 915.6 418.1 918.5 417C920 416.5 921.4 415.8 922.8 415.2C924.2 414.5 925.6 413.9 927 413.1C928.5 412.3 929.8 411.6 931.3 411C934.1 409.1 937.1 407.1 940 404.9C943 402.7 945.9 400.3 948.5 397.8C950 396.4 951.3 394.9 952.7 393.4C954 392 955.3 390.5 956.4 389.1C959.8 384.9 963.2 380 965.8 374.7C967.1 372.1 968.2 369.3 968.7 366.6C969 365.3 969 364 968.9 363C968.9 362.7 968.8 362.6 968.8 362.4C968.8 362.2 968.7 362.1 968.6 362C968.5 361.8 968.2 361.4 967.8 361.1C966.5 360 964.7 359.3 963.1 359C961.3 358.6 959.2 358.9 957.2 359.8C956.7 360 956.2 360.3 955.6 360.6L955.1 360.9L954.6 361.1L954.4 361.2L953.4 361.6C952.1 362.1 950.9 362.6 949.6 363.1C947.1 364.1 944.7 364.9 942.4 365.8C940.1 366.6 937.8 367.4 935.7 368C930.1 369.7 924.3 371.4 918.5 372.9C912.6 374.3 906.6 375.7 900.5 376.8C899.1 376.9 897.4 377.1 895.6 377.3C893.8 377.5 892 377.8 890.5 377.9C882.8 378.7 874.2 379.3 866.9 378.6C865.3 378.4 863.3 378 861.5 377.8C859.6 377.6 857.4 377.3 856.1 376.8C855.2 376.5 855 375.6 853.5 375.5C853.9 374.5 852.2 372.9 856.1 372.6C857.4 372.5 858.7 372.6 860.1 372.8C861.4 372.9 862.8 373.1 864 373.2C872 373.8 881.2 373.5 890.4 372.5C899.6 371.5 908.8 369.7 916.7 367.8C922.4 366.4 928.5 364.4 933.7 363.3C938.9 361.4 944.4 359.6 949.4 357.6L950.9 357L951.7 356.7L952.1 356.6L952.3 356.5H952.4C952.5 356.6 952.3 356.2 952.6 356.8C952.4 356.3 952.5 356.5 952.5 356.5L952.6 356.4L952.9 356.2L953.7 355.8C954.2 355.5 954.8 355.3 955.3 355.1C957.5 354.2 960 353.6 962.6 353.9C965.1 354.1 967.5 355 969.6 356.4C970.6 357.1 971.6 357.9 972.5 359C973.3 360.2 973.8 361.6 973.9 362.9C974.2 365.5 973.7 367.9 973.1 370.1C972.5 372.3 971.6 374.5 970.6 376.5C968.7 380.6 966.3 384.5 963.6 388.1C960.7 392.1 957.4 395.9 953.9 399.4C950.4 402.9 946.5 406.3 942.2 409.5C934.7 415 926.5 419.4 917.9 422.3C909.2 425.2 900.2 426.5 891.1 426.4C890.8 426.1 887.6 425.9 885.7 426Z" fill="white"/>
<path fill-rule="evenodd" clip-rule="evenodd" d="M1051.7 224.2V225.3C1051.5 225.9 1051.7 223.9 1051.7 223C1051.7 221.8 1051.6 220.3 1051.8 219.6C1052.1 219 1052.4 218.5 1052.8 218.5C1053.8 218.6 1053.7 220.6 1054 223.1C1054.4 225.8 1055 229.3 1055.2 231.1C1055.5 246.2 1055.4 262.5 1055.5 278.1C1055.5 280.3 1055.5 282.2 1055.2 284.2C1055.6 292.6 1055.2 302.6 1055.1 311.6C1055.1 314.1 1055.1 316.7 1055.2 319.2C1055.2 321.6 1055.2 324 1055.2 326.4C1055.1 340 1055.1 356.2 1055 371.5C1055 374.3 1055.1 377.1 1055.1 379.9C1054.9 393.1 1054.9 406.6 1054.8 417.2C1054.7 431.2 1054.9 445.9 1055 460.6C1054.7 463.9 1054.8 469 1054.7 472.6C1054.5 481.8 1054.5 492.1 1053.5 500.8C1053.3 502.7 1052.9 505.1 1052.6 507.3C1052.3 509.6 1052.1 512.2 1051.7 513.8C1051.4 514.9 1050.5 515.2 1050.5 517C1049.5 516.5 1047.9 518.6 1047.6 513.8C1047.4 510.6 1048 507.1 1048.2 504.1C1049.7 484.5 1049.5 459 1049.5 439C1049.5 431.8 1049.2 424 1049.7 417.5C1049.5 410.7 1049.6 403.7 1049.7 397.1C1049.9 375.8 1049.7 354.3 1049.9 333C1050 321.1 1050.1 309.5 1050.3 296.7C1050.7 274.4 1050.8 252.9 1051.5 230.9C1051.6 230.4 1051.9 226.5 1051.7 224.2Z" fill="white"/>
<path fill-rule="evenodd" clip-rule="evenodd" d="M976.1 4.2C976.1 4.5 976.1 4.7 976.1 5C975.9 5.5 976.1 4 976.1 3.3C976.1 2.4 976 1.3 976.2 0.8C976.5 0.4 976.8 0 977.2 0C978.2 0.1 978.1 1.5 978.4 3.4C978.8 5.4 979.5 8 979.7 9.2C980.1 20.2 980.1 32.1 980.2 43.5C980.2 45.1 980.2 46.5 980 48C980.4 54.2 980.1 61.4 980 68C980 69.8 980.1 71.7 980.1 73.5C980.1 75.3 980.1 77 980.1 78.7C980.2 88.7 980.1 100.5 980.1 111.7C980.1 113.8 980.2 115.8 980.2 117.9C980 127.5 980.1 137.4 980.1 145.2C980.1 155.5 980.3 166.1 980.5 176.9C980.2 179.3 980.3 183 980.3 185.7C980.2 192.5 980.2 200 979.3 206.3C979.1 207.7 978.7 209.4 978.4 211.1C978.1 212.8 977.9 214.7 977.5 215.9C977.2 216.7 976.3 216.9 976.3 218.2C975.3 217.8 973.7 219.4 973.4 215.9C973.2 213.6 973.7 211 974 208.8C975.5 194.5 975.1 175.8 975.1 161.2C975.1 156 974.7 150.2 975.2 145.5C974.9 140.5 975.1 135.4 975.1 130.6C975.2 115 974.9 99.4 975 83.8C975 75.1 975.1 66.6 975.3 57.3C975.6 41 975.7 25.3 976.2 9.2C976.1 8.7 976.3 5.9 976.1 4.2Z" fill="white"/>
<path fill-rule="evenodd" clip-rule="evenodd" d="M1056.1 457.9C1056.4 457.9 1056.7 457.9 1057 457.9C1057.5 458.1 1055.8 458 1055.1 458C1054.1 458 1052.9 458.1 1052.3 458C1051.8 457.7 1051.4 457.4 1051.4 457C1051.5 456 1053.1 456 1055.2 455.6C1057.4 455.1 1060.3 454.4 1061.8 454.1C1074.3 453.3 1087.7 452.9 1100.7 452.4C1102.5 452.3 1104.1 452.3 1105.8 452.5C1112.8 451.8 1121 452 1128.5 451.7C1130.6 451.6 1132.7 451.5 1134.8 451.4C1136.8 451.3 1138.8 451.3 1140.7 451.2C1152 450.8 1165.3 450.4 1178 450C1180.3 449.9 1182.6 449.7 1185 449.7C1195.9 449.5 1207.1 449.1 1215.9 448.8C1227.5 448.5 1239.6 447.8 1251.8 447.2C1254.6 447.4 1258.7 447.2 1261.7 447.1C1269.4 447 1277.8 446.7 1285.1 447.4C1286.7 447.5 1288.6 447.9 1290.5 448.1C1292.4 448.3 1294.6 448.4 1295.9 448.8C1296.8 449.1 1297.1 449.9 1298.6 449.9C1298.2 450.9 1300.1 452.4 1296.1 452.9C1293.5 453.2 1290.6 452.7 1288.1 452.6C1271.8 451.7 1250.8 452.7 1234.2 453.3C1228.3 453.5 1221.8 454.1 1216.4 453.7C1210.8 454.1 1205 454.2 1199.5 454.4C1181.9 454.8 1164.1 455.7 1146.5 456.2C1136.7 456.5 1127.1 456.7 1116.5 456.9C1098 457.2 1080.2 457.7 1062.1 457.8C1061.2 457.7 1058 457.6 1056.1 457.9Z" fill="white"/>
<path fill-rule="evenodd" clip-rule="evenodd" d="M1294.5 7.29992C1294.1 7.29992 1293.7 7.29992 1293.4 7.29992C1292.7 7.09992 1294.9 7.29992 1295.9 7.29992C1297.3 7.29992 1298.9 7.29992 1299.6 7.39992C1300.3 7.69992 1300.8 7.99992 1300.7 8.39992C1300.6 9.39992 1298.4 9.29992 1295.7 9.59992C1292.7 9.99992 1288.9 10.5999 1287 10.7999C1270.6 10.9999 1252.9 10.8999 1236 10.8999C1233.6 10.8999 1231.6 10.7999 1229.4 10.5999C1220.2 10.9999 1209.5 10.4999 1199.6 10.3999C1196.9 10.3999 1194.1 10.3999 1191.4 10.3999C1188.8 10.3999 1186.2 10.3999 1183.6 10.2999C1168.8 10.1999 1151.3 9.99992 1134.6 9.89992C1131.6 9.89992 1128.5 9.99992 1125.4 9.89992C1111.1 9.59992 1096.4 9.59992 1084.9 9.49992C1069.7 9.29992 1053.8 9.49992 1037.8 9.49992C1034.2 9.19992 1028.7 9.19992 1024.8 9.19992C1014.8 8.99992 1003.6 8.89992 994.1 7.89992C992 7.69992 989.5 7.19992 987 6.89992C984.5 6.59992 981.6 6.39992 979.9 5.89992C978.7 5.59992 978.4 4.69992 976.5 4.59992C977 3.59992 974.7 1.99992 980 1.69992C983.4 1.49992 987.2 2.09992 990.5 2.29992C1011.8 3.89992 1039.5 3.79992 1061.2 3.89992C1069 3.99992 1077.5 3.69992 1084.5 4.19992C1091.9 3.99992 1099.5 4.19992 1106.7 4.29992C1129.8 4.59992 1153.1 4.49992 1176.3 4.79992C1189.2 4.89992 1201.8 5.09992 1215.7 5.39992C1239.9 5.89992 1263.3 6.09992 1287.1 6.89992C1287.8 7.19992 1292 7.49992 1294.5 7.29992Z" fill="white"/>
<path fill-rule="evenodd" clip-rule="evenodd" d="M1298.7 440.9C1298.7 440.4 1298.7 439.9 1298.7 439.3C1298.9 438.4 1298.7 441.4 1298.7 442.7C1298.7 444.5 1298.8 446.7 1298.6 447.7C1298.3 448.6 1298 449.3 1297.6 449.3C1296.6 449.1 1296.7 446.2 1296.4 442.4C1296 438.4 1295.3 433.2 1295.2 430.6C1294.9 408.3 1294.9 384.3 1294.9 361.2C1294.9 357.9 1294.9 355.2 1295.2 352.2C1294.8 339.8 1295.2 325.1 1295.2 311.7C1295.2 308 1295.1 304.2 1295.1 300.5C1295.1 296.9 1295.1 293.4 1295.1 289.9C1295.1 269.8 1295.2 245.9 1295.3 223.3C1295.3 219.2 1295.2 215 1295.2 210.8C1295.4 191.3 1295.4 171.3 1295.4 155.7C1295.5 135 1295.2 113.4 1295.1 91.5999C1295.4 86.6999 1295.3 79.1999 1295.4 73.8999C1295.5 60.1999 1295.6 45.0999 1296.5 32.1999C1296.7 29.2999 1297.1 25.8999 1297.4 22.5999C1297.7 19.1999 1297.9 15.2999 1298.3 12.9999C1298.6 11.2999 1299.5 10.8999 1299.5 8.29991C1300.5 8.99991 1302.1 5.89991 1302.4 12.9999C1302.6 17.6999 1302 22.7999 1301.8 27.2999C1300.3 56.1999 1300.6 93.8999 1300.5 123.5C1300.5 134.1 1300.8 145.7 1300.3 155.3C1300.5 165.4 1300.4 175.7 1300.3 185.5C1300.1 217 1300.3 248.6 1300.2 280.1C1300.1 297.6 1300 314.8 1299.8 333.6C1299.5 366.5 1299.3 398.3 1298.7 430.7C1298.7 431.8 1298.5 437.5 1298.7 440.9Z" fill="white"/>
<path fill-rule="evenodd" clip-rule="evenodd" d="M1163.1 214.2L1162.9 212.5C1163 211.4 1163.2 214.8 1163.4 216.3C1163.6 218.3 1164 220.7 1164 221.8C1163.8 222.8 1163.6 223.7 1163.2 223.6C1162.2 223.5 1161.9 220.3 1161.1 216.2C1160.2 211.8 1158.7 206.2 1158 203.4C1156.9 197.3 1155.8 191.2 1154.3 185.1C1153.5 182.1 1152.8 179 1151.8 176.1C1151.6 175.4 1151.3 174.7 1151 174C1150.7 173.3 1150.5 172.6 1150.2 172C1149.6 170.7 1148.9 169.6 1148.2 168.8C1147.4 168 1146.8 167.6 1145.9 167.4C1145 167.2 1143.9 167.3 1143 167.6C1142.1 167.9 1141.3 168.4 1141 169C1140.6 169.6 1140.3 170.6 1140.2 171.8C1140.1 173 1140.3 174.3 1140.6 176C1140.8 177.6 1141 179.3 1141.2 180.9C1141.6 184.1 1142 187.3 1142.4 190.5C1142.9 194.1 1143.2 197.1 1143.5 200.5C1145.8 214.1 1148.1 230.2 1152.4 244.1C1152.9 246.1 1153.7 247.9 1154.4 249.8C1155.1 251.7 1155.9 253.5 1156.7 255.4L1157.3 256.7L1157.9 257.9C1158.3 258.7 1158.8 259.6 1159.2 260.4C1160.1 262.1 1161 263.4 1162 264.4C1163.5 265.9 1165.1 266.6 1167.1 266.5C1169 266.4 1171.5 265.4 1173.2 264C1175 262.6 1176.4 260.5 1177.4 258C1178.4 255.7 1178.8 252.8 1179.1 249.8C1179.6 243.9 1179.4 237.6 1178.9 231.3C1178.4 225 1177.6 218.8 1176.6 212.6C1175.9 208.1 1174.9 203.6 1174 199.1C1171.9 188.6 1169.2 178 1165.9 168.3C1164.3 163.4 1162.5 158.8 1160.5 154.5C1158.5 150.2 1156.4 146.3 1153.9 143.4C1152.3 141.5 1150.4 140 1148.4 139.2C1146.3 138.4 1144 138.3 1141.7 138.9C1140.5 139.2 1139.3 139.6 1138.2 140.1L1137.3 140.5L1136.5 141L1135.7 141.5L1134.9 142C1132.8 143.4 1130.9 145.3 1129.3 147.4C1126 151.6 1123.8 156.9 1122.3 162.4C1121.6 165.1 1121.1 167.8 1120.9 170.6C1120.8 173.4 1120.8 176.2 1121.1 179.1C1121.3 184.3 1123.1 192.2 1124.5 198C1126.3 205.3 1128.4 213.1 1130.3 220.8C1132.2 228.5 1134 236.1 1135.5 243.1C1136.1 246.2 1136.7 250 1137.4 253.7C1138.1 257.4 1139.1 261.7 1139.3 264.3C1139.5 266.2 1138.8 266.9 1139.5 269.6C1138.3 269.1 1137.7 272.9 1135.4 265.3C1133.8 260.3 1132.9 254.6 1131.8 249.8C1130.1 241.9 1128.1 233.5 1125.9 224.8C1123.8 216.1 1121.3 207.1 1119.1 198C1118 193.4 1117 188.8 1116.3 184.2C1115.6 179.5 1115.2 174.8 1115.6 170.1C1115.9 165.4 1117.1 160.8 1118.5 156.6C1120 152.4 1122 148.3 1124.6 144.9C1126.4 142.4 1128.7 140 1131.4 138.1C1134.1 136.2 1137 134.7 1140.2 133.9C1143.4 133.1 1147 133.1 1150.1 134.2C1153.2 135.3 1155.7 137.4 1157.5 139.6C1158.5 140.7 1159.5 141.9 1160.3 143.1L1161.5 144.9L1162.6 146.8C1164 149.3 1165.3 151.9 1166.4 154.6C1168.7 159.9 1170.5 165.2 1172.2 170.5C1174.8 178.9 1177 187.5 1178.9 196.1C1180.8 204.7 1182.3 213.4 1183.4 222.2C1184.5 231 1185.2 239.9 1184.7 248.8C1184.7 249.9 1184.5 251.1 1184.4 252.2C1184.2 253.3 1184.1 254.5 1183.8 255.6L1183.4 257.3C1183.2 257.9 1183 258.4 1182.9 259C1182.5 260.1 1182 261.2 1181.5 262.3C1180.4 264.4 1178.9 266.4 1176.9 267.9C1175 269.5 1172.8 270.6 1170.4 271.2C1167.8 271.9 1164.7 271.8 1162.1 270.5C1159.5 269.2 1157.6 267.1 1156.2 264.9C1155.5 263.8 1154.9 262.7 1154.4 261.6C1153.8 260.5 1153.2 259.4 1152.7 258.2C1151.8 255.9 1150.7 253.6 1149.9 251.2C1146.6 241.8 1144.3 231.9 1142.4 221.5C1140.8 212.4 1139.5 203.4 1138.4 194.4C1137.8 189.9 1137.4 185.4 1136.9 180.9C1136.6 178.7 1136.4 176.4 1136.1 174.2C1135.9 171.9 1135.9 169.3 1137.1 167C1137.7 165.9 1138.6 164.8 1139.6 164.1C1140.6 163.4 1141.8 162.9 1143 162.6C1145.4 162.1 1148.1 162.4 1150.2 163.9C1152.3 165.3 1153.6 167.5 1154.6 169.5C1155.1 170.5 1155.5 171.6 1155.9 172.7C1156.3 173.8 1156.6 174.9 1157 175.9C1159.5 184.6 1161 193.5 1162.2 202.4C1161.7 204.2 1162.4 210.5 1163.1 214.2Z" fill="white"/>
<path fill-rule="evenodd" clip-rule="evenodd" d="M1139 290.5L1139.7 292.3C1139.9 293.5 1138.7 290 1138.3 288.4C1137.6 286.3 1137 283.7 1136.9 282.5C1137 281.4 1137.2 280.5 1137.6 280.5C1138.6 280.6 1138.9 284 1140.6 288C1141.5 290.2 1142.8 292.5 1144.1 294.5C1145.4 296.5 1146.9 298.1 1147.8 299.1C1149.8 301.4 1152.1 303.4 1154.6 304.9C1157.2 306.5 1160.1 307.5 1163.1 308C1166.1 308.5 1169.2 308.4 1172.4 308C1175.6 307.5 1178.7 306.6 1181.8 305.4C1188 303.1 1193.9 299.7 1198.8 295.4C1203.7 291.1 1207.4 285.7 1209 279.7C1209.9 276.3 1210.2 273.3 1210.4 269.9C1210.1 262.9 1208.3 255.2 1206.4 247.1C1204.5 239 1202.6 230.8 1200.8 222.9C1199.7 218.5 1198.6 214.1 1197.6 209.8C1196.6 205.6 1195.6 201.4 1194.6 197.4C1193.2 191.5 1191.7 185.3 1190.2 179C1188.7 172.6 1187.2 166.1 1185.3 159.7C1183.5 153.2 1181.4 146.8 1178.6 140.7C1175.9 134.6 1172.5 128.9 1168.4 123.9C1165.4 120.2 1161.8 117 1158.1 114.2C1155.9 112.6 1153.6 111.1 1151.1 109.9C1148.6 108.7 1146.1 107.6 1143.5 107C1142.9 106.8 1142.2 106.7 1141.5 106.5C1140.8 106.4 1140.2 106.2 1139.5 106.1L1137.5 105.8C1136.9 105.7 1136.3 105.7 1135.7 105.7C1133.1 105.7 1130.5 106.1 1128 106.7C1123 108 1118.5 110.4 1115 113.6C1111.5 116.8 1109 120.8 1107.2 124.7C1104.7 130 1103.3 135.9 1102.4 142C1101.5 148.1 1101.3 154.3 1101.4 160.7C1101.7 173.3 1103.4 186.2 1105.9 198.9C1106.7 204.7 1108.7 213.4 1110.2 219.7C1114 235.6 1119.2 253.1 1123.2 268.1C1124.1 271.4 1125 275.5 1126 279.4C1127.1 283.3 1128.5 287.9 1129 290.7C1129.4 292.7 1128.8 293.5 1129.7 296.4C1128.4 295.9 1128.3 300.1 1125.1 292.1C1123 286.8 1121.5 280.8 1120 275.5C1117.6 267.1 1114.9 258 1112.3 248.6C1109.7 239.2 1107 229.5 1104.7 219.6C1100 199.9 1096.5 179.7 1096.2 161.6C1096.1 155.1 1096.3 148.3 1097.2 141.7C1098.1 135.1 1099.8 128.7 1102.5 123.3C1104.9 117.5 1108.6 112 1113.8 108C1118.9 104 1125.1 101.7 1131.2 100.9C1132.4 100.7 1133.7 100.6 1134.9 100.6C1135.5 100.6 1136.2 100.6 1136.8 100.6C1137.1 100.6 1137.4 100.6 1137.8 100.7L1138.7 100.8C1139.9 101 1141.2 101.1 1142.4 101.4L1144.2 101.8L1146 102.3C1150.8 103.7 1155.2 105.9 1159.3 108.6C1167.5 114.1 1174.1 121.6 1179 130C1183.9 138.4 1187.3 147.6 1190 156.8C1192.7 166 1194.7 175.3 1196.9 184.5C1201.7 205.1 1206.4 225.3 1211.6 247.4C1212.7 252.2 1213.8 257.1 1214.5 262.1C1215.1 267.1 1215.4 272.2 1214.5 277.2C1214.1 279.7 1213.4 282.2 1212.5 284.5C1211.5 286.8 1210.3 289.1 1208.9 291.2C1206 295.3 1202.4 298.9 1198.4 301.8C1196.4 303.3 1194.3 304.6 1192.1 305.8C1189.9 307 1187.7 308 1185.4 308.9C1180.8 310.7 1176.1 312.2 1171.1 312.7C1166.2 313.2 1161.1 312.6 1156.5 310.6C1151.9 308.6 1147.8 305.6 1144.8 301.7C1144.6 301.4 1144.2 300.8 1143.7 300.1C1143.2 299.3 1142.6 298.4 1142 297.3C1141 294.9 1139.9 292.4 1139 290.5Z" fill="white"/>
<path fill-rule="evenodd" clip-rule="evenodd" d="M1214.2 205.6L1214.3 206.1C1214.2 206.5 1214.1 205.5 1214 205C1213.8 204.4 1213.5 203.8 1213.6 203.4C1213.8 203 1214 202.7 1214.4 202.6C1215.3 202.4 1215.6 203.3 1216.3 204.4C1217 205.6 1218.2 207 1218.6 207.8C1219.8 211.3 1220.9 215 1221.8 218.8C1222.8 222.6 1223.6 226.3 1224.5 230C1224.7 231.1 1224.9 231.9 1224.9 233C1226.2 236.9 1226.7 241.9 1227.3 246.4C1227.5 247.6 1227.7 248.9 1227.8 250.2C1227.9 251.4 1228 252.6 1228.1 253.8C1228.2 255.5 1228.2 257.3 1228.2 259.2C1228.2 261 1228.2 262.8 1228.1 264.7C1228 268.5 1227.7 272.5 1227.1 276.3C1226.9 277.7 1226.7 279.2 1226.4 280.6C1224.8 287.2 1222 293.8 1218.9 298.3C1214.9 304.4 1209.4 309.9 1203 314C1202.2 314.3 1201.2 314.8 1200.3 315.4C1199.3 315.9 1198.3 316.4 1197.5 316.8C1193.2 318.8 1188.2 320.4 1183.7 320.6C1182.7 320.7 1181.5 320.5 1180.3 320.4C1179.1 320.3 1177.8 320.4 1177 320C1176.4 319.8 1176.2 319 1175.3 319C1175.4 318 1174.2 316.6 1176.4 315.9C1177.8 315.5 1179.5 315.7 1180.9 315.7C1185.5 315.5 1190.7 314.1 1195.5 311.9C1200.3 309.7 1204.7 306.5 1208.1 303.3C1208.4 303 1208.7 302.7 1209 302.4C1209.3 302.1 1209.6 301.8 1209.8 301.4C1210.4 300.8 1210.9 300.1 1211.5 299.5C1212 298.8 1212.5 298.2 1213.1 297.5C1213.6 296.9 1214.1 296.3 1214.7 295.7C1216.2 292.9 1217.9 290.1 1219 287.2C1220.9 282.6 1221.9 277.6 1222.4 272.6C1222.9 267.6 1222.9 262.4 1222.9 257.3C1222.9 251.7 1222.3 246.1 1221.4 240.1C1220.6 234.8 1219.5 229.6 1218.4 224.4C1217.4 219.2 1216.2 214.1 1215 208.9C1215 208.4 1214.8 206.6 1214.2 205.6Z" fill="white"/>
<path fill-rule="evenodd" clip-rule="evenodd" d="M1085.6 175.5L1085.5 174.5C1085.6 173.9 1085.7 175.8 1085.8 176.6C1086 177.7 1086.3 179.1 1086.2 179.7C1086 180.3 1085.8 180.8 1085.4 180.8C1084.4 180.9 1084.2 179 1083.4 176.8C1082.6 174.3 1081.5 171.2 1081.2 169.5C1080.3 162.4 1080 155 1080.3 147.5C1080.5 143.8 1080.8 140 1081.3 136.3C1081.8 132.6 1082.5 128.9 1083.1 125.3C1083.5 123.3 1083.9 121.6 1084.5 119.8C1085.2 115.9 1086.3 111.6 1088 107.4C1089.7 103.1 1092.1 99.0001 1094.9 95.4001C1095.7 94.4001 1096.5 93.4001 1097.3 92.5001C1098.2 91.6001 1099.1 90.7001 1100 89.8001C1100.8 88.9001 1101.9 88.3001 1102.8 87.5001C1103.8 86.8001 1104.7 86.0001 1105.7 85.5001C1111.5 81.9001 1118.7 79.5001 1126.2 78.7001C1133.7 78.0001 1141.5 78.9001 1148.6 80.9001C1149.9 81.2001 1151.2 81.7001 1152.5 82.1001L1154.4 82.8001C1155 83.0001 1155.7 83.3001 1156.3 83.6001C1168.2 88.9001 1178 98.1001 1183.9 106.3C1187.9 111.7 1191.3 117.7 1194.3 123.8C1197.3 129.9 1200 136.2 1202.6 142.6C1203.5 145.6 1205.2 149.9 1206.3 153.1C1209.2 161.3 1211.9 170.5 1213 178.6C1213.2 180.4 1213.3 182.6 1213.5 184.7C1213.7 186.8 1214 189.3 1213.8 190.8C1213.7 191.9 1212.9 192.3 1213.1 193.9C1212 193.6 1210.9 195.8 1209.7 191.6C1208.9 188.8 1208.8 185.6 1208.4 182.9C1207.1 174 1204.5 164 1201 154.3C1199.2 149.4 1197.4 144.5 1195.5 139.9C1193.6 135.2 1191.6 130.7 1189.6 126.6C1186.8 120.7 1183 114.7 1179.9 109.7C1176.1 104.9 1171.8 100.3 1167.2 96.5001C1163.5 93.5001 1159.4 91.0001 1155.1 89.0001C1154 88.5001 1152.9 88.0001 1151.8 87.6001L1148.4 86.4001L1144.9 85.5001C1144.3 85.3001 1143.7 85.2001 1143.2 85.1001L1141.4 84.8001C1136.7 84.0001 1131.9 83.7001 1127.2 84.1001C1122.5 84.5001 1117.8 85.6001 1113.5 87.4001C1108.7 89.4001 1104.3 92.3001 1100.6 96.1001C1096.9 99.9001 1094.1 104.6 1092 109.9C1090.2 114.6 1089 119.5 1087.9 124.4C1086.8 129.3 1085.8 134.2 1085.2 139.2C1083.9 149.1 1083.6 159.1 1084.4 169.1C1084.9 169.9 1085 173.4 1085.6 175.5Z" fill="white"/>
<path fill-rule="evenodd" clip-rule="evenodd" d="M1191.3 327.1L1190.6 327.2C1190.1 327 1191.5 327.1 1192.1 327C1192.9 326.9 1193.9 326.6 1194.3 326.7C1194.8 326.9 1195.1 327.2 1195.2 327.6C1195.3 328.6 1193.9 328.7 1192.3 329.3C1190.5 329.9 1188.2 330.9 1186.9 331.2C1181.7 331.8 1176.1 331.9 1170.7 331.5C1165.2 331.1 1159.7 330.3 1154.3 329C1152.8 328.6 1151.5 328.3 1150.2 327.6C1147.3 327 1144.3 325.8 1141.2 324.4C1139.7 323.7 1138.2 322.9 1136.8 322.1C1135.4 321.2 1133.9 320.5 1132.6 319.5C1131.9 319 1131.1 318.5 1130.3 318C1129.5 317.5 1128.8 316.9 1128.1 316.4C1127.4 315.9 1126.7 315.4 1126.1 314.8C1125.5 314.2 1124.8 313.6 1124.2 313.1C1120.6 309.8 1117.2 305.6 1114.4 300.9C1111.6 296.2 1109.5 291 1107.7 286.2C1107 284.4 1106.2 282.7 1105.6 280.9C1102.7 272.4 1099.8 263.7 1097.8 256.8C1095.2 247.7 1092.4 238.2 1090 228.5C1089.8 226.3 1088.9 222.9 1088.4 220.5C1087.2 214.4 1085.8 207.6 1085.6 201.6C1085.5 200.3 1085.7 198.7 1085.7 197.1C1085.7 195.5 1085.5 193.7 1085.8 192.6C1086 191.8 1086.8 191.5 1086.6 190.3C1087.7 190.4 1088.9 188.8 1089.8 191.9C1090.4 194 1090.3 196.3 1090.4 198.4C1091.4 211.6 1095.4 228.3 1098.8 241.2C1099.4 243.5 1100.2 245.9 1100.8 248.3C1101.5 250.7 1102.1 253 1102.5 255.1C1103.3 257.2 1104 259.5 1104.6 261.7C1105.3 263.9 1105.9 266.1 1106.6 268.2C1108.8 275 1111.3 281.7 1114 288.3C1115.4 291.6 1116.8 294.8 1118.6 297.8C1120.4 300.8 1122.4 303.6 1124.7 306.2C1125.3 306.9 1126 307.6 1126.7 308.3L1128.8 310.3C1129.2 310.6 1129.5 311 1129.9 311.3L1131 312.2C1131.8 312.8 1132.5 313.4 1133.3 314C1136.5 316.3 1139.9 318.3 1143.7 320.1C1150.4 323.2 1157.4 325.1 1164.6 326.3C1171.8 327.4 1179.1 327.9 1186.4 327.6C1187.2 327.5 1189.8 327.5 1191.3 327.1Z" fill="white"/>
<path fill-rule="evenodd" clip-rule="evenodd" d="M1233.3 206.5V205.9C1233.5 205.5 1233.3 206.7 1233.3 207.2C1233.3 207.9 1233.4 208.7 1233.3 209.1C1233 209.4 1232.7 209.7 1232.3 209.7C1231.3 209.7 1231.4 208.6 1231 207.2C1230.6 205.7 1229.8 203.8 1229.6 202.9C1228.8 194.7 1228 185.9 1226.5 177.6C1226.3 176.4 1226.2 175.4 1226.2 174.3C1225 169.9 1224.3 164.5 1223.1 159.8C1222.8 158.5 1222.3 157.2 1222 155.8C1221.6 154.5 1221.3 153.3 1220.9 152.1C1218.7 145.1 1215.9 136.8 1212.4 129.3C1211.7 127.9 1211 126.6 1210.4 125.2C1207.4 118.7 1203.6 112.5 1200.4 107.8C1196.2 101.5 1191 95.6001 1185.3 90.0001C1184.8 89.3001 1184 88.4001 1183.2 87.6001C1182.4 86.8001 1181.5 86.0001 1180.8 85.3001C1177.3 81.8001 1173 78.3001 1169.7 74.8001C1169 74.0001 1168.2 72.9001 1167.3 72.0001C1166.4 71.1001 1165.3 70.1001 1164.8 69.3001C1164.5 68.7001 1164.8 67.9001 1164 67.3001C1164.8 66.6001 1164.6 64.6001 1167 65.8001C1168.6 66.6001 1170 68.2001 1171.2 69.3001C1179.4 76.8001 1190.1 86.2001 1197.1 94.9001C1199.7 98.0001 1202.5 101.3 1204.2 104.6C1205.4 106.1 1206.4 107.7 1207.5 109.3C1208.5 110.9 1209.4 112.6 1210.4 114.2C1216.2 124.6 1221.2 135.5 1224.7 146.8C1226.7 153.1 1228.2 159.4 1229.5 166.4C1231.8 178.6 1233.1 190.5 1233.1 202.6C1233.2 203.1 1233 205.2 1233.3 206.5Z" fill="white"/>
<path fill-rule="evenodd" clip-rule="evenodd" d="M1142.5 60.5002H1142.2C1142 60.3002 1142.6 60.5002 1142.9 60.5002C1143.3 60.5002 1143.7 60.5002 1143.9 60.6002C1144.1 60.9002 1144.2 61.2002 1144.1 61.6002C1144 62.6002 1143.4 62.5002 1142.7 62.8002C1141.9 63.1002 1140.8 63.8002 1140.3 63.9002C1135.9 64.1002 1131.2 64.2002 1126.7 64.7002C1126.1 64.8002 1125.5 64.8002 1124.9 64.7002C1124.3 64.9002 1123.7 65.0002 1123.1 65.1002C1122.5 65.2002 1121.8 65.3002 1121.2 65.4002C1119.9 65.6002 1118.5 65.7002 1117.3 66.0002C1116.6 66.1002 1115.9 66.4002 1115.2 66.6002C1114.5 66.8002 1113.9 66.9002 1113.2 67.1002C1109.5 68.2002 1105.2 69.9002 1101.5 72.0002C1100.8 72.4002 1100.2 72.9002 1099.5 73.3002C1096.2 75.1002 1093.3 77.6002 1091.2 79.6002C1088.3 82.3002 1085.8 85.7002 1083.6 89.2002C1082.9 89.8002 1082.1 91.1002 1081.6 91.9002C1080.1 94.1002 1078.7 96.7002 1076.8 98.6002C1076.4 99.0002 1075.7 99.5002 1075.2 100C1074.7 100.5 1074.2 101.2 1073.6 101.4C1073.2 101.6 1072.4 101.4 1072.1 101.8C1071.2 101.3 1069.5 101.3 1069.8 99.8002C1070 98.8002 1070.9 98.0002 1071.5 97.3002C1073.4 94.8002 1075.2 91.9002 1077.1 89.0002C1079 86.1002 1081 83.2002 1083 80.8002C1084.4 79.1002 1085.8 77.1002 1087.6 76.1002C1088.9 74.5002 1090.7 73.1002 1092.3 71.9002C1097.6 68.0002 1103.5 64.7002 1109.7 62.7002C1113.2 61.6002 1116.7 60.8002 1120.5 60.4002C1127.2 59.5002 1133.8 59.4002 1140.4 60.2002C1140.6 60.4002 1141.8 60.7002 1142.5 60.5002Z" fill="white"/>
<path fill-rule="evenodd" clip-rule="evenodd" d="M1065.6 129.7L1065.5 130.4C1065.2 130.8 1065.6 129.5 1065.7 128.9C1065.8 128.1 1065.9 127.2 1066.1 126.8C1066.4 126.5 1066.8 126.2 1067.2 126.3C1068.1 126.5 1067.9 127.7 1068.1 129.4C1068.3 131.1 1068.7 133.4 1068.7 134.5C1068.1 143.8 1067.9 153.9 1068.3 163.6C1068.4 165 1068.4 166.1 1068.3 167.4C1069 172.6 1069.2 178.8 1069.7 184.4C1069.9 186 1070.2 187.5 1070.4 189.1C1070.6 190.6 1070.7 192.1 1071 193.5C1072.3 201.9 1074 211.9 1076.1 221.2C1076.5 222.9 1077 224.6 1077.4 226.3C1079.1 234.4 1081.5 242.5 1083.4 248.9C1086 257.3 1089.1 265.9 1092.6 274.4C1093.1 276.4 1094.4 279.3 1095.2 281.4C1097.3 286.8 1100 292.6 1101.6 297.9C1102 299.1 1102.2 300.6 1102.6 302C1103 303.4 1103.6 305 1103.7 306.1C1103.8 306.9 1103.1 307.4 1103.6 308.4C1102.6 308.6 1101.9 310.6 1100.1 308C1098.9 306.3 1098.4 304.1 1097.8 302.2C1095.6 296.3 1092.8 289.7 1090.1 283C1088.8 279.7 1087.4 276.3 1086.2 273C1085.6 271.4 1085 269.8 1084.4 268.2C1083.8 266.6 1083.3 265.1 1082.8 263.6C1081.3 259.3 1079.5 254.7 1078.7 250.6C1077.3 246.5 1076 242.2 1075.1 238.2C1071.7 225.1 1068.6 211.9 1066.6 198.5C1066.3 196.6 1066.1 194.8 1065.8 192.9C1065.6 191 1065.4 189.2 1065.2 187.3C1064.7 183.5 1064.5 179.7 1064.2 175.6C1064.1 174.7 1064.1 173.8 1064 173L1063.9 170.4C1063.8 168.6 1063.8 166.9 1063.7 165.2C1063.6 161.7 1063.7 158.2 1063.6 154.8C1063.7 151.3 1063.9 147.9 1064.1 144.4C1064.5 141 1064.8 137.5 1065.3 134.1C1065 133.5 1065.6 131.2 1065.6 129.7Z" fill="white"/>
<path fill-rule="evenodd" clip-rule="evenodd" d="M1239.8 247.5V247.8C1239.6 248 1239.7 247.4 1239.7 247.1C1239.7 246.7 1239.5 246.2 1239.6 246C1239.9 245.8 1240.2 245.6 1240.5 245.5C1241.5 245.4 1241.5 246 1241.9 246.8C1242.4 247.6 1243.2 248.7 1243.5 249.3C1244.4 254.2 1244.7 259.6 1244.6 264.8C1244.6 265.5 1244.5 266.2 1244.3 266.8C1244.5 268.2 1244.3 269.7 1244.2 271.3C1244 272.8 1243.7 274.4 1243.5 275.9C1243.4 276.7 1243.3 277.6 1243.2 278.4C1243.1 279.2 1242.9 280 1242.8 280.8C1242 285.3 1240.6 290.5 1238.9 295.3C1238.6 296.2 1238.4 297.1 1238 298C1236.2 302 1234.3 306.2 1232.5 309.2C1230.1 313.3 1227.5 317.4 1224.4 321.3C1223.5 322 1222.4 323.3 1221.5 324.2C1219.3 326.4 1216.7 328.8 1213.9 329.9C1213.3 330.2 1212.4 330.3 1211.7 330.5C1210.9 330.8 1210.1 331.1 1209.5 331.1C1209 331.1 1208.4 330.4 1208 330.7C1207.5 329.8 1206.1 328.9 1207.1 327.8C1207.8 327.1 1208.9 326.9 1209.8 326.4C1212.6 325.1 1215.4 322.9 1217.9 320.4C1220.4 317.9 1222.6 315 1224.4 312.4C1225.7 310.5 1226.7 308.3 1228.2 306.8C1229 304.8 1230.2 302.9 1231.1 301.1C1234.1 295.1 1235.9 288.5 1237.4 282C1238.2 278.3 1238.8 274.7 1239.3 270.7C1239.8 267.2 1239.9 263.7 1240 260.2C1240.1 256.7 1240 253.3 1239.9 249.7C1240 249.5 1240.1 248.2 1239.8 247.5Z" fill="white"/>
<path fill-rule="evenodd" clip-rule="evenodd" d="M1160.1 343H1159.9C1159.8 342.8 1160.2 343 1160.3 343C1160.5 343 1160.8 342.9 1160.9 343.1C1161 343.4 1161.1 343.7 1161.1 344.1C1161.1 345.1 1160.7 345 1160.3 345.3C1159.8 345.7 1159.1 346.4 1158.8 346.5C1155.9 346.8 1152.8 346.5 1149.9 346.2C1149.5 346.1 1149.1 346.1 1148.8 345.8C1147.1 346 1145.3 345.2 1143.7 344.8C1143.2 344.7 1142.7 344.7 1142.3 344.5C1141.9 344.4 1141.4 344.3 1141 344.2C1138.5 343.6 1135.6 342.6 1132.9 341.5C1132.4 341.3 1131.9 341.2 1131.4 341C1129.2 339.9 1126.8 338.8 1125.1 337.8C1122.8 336.5 1120.3 335.3 1117.9 333.8C1117.5 333.2 1116.7 332.7 1116.2 332.3C1114.9 331.2 1113.3 329.9 1112.7 328.2C1112.6 327.8 1112.5 327.2 1112.4 326.7C1112.3 326.2 1112 325.8 1112.1 325.2C1112.2 324.8 1112.7 324.2 1112.5 323.9C1113.2 323.2 1114 321.8 1114.9 322.1C1115.5 322.3 1115.5 323.1 1115.8 323.6C1117.4 327 1121.3 329.4 1124.4 331.2C1125.5 331.9 1126.9 332.2 1127.6 333.2C1128.8 333.5 1129.8 334.2 1130.9 334.7C1134.3 336.4 1137.9 337.5 1141.5 338.6C1143.5 339.2 1145.5 339.8 1147.7 340.4C1151.6 341.4 1155.4 341.9 1159.3 342.6C1159 343 1159.7 343.3 1160.1 343Z" fill="white"/>
<path fill-rule="evenodd" clip-rule="evenodd" d="M1194 234.2L1194.1 234.5C1193.9 234.8 1194 234 1193.9 233.7C1193.8 233.3 1193.6 232.8 1193.7 232.6C1193.9 232.3 1194.2 232.1 1194.6 232C1195.5 231.8 1195.6 232.5 1196.2 233.2C1196.8 234 1197.8 235.1 1198.1 235.6C1199.6 240.8 1200.5 246.6 1200.7 252.2C1200.7 253 1200.7 253.7 1200.5 254.4C1200.9 257.5 1200.3 261.1 1199.7 264.3C1199.5 265.2 1199.5 266.1 1199.3 267.1C1199.1 268 1198.9 268.8 1198.7 269.7C1198.4 270.9 1198 272.2 1197.6 273.5C1197.1 274.8 1196.6 276.1 1196 277.4C1195.3 278.7 1194.7 280 1193.8 281.2C1193.4 281.8 1193 282.4 1192.5 283C1192 283.6 1191.5 284.1 1191 284.7C1190.3 285.6 1189.5 286.4 1188.7 287.1L1188 287.7L1187.2 288.3C1186.7 288.7 1186.1 289 1185.6 289.4C1184.5 290 1183.4 290.7 1182.2 291.2C1179.9 292.2 1177.7 292.9 1175.7 293.3C1173.6 293.7 1171.4 293.9 1169.2 293.8C1168.1 293.8 1167 293.7 1165.9 293.6C1165.3 293.5 1164.8 293.5 1164.2 293.3C1163.9 293.2 1163.6 293.2 1163.3 293.1L1162.6 292.9C1162.5 292.9 1162.4 292.9 1162.4 292.8C1161.2 292.4 1160 292 1158.9 291.4C1157.8 290.6 1156.1 289.5 1155 288.6C1152.2 286.2 1149.7 283 1148.9 279.7C1148.7 279 1148.7 278 1148.6 277.2C1148.5 276.3 1148.3 275.4 1148.5 274.7C1148.7 274.2 1149.4 273.8 1149.3 273.3C1150.3 273.1 1151.6 272.1 1152.4 273.3C1152.9 274.1 1152.9 275.3 1153.1 276.2C1153.7 278.7 1155.1 281.2 1157.1 283.3C1159.1 285.4 1161.6 287 1164.2 287.8H1164.1L1164.6 288L1165.1 288.1C1165.4 288.2 1165.7 288.2 1166 288.3C1166.6 288.4 1167.2 288.5 1167.8 288.6C1170.1 288.8 1172.5 288.4 1174.7 288.5C1176.8 287.9 1178.9 287.3 1180.9 286.4C1184 284.9 1186.6 282.7 1188.6 279.9C1190.6 277.1 1192 273.9 1193.2 270.6C1194.4 266.9 1195.3 263.1 1195.7 258.8C1196 255.1 1196.1 251.4 1195.9 247.7C1195.8 245.8 1195.6 244 1195.4 242.2C1195.2 240.4 1194.9 238.5 1194.7 236.6C1194.5 236.2 1194.4 234.9 1194 234.2Z" fill="white"/>
<path fill-rule="evenodd" clip-rule="evenodd" d="M1155.4 121.7L1155.2 121.6C1155.2 121.3 1155.5 121.8 1155.6 121.9C1155.8 122.1 1156.1 122.2 1156.2 122.4C1156.1 122.7 1156 123 1155.8 123.3C1155.2 124.1 1154.9 123.8 1154.3 123.8C1153.6 123.8 1152.7 124 1152.3 124C1149.7 122.9 1146.9 121.7 1144 121.3C1143.6 121.2 1143.3 121.1 1142.9 120.9C1141.3 121.1 1139.5 120.6 1137.8 120.7C1137.3 120.7 1136.9 120.9 1136.4 120.9C1136 120.9 1135.5 121 1135.1 121.1C1132.6 121.5 1129.7 122.4 1127.2 123.7C1126.7 124 1126.4 124.3 1125.9 124.6C1123.7 125.7 1121.9 127.5 1120.5 128.9C1118.7 130.8 1117.4 133.3 1116.5 135.8C1116 136.3 1115.7 137.2 1115.5 137.8C1114.8 139.4 1114.4 141.2 1113.3 142.8C1113.1 143.1 1112.6 143.6 1112.3 144C1112 144.4 1111.8 145 1111.3 145.3C1111 145.5 1110.1 145.6 1110 146C1109 145.9 1107.4 146.4 1107.1 145.3C1106.9 144.5 1107.5 143.7 1107.8 143.1C1108.7 140.9 1109.5 138.5 1110.4 136.1C1111.3 133.7 1112.4 131.4 1113.6 129.5C1114.4 128.1 1115.3 126.5 1116.6 125.7C1117 125.1 1117.5 124.5 1118.1 123.9C1118.7 123.4 1119.3 122.9 1119.8 122.4C1123.5 119.5 1127.9 117.1 1132.6 116.1C1135.2 115.6 1137.8 115.5 1140.7 115.8C1145.6 116.4 1150.3 117.9 1154 120.8C1154.3 121 1154.9 121.6 1155.4 121.7Z" fill="white"/>
</g>
<defs>
<clipPath id="clip0_403_4846">
<rect width="1302.5" height="817.6" fill="white"/>
</clipPath>
</defs>
</svg>
