<?xml version="1.0" encoding="utf-8"?>
<!-- Generator: Adobe Illustrator 24.0.3, SVG Export Plug-In . SVG Version: 6.00 Build 0)  -->
<!DOCTYPE svg PUBLIC "-//W3C//DTD SVG 1.1//EN" "http://www.w3.org/Graphics/SVG/1.1/DTD/svg11.dtd" [
	<!ENTITY ns_extend "http://ns.adobe.com/Extensibility/1.0/">
	<!ENTITY ns_ai "http://ns.adobe.com/AdobeIllustrator/10.0/">
	<!ENTITY ns_graphs "http://ns.adobe.com/Graphs/1.0/">
	<!ENTITY ns_vars "http://ns.adobe.com/Variables/1.0/">
	<!ENTITY ns_imrep "http://ns.adobe.com/ImageReplacement/1.0/">
	<!ENTITY ns_sfw "http://ns.adobe.com/SaveForWeb/1.0/">
	<!ENTITY ns_custom "http://ns.adobe.com/GenericCustomNamespace/1.0/">
	<!ENTITY ns_adobe_xpath "http://ns.adobe.com/XPath/1.0/">
]>
<svg version="1.1" xmlns:x="&ns_extend;" xmlns:i="&ns_ai;" xmlns:graph="&ns_graphs;"
	 xmlns="http://www.w3.org/2000/svg" xmlns:xlink="http://www.w3.org/1999/xlink" x="0px" y="0px" viewBox="0 0 1302.5 817.6"
	 style="enable-background:new 0 0 1302.5 817.6;" xml:space="preserve">
<style type="text/css">
	.st0{fill:#D3D3D3;}
	.st1{fill-rule:evenodd;clip-rule:evenodd;}
	.st2{fill:none;stroke:#000000;stroke-width:0.4;stroke-linecap:round;stroke-linejoin:round;stroke-miterlimit:10;}
</style>
<metadata>
	<sfw  xmlns="&ns_sfw;">
		<slices></slices>
		<sliceSourceBounds  bottomLeftOrigin="true" height="817.6" width="1302.5" x="45.6" y="-886.1"></sliceSourceBounds>
	</sfw>
</metadata>
<g id="Background_1_">
	<g id="Background">
		<path class="st0" d="M166.5,107.9c-5,27.6-10,55.3-15,82.9c14.6-4.2,31.3-7.3,49.1-7.6c83.2-1.1,139.1,60.6,147.9,70.5
			c-4.5,5-81.2,88.4-174.2,72.2c-7.7-1.3-25.1-4.4-44.8-13.4c-6.4,35.1-12.7,70.2-19,105.2h654.8l15.5-315.6L166.5,107.9z
			 M552.4,327.7c-56.3-8.3-92.6-40.8-92.6-40.8c-12.5-11.2-21-22.5-26.3-30.6c8.2-10.7,20.5-24.8,37.4-39.1
			c11.4-9.6,56-47.2,107.9-53.5c89.4-10.9,158.4,76,163.1,82.1C686.4,306,613.9,336.8,552.4,327.7z"/>
		<path class="st0" d="M542.9,524.1l35.2,150.9c0,0,101.8-104.4,106.9-100.6c5,3.8,74.4,65.4,74.4,65.4L556.7,789.4l-60.4-264.4
			L542.9,524.1z"/>
		<path class="st0" d="M1239.6,313.7c-17.6,19.4-49.3,27.3-74.4,20.3c-83.2-23.3-124.9-219.6-62-271.7c22-18.2,50.6-13.8,51.9-13.5
			c61.7,10.6,83.5,118,91.3,156.7C1255.1,248.5,1263.1,287.8,1239.6,313.7z"/>
	</g>
</g>
<g id="General_1_">
	<g id="General">
		<g id="Eyes_window">
			<path class="st1" d="M5.5,400.4c0-0.4,0-0.8,0-1.1c0.2-0.7,0,1.5,0,2.5c0,1.3,0.1,2.9-0.1,3.6c-0.3,0.7-0.6,1.2-1,1.1
				c-1-0.1-0.9-2.3-1.3-5c-0.4-2.9-1.1-6.7-1.3-8.6c-0.5-16.3-0.5-33.9-0.7-50.8c0-2.4,0-4.4,0.2-6.6c-0.5-9.1-0.1-19.8-0.2-29.6
				c0-2.7-0.1-5.5-0.1-8.2c0-2.6,0-5.2,0-7.7c-0.1-14.7-0.1-32.2-0.2-48.7c0-3-0.2-6.1-0.1-9.1c0.1-14.2,0-28.9-0.1-40.3
				c0-15.2-0.4-31-0.6-46.9c0.2-3.6,0.1-9,0.2-13c0.1-10,0-21.1,0.9-30.5c0.2-2.1,0.6-4.6,0.9-7.1c0.3-2.5,0.4-5.3,0.9-7.1
				c0.3-1.2,1.1-1.5,1.2-3.4c1,0.5,2.5-1.8,2.9,3.4c0.2,3.4-0.3,7.2-0.5,10.5c-1.4,21.2-0.9,48.7-0.7,70.4c0,7.8,0.4,16.2,0,23.2
				c0.3,7.4,0.2,14.9,0.2,22.1c0,23,0.4,46.2,0.4,69.2c0,12.8,0,25.4-0.1,39.2c-0.2,24.1-0.1,47.4-0.6,71
				C5.5,393.8,5.3,397.9,5.5,400.4z"/>
			<path class="st1" d="M16.5,406.7l2.7,0c1.6,0.2-3.6,0.1-5.9,0.1c-3.2,0-6.9,0.1-8.5,0c-1.5-0.3-2.8-0.6-2.7-1
				c0.3-1,5.3-0.9,11.7-1.4c6.9-0.4,15.8-1.2,20.3-1.4c38.2-0.7,79.5-1.1,119.1-1.6c5.6-0.1,10.3-0.1,15.5,0.1
				c21.4-0.6,46.5-0.5,69.5-0.7c6.4-0.1,12.9-0.2,19.2-0.3c6.1-0.1,12.2-0.1,18.2-0.2c34.5-0.3,75.5-0.7,114.3-1.1
				c7.1-0.1,14.3-0.3,21.4-0.3c33.4-0.1,67.8-0.6,94.6-0.8c35.6-0.3,72.6-0.9,110.1-1.4c8.4,0.2,21.2,0,30.5-0.1
				c23.4-0.1,49.5-0.3,71.6,0.3c4.9,0.2,10.8,0.5,16.6,0.7c5.8,0.2,12.5,0.3,16.6,0.7c2.9,0.3,3.6,1.1,8,1.2c-1.2,1,4.2,2.5-8,3
				c-8,0.3-16.9-0.2-24.6-0.3c-49.7-1-114.4,0-165.1,0.5c-18.2,0.2-38,0.7-54.5,0.4c-17.2,0.4-35,0.5-51.8,0.6
				c-54,0.5-108.4,1.1-162.4,1.6c-30,0.2-59.6,0.4-91.9,0.6c-56.5,0.3-111.1,0.7-166.7,0.7C32.1,406.6,22.4,406.4,16.5,406.7z"/>
			<path class="st1" d="M746,89.2c-0.9,0-1.8,0-2.7,0c-1.6-0.2,3.6,0,5.9,0c3.2,0,6.9,0,8.5,0.1c1.5,0.3,2.8,0.6,2.7,1
				c-0.3,1-5.4,0.9-11.8,1.2c-6.9,0.3-15.8,1-20.3,1.2c-38.2,0.2-79.5,0-119.1-0.1c-5.6,0-10.3-0.1-15.5-0.3
				c-21.4,0.3-46.5-0.2-69.4-0.3c-6.4,0-12.9,0-19.2,0c-6.1,0-12.2-0.1-18.2-0.1c-34.5-0.1-75.5-0.4-114.3-0.6
				c-7.1,0-14.3,0.1-21.4,0c-33.4-0.3-67.8-0.4-94.6-0.6c-35.6-0.2-72.6-0.1-110-0.1c-8.4-0.3-21.2-0.3-30.4-0.4
				c-23.4-0.2-49.5-0.4-71.6-1.4c-4.9-0.2-10.8-0.7-16.6-1c-5.8-0.3-12.5-0.5-16.6-1c-2.9-0.3-3.6-1.2-8-1.3c1.3-1-4.2-2.6,8-2.9
				c8-0.2,16.9,0.4,24.6,0.7c49.7,1.7,114.3,1.6,165.1,1.8c18.2,0.1,38-0.2,54.5,0.4c17.3-0.2,35,0,51.8,0.1
				c54,0.4,108.4,0.4,162.4,0.7c30,0.2,59.6,0.4,91.9,0.7c56.5,0.5,111.1,0.9,166.7,1.7C730.4,89.1,740.1,89.4,746,89.2z"/>
			<path class="st1" d="M760.1,95.5l0,1.1c-0.2,0.7,0-1.5,0-2.4c0-1.3-0.1-2.8,0.1-3.5c0.3-0.6,0.6-1.1,1-1.1c1,0.1,0.9,2.2,1.2,4.8
				c0.4,2.8,1,6.5,1.2,8.3c0.3,15.6,0.2,32.5,0.2,48.7c0,2.3,0,4.2-0.3,6.3c0.4,8.7,0,19-0.1,28.4c0,2.6,0,5.3,0.1,7.9
				c0,2.5,0,5,0,7.4c-0.1,14.1-0.2,30.8-0.3,46.7c0,2.9,0.1,5.8,0.1,8.7c-0.3,13.6-0.2,27.7-0.3,38.6c-0.1,14.5,0.1,29.7,0.2,45
				c-0.3,3.4-0.2,8.7-0.3,12.4c-0.2,9.6-0.2,20.2-1.2,29.2c-0.2,2-0.7,4.4-0.9,6.8c-0.3,2.4-0.5,5.1-0.9,6.8
				c-0.3,1.2-1.2,1.5-1.3,3.3c-1-0.5-2.6,1.7-2.9-3.3c-0.2-3.3,0.4-6.9,0.6-10c1.6-20.3,1.3-46.7,1.4-67.4c0-7.4-0.3-15.5,0.2-22.3
				c-0.2-7-0.1-14.3,0-21.2c0.2-22.1,0.1-44.3,0.2-66.4c0.1-12.3,0.2-24.3,0.5-37.5c0.4-23.1,0.6-45.4,1.2-68.1
				C760.1,101.8,760.3,97.8,760.1,95.5z"/>
			<path class="st1" d="M325.3,239.4l-0.7-0.9c-0.3-0.7,1,1.2,1.6,2c0.8,1.1,1.9,2.3,2.2,3c0.2,0.7,0.3,1.3-0.1,1.5
				c-0.9,0.5-2.1-1.3-4.1-3.2c-2.1-2.1-5.1-4.5-6.5-5.8c-10.9-12-23.9-23.8-37.9-33c-2-1.3-3.6-2.4-5.4-3.7
				c-7.9-4.4-17.2-9.5-26.2-13.1c-2.5-1-5.1-1.8-7.7-2.7c-2.4-0.9-4.9-1.5-7.3-2.3c-7-1.9-14.8-3.6-22.9-4.6c-2-0.2-4.1-0.4-6.1-0.6
				c-2.1-0.1-4.1-0.3-6.2-0.4c-2.1-0.1-4.1-0.1-6.2-0.1c-1,0-2.1,0-3.1,0l-1.5,0l-1.5,0.1c-3,0.2-6,0.5-9,0.6
				c-3.5,0.4-7,0.8-10.5,1.2c-3.5,0.6-6.9,1.3-10.2,1.9c-3.3,0.8-6.5,1.6-9.6,2.4c-3,0.9-5.9,1.9-8.6,2.7c-1.8,0.5-3.6,1.2-5.3,1.9
				c-1.8,0.7-3.5,1.4-5.3,2.1c-0.9,0.3-1.8,0.8-2.6,1.2l-2.6,1.2c-1.7,0.8-3.5,1.7-5.2,2.5c-1.7,0.9-3.4,1.9-5.1,2.8l-2.6,1.4
				l-1.3,0.7l-1.2,0.8c-1.6,1.1-3.3,2.1-5,3.2l-2.5,1.6c-0.8,0.6-1.6,1.2-2.4,1.7c-1.5,0.9-3.4,2.2-5.2,3.5c-1,0.6-1.8,1.4-2.7,2.1
				c-0.9,0.7-1.7,1.4-2.5,2c-4,3-7.7,6.6-11.6,10c-1.9,1.8-3.7,3.6-5.5,5.3c-0.9,0.9-1.8,1.7-2.7,2.5c-0.9,0.9-1.7,1.7-2.5,2.5
				c-1.5,1.5-3.5,3.1-5.2,4.8c-1.7,1.8-3.6,4-4.9,5.2c-1,0.8-1.9,0.6-3.1,2.1c-0.5-1-3.2,0-0.3-4.5c2-3,4.6-5.8,7-8.2
				c7.4-8,16.4-16.6,26.2-24.4c9.8-7.8,20.4-14.6,30.2-19.6c1.8-0.9,3.6-1.7,5.4-2.6c1.8-0.9,3.7-1.8,5.5-2.6
				c1.9-0.7,3.7-1.5,5.6-2.1c1.8-0.7,3.6-1.3,5.3-1.7c1.8-0.6,3.6-1.3,5.4-1.9l2.7-0.9c0.9-0.3,1.8-0.5,2.7-0.7
				c1.8-0.5,3.7-0.9,5.5-1.4c0.9-0.2,1.8-0.4,2.7-0.7c0.9-0.2,1.8-0.3,2.7-0.5c11.5-2.4,23.3-3.4,35.1-3.3c11.8-0.1,23.6,1.3,35.1,4
				c12.7,3,24.9,7.4,37.4,13.9c21.7,11.5,40.3,26.8,55.6,45.3C321,234.2,323.5,237.6,325.3,239.4z"/>
			<path class="st1" d="M54.7,250.9l0.7,0.9c0.3,0.7-1-1.2-1.6-1.9c-0.8-1.1-1.9-2.3-2.2-2.9c-0.2-0.7-0.3-1.3,0.1-1.5
				c0.9-0.5,2.1,1.3,4.1,3.1c2.1,2,5.1,4.4,6.5,5.7c11,11.8,24,23.4,38,32.5c2,1.3,3.6,2.4,5.4,3.7c7.9,4.3,17.2,9.4,26.2,12.8
				c1.3,0.5,2.5,0.9,3.8,1.4c1.3,0.4,2.6,0.8,3.8,1.2c1.2,0.4,2.4,0.8,3.7,1.1c1.2,0.4,2.4,0.7,3.6,1.1c7,1.9,14.8,3.5,22.8,4.5
				c8.1,1,16.5,1.4,24.6,1.1c1.5,0,3-0.1,4.5-0.3c1.5-0.1,3-0.3,4.5-0.4c7-0.5,14.1-1.5,20.7-3c6.6-1.5,12.8-3.2,18.1-5
				c14.2-4.8,28.2-11.9,41.1-20.8c1.5-0.9,3.4-2.2,5.2-3.5c1.8-1.4,3.7-2.8,5.2-3.9c3.9-3,7.8-6.4,11.7-9.9c3.8-3.5,7.5-7,10.9-10.2
				c1.5-1.4,3.5-3,5.2-4.8c1.8-1.7,3.7-3.9,5.1-5c1-0.8,1.8-0.6,3-2c0.5,1,3.2,0,0.3,4.5c-1.9,3-4.8,5.6-7.1,8
				c-7.5,7.8-16.5,16.4-26.4,24c-4.9,3.8-10,7.4-15.1,10.7c-5.2,3.2-10.2,6.2-15.2,8.6c-7,3.5-14.9,7.1-21.8,9
				c-7,2.7-14.5,4.5-21.6,5.9c-11.5,2.2-23.2,3.4-34.9,3.3c-11.7-0.1-23.5-1.3-34.9-4c-12.7-2.9-24.8-7.2-37.3-13.6
				c-21.7-11.2-40.3-26.4-55.8-44.6C59,256,56.5,252.7,54.7,250.9z"/>
			<path d="M297.9,263.4c0,5.5-0.7,10.8-2,15.9c-27.5,22-61.3,35.4-96.8,37.5c-17.4-11.4-28.9-31.1-28.9-53.4
				c0-35.3,28.6-63.9,63.9-63.9S297.9,228.1,297.9,263.4z"/>
			<path class="st1" d="M706.7,240.7l-0.7-0.9c-0.3-0.7,1,1.2,1.6,2c0.8,1.1,1.9,2.3,2.2,3c0.2,0.7,0.3,1.3-0.1,1.5
				c-0.9,0.5-2.1-1.3-4.1-3.2c-2.1-2.1-5.1-4.5-6.5-5.8c-10.9-12-23.9-23.8-37.9-33c-2-1.3-3.6-2.4-5.4-3.7
				c-7.9-4.4-17.2-9.5-26.2-13.1c-2.5-1-5.1-1.8-7.7-2.7c-2.4-0.9-4.9-1.5-7.3-2.3c-7-1.9-14.8-3.6-22.9-4.6c-2-0.2-4.1-0.4-6.1-0.6
				c-2.1-0.1-4.1-0.3-6.2-0.4c-2.1-0.1-4.1-0.1-6.2-0.1c-1,0-2.1,0-3.1,0l-1.5,0l-1.5,0.1c-3,0.2-6,0.5-9,0.6
				c-3.5,0.4-7,0.8-10.5,1.2c-3.5,0.6-6.9,1.3-10.2,1.9c-3.3,0.8-6.5,1.6-9.6,2.4c-3,0.9-5.9,1.9-8.6,2.7c-1.8,0.5-3.6,1.2-5.3,1.9
				c-1.8,0.7-3.5,1.4-5.3,2.1c-0.9,0.3-1.8,0.8-2.6,1.2l-2.6,1.2c-1.7,0.8-3.5,1.7-5.2,2.5c-1.7,0.9-3.4,1.9-5.1,2.8l-2.6,1.4
				l-1.3,0.7l-1.2,0.8c-1.6,1.1-3.3,2.1-5,3.2l-2.5,1.6c-0.8,0.6-1.6,1.2-2.4,1.7c-1.5,0.9-3.4,2.2-5.2,3.5c-1,0.6-1.8,1.4-2.7,2.1
				c-0.9,0.7-1.7,1.4-2.5,2c-4,3-7.7,6.6-11.6,10c-1.9,1.8-3.7,3.6-5.5,5.3c-0.9,0.9-1.8,1.7-2.7,2.5c-0.9,0.9-1.7,1.7-2.5,2.5
				c-1.5,1.5-3.5,3.1-5.2,4.8c-1.7,1.8-3.6,4-4.9,5.2c-1,0.8-1.9,0.6-3.1,2.1c-0.5-1-3.2,0-0.3-4.5c2-3,4.6-5.8,7-8.2
				c7.4-8,16.4-16.6,26.2-24.4c9.8-7.8,20.4-14.6,30.2-19.6c1.8-0.9,3.6-1.7,5.4-2.6c1.8-0.9,3.7-1.8,5.5-2.6
				c1.9-0.7,3.7-1.5,5.6-2.1c1.8-0.7,3.6-1.3,5.3-1.7c1.8-0.6,3.6-1.3,5.4-1.9l2.7-0.9c0.9-0.3,1.8-0.5,2.7-0.7
				c1.8-0.5,3.7-0.9,5.5-1.4c0.9-0.2,1.8-0.4,2.7-0.7c0.9-0.2,1.8-0.3,2.7-0.5c11.5-2.4,23.3-3.4,35.1-3.3c11.8-0.1,23.6,1.3,35.1,4
				c12.7,3,24.9,7.4,37.4,13.9c21.7,11.5,40.3,26.8,55.6,45.3C702.4,235.5,705,238.9,706.7,240.7z"/>
			<path class="st1" d="M436.1,252.2l0.7,0.9c0.3,0.7-1-1.2-1.6-1.9c-0.8-1.1-1.9-2.3-2.2-2.9c-0.2-0.7-0.3-1.3,0.1-1.5
				c0.9-0.5,2.1,1.3,4.1,3.1c2.1,2,5.1,4.4,6.5,5.7c11,11.8,24,23.4,38,32.5c2,1.3,3.6,2.4,5.4,3.7c7.9,4.3,17.2,9.4,26.2,12.8
				c1.3,0.5,2.5,0.9,3.8,1.4c1.3,0.4,2.6,0.8,3.8,1.2c1.2,0.4,2.4,0.8,3.7,1.1c1.2,0.4,2.4,0.7,3.6,1.1c7,1.9,14.8,3.5,22.8,4.5
				c8.1,1,16.5,1.4,24.6,1.1c1.5,0,3-0.1,4.5-0.3c1.5-0.1,3-0.3,4.5-0.4c7-0.5,14.1-1.5,20.7-3c6.6-1.5,12.8-3.2,18.1-5
				c14.2-4.8,28.2-11.9,41.1-20.8c1.5-0.9,3.4-2.2,5.2-3.5c1.8-1.4,3.7-2.8,5.2-3.9c3.9-3,7.8-6.4,11.7-9.9c3.8-3.5,7.5-7,10.9-10.2
				c1.5-1.4,3.5-3,5.2-4.8c1.8-1.7,3.7-3.9,5.1-5c1-0.8,1.8-0.6,3-2c0.5,1,3.2,0,0.3,4.5c-1.9,3-4.8,5.6-7.1,8
				c-7.5,7.8-16.5,16.4-26.4,24c-4.9,3.8-10,7.4-15.1,10.7c-5.2,3.2-10.2,6.2-15.2,8.6c-7,3.5-14.9,7.1-21.8,9
				c-7,2.7-14.5,4.5-21.6,5.9c-11.5,2.2-23.2,3.4-34.9,3.3c-11.7-0.1-23.5-1.3-34.9-4c-12.7-2.9-24.8-7.2-37.3-13.6
				C475,291.4,456.4,276.2,441,258C440.5,257.3,437.9,254,436.1,252.2z"/>
			<path d="M679.3,264.7c0,5.5-0.7,10.8-2,15.9c-27.5,22-61.3,35.4-96.8,37.5c-17.4-11.4-28.9-31.1-28.9-53.4
				c0-35.3,28.6-63.9,63.9-63.9S679.3,229.4,679.3,264.7z"/>
		</g>
		<g id="Mark_window">
			<path class="st1" d="M402.3,808.4c0-0.4,0-0.9,0-1.3c0.2-0.8,0,1.7,0,2.8c0,1.5,0.1,3.3-0.1,4.1c-0.3,0.7-0.6,1.3-1,1.3
				c-1-0.1-0.9-2.6-1.3-5.6c-0.4-3.3-1.1-7.6-1.3-9.7c-0.4-18.3-0.4-38.2-0.6-57.2c0-2.7,0-4.9,0.2-7.4c-0.5-10.3-0.1-22.3-0.1-33.3
				c0-3.1-0.1-6.2-0.1-9.2c0-2.9,0-5.9,0-8.7c-0.1-16.6,0-36.2-0.1-54.9c0-3.4-0.1-6.8-0.1-10.3c0.2-16,0-32.5,0-45.4
				c0-17.1-0.3-34.9-0.5-52.8c0.3-4,0.2-10.2,0.2-14.6c0.1-11.3,0.1-23.7,1-34.4c0.2-2.4,0.6-5.2,0.9-8c0.3-2.8,0.4-6,0.9-8
				c0.3-1.4,1.1-1.7,1.2-3.8c1,0.6,2.5-2,2.9,3.8c0.2,3.9-0.3,8.1-0.5,11.8c-1.4,23.9-1,54.9-0.9,79.2c0,8.7,0.4,18.3-0.1,26.2
				c0.3,8.3,0.2,16.8,0.1,24.9c-0.1,25.9,0.2,52,0.2,78c0,14.4-0.1,28.6-0.2,44.1c-0.2,27.1-0.3,53.3-0.8,80
				C402.3,800.9,402.1,805.6,402.3,808.4z"/>
			<path class="st1" d="M773.5,806.5c-0.4,0-0.9,0-1.3,0c-0.8-0.2,1.8-0.1,2.9-0.1c1.6,0,3.4-0.1,4.3,0c0.8,0.3,1.4,0.6,1.4,1
				c-0.1,1-2.7,1-5.9,1.4c-3.4,0.5-7.9,1.2-10.1,1.5c-19.1,0.8-39.7,1.2-59.6,1.8c-2.8,0.1-5.2,0.1-7.8-0.1
				c-10.7,0.7-23.3,0.6-34.7,0.8c-3.2,0.1-6.4,0.2-9.6,0.3c-3.1,0.1-6.1,0.1-9.1,0.2c-17.3,0.4-37.8,0.8-57.2,1.2
				c-3.6,0.1-7.1,0.3-10.7,0.3c-16.7,0.2-33.9,0.7-47.3,0.9c-17.8,0.4-36.3,1-55,1.6c-4.2-0.2-10.6,0-15.2,0.1
				c-11.7,0.1-24.7,0.4-35.8-0.3c-2.5-0.1-5.4-0.5-8.3-0.7c-2.9-0.2-6.3-0.3-8.3-0.7c-1.4-0.3-1.8-1.1-4-1.1c0.6-1-2.2-2.5,3.9-3
				c4-0.3,8.4,0.2,12.3,0.3c24.9,0.9,57.2-0.2,82.6-0.7c9.1-0.2,19-0.8,27.3-0.5c8.6-0.5,17.5-0.5,25.9-0.7
				c27-0.5,54.2-1.3,81.2-1.9c15-0.3,29.8-0.5,46-0.7c28.3-0.4,55.6-0.9,83.4-0.9C765.7,806.6,770.6,806.8,773.5,806.5z"/>
			<path class="st1" d="M402.5,454c0.1,0,0.2,0,0.3,0c0.2,0.2-0.4,0-0.6,0c-0.3,0-0.7,0.1-0.9-0.1c-0.2-0.3-0.3-0.6-0.3-1
				c0-1,0.6-0.9,1.2-1.2c0.7-0.4,1.6-1.1,2.1-1.2c4-0.3,8.3-0.3,12.4-0.4c0.6,0,1.1,0,1.6,0.3c2.2-0.4,4.8,0,7.2,0
				c0.7,0,1.3-0.1,2-0.1c0.6,0,1.3,0,1.9,0c3.6,0,7.9,0.1,11.9,0.1c0.7,0,1.5-0.1,2.2-0.1c3.5,0.2,7,0.1,9.8,0.2
				c3.7,0.1,7.6-0.2,11.4-0.3c0.9,0.3,2.2,0.2,3.2,0.3c2.4,0.1,5.1,0.2,7.4,1.1c0.5,0.2,1.1,0.6,1.7,0.9c0.6,0.3,1.3,0.5,1.7,0.9
				c0.3,0.3,0.4,1.2,0.8,1.2c-0.1,1,0.4,2.6-0.8,2.9c-0.8,0.2-1.8-0.4-2.6-0.6c-5.2-1.5-11.9-1.2-17.2-1.2c-1.9,0-4,0.3-5.7-0.2
				c-1.8,0.2-3.6,0.1-5.4,0.1c-5.6-0.2-11.3,0.1-16.9,0c-3.1-0.1-6.2-0.2-9.6-0.3c-5.9-0.3-11.6-0.4-17.3-1
				C404.1,454,403.1,453.7,402.5,454z"/>
			<path class="st1" d="M781.1,801.2c0-0.3,0-0.7,0-1c0.2-0.6,0,1.3,0,2.2c0,1.2,0.1,2.6-0.1,3.2c-0.3,0.6-0.6,1.1-1,1
				c-1-0.1-0.9-2-1.2-4.4c-0.4-2.6-1.1-6-1.2-7.7c-0.3-14.4-0.3-30-0.3-45c0-2.1,0-3.9,0.3-5.8c-0.4-8.1,0-17.6,0-26.2
				c0-2.4-0.1-4.9-0.1-7.3c0-2.3,0-4.6,0-6.9c0-13,0.1-28.5,0.2-43.1c0-2.7-0.1-5.4-0.1-8.1c0.2-12.6,0.2-25.6,0.2-35.7
				c0.1-13.4-0.2-27.4-0.3-41.5c0.3-3.2,0.2-8,0.3-11.5c0.1-8.8,0.2-18.7,1.1-27c0.2-1.9,0.6-4.1,0.9-6.2c0.3-2.2,0.5-4.7,0.9-6.2
				c0.3-1.1,1.2-1.4,1.2-3c1,0.5,2.6-1.6,2.9,3c0.2,3-0.4,6.4-0.6,9.3c-1.5,18.7-1.2,43.1-1.3,62.3c0,6.9,0.3,14.4-0.2,20.6
				c0.2,6.5,0.1,13.2,0.1,19.6c-0.2,20.4,0,40.9-0.1,61.3c-0.1,11.3-0.2,22.5-0.4,34.7c-0.3,21.3-0.5,41.9-1.1,62.9
				C781.1,795.3,780.9,799,781.1,801.2z"/>
			<path d="M543.4,780.2c59.2-45.3,118.3-90.7,177.5-136L681.4,597c-38.1,36.1-76.3,72.2-114.4,108.4
				c-12.4-60.2-24.8-120.3-37.2-180.5c-16.6-0.6-33.2-1.2-49.8-1.8c-0.4-12.9-0.8-25.7-1.2-38.6c-8.7,1.5-17.4,3-26.2,4.5
				C482.9,586,513.1,683.1,543.4,780.2z"/>
		</g>
		<g id="Woman_window">
			<path class="st1" d="M476.3,404.1c0,0.1,0,0.3,0,0.4c-0.2,0.3,0-0.6,0-1c0-0.5-0.1-1.1,0-1.4c0.3-0.3,0.6-0.5,1-0.5
				c1,0,0.9,0.8,1.3,1.9c0.4,1.1,1.1,2.5,1.3,3.3c0.5,6.2,0.7,12.9,0.9,19.4c0,0.9,0,1.7-0.2,2.5c0.5,3.5,0.2,7.6,0.3,11.3
				c0,1,0.1,2.1,0.2,3.1c0,1,0,2,0.1,3c0.2,5.6,0.3,12.3,0.4,18.6c0,1.2,0.2,2.3,0.2,3.5c-0.1,5.4,0.2,11,0.3,15.4
				c0.1,5.8,0.5,11.8,0.8,17.9c-0.2,1.4-0.1,3.5-0.1,5c0,3.8,0.1,8.1-0.8,11.7c-0.2,0.8-0.6,1.8-0.8,2.7c-0.3,0.9-0.4,2.1-0.8,2.7
				c-0.3,0.5-1.1,0.6-1.2,1.3c-1-0.2-2.5,0.8-2.9-1.2c-0.3-1.3,0.3-2.8,0.5-4c1.3-8.1,0.7-18.6,0.4-26.9c-0.1-3-0.5-6.2-0.1-8.9
				c-0.3-2.8-0.3-5.7-0.3-8.4c-0.1-8.8-0.6-17.6-0.7-26.4c-0.1-4.9-0.1-9.7-0.1-15c0-9.2-0.1-18.1,0.3-27.1
				C476.3,406.6,476.5,405.1,476.3,404.1z"/>
			<path class="st1" d="M490.2,525.1l2,0c1.2,0.2-2.7,0.1-4.4,0.1c-2.4,0-5.2,0.1-6.5,0c-1.2-0.3-2.1-0.6-2-1c0.2-1,4-0.9,8.9-1.4
				c5.2-0.4,11.9-1.2,15.3-1.4c28.9-0.7,60-1.1,90-1.6c4.2-0.1,7.8-0.1,11.7,0.1c16.1-0.6,35.1-0.5,52.5-0.7
				c4.8-0.1,9.7-0.2,14.5-0.3c4.6-0.1,9.2-0.1,13.7-0.2c26.1-0.3,57-0.7,86.3-1.1c5.4-0.1,10.8-0.3,16.1-0.3
				c25.2-0.1,51.2-0.6,71.4-0.8c26.9-0.3,54.9-0.9,83.1-1.4c6.4,0.2,16,0,23-0.1c17.7-0.1,37.4-0.3,54.1,0.4
				c3.7,0.2,8.2,0.5,12.5,0.7c4.4,0.2,9.5,0.3,12.5,0.7c2.2,0.3,2.7,1.1,6.1,1.2c-0.9,1,3.2,2.5-6,3c-6.1,0.3-12.8-0.2-18.6-0.3
				c-37.5-1-86.4,0-124.7,0.5c-13.7,0.2-28.7,0.7-41.2,0.4c-13,0.4-26.5,0.5-39.1,0.6c-40.8,0.4-81.9,1.2-122.7,1.6
				c-22.7,0.2-45,0.4-69.4,0.6c-42.7,0.3-83.9,0.7-125.9,0.7C502,524.9,494.7,524.8,490.2,525.1z"/>
			<path class="st1" d="M765.5,218l1,0c0.6,0.2-1.4,0-2.3,0c-1.2,0-2.7,0.1-3.3-0.1c-0.6-0.3-1.1-0.6-1-1c0.1-1,2.1-0.9,4.6-1.2
				c2.7-0.4,6.1-1,7.9-1.2c14.8-0.3,30.8-0.2,46.1-0.3c2.2,0,4,0,6,0.3c8.3-0.4,18,0,26.9,0.1c2.5,0,5,0,7.4-0.1c2.4,0,4.7,0,7,0
				c13.4,0.1,29.2,0.1,44.2,0.2c2.8,0,5.5-0.1,8.3-0.1c12.9,0.2,26.2,0.2,36.6,0.3c13.8,0.1,28.1-0.1,42.6-0.2
				c3.3,0.3,8.2,0.2,11.8,0.3c9.1,0.2,19.1,0.2,27.7,1.1c1.9,0.2,4.2,0.6,6.4,0.9c2.2,0.3,4.9,0.5,6.4,0.9c1.1,0.3,1.4,1.2,3.1,1.2
				c-0.5,1,1.6,2.6-3.1,2.9c-3.1,0.2-6.5-0.4-9.5-0.6c-19.2-1.5-44.2-1.3-63.9-1.3c-7,0-14.7,0.3-21.1-0.2c-6.7,0.2-13.6,0.1-20.1,0
				c-20.9-0.2-41.9,0-62.9-0.2c-11.6-0.1-23.1-0.2-35.6-0.4c-21.9-0.4-43-0.5-64.5-1.2C771.6,218.1,767.8,217.8,765.5,218z"/>
			<path class="st1" d="M947.7,510l-1.6,0.1c-1-0.2,2.2-0.1,3.6-0.1c1.9-0.1,4.2-0.2,5.2-0.1c1,0.3,1.7,0.5,1.7,0.9
				c-0.1,1-3.2,1-7.2,1.5c-4.2,0.6-9.7,1.2-12.5,1.4c-11.8,0.1-24.2-0.6-36.6-2.9c-1.6-0.2-3.1-0.6-4.6-1c-1.5-0.4-3.1-0.7-4.6-1.1
				c-3-0.9-6.1-1.8-9.1-3c-6-2.3-11.8-5.2-17-9c-1.4-1.1-2.7-2.2-4-3.3c-1.2-1.2-2.3-2.3-3.4-3.7c-1.2-1.3-2.5-2.6-3.5-4.1
				c-0.5-0.7-1.1-1.5-1.6-2.2c-0.5-0.8-1-1.6-1.5-2.4c-1.9-3.3-3.4-6.8-4.6-10.5c-2.4-7.3-3.3-15-3.7-22.2c-0.2-4-0.3-8.1-0.2-12.1
				c0.1-3.8,0.4-7.6,0.7-11.3c0.9-10.7,2.6-22.2,4.2-34c0.8-5.9,1.7-11.8,2.3-17.7c0.6-5.9,1-11.8,0.6-17.4
				c-0.3-4.1-1.1-8.1-2.7-11.2c-1-1.8-2.2-3.4-3.8-4.4c-0.7-0.5-1.9-1-3-1.6c-1.2-0.5-2.3-1.1-3.4-1.6c-4.6-2.2-9.2-4.3-13.7-6.5
				c-4.5-2.1-8.8-4.3-12.9-6.3c-1.9-1-4.3-2-6.3-3.4c-2.1-1.4-4-3.1-5.4-5.1c-1-1.3-1.8-2.8-2.4-4.4c-0.6-1.5-1-3.1-1.2-4.8
				c-0.1-0.8-0.1-1.7-0.1-2.7c0.1-0.9,0.3-2,0.6-2.9c0.7-1.9,1.9-3.6,3.3-4.7c2.7-2.4,5.5-3.6,8.3-4.7c2.8-1.1,5.5-2,8.3-2.8
				c5.4-1.6,10.9-3.1,16.3-4.7c5.4-1.6,10.8-3.4,16.2-5.1c4.9-1.3,12.2-3.9,17.2-6.1c6.3-2.8,12.6-6.4,16.8-11.6
				c4.2-5.1,6-12.1,7.2-18.5c0.5-2.9,1.2-6.3,1.3-9.8c0.1-3.5-0.3-7.5-0.4-10c-0.1-1.8,0.6-2.4-0.1-5.1c0.6,0.2,1-0.6,1.6-0.6
				c0.6,0,1.4,0.9,2.5,4.7c1.4,5.1,1.3,10.9,0.9,15.9c-0.4,4-1,8-2,12.1c-0.5,2.1-1.2,4.1-2,6.2c-0.4,1-0.9,2-1.4,3.1
				c-0.6,1-1.1,2-1.7,2.9c-2.5,3.8-5.9,7-9.7,9.6c-3.8,2.6-7.8,4.6-11.9,6.3c-4.1,1.8-8.3,3.2-12.5,4.6c-4.2,1.4-8.3,2.7-12.4,4
				c-8.2,2.6-16.3,4.7-23.7,6.8c-2.7,0.8-5.3,1.6-7.9,2.6c-2.6,1-5.1,2.2-7,3.7c-0.9,0.8-1.6,1.6-2,2.6c-0.2,0.5-0.3,0.9-0.4,1.5
				c-0.1,0.5-0.1,1.1,0,1.7c0.1,1.2,0.3,2.4,0.7,3.5c0.3,1.1,0.8,2.1,1.4,3.1c1.4,1.9,3.2,3.5,5.3,4.8c1.1,0.6,2.2,1.2,3.4,1.8
				l3.6,1.8c4.8,2.4,9.5,4.7,14.1,6.9c3.7,1.8,7.5,3.5,11.2,5.3c1.9,0.9,3.7,1.7,5.7,2.8c2,1.2,3.8,2.8,5.1,4.7
				c2.6,3.8,3.6,8.2,4.2,12.5c0.5,4.3,0.5,8.5,0.3,12.7c-0.4,8.4-1.5,16.7-2.7,24.9c-1.1,8.2-2.4,16.4-3.3,24.6
				c-1.1,9.1-1.9,18.1-1.9,27.3c0.1,9.2,0.9,18.6,4,27.7c1.4,4,3.2,7.8,5.5,11.3c2.2,3.5,5.2,6.5,8.3,9.3c6.3,5.4,13.9,9.3,21.8,12
				c7.9,2.8,16.2,4.4,24.5,5.5c4.2,0.7,8.4,0.9,12.6,1.3c2.1,0.1,4.2,0.2,6.3,0.3c2.1,0.1,4.2,0.2,6.4,0.2c0.6,0.1,2.4,0.2,4.5,0.2
				c1,0,2.2,0,3.3,0C945.8,510.2,946.9,510.1,947.7,510z"/>
			<path class="st1" d="M877,320l-0.1,0c0-0.2,0.2,0.1,0.3,0.1c0.1,0.1,0.4,0.1,0.4,0.2c0,0.3-0.1,0.6-0.3,1c-0.4,0.9-0.6,0.7-1,0.9
				c-0.4,0.2-1.1,0.7-1.3,0.8c-1.7-0.3-3.5-0.7-5.3-1c-0.2,0-0.4-0.1-0.6-0.4c-0.5,0.1-1,0.1-1.5,0c-0.5-0.1-1.1-0.2-1.6-0.3
				c-0.3,0-0.6,0.1-0.9,0.1c-0.3,0-0.5,0-0.8,0c-1.5,0.1-3.4,0.2-5,0.6c-0.3,0.1-0.6,0.3-0.9,0.3c-1.5,0.2-2.9,0.8-4,1.2
				c-1.5,0.6-2.8,1.7-4.1,2.7c-0.5,0-0.9,0.4-1.2,0.6c-0.9,0.5-1.8,1.3-3.2,1.4c-0.3,0-0.8-0.1-1.2-0.1c-0.4,0-0.8,0.1-1.2,0
				c-0.3-0.1-1-0.6-1.2-0.5c-0.7-0.7-2.1-1.5-1.9-2.3c0.1-0.5,0.9-0.5,1.4-0.6c2.9-0.9,5.4-3.2,7.8-4.6c0.8-0.5,1.7-1.3,2.7-1.2
				c0.7-0.6,1.7-0.9,2.5-1.1c2.8-0.8,5.6-1.6,8.5-1.7c1.6-0.1,3.2,0.1,4.9,0.4c2.9,0.6,5.7,1.3,8.2,2.8
				C876.3,319.7,876.6,320.1,877,320z"/>
			<path d="M1052,218.5c-0.2,79.7-0.4,159.5-0.6,239.2c-0.1,19.8-0.1,39.7-0.2,59.5c-51.3,0.7-102.6,1.4-154,2.1
				c1.5-3.6,3.2-7.6,5.2-11.7c11.7-24.1,33.4-45.8,33.4-45.8c40-40,55.6-37.3,62.5-58.9c4.3-13.6,3.8-32.3-5.2-46.2
				c-9.8-15.2-23.3-14.4-43.3-36.6c-5.8-6.4-12-13.4-15.6-21.9c-13.5-31.9,16-71.7,22.4-80c6.7,0,13.5,0,20.2,0.1
				C1001.9,218.4,1026.9,218.4,1052,218.5z"/>
			<path class="st1" d="M885.7,426l0.9,0c0.5,0.2-1.2,0-1.9-0.1c-1-0.1-2.3-0.1-2.8-0.3c-0.5-0.3-0.9-0.7-0.8-1.1
				c0.2-1,1.8-0.7,3.9-1c2.2-0.2,5-0.9,6.4-1.1c6-0.3,12.2-1.1,18.2-2.6c3-0.8,6-1.7,8.9-2.8c1.5-0.5,2.9-1.2,4.3-1.8
				c1.4-0.7,2.8-1.3,4.2-2.1c1.5-0.8,2.8-1.5,4.3-2.1c2.8-1.9,5.8-3.9,8.7-6.1c3-2.2,5.9-4.6,8.5-7.1c1.5-1.4,2.8-2.9,4.2-4.4
				c1.3-1.4,2.6-2.9,3.7-4.3c3.4-4.2,6.8-9.1,9.4-14.4c1.3-2.6,2.4-5.4,2.9-8.1c0.3-1.3,0.3-2.6,0.2-3.6c0-0.3-0.1-0.4-0.1-0.6
				c0-0.2-0.1-0.3-0.2-0.4c-0.1-0.2-0.4-0.6-0.8-0.9c-1.3-1.1-3.1-1.8-4.7-2.1c-1.8-0.4-3.9-0.1-5.9,0.8c-0.5,0.2-1,0.5-1.6,0.8
				l-0.5,0.3l-0.5,0.2l-0.2,0.1l-1,0.4c-1.3,0.5-2.5,1-3.8,1.5c-2.5,1-4.9,1.8-7.2,2.7c-2.3,0.8-4.6,1.6-6.7,2.2
				c-5.6,1.7-11.4,3.4-17.2,4.9c-5.9,1.4-11.9,2.8-18,3.9c-1.4,0.1-3.1,0.3-4.9,0.5c-1.8,0.2-3.6,0.5-5.1,0.6
				c-7.7,0.8-16.3,1.4-23.6,0.7c-1.6-0.2-3.6-0.6-5.4-0.8c-1.9-0.2-4.1-0.5-5.4-1c-0.9-0.3-1.1-1.2-2.6-1.3c0.4-1-1.3-2.6,2.6-2.9
				c1.3-0.1,2.6,0,4,0.2c1.3,0.1,2.7,0.3,3.9,0.4c8,0.6,17.2,0.3,26.4-0.7c9.2-1,18.4-2.8,26.3-4.7c5.7-1.4,11.8-3.4,17-4.5
				c5.2-1.9,10.7-3.7,15.7-5.7l1.5-0.6l0.8-0.3l0.4-0.1l0.2-0.1l0.1,0l0,0l0,0l0,0c0.1,0.1-0.1-0.3,0.2,0.3
				c-0.2-0.5-0.1-0.3-0.1-0.3l0,0l0,0l0.1-0.1l0.3-0.2l0.8-0.4c0.5-0.3,1.1-0.5,1.6-0.7c2.2-0.9,4.7-1.5,7.3-1.2
				c2.5,0.2,4.9,1.1,7,2.5c1,0.7,2,1.5,2.9,2.6c0.8,1.2,1.3,2.6,1.4,3.9c0.3,2.6-0.2,5-0.8,7.2c-0.6,2.2-1.5,4.4-2.5,6.4
				c-1.9,4.1-4.3,8-7,11.6c-2.9,4-6.2,7.8-9.7,11.3c-3.5,3.5-7.4,6.9-11.7,10.1c-7.5,5.5-15.7,9.9-24.3,12.8
				c-8.7,2.9-17.7,4.2-26.8,4.1C890.8,426.1,887.6,425.9,885.7,426z"/>
			<path class="st1" d="M1051.7,224.2l0,1.1c-0.2,0.6,0-1.4,0-2.3c0-1.2-0.1-2.7,0.1-3.4c0.3-0.6,0.6-1.1,1-1.1
				c1,0.1,0.9,2.1,1.2,4.6c0.4,2.7,1,6.2,1.2,8c0.3,15.1,0.2,31.4,0.3,47c0,2.2,0,4.1-0.3,6.1c0.4,8.4,0,18.4-0.1,27.4
				c0,2.5,0,5.1,0.1,7.6c0,2.4,0,4.8,0,7.2c-0.1,13.6-0.1,29.8-0.2,45.1c0,2.8,0.1,5.6,0.1,8.4c-0.2,13.2-0.2,26.7-0.3,37.3
				c-0.1,14,0.1,28.7,0.2,43.4c-0.3,3.3-0.2,8.4-0.3,12c-0.2,9.2-0.2,19.5-1.2,28.2c-0.2,1.9-0.6,4.3-0.9,6.5
				c-0.3,2.3-0.5,4.9-0.9,6.5c-0.3,1.1-1.2,1.4-1.2,3.2c-1-0.5-2.6,1.6-2.9-3.2c-0.2-3.2,0.4-6.7,0.6-9.7
				c1.5-19.6,1.3-45.1,1.3-65.1c0-7.2-0.3-15,0.2-21.5c-0.2-6.8-0.1-13.8,0-20.4c0.2-21.3,0-42.8,0.2-64.1
				c0.1-11.9,0.2-23.5,0.4-36.3c0.4-22.3,0.5-43.8,1.2-65.8C1051.6,230.4,1051.9,226.5,1051.7,224.2z"/>
		</g>
		<g id="Fingerprint_window">
			<path class="st1" d="M976.1,4.2c0,0.3,0,0.5,0,0.8c-0.2,0.5,0-1,0-1.7c0-0.9-0.1-2,0.1-2.5c0.3-0.4,0.6-0.8,1-0.8
				c1,0.1,0.9,1.5,1.2,3.4c0.4,2,1.1,4.6,1.3,5.8c0.4,11,0.4,22.9,0.5,34.3c0,1.6,0,3-0.2,4.5c0.4,6.2,0.1,13.4,0,20
				c0,1.8,0.1,3.7,0.1,5.5c0,1.8,0,3.5,0,5.2c0.1,10,0,21.8,0,33c0,2.1,0.1,4.1,0.1,6.2c-0.2,9.6-0.1,19.5-0.1,27.3
				c0,10.3,0.2,20.9,0.4,31.7c-0.3,2.4-0.2,6.1-0.2,8.8c-0.1,6.8-0.1,14.3-1,20.6c-0.2,1.4-0.6,3.1-0.9,4.8
				c-0.3,1.7-0.5,3.6-0.9,4.8c-0.3,0.8-1.2,1-1.2,2.3c-1-0.4-2.6,1.2-2.9-2.3c-0.2-2.3,0.3-4.9,0.6-7.1c1.5-14.3,1.1-33,1.1-47.6
				c0-5.2-0.4-11,0.1-15.7c-0.3-5-0.1-10.1-0.1-14.9c0.1-15.6-0.2-31.2-0.1-46.8c0-8.7,0.1-17.2,0.3-26.5c0.3-16.3,0.4-32,0.9-48.1
				C976.1,8.7,976.3,5.9,976.1,4.2z"/>
			<path class="st1" d="M1056.1,457.9c0.3,0,0.6,0,0.9,0c0.5,0.2-1.2,0.1-1.9,0.1c-1,0-2.2,0.1-2.8,0c-0.5-0.3-0.9-0.6-0.9-1
				c0.1-1,1.7-1,3.8-1.4c2.2-0.5,5.1-1.2,6.6-1.5c12.5-0.8,25.9-1.2,38.9-1.7c1.8-0.1,3.4-0.1,5.1,0.1c7-0.7,15.2-0.5,22.7-0.8
				c2.1-0.1,4.2-0.2,6.3-0.3c2-0.1,4-0.1,5.9-0.2c11.3-0.4,24.6-0.8,37.3-1.2c2.3-0.1,4.6-0.3,7-0.3c10.9-0.2,22.1-0.6,30.9-0.9
				c11.6-0.3,23.7-1,35.9-1.6c2.8,0.2,6.9,0,9.9-0.1c7.7-0.1,16.1-0.4,23.4,0.3c1.6,0.1,3.5,0.5,5.4,0.7c1.9,0.2,4.1,0.3,5.4,0.7
				c0.9,0.3,1.2,1.1,2.7,1.1c-0.4,1,1.5,2.5-2.5,3c-2.6,0.3-5.5-0.2-8-0.3c-16.3-0.9-37.3,0.1-53.9,0.7c-5.9,0.2-12.4,0.8-17.8,0.4
				c-5.6,0.4-11.4,0.5-16.9,0.7c-17.6,0.4-35.4,1.3-53,1.8c-9.8,0.3-19.4,0.5-30,0.7c-18.5,0.3-36.3,0.8-54.4,0.9
				C1061.2,457.7,1058,457.6,1056.1,457.9z"/>
			<path class="st1" d="M1294.5,7.3c-0.4,0-0.8,0-1.1,0c-0.7-0.2,1.5,0,2.5,0c1.4,0,3,0,3.7,0.1c0.7,0.3,1.2,0.6,1.1,1
				c-0.1,1-2.3,0.9-5,1.2c-3,0.4-6.8,1-8.7,1.2c-16.4,0.2-34.1,0.1-51,0.1c-2.4,0-4.4-0.1-6.6-0.3c-9.2,0.4-19.9-0.1-29.8-0.2
				c-2.7,0-5.5,0-8.2,0c-2.6,0-5.2,0-7.8-0.1c-14.8-0.1-32.3-0.3-49-0.4c-3,0-6.1,0.1-9.2,0c-14.3-0.3-29-0.3-40.5-0.4
				c-15.2-0.2-31.1,0-47.1,0c-3.6-0.3-9.1-0.3-13-0.3c-10-0.2-21.2-0.3-30.7-1.3c-2.1-0.2-4.6-0.7-7.1-1c-2.5-0.3-5.4-0.5-7.1-1
				c-1.2-0.3-1.5-1.2-3.4-1.3c0.5-1-1.8-2.6,3.5-2.9c3.4-0.2,7.2,0.4,10.5,0.6c21.3,1.6,49,1.5,70.7,1.6c7.8,0.1,16.3-0.2,23.3,0.3
				c7.4-0.2,15,0,22.2,0.1c23.1,0.3,46.4,0.2,69.6,0.5c12.9,0.1,25.5,0.3,39.4,0.6c24.2,0.5,47.6,0.7,71.4,1.5
				C1287.8,7.2,1292,7.5,1294.5,7.3z"/>
			<path class="st1" d="M1298.7,440.9c0-0.5,0-1,0-1.6c0.2-0.9,0,2.1,0,3.4c0,1.8,0.1,4-0.1,5c-0.3,0.9-0.6,1.6-1,1.6
				c-1-0.2-0.9-3.1-1.2-6.9c-0.4-4-1.1-9.2-1.2-11.8c-0.3-22.3-0.3-46.3-0.3-69.4c0-3.3,0-6,0.3-9c-0.4-12.4,0-27.1,0-40.5
				c0-3.7-0.1-7.5-0.1-11.2c0-3.6,0-7.1,0-10.6c0-20.1,0.1-44,0.2-66.6c0-4.1-0.1-8.3-0.1-12.5c0.2-19.5,0.2-39.5,0.2-55.1
				c0.1-20.7-0.2-42.3-0.3-64.1c0.3-4.9,0.2-12.4,0.3-17.7c0.1-13.7,0.2-28.8,1.1-41.7c0.2-2.9,0.6-6.3,0.9-9.6
				c0.3-3.4,0.5-7.3,0.9-9.6c0.3-1.7,1.2-2.1,1.2-4.7c1,0.7,2.6-2.4,2.9,4.7c0.2,4.7-0.4,9.8-0.6,14.3c-1.5,28.9-1.2,66.6-1.3,96.2
				c0,10.6,0.3,22.2-0.2,31.8c0.2,10.1,0.1,20.4,0,30.2c-0.2,31.5,0,63.1-0.1,94.6c-0.1,17.5-0.2,34.7-0.4,53.5
				c-0.3,32.9-0.5,64.7-1.1,97.1C1298.7,431.8,1298.5,437.5,1298.7,440.9z"/>
			<path class="st1" d="M1163.1,214.2l-0.2-1.7c0.1-1.1,0.3,2.3,0.5,3.8c0.2,2,0.6,4.4,0.6,5.5c-0.2,1-0.4,1.9-0.8,1.8
				c-1-0.1-1.3-3.3-2.1-7.4c-0.9-4.4-2.4-10-3.1-12.8c-1.1-6.1-2.2-12.2-3.7-18.3c-0.8-3-1.5-6.1-2.5-9c-0.2-0.7-0.5-1.4-0.8-2.1
				c-0.3-0.7-0.5-1.4-0.8-2c-0.6-1.3-1.3-2.4-2-3.2c-0.8-0.8-1.4-1.2-2.3-1.4c-0.9-0.2-2-0.1-2.9,0.2c-0.9,0.3-1.7,0.8-2,1.4
				c-0.4,0.6-0.7,1.6-0.8,2.8c-0.1,1.2,0.1,2.5,0.4,4.2c0.2,1.6,0.4,3.3,0.6,4.9c0.4,3.2,0.8,6.4,1.2,9.6c0.5,3.6,0.8,6.6,1.1,10
				c2.3,13.6,4.6,29.7,8.9,43.6c0.5,2,1.3,3.8,2,5.7c0.7,1.9,1.5,3.7,2.3,5.6l0.6,1.3l0.6,1.2c0.4,0.8,0.9,1.7,1.3,2.5
				c0.9,1.7,1.8,3,2.8,4c1.5,1.5,3.1,2.2,5.1,2.1c1.9-0.1,4.4-1.1,6.1-2.5c1.8-1.4,3.2-3.5,4.2-6c1-2.3,1.4-5.2,1.7-8.2
				c0.5-5.9,0.3-12.2-0.2-18.5c-0.5-6.3-1.3-12.5-2.3-18.7c-0.7-4.5-1.7-9-2.6-13.5c-2.1-10.5-4.8-21.1-8.1-30.8
				c-1.6-4.9-3.4-9.5-5.4-13.8c-2-4.3-4.1-8.2-6.6-11.1c-1.6-1.9-3.5-3.4-5.5-4.2c-2.1-0.8-4.4-0.9-6.7-0.3
				c-1.2,0.3-2.4,0.7-3.5,1.2l-0.9,0.4l-0.8,0.5l-0.8,0.5l-0.8,0.5c-2.1,1.4-4,3.3-5.6,5.4c-3.3,4.2-5.5,9.5-7,15
				c-0.7,2.7-1.2,5.4-1.4,8.2c-0.1,2.8-0.1,5.6,0.2,8.5c0.2,5.2,2,13.1,3.4,18.9c1.8,7.3,3.9,15.1,5.8,22.8
				c1.9,7.7,3.7,15.3,5.2,22.3c0.6,3.1,1.2,6.9,1.9,10.6c0.7,3.7,1.7,8,1.9,10.6c0.2,1.9-0.5,2.6,0.2,5.3c-1.2-0.5-1.8,3.3-4.1-4.3
				c-1.6-5-2.5-10.7-3.6-15.5c-1.7-7.9-3.7-16.3-5.9-25c-2.1-8.7-4.6-17.7-6.8-26.8c-1.1-4.6-2.1-9.2-2.8-13.8
				c-0.7-4.7-1.1-9.4-0.7-14.1c0.3-4.7,1.5-9.3,2.9-13.5c1.5-4.2,3.5-8.3,6.1-11.7c1.8-2.5,4.1-4.9,6.8-6.8c2.7-1.9,5.6-3.4,8.8-4.2
				c3.2-0.8,6.8-0.8,9.9,0.3c3.1,1.1,5.6,3.2,7.4,5.4c1,1.1,2,2.3,2.8,3.5l1.2,1.8l1.1,1.9c1.4,2.5,2.7,5.1,3.8,7.8
				c2.3,5.3,4.1,10.6,5.8,15.9c2.6,8.4,4.8,17,6.7,25.6c1.9,8.6,3.4,17.3,4.5,26.1c1.1,8.8,1.8,17.7,1.3,26.6c0,1.1-0.2,2.3-0.3,3.4
				c-0.2,1.1-0.3,2.3-0.6,3.4l-0.4,1.7c-0.2,0.6-0.4,1.1-0.5,1.7c-0.4,1.1-0.9,2.2-1.4,3.3c-1.1,2.1-2.6,4.1-4.6,5.6
				c-1.9,1.6-4.1,2.7-6.5,3.3c-2.6,0.7-5.7,0.6-8.3-0.7c-2.6-1.3-4.5-3.4-5.9-5.6c-0.7-1.1-1.3-2.2-1.8-3.3
				c-0.6-1.1-1.2-2.2-1.7-3.4c-0.9-2.3-2-4.6-2.8-7c-3.3-9.4-5.6-19.3-7.5-29.7c-1.6-9.1-2.9-18.1-4-27.1c-0.6-4.5-1-9-1.5-13.5
				c-0.3-2.2-0.5-4.5-0.8-6.7c-0.2-2.3-0.2-4.9,1-7.2c0.6-1.1,1.5-2.2,2.5-2.9c1-0.7,2.2-1.2,3.4-1.5c2.4-0.5,5.1-0.2,7.2,1.3
				c2.1,1.4,3.4,3.6,4.4,5.6c0.5,1,0.9,2.1,1.3,3.2c0.4,1.1,0.7,2.2,1.1,3.2c2.5,8.7,4,17.6,5.2,26.5
				C1161.7,204.2,1162.4,210.5,1163.1,214.2z"/>
			<path class="st1" d="M1139,290.5l0.7,1.8c0.2,1.2-1-2.3-1.4-3.9c-0.7-2.1-1.3-4.7-1.4-5.9c0.1-1.1,0.3-2,0.7-2
				c1,0.1,1.3,3.5,3,7.5c0.9,2.2,2.2,4.5,3.5,6.5c1.3,2,2.8,3.6,3.7,4.6c2,2.3,4.3,4.3,6.8,5.8c2.6,1.6,5.5,2.6,8.5,3.1
				c3,0.5,6.1,0.4,9.3,0c3.2-0.5,6.3-1.4,9.4-2.6c6.2-2.3,12.1-5.7,17-10c4.9-4.3,8.6-9.7,10.2-15.7c0.9-3.4,1.2-6.4,1.4-9.8
				c-0.3-7-2.1-14.7-4-22.8c-1.9-8.1-3.8-16.3-5.6-24.2c-1.1-4.4-2.2-8.8-3.2-13.1c-1-4.2-2-8.4-3-12.4c-1.4-5.9-2.9-12.1-4.4-18.4
				c-1.5-6.4-3-12.9-4.9-19.3c-1.8-6.5-3.9-12.9-6.7-19c-2.7-6.1-6.1-11.8-10.2-16.8c-3-3.7-6.6-6.9-10.3-9.7
				c-2.2-1.6-4.5-3.1-7-4.3c-2.5-1.2-5-2.3-7.6-2.9c-0.6-0.2-1.3-0.3-2-0.5c-0.7-0.1-1.3-0.3-2-0.4l-2-0.3c-0.6-0.1-1.2-0.1-1.8-0.1
				c-2.6,0-5.2,0.4-7.7,1c-5,1.3-9.5,3.7-13,6.9c-3.5,3.2-6,7.2-7.8,11.1c-2.5,5.3-3.9,11.2-4.8,17.3c-0.9,6.1-1.1,12.3-1,18.7
				c0.3,12.6,2,25.5,4.5,38.2c0.8,5.8,2.8,14.5,4.3,20.8c3.8,15.9,9,33.4,13,48.4c0.9,3.3,1.8,7.4,2.8,11.3c1.1,3.9,2.5,8.5,3,11.3
				c0.4,2-0.2,2.8,0.7,5.7c-1.3-0.5-1.4,3.7-4.6-4.3c-2.1-5.3-3.6-11.3-5.1-16.6c-2.4-8.4-5.1-17.5-7.7-26.9
				c-2.6-9.4-5.3-19.1-7.6-29c-4.7-19.7-8.2-39.9-8.5-58c-0.1-6.5,0.1-13.3,1-19.9c0.9-6.6,2.6-13,5.3-18.4
				c2.4-5.8,6.1-11.3,11.3-15.3c5.1-4,11.3-6.3,17.4-7.1c1.2-0.2,2.5-0.3,3.7-0.3c0.6,0,1.3,0,1.9,0c0.3,0,0.6,0,1,0.1l0.9,0.1
				c1.2,0.2,2.5,0.3,3.7,0.6l1.8,0.4l1.8,0.5c4.8,1.4,9.2,3.6,13.3,6.3c8.2,5.5,14.8,13,19.7,21.4c4.9,8.4,8.3,17.6,11,26.8
				c2.7,9.2,4.7,18.5,6.9,27.7c4.8,20.6,9.5,40.8,14.7,62.9c1.1,4.8,2.2,9.7,2.9,14.7c0.6,5,0.9,10.1,0,15.1c-0.4,2.5-1.1,5-2,7.3
				c-1,2.3-2.2,4.6-3.6,6.7c-2.9,4.1-6.5,7.7-10.5,10.6c-2,1.5-4.1,2.8-6.3,4c-2.2,1.2-4.4,2.2-6.7,3.1c-4.6,1.8-9.3,3.3-14.3,3.8
				c-4.9,0.5-10-0.1-14.6-2.1c-4.6-2-8.7-5-11.7-8.9c-0.2-0.3-0.6-0.9-1.1-1.6c-0.5-0.8-1.1-1.7-1.7-2.8
				C1141,294.9,1139.9,292.4,1139,290.5z"/>
			<g>
				<g>
					<path class="st2" d="M1209.3,302.4"/>
				</g>
			</g>
			<path class="st1" d="M1214.2,205.6l0.1,0.5c-0.1,0.4-0.2-0.6-0.3-1.1c-0.2-0.6-0.5-1.2-0.4-1.6c0.2-0.4,0.4-0.7,0.8-0.8
				c0.9-0.2,1.2,0.7,1.9,1.8c0.7,1.2,1.9,2.6,2.3,3.4c1.2,3.5,2.3,7.2,3.2,11c1,3.8,1.8,7.5,2.7,11.2c0.2,1.1,0.4,1.9,0.4,3
				c1.3,3.9,1.8,8.9,2.4,13.4c0.2,1.2,0.4,2.5,0.5,3.8c0.1,1.2,0.2,2.4,0.3,3.6c0.1,1.7,0.1,3.5,0.1,5.4c0,1.8,0,3.6-0.1,5.5
				c-0.1,3.8-0.4,7.8-1,11.6c-0.2,1.4-0.4,2.9-0.7,4.3c-1.6,6.6-4.4,13.2-7.5,17.7c-4,6.1-9.5,11.6-15.9,15.7
				c-0.8,0.3-1.8,0.8-2.7,1.4c-1,0.5-2,1-2.8,1.4c-4.3,2-9.3,3.6-13.8,3.8c-1,0.1-2.2-0.1-3.4-0.2c-1.2-0.1-2.5,0-3.3-0.4
				c-0.6-0.2-0.8-1-1.7-1c0.1-1-1.1-2.4,1.1-3.1c1.4-0.4,3.1-0.2,4.5-0.2c4.6-0.2,9.8-1.6,14.6-3.8c4.8-2.2,9.2-5.4,12.6-8.6
				c0.3-0.3,0.6-0.6,0.9-0.9c0.3-0.3,0.6-0.6,0.8-1c0.6-0.6,1.1-1.3,1.7-1.9c0.5-0.7,1-1.3,1.6-2c0.5-0.6,1-1.2,1.6-1.8
				c1.5-2.8,3.2-5.6,4.3-8.5c1.9-4.6,2.9-9.6,3.4-14.6c0.5-5,0.5-10.2,0.5-15.3c0-5.6-0.6-11.2-1.5-17.2c-0.8-5.3-1.9-10.5-3-15.7
				c-1-5.2-2.2-10.3-3.4-15.5C1215,208.4,1214.8,206.6,1214.2,205.6z"/>
			<path class="st1" d="M1085.6,175.5l-0.1-1c0.1-0.6,0.2,1.3,0.3,2.1c0.2,1.1,0.5,2.5,0.4,3.1c-0.2,0.6-0.4,1.1-0.8,1.1
				c-1,0.1-1.2-1.8-2-4c-0.8-2.5-1.9-5.6-2.2-7.3c-0.9-7.1-1.2-14.5-0.9-22c0.2-3.7,0.5-7.5,1-11.2c0.5-3.7,1.2-7.4,1.8-11
				c0.4-2,0.8-3.7,1.4-5.5c0.7-3.9,1.8-8.2,3.5-12.4c1.7-4.3,4.1-8.4,6.9-12c0.8-1,1.6-2,2.4-2.9c0.9-0.9,1.8-1.8,2.7-2.7
				c0.8-0.9,1.9-1.5,2.8-2.3c1-0.7,1.9-1.5,2.9-2c5.8-3.6,13-6,20.5-6.8c7.5-0.7,15.3,0.2,22.4,2.2c1.3,0.3,2.6,0.8,3.9,1.2l1.9,0.7
				c0.6,0.2,1.3,0.5,1.9,0.8c11.9,5.3,21.7,14.5,27.6,22.7c4,5.4,7.4,11.4,10.4,17.5c3,6.1,5.7,12.4,8.3,18.8
				c0.9,3,2.6,7.3,3.7,10.5c2.9,8.2,5.6,17.4,6.7,25.5c0.2,1.8,0.3,4,0.5,6.1c0.2,2.1,0.5,4.6,0.3,6.1c-0.1,1.1-0.9,1.5-0.7,3.1
				c-1.1-0.3-2.2,1.9-3.4-2.3c-0.8-2.8-0.9-6-1.3-8.7c-1.3-8.9-3.9-18.9-7.4-28.6c-1.8-4.9-3.6-9.8-5.5-14.4
				c-1.9-4.7-3.9-9.2-5.9-13.3c-2.8-5.9-6.6-11.9-9.7-16.9c-3.8-4.8-8.1-9.4-12.7-13.2c-3.7-3-7.8-5.5-12.1-7.5
				c-1.1-0.5-2.2-1-3.3-1.4l-3.4-1.2l-3.5-0.9c-0.6-0.2-1.2-0.3-1.7-0.4l-1.8-0.3c-4.7-0.8-9.5-1.1-14.2-0.7
				c-4.7,0.4-9.4,1.5-13.7,3.3c-4.8,2-9.2,4.9-12.9,8.7c-3.7,3.8-6.5,8.5-8.6,13.8c-1.8,4.7-3,9.6-4.1,14.5
				c-1.1,4.9-2.1,9.8-2.7,14.8c-1.3,9.9-1.6,19.9-0.8,29.9C1084.9,169.9,1085,173.4,1085.6,175.5z"/>
			<path class="st1" d="M1191.3,327.1l-0.7,0.1c-0.5-0.2,0.9-0.1,1.5-0.2c0.8-0.1,1.8-0.4,2.2-0.3c0.5,0.2,0.8,0.5,0.9,0.9
				c0.1,1-1.3,1.1-2.9,1.7c-1.8,0.6-4.1,1.6-5.4,1.9c-5.2,0.6-10.8,0.7-16.2,0.3c-5.5-0.4-11-1.2-16.4-2.5c-1.5-0.4-2.8-0.7-4.1-1.4
				c-2.9-0.6-5.9-1.8-9-3.2c-1.5-0.7-3-1.5-4.4-2.3c-1.4-0.9-2.9-1.6-4.2-2.6c-0.7-0.5-1.5-1-2.3-1.5c-0.8-0.5-1.5-1.1-2.2-1.6
				c-0.7-0.5-1.4-1-2-1.6c-0.6-0.6-1.3-1.2-1.9-1.7c-3.6-3.3-7-7.5-9.8-12.2c-2.8-4.7-4.9-9.9-6.7-14.7c-0.7-1.8-1.5-3.5-2.1-5.3
				c-2.9-8.5-5.8-17.2-7.8-24.1c-2.6-9.1-5.4-18.6-7.8-28.3c-0.2-2.2-1.1-5.6-1.6-8c-1.2-6.1-2.6-12.9-2.8-18.9
				c-0.1-1.3,0.1-2.9,0.1-4.5c0-1.6-0.2-3.4,0.1-4.5c0.2-0.8,1-1.1,0.8-2.3c1.1,0.1,2.3-1.5,3.2,1.6c0.6,2.1,0.5,4.4,0.6,6.5
				c1,13.2,5,29.9,8.4,42.8c0.6,2.3,1.4,4.7,2,7.1c0.7,2.4,1.3,4.7,1.7,6.8c0.8,2.1,1.5,4.4,2.1,6.6c0.7,2.2,1.3,4.4,2,6.5
				c2.2,6.8,4.7,13.5,7.4,20.1c1.4,3.3,2.8,6.5,4.6,9.5c1.8,3,3.8,5.8,6.1,8.4c0.6,0.7,1.3,1.4,2,2.1l2.1,2c0.4,0.3,0.7,0.7,1.1,1
				l1.1,0.9c0.8,0.6,1.5,1.2,2.3,1.8c3.2,2.3,6.6,4.3,10.4,6.1c6.7,3.1,13.7,5,20.9,6.2c7.2,1.1,14.5,1.6,21.8,1.3
				C1187.2,327.5,1189.8,327.5,1191.3,327.1z"/>
			<path class="st1" d="M1233.3,206.5l0-0.6c0.2-0.4,0,0.8,0,1.3c0,0.7,0.1,1.5,0,1.9c-0.3,0.3-0.6,0.6-1,0.6c-1,0-0.9-1.1-1.3-2.5
				c-0.4-1.5-1.2-3.4-1.4-4.3c-0.8-8.2-1.6-17-3.1-25.3c-0.2-1.2-0.3-2.2-0.3-3.3c-1.2-4.4-1.9-9.8-3.1-14.5c-0.3-1.3-0.8-2.6-1.1-4
				c-0.4-1.3-0.7-2.5-1.1-3.7c-2.2-7-5-15.3-8.5-22.8c-0.7-1.4-1.4-2.7-2-4.1c-3-6.5-6.8-12.7-10-17.4c-4.2-6.3-9.4-12.2-15.1-17.8
				c-0.5-0.7-1.3-1.6-2.1-2.4c-0.8-0.8-1.7-1.6-2.4-2.3c-3.5-3.5-7.8-7-11.1-10.5c-0.7-0.8-1.5-1.9-2.4-2.8c-0.9-0.9-2-1.9-2.5-2.7
				c-0.3-0.6,0-1.4-0.8-2c0.8-0.7,0.6-2.7,3-1.5c1.6,0.8,3,2.4,4.2,3.5c8.2,7.5,18.9,16.9,25.9,25.6c2.6,3.1,5.4,6.4,7.1,9.7
				c1.2,1.5,2.2,3.1,3.3,4.7c1,1.6,1.9,3.3,2.9,4.9c5.8,10.4,10.8,21.3,14.3,32.6c2,6.3,3.5,12.6,4.8,19.6
				c2.3,12.2,3.6,24.1,3.6,36.2C1233.2,203.1,1233,205.2,1233.3,206.5z"/>
			<path class="st1" d="M1142.5,60.5l-0.3,0c-0.2-0.2,0.4,0,0.7,0c0.4,0,0.8,0,1,0.1c0.2,0.3,0.3,0.6,0.2,1c-0.1,1-0.7,0.9-1.4,1.2
				c-0.8,0.3-1.9,1-2.4,1.1c-4.4,0.2-9.1,0.3-13.6,0.8c-0.6,0.1-1.2,0.1-1.8,0c-0.6,0.2-1.2,0.3-1.8,0.4c-0.6,0.1-1.3,0.2-1.9,0.3
				c-1.3,0.2-2.7,0.3-3.9,0.6c-0.7,0.1-1.4,0.4-2.1,0.6c-0.7,0.2-1.3,0.3-2,0.5c-3.7,1.1-8,2.8-11.7,4.9c-0.7,0.4-1.3,0.9-2,1.3
				c-3.3,1.8-6.2,4.3-8.3,6.3c-2.9,2.7-5.4,6.1-7.6,9.6c-0.7,0.6-1.5,1.9-2,2.7c-1.5,2.2-2.9,4.8-4.8,6.7c-0.4,0.4-1.1,0.9-1.6,1.4
				c-0.5,0.5-1,1.2-1.6,1.4c-0.4,0.2-1.2,0-1.5,0.4c-0.9-0.5-2.6-0.5-2.3-2c0.2-1,1.1-1.8,1.7-2.5c1.9-2.5,3.7-5.4,5.6-8.3
				c1.9-2.9,3.9-5.8,5.9-8.2c1.4-1.7,2.8-3.7,4.6-4.7c1.3-1.6,3.1-3,4.7-4.2c5.3-3.9,11.2-7.2,17.4-9.2c3.5-1.1,7-1.9,10.8-2.3
				c6.7-0.9,13.3-1,19.9-0.2C1140.6,60.4,1141.8,60.7,1142.5,60.5z"/>
			<path class="st1" d="M1065.6,129.7l-0.1,0.7c-0.3,0.4,0.1-0.9,0.2-1.5c0.1-0.8,0.2-1.7,0.4-2.1c0.3-0.3,0.7-0.6,1.1-0.5
				c0.9,0.2,0.7,1.4,0.9,3.1c0.2,1.7,0.6,4,0.6,5.1c-0.6,9.3-0.8,19.4-0.4,29.1c0.1,1.4,0.1,2.5,0,3.8c0.7,5.2,0.9,11.4,1.4,17
				c0.2,1.6,0.5,3.1,0.7,4.7c0.2,1.5,0.3,3,0.6,4.4c1.3,8.4,3,18.4,5.1,27.7c0.4,1.7,0.9,3.4,1.3,5.1c1.7,8.1,4.1,16.2,6,22.6
				c2.6,8.4,5.7,17,9.2,25.5c0.5,2,1.8,4.9,2.6,7c2.1,5.4,4.8,11.2,6.4,16.5c0.4,1.2,0.6,2.7,1,4.1c0.4,1.4,1,3,1.1,4.1
				c0.1,0.8-0.6,1.3-0.1,2.3c-1,0.2-1.7,2.2-3.5-0.4c-1.2-1.7-1.7-3.9-2.3-5.8c-2.2-5.9-5-12.5-7.7-19.2c-1.3-3.3-2.7-6.7-3.9-10
				c-0.6-1.6-1.2-3.2-1.8-4.8c-0.6-1.6-1.1-3.1-1.6-4.6c-1.5-4.3-3.3-8.9-4.1-13c-1.4-4.1-2.7-8.4-3.6-12.4
				c-3.4-13.1-6.5-26.3-8.5-39.7c-0.3-1.9-0.5-3.7-0.8-5.6c-0.2-1.9-0.4-3.7-0.6-5.6c-0.5-3.8-0.7-7.6-1-11.7
				c-0.1-0.9-0.1-1.8-0.2-2.6l-0.1-2.6c-0.1-1.8-0.1-3.5-0.2-5.2c-0.1-3.5,0-7-0.1-10.4c0.1-3.5,0.3-6.9,0.5-10.4
				c0.4-3.4,0.7-6.9,1.2-10.3C1065,133.5,1065.6,131.2,1065.6,129.7z"/>
			<path class="st1" d="M1239.8,247.5l0,0.3c-0.2,0.2-0.1-0.4-0.1-0.7c0-0.4-0.2-0.9-0.1-1.1c0.3-0.2,0.6-0.4,0.9-0.5
				c1-0.1,1,0.5,1.4,1.3c0.5,0.8,1.3,1.9,1.6,2.5c0.9,4.9,1.2,10.3,1.1,15.5c0,0.7-0.1,1.4-0.3,2c0.2,1.4,0,2.9-0.1,4.5
				c-0.2,1.5-0.5,3.1-0.7,4.6c-0.1,0.8-0.2,1.7-0.3,2.5c-0.1,0.8-0.3,1.6-0.4,2.4c-0.8,4.5-2.2,9.7-3.9,14.5
				c-0.3,0.9-0.5,1.8-0.9,2.7c-1.8,4-3.7,8.2-5.5,11.2c-2.4,4.1-5,8.2-8.1,12.1c-0.9,0.7-2,2-2.9,2.9c-2.2,2.2-4.8,4.6-7.6,5.7
				c-0.6,0.3-1.5,0.4-2.2,0.6c-0.8,0.3-1.6,0.6-2.2,0.6c-0.5,0-1.1-0.7-1.5-0.4c-0.5-0.9-1.9-1.8-0.9-2.9c0.7-0.7,1.8-0.9,2.7-1.4
				c2.8-1.3,5.6-3.5,8.1-6c2.5-2.5,4.7-5.4,6.5-8c1.3-1.9,2.3-4.1,3.8-5.6c0.8-2,2-3.9,2.9-5.7c3-6,4.8-12.6,6.3-19.1
				c0.8-3.7,1.4-7.3,1.9-11.3c0.5-3.5,0.6-7,0.7-10.5c0.1-3.5,0-6.9-0.1-10.5C1240,249.5,1240.1,248.2,1239.8,247.5z"/>
			<path class="st1" d="M1160.1,343l-0.2,0c-0.1-0.2,0.3,0,0.4,0c0.2,0,0.5-0.1,0.6,0.1c0.1,0.3,0.2,0.6,0.2,1c0,1-0.4,0.9-0.8,1.2
				c-0.5,0.4-1.2,1.1-1.5,1.2c-2.9,0.3-6,0-8.9-0.3c-0.4-0.1-0.8-0.1-1.1-0.4c-1.7,0.2-3.5-0.6-5.1-1c-0.5-0.1-1-0.1-1.4-0.3
				c-0.4-0.1-0.9-0.2-1.3-0.3c-2.5-0.6-5.4-1.6-8.1-2.7c-0.5-0.2-1-0.3-1.5-0.5c-2.2-1.1-4.6-2.2-6.3-3.2c-2.3-1.3-4.8-2.5-7.2-4
				c-0.4-0.6-1.2-1.1-1.7-1.5c-1.3-1.1-2.9-2.4-3.5-4.1c-0.1-0.4-0.2-1-0.3-1.5c-0.1-0.5-0.4-0.9-0.3-1.5c0.1-0.4,0.6-1,0.4-1.3
				c0.7-0.7,1.5-2.1,2.4-1.8c0.6,0.2,0.6,1,0.9,1.5c1.6,3.4,5.5,5.8,8.6,7.6c1.1,0.7,2.5,1,3.2,2c1.2,0.3,2.2,1,3.3,1.5
				c3.4,1.7,7,2.8,10.6,3.9c2,0.6,4,1.2,6.2,1.8c3.9,1,7.7,1.5,11.6,2.2C1159,343,1159.7,343.3,1160.1,343z"/>
			<path class="st1" d="M1194,234.2l0.1,0.3c-0.2,0.3-0.1-0.5-0.2-0.8c-0.1-0.4-0.3-0.9-0.2-1.1c0.2-0.3,0.5-0.5,0.9-0.6
				c0.9-0.2,1,0.5,1.6,1.2c0.6,0.8,1.6,1.9,1.9,2.4c1.5,5.2,2.4,11,2.6,16.6c0,0.8,0,1.5-0.2,2.2c0.4,3.1-0.2,6.7-0.8,9.9
				c-0.2,0.9-0.2,1.8-0.4,2.8c-0.2,0.9-0.4,1.7-0.6,2.6c-0.3,1.2-0.7,2.5-1.1,3.8c-0.5,1.3-1,2.6-1.6,3.9c-0.7,1.3-1.3,2.6-2.2,3.8
				c-0.4,0.6-0.8,1.2-1.3,1.8c-0.5,0.6-1,1.1-1.5,1.7c-0.7,0.9-1.5,1.7-2.3,2.4l-0.7,0.6l-0.8,0.6c-0.5,0.4-1.1,0.7-1.6,1.1
				c-1.1,0.6-2.2,1.3-3.4,1.8c-2.3,1-4.5,1.7-6.5,2.1c-2.1,0.4-4.3,0.6-6.5,0.5c-1.1,0-2.2-0.1-3.3-0.2c-0.6-0.1-1.1-0.1-1.7-0.3
				c-0.3-0.1-0.6-0.1-0.9-0.2l-0.7-0.2l0,0c-0.1,0-0.2,0-0.2-0.1c-1.2-0.4-2.4-0.8-3.5-1.4c-1.1-0.8-2.8-1.9-3.9-2.8
				c-2.8-2.4-5.3-5.6-6.1-8.9c-0.2-0.7-0.2-1.7-0.3-2.5c-0.1-0.9-0.3-1.8-0.1-2.5c0.2-0.5,0.9-0.9,0.8-1.4c1-0.2,2.3-1.2,3.1,0
				c0.5,0.8,0.5,2,0.7,2.9c0.6,2.5,2,5,4,7.1c2,2.1,4.5,3.7,7.1,4.5l-0.1,0l0.5,0.2l0.5,0.1c0.3,0.1,0.6,0.1,0.9,0.2
				c0.6,0.1,1.2,0.2,1.8,0.3c2.3,0.2,4.7-0.2,6.9-0.1c2.1-0.6,4.2-1.2,6.2-2.1c3.1-1.5,5.7-3.7,7.7-6.5c2-2.8,3.4-6,4.6-9.3
				c1.2-3.7,2.1-7.5,2.5-11.8c0.3-3.7,0.4-7.4,0.2-11.1c-0.1-1.9-0.3-3.7-0.5-5.5c-0.2-1.8-0.5-3.7-0.7-5.6
				C1194.5,236.2,1194.4,234.9,1194,234.2z"/>
			<path class="st1" d="M1155.4,121.7l-0.2-0.1c0-0.3,0.3,0.2,0.4,0.3c0.2,0.2,0.5,0.3,0.6,0.5c-0.1,0.3-0.2,0.6-0.4,0.9
				c-0.6,0.8-0.9,0.5-1.5,0.5c-0.7,0-1.6,0.2-2,0.2c-2.6-1.1-5.4-2.3-8.3-2.7c-0.4-0.1-0.7-0.2-1.1-0.4c-1.6,0.2-3.4-0.3-5.1-0.2
				c-0.5,0-0.9,0.2-1.4,0.2c-0.4,0-0.9,0.1-1.3,0.2c-2.5,0.4-5.4,1.3-7.9,2.6c-0.5,0.3-0.8,0.6-1.3,0.9c-2.2,1.1-4,2.9-5.4,4.3
				c-1.8,1.9-3.1,4.4-4,6.9c-0.5,0.5-0.8,1.4-1,2c-0.7,1.6-1.1,3.4-2.2,5c-0.2,0.3-0.7,0.8-1,1.2c-0.3,0.4-0.5,1-1,1.3
				c-0.3,0.2-1.2,0.3-1.3,0.7c-1-0.1-2.6,0.4-2.9-0.7c-0.2-0.8,0.4-1.6,0.7-2.2c0.9-2.2,1.7-4.6,2.6-7c0.9-2.4,2-4.7,3.2-6.6
				c0.8-1.4,1.7-3,3-3.8c0.4-0.6,0.9-1.2,1.5-1.8c0.6-0.5,1.2-1,1.7-1.5c3.7-2.9,8.1-5.3,12.8-6.3c2.6-0.5,5.2-0.6,8.1-0.3
				c4.9,0.6,9.6,2.1,13.3,5C1154.3,121,1154.9,121.6,1155.4,121.7z"/>
		</g>
	</g>
</g>
</svg>
