<?xml version="1.0" encoding="utf-8"?>
<!-- Generator: Adobe Illustrator 24.0.3, SVG Export Plug-In . SVG Version: 6.00 Build 0)  -->
<!DOCTYPE svg PUBLIC "-//W3C//DTD SVG 1.1//EN" "http://www.w3.org/Graphics/SVG/1.1/DTD/svg11.dtd" [
	<!ENTITY ns_extend "http://ns.adobe.com/Extensibility/1.0/">
	<!ENTITY ns_ai "http://ns.adobe.com/AdobeIllustrator/10.0/">
	<!ENTITY ns_graphs "http://ns.adobe.com/Graphs/1.0/">
	<!ENTITY ns_vars "http://ns.adobe.com/Variables/1.0/">
	<!ENTITY ns_imrep "http://ns.adobe.com/ImageReplacement/1.0/">
	<!ENTITY ns_sfw "http://ns.adobe.com/SaveForWeb/1.0/">
	<!ENTITY ns_custom "http://ns.adobe.com/GenericCustomNamespace/1.0/">
	<!ENTITY ns_adobe_xpath "http://ns.adobe.com/XPath/1.0/">
]>
<svg version="1.1" xmlns:x="&ns_extend;" xmlns:i="&ns_ai;" xmlns:graph="&ns_graphs;"
	 xmlns="http://www.w3.org/2000/svg" xmlns:xlink="http://www.w3.org/1999/xlink" x="0px" y="0px" viewBox="0 0 1178 1250"
	 style="enable-background:new 0 0 1178 1250;" xml:space="preserve">
<style type="text/css">
	.st0{fill:#D3D3D3;}
	.st1{fill-rule:evenodd;clip-rule:evenodd;}
</style>
<metadata>
	<sfw  xmlns="&ns_sfw;">
		<slices></slices>
		<sliceSourceBounds  bottomLeftOrigin="true" height="1250" width="1178" x="-65.3" y="-1119.6"></sliceSourceBounds>
	</sfw>
</metadata>
<g id="Background">
	<g id="Background_1_">
		<path class="st0" d="M634.5,14.8c-81.9,21.1-181.4,128.3-170.2,228.6c19.6,175.2,367,234.7,393.9,197.2c5.4-7.6,4.7-15.8,4.7-15.8
			c-1.6-18.7-29.8-28.3-55.2-41c-30-15-84.9-42.5-90.6-77.2c-6.5-38.9,51.8-69.8,41.8-88.3c-10-18.5-67.4,13-92.2-10.2
			c-38.3-35.9,45.1-161.5,9-191.4C664.4,7.4,646.7,11.7,634.5,14.8z"/>
		<g id="Pattern">
			<circle class="st0" cx="579.6" cy="800.9" r="14.2"/>
			<circle class="st0" cx="509.7" cy="660.2" r="14.2"/>
			<circle class="st0" cx="83.4" cy="688.7" r="14.2"/>
			<circle class="st0" cx="199.7" cy="910.5" r="14.2"/>
			<circle class="st0" cx="283.7" cy="825" r="14.2"/>
			<circle class="st0" cx="402.3" cy="899.3" r="14.2"/>
			<circle class="st0" cx="107.6" cy="815.1" r="14.2"/>
			<circle class="st0" cx="396.1" cy="744.7" r="14.2"/>
			<circle class="st0" cx="375.8" cy="620.2" r="14.2"/>
			<circle class="st0" cx="646.5" cy="623.8" r="14.2"/>
			<circle class="st0" cx="246.3" cy="688.7" r="14.2"/>
		</g>
	</g>
</g>
<g id="General_1_">
	<g id="General">
		<path id="Star" d="M724.9,806.1L828.5,640L849,821.7l172.5,26.4c-18.4,13.5-36.7,27-55.1,40.4c-6.1-2.6-31.8-11.2-55.3-20
			c-3-1.1-9.1-3.5-12.7-0.7c-0.1,0.1-1.9,1.5-2.1,3.4c-0.9,6.7,18.7,14.1,20.5,14.7c-1.3,0.1-3.5,0.2-6.1,0.2
			c-14-0.2-21.3-4-24.8-0.2c-0.4,0.4-1.5,1.7-1.4,3.3c0.1,2.3,2.6,4.5,15.4,9.6c3.1,1.3,7.6,3,13,4.9c-1.2-0.4-20.5-5.9-26.5,2.1
			c-0.5,0.6-1.3,1.7-1.2,3.1c0.2,7.3,22.3,11.3,24,11.6c-6-1.8-11.7-0.9-14.3,2.5c-0.4,0.5-1.9,2.4-1.4,4.4c0.7,3.1,5.9,5.5,13.1,5
			c-9.4,6.9-18.9,13.9-28.3,20.8c13.9,61.7,27.8,123.3,41.7,185L765.4,996.5l-174.7,42.7c14.5-20.7,29-41.4,43.5-62.1
			c16.7-8.5,30.5-10.6,40.3-11c15.1-0.5,31,3,33.4-2.6c0.7-1.6,0.1-3.5-0.6-4.7c-2.8-4.4-11-1.9-24.1-3.1c-5.3-0.5-9.5-1.3-12.2-2
			c2.6-0.6,26.6-5.9,36.6-10.7c3.2-1.5,5.9-3.4,6.5-6.2c0.3-1.6-0.1-3.3-0.6-4.1c-4.7-6.7-29.6,3.1-44,9.4
			c17.1-7.3,44.5-20.1,42.7-27.2c-0.2-0.6-0.5-1-0.6-1.2c-5.3-6.4-33.2,7.4-44.4,13.3c2-2.9,4-5.9,6-8.8c10.1-6,17.6-10.7,20.4-12.7
			c0.7-0.5,2.3-1.7,3-3.7c0.1-0.3,0.8-2.3,0-3.4c-1.1-1.7-5.5-1.3-10.8,1.2c1.7-2.5,3.4-5,5.1-7.5c-35.5-49.2-71-98.5-106.5-147.7
			L724.9,806.1z"/>
		<g id="Brush">
			<rect x="636.2" y="415.3" transform="matrix(0.526 -0.8505 0.8505 0.526 -113.3243 776.7015)" width="7.8" height="149.4"/>
			<path class="st1" d="M524.3,422.5l0.1,0.2c-0.1,0.2-0.2-0.3-0.3-0.5c-0.1-0.3-0.4-0.5-0.3-0.7c0.2-0.3,0.4-0.5,0.7-0.6
				c0.8-0.4,1,0.1,1.5,0.4c0.6,0.4,1.6,0.9,1.9,1.2c2,3,3.8,6.4,5.8,9.4c0.3,0.4,0.5,0.8,0.6,1.3c1.4,1.4,2.4,3.5,3.7,5.1
				c0.4,0.5,0.8,0.9,1.1,1.3c0.4,0.4,0.7,0.8,1.1,1.2c2.1,2.2,4.7,4.8,7.5,6.7c0.5,0.3,1.1,0.6,1.6,0.9c2.4,1.7,5.2,2.8,7.5,3.5
				c3,1,6.2,1.4,9.5,1.5c0.7,0.3,1.8,0.3,2.6,0.3c2.1,0.1,4.3-0.1,6.4,0.4c0.5,0.1,1.1,0.4,1.6,0.5c0.6,0.1,1.2,0.1,1.7,0.4
				c0.3,0.2,0.6,0.9,1,0.9c0.1,0.9,1.1,2.1-0.1,2.7c-0.8,0.4-1.8,0.1-2.6,0.1c-2.6-0.1-5.4-0.1-8.3-0.2c-2.8-0.1-5.7-0.3-8.1-0.7
				c-0.9-0.2-1.8-0.3-2.7-0.5c-0.9-0.2-1.8-0.5-2.5-1c-1.7-0.3-3.3-1-4.8-1.8c-4.8-2.3-9.3-5.4-12.9-9.3c-2-2.2-3.7-4.5-5.4-7.1
				c-2.9-4.6-5.4-9.2-7.4-14.1C525,423.8,524.8,422.9,524.3,422.5z"/>
			<path class="st1" d="M527.1,422.5l0.2,0c0.1,0.2-0.3,0-0.5-0.1c-0.3-0.1-0.6,0-0.7-0.2c-0.1-0.3-0.2-0.6-0.1-0.9
				c0.1-0.9,0.6-0.7,1.2-1c0.7-0.3,1.5-0.8,2-0.9c3.5,0.1,7.1,0.8,10.7,1.4c0.5,0.1,0.9,0.2,1.3,0.5c2,0,4.1,0.8,6.1,1.4
				c0.6,0.1,1.1,0.2,1.7,0.3c0.5,0.1,1.1,0.3,1.6,0.4c3,0.8,6.6,1.8,9.9,3c0.6,0.2,1.3,0.3,1.9,0.6c2.8,1.2,5.9,2.4,8.1,3.8
				c1.5,0.9,3,1.8,4.5,2.9c1.5,1.1,2.9,2.4,4.1,3.8c0.4,0.8,1.2,1.8,1.6,2.6c1.2,2.1,2.3,4.7,1.9,7c-0.1,0.5-0.4,1.2-0.5,1.7
				c-0.2,0.6-0.3,1.2-0.7,1.6c-0.3,0.3-1,0.3-1.1,0.7c-0.9-0.1-2.3,0.2-2.6-0.6c-0.2-0.5,0.2-1.2,0.4-1.8c0.4-1.9-0.2-4.2-1.4-6.3
				c-1.2-2-2.9-3.7-4.5-5c-1.2-1-2.7-1.6-3.7-2.7c-1.4-0.5-2.7-1.3-4-1.9c-4.2-1.9-8.9-3.1-13.5-4.4c-2.5-0.7-5-1.4-7.8-2.2
				c-4.8-1.3-9.5-2.3-14.3-3.5C528.5,422.7,527.7,422.3,527.1,422.5z"/>
			<path class="st1" d="M525.7,424.1l0.1,0.2c-0.1,0.2-0.2-0.3-0.3-0.4c-0.1-0.2-0.4-0.5-0.3-0.7c0.2-0.2,0.4-0.5,0.7-0.6
				c0.8-0.4,0.9,0,1.5,0.3c0.6,0.3,1.5,0.6,1.8,0.8c1.9,2.3,4,4.7,6.5,6.7c0.3,0.3,0.6,0.5,0.8,1c1.6,0.8,3,2.2,4.5,3.3
				c0.4,0.3,0.9,0.5,1.4,0.8c0.4,0.2,0.9,0.5,1.3,0.7c2.5,1.3,5.5,2.9,8.5,4.1c0.5,0.2,1.1,0.3,1.7,0.6c2.5,1.2,5.3,2.1,7.5,2.8
				c2.9,1,6,1.8,9,2.7c0.6,0.5,1.7,0.7,2.4,1c1.9,0.8,4,1.5,5.5,2.9c0.3,0.3,0.7,0.8,1.1,1.2c0.4,0.4,0.9,0.7,1.1,1.2
				c0.1,0.4,0,1.1,0.3,1.3c-0.4,0.8-0.4,2.3-1.5,2.3c-0.7,0-1.3-0.8-1.8-1.2c-3.6-2.6-9-4.1-13.1-5.5c-1.5-0.5-3.2-0.7-4.4-1.6
				c-1.5-0.3-2.9-0.9-4.2-1.4c-4.3-1.7-8.8-3.3-13-5.6c-2.3-1.3-4.5-2.7-6.7-4.5c-3.8-3.1-7.3-6.7-9.5-11
				C526.4,425.2,526.1,424.4,525.7,424.1z"/>
			<path class="st1" d="M527.5,425.1l0.2,0.1c0,0.2-0.2-0.2-0.4-0.3c-0.2-0.2-0.5-0.3-0.5-0.5c0.1-0.3,0.2-0.6,0.4-0.8
				c0.6-0.6,0.9-0.3,1.5-0.2c0.6,0.1,1.6,0.1,2,0.2c2.5,1.6,5.2,3.4,8,4.7c0.4,0.2,0.7,0.4,1,0.7c1.7,0.4,3.3,1.4,5.1,2
				c0.5,0.1,1,0.2,1.5,0.4c0.5,0.1,0.9,0.3,1.4,0.4c2.6,0.6,5.9,1.2,9.2,1.9c0.6,0.1,1.2,0.1,1.8,0.3c2.8,0.8,5.9,1.6,8.1,2.6
				c3,1.3,6,2.9,8.7,5.1c0.4,0.7,1.4,1.4,1.9,2.1c1.4,1.6,3,3.5,3.4,5.6c0.1,0.5,0.1,1.1,0.1,1.7c0.1,0.6,0.2,1.1,0,1.7
				c-0.1,0.4-0.8,0.8-0.7,1.1c-0.9,0.4-1.9,1.4-2.6,0.7c-0.5-0.4-0.4-1.2-0.5-1.9c-0.5-2-1.7-3.9-3.3-5.6c-1.6-1.7-3.4-3-5.2-4.1
				c-1.2-0.8-2.7-1.2-3.8-2.1c-1.3-0.3-2.6-0.9-3.9-1.3c-4.1-1.3-8.7-1.6-13.2-2.7c-2.5-0.6-5-1.4-7.5-2.6c-4.4-2-8.4-4.5-11.8-7.9
				C528.5,425.9,528,425.2,527.5,425.1z"/>
		</g>
		<g id="Man">
			<g id="Hands">
				<path class="st1" d="M654.6,503.3l-0.2,0.7c-0.3,0.4,0.3-0.9,0.5-1.5c0.3-0.8,0.4-1.8,0.7-2.2c0.4-0.3,0.7-0.6,1.1-0.5
					c0.8,0.3,0.4,1.7,0.2,3.5c-0.2,2-0.7,4.6-1.1,5.9c-1.2,2.6-2.6,5.1-4.6,7.5c-0.5,0.6-1,1.1-1.6,1.7c-0.6,0.5-1.1,1.1-1.8,1.6
					c-1.2,1-2.8,1.9-4.5,2.5c-1.7,0.7-3.8,0.9-5.7,0.5c-1.9-0.4-3.5-1.1-4.9-1.9c-1.4-0.8-2.6-1.8-3.8-2.9c-0.3-0.3-0.6-0.6-0.9-0.9
					l-0.3-0.3l-0.2-0.2l-0.3-0.4c-0.5-0.6-0.9-1.2-1.3-1.8c-0.9-1.4-1.6-2.6-2.2-4.1c-0.4-0.7-0.8-1.4-1.2-2.2
					c-0.2-0.4-0.4-0.9-0.5-1.3c-0.1-0.3-0.2-0.7-0.4-1c-0.5-1.4-1.1-2.8-1.6-4.3c-1.2-2.9-2.4-5.9-3.8-8.5c-0.8-1.5-1.7-3-2.5-4.4
					c-0.8-1.4-1.7-2.8-2.5-4c-2.5-3.7-5.6-7.6-9.3-10.6c-1.9-1.5-3.9-2.7-6-3.4c-1.1-0.4-2.2-0.7-3.2-0.8c-1-0.1-1.9,0-2.4,0.2
					c-0.2,0.1-0.4,0.2-0.5,0.3c-0.1,0.1-0.2,0.2-0.3,0.4c-0.2,0.4-0.5,1-0.6,1.6c-0.2,0.8-0.3,1.7-0.3,2.6c0,0.5,0,0.9,0.1,1.4
					c0,0.5,0.1,0.9,0.2,1.4c0.4,1.8,1.3,3.6,2.3,5.4c2.1,3.5,4.7,6.8,6.8,9.8c0.7,1,1.4,2.1,2.1,3.1c0.7,1.1,1.4,2.1,2.1,3.4
					c1.3,2.5,2.1,5,2.9,7.5c1.5,4.9,2.8,9.9,4.1,14.9c0.3,2.3,1.2,5.7,1.7,8.2c1.3,6.3,2.7,13.4,2.8,19.5c0,1.4-0.1,3-0.1,4.6
					c0,1.6,0.1,3.5-0.2,4.6c-0.2,0.8-0.9,1.1-0.8,2.3c-1-0.2-2.2,1.4-2.9-1.8c-0.5-2.1-0.3-4.6-0.4-6.7c-0.4-6.8-1.5-14.5-3.2-22.1
					c-1.7-7.6-3.6-15.3-5.5-21.9c-0.7-2.3-1.6-4.7-2.6-6.8c-0.5-1-1.2-2-1.8-3.1c-0.6-1-1.2-2-1.8-3c-2.8-3.7-5.9-7.5-8.1-11.8
					c-1.8-3.4-2.9-7.6-2.3-11.7c0.2-1,0.4-2.1,0.9-3.1c0.5-1,1.2-2,2.3-2.8c1-0.7,2.2-1.1,3.3-1.2c1.1-0.2,2.2-0.1,3.2,0
					c4,0.6,7.7,2.4,10.8,4.8c3.1,2.4,5.7,5.2,8,8.2c5.1,6.7,8.9,14,12.2,22.4c0.7,1.8,1.4,3.7,1.9,5.5c0.6,1.7,1.5,3.3,2.4,4.9
					c0.5,0.8,1,1.6,1.5,2.3c0.3,0.4,0.5,0.7,0.8,1.1c0.2,0.3,0.5,0.6,0.9,0.9c1.3,1.2,2.8,2.3,4.3,3.1c1.6,0.8,3.2,1.1,4.9,0.7
					c1.7-0.4,3.2-1.3,4.7-2.4c2.8-2.3,5-5.4,6.8-8.7c0.2-0.2,0.6-0.9,1-1.7C654.1,505.1,654.5,504.1,654.6,503.3z"/>
				<path class="st1" d="M656.3,498.6l0.1-1c0.2-0.6-0.1,1.3-0.2,2.2c-0.2,1.2-0.3,2.5-0.5,3.1c-0.4,0.5-0.7,0.9-1.1,0.8
					c-0.9-0.3-0.4-2-0.5-4.3c0-0.6-0.1-1.3-0.1-1.9c-0.1-0.7-0.2-1.3-0.3-1.9c-0.2-1.2-0.5-2.3-0.6-3.1c-0.4-3.1-1.4-5.9-3.3-7.7
					c-0.5-0.5-1-0.8-1.6-1.2c-0.6-0.4-1.4-0.8-2.3-1.3c-1.7-0.9-3.4-2-5-3.2c-1.6-1.2-3.1-2.5-4.5-3.9c-1.4-1.4-2.7-3.1-3.8-4.4
					c-0.5-0.6-1-1.2-1.6-1.7c-0.6-0.5-1.2-0.9-1.8-1.4c-0.6-0.4-1.3-0.7-2-1.1c-0.7-0.3-1.4-0.6-2.2-0.9c-0.9-0.3-1.7-0.5-2.4-0.7
					c-0.8-0.2-1.6-0.4-2.5-0.7c-3.6-0.4-7.8-0.5-12.2-0.9c-4.4-0.3-9.2-0.9-13.8-3c-0.6-0.3-1.2-0.7-1.8-1.1
					c-0.6-0.4-1.1-0.7-1.7-1.2c-1.1-0.9-2.2-2-3.1-3.3c-0.8-1.3-1.4-2.9-1.6-4.6c-0.1-1.6,0.1-3.1,0.8-4.7c0.5-1.1,1.3-2.3,2.3-3.1
					c1-0.8,2.1-1.4,3.2-1.7c2.2-0.7,4.2-0.8,6.1-0.7c1.8,0.1,3.5,0.2,5.3,0.3c1.8,0.2,3.6,0.3,5.4,0.5c7.2,0.8,14.6,2.1,21.7,4.3
					l2.8,0.9c0.5,0.2,0.9,0.3,1.4,0.5l0.7,0.3l0.4,0.2l0.2,0.1l0.2,0.1l0.2,0.1c0.1,0.1,0.3,0.2,0.4,0.3l-0.6-0.3
					c0.7,0.4,1.4,0.7,2.1,1.1c2.8,1.5,5.5,3.2,8.2,4.9c2.6,1.8,5.1,3.7,7.4,5.7c4.7,4,8.6,8.3,11.7,12.3c2.1,2.6,4.1,5.4,6,8.1
					c1.9,2.7,3.9,5.6,5.7,8.6c1.8,3,3.4,6.4,4.4,10c1,3.6,1.5,7.4,1.3,11.2c-0.2,1.7-0.5,3.8-1,5.9c-0.5,2.1-1,4.1-1.6,5.7
					c-1.3,4.1-2.7,8.4-3.9,12.6c-1.3,4.2-2.5,8.4-3.8,12.3c-0.6,1.7-1.4,3.7-2.1,5.7c-0.7,2-1.3,4.4-2,5.8c-0.5,1-1.3,1.1-1.7,2.7
					c-0.8-0.6-2.6,1.1-2.1-3.4c0.4-3,1.5-6.1,2.3-8.8c1.3-4.4,2.7-9.2,4.2-14c1.4-4.9,3.1-10,4.7-14.9c0.8-2.5,1.4-5,1.8-7.4
					c0.3-2.5,0.4-4.9,0.1-7.3c-0.5-4.8-2.3-9.3-4.6-13.2c-1.6-2.8-3.6-5.6-5.5-8.4c-1.9-2.8-3.8-5.4-5.5-7.9
					c-4-4.7-8.4-9.4-13.1-13.2c-4.6-3.8-9.7-7-15.1-9.6l0.7-1.4l-0.5,0.7c-0.1,0.2-0.5,0.6-0.4,0.6l0,0l0,0c0,0,0.1,0,0.1,0
					l-0.1-0.1l-0.3-0.1l-0.6-0.2l-1.2-0.4c-0.8-0.3-1.6-0.6-2.4-0.8c-1.6-0.5-3.2-1-4.9-1.4c-3.3-0.8-6.6-1.5-10-2
					c-3.4-0.5-6.7-0.9-10.1-1.2c-1.7-0.2-3.4-0.2-5.1-0.3c-1.7-0.1-3.3-0.1-4.8,0.1c-1.2,0.2-2.2,0.6-2.9,1.2
					c-0.7,0.6-1.1,1.5-1.2,2.6c-0.1,1.1,0.1,2.1,0.6,3.1c0.5,1,1.3,1.9,2.3,2.6c0.2,0.2,0.5,0.4,0.8,0.6l0.8,0.5l0.8,0.5
					c0.3,0.2,0.6,0.3,0.9,0.4c1.2,0.6,2.4,0.9,3.8,1.2c2.6,0.6,5.5,0.9,8.4,1.1c2.6,0.2,5.2,0.3,7.8,0.6c2.6,0.2,5.2,0.7,7.8,1.4
					c2.6,0.6,5,1.9,7.2,3.3c1.1,0.8,2.2,1.6,3,2.6c0.9,1,1.7,2,2.5,3c1.5,2,3.3,3.7,5.2,5.3c1.9,1.6,4,3,6.1,4.2
					c1.1,0.6,2.2,1.3,3.2,2.2c1,0.9,1.8,2,2.5,3.1c1.3,2.3,1.9,4.9,2.1,7.5C656.5,492.9,656.4,496.4,656.3,498.6z"/>
				<path class="st1" d="M675.7,487.1l-0.2-0.3c0.1-0.3,0.2,0.4,0.3,0.7c0.2,0.4,0.5,0.8,0.4,1.1c-0.2,0.3-0.3,0.6-0.7,0.7
					c-0.8,0.3-1-0.3-1.7-1c-0.7-0.7-1.8-1.5-2.2-2c-2.5-4.5-5.2-9.4-8-13.9c-0.4-0.6-0.7-1.2-0.9-1.9c-1.8-2.2-3.4-5.3-5.1-7.8
					c-0.5-0.7-1-1.4-1.5-2.1c-0.5-0.7-0.9-1.3-1.4-2c-1.4-1.8-2.9-3.8-4.6-5.7c-1.6-1.9-3.4-3.7-5.3-4.9c-0.7-0.5-1.5-0.8-2.2-1.2
					c-1.7-1-3.7-1.6-5.6-1.9c-2-0.3-4-0.5-5.7-0.6c-2.4-0.1-4.8-0.2-7.4-0.2c-2.6,0-5,0-7.5,0.1c-1.1-0.2-2.8-0.1-4.1-0.1
					c-3.1,0-6.6,0.4-9.6,0c-0.7-0.1-1.5-0.4-2.3-0.5c-0.8-0.1-1.7-0.1-2.4-0.4c-0.4-0.2-0.7-0.9-1.3-0.9c0-0.9-1-2.2,0.6-2.8
					c1.1-0.4,2.4-0.1,3.5-0.1c3.6,0.1,7.5-0.1,11.5-0.2c4-0.1,8.1-0.1,11.5,0c2.5,0.1,5.2-0.2,7.5,0.4c2.4-0.1,4.9,0.2,7.3,0.7
					c3.8,0.8,7.6,2.4,10.7,4.9c3.1,2.5,5.5,5.4,7.8,8.4c2.5,3.3,4.7,6.8,7,10.6c4,6.7,7.6,13.3,10.5,20.4
					C674.8,485.1,675.2,486.4,675.7,487.1z"/>
				<path class="st1" d="M195.4,635.2l0.9-1.2c0.7-0.6-1.3,1.7-2.1,2.7c-1.1,1.5-2.3,3.3-2.9,4c-0.7,0.6-1.4,1-1.6,0.8
					c-0.6-0.6,1.1-3,3.1-6.3c2.1-3.5,5-8,6.7-10.1c1.8-2.2,3.8-4.3,5.6-6.4c1.9-2.1,3.7-4.2,5.3-6.3c3.2-4.5,6-9.4,8.4-14.5
					c1.2-2.6,2.2-5.2,3.2-7.9c1-2.7,1.9-5.4,2.8-8.1c1.6-5.5,2.9-11,3.6-16.5c0.4-3.1,0.6-5.7,0.6-8.4c-0.1-1.4-0.4-2.8-0.8-3.7
					c-0.2-0.4-0.4-0.7-0.2-0.4c0,0,0.1,0.1,0.1,0.1c0,0,0,0,0,0c-0.1,0-0.2,0-0.3-0.1c-0.3-0.1-0.6-0.1-0.9-0.1
					c-1.2-0.2-2.6-0.1-3.7,0.3c-0.3,0.1-0.6,0.2-0.8,0.3l-0.4,0.2c0,0,0,0-0.1,0c-0.2,0.1-0.6,0.6-1,1.2c-0.8,1.1-1.6,2.5-2.2,4
					c-0.7,1.5-1.3,3-1.9,4.6c-1.2,3.1-2.2,6.3-3.1,9.5c-1.1,3.8-2.7,7.6-4.6,11c-1.9,3.3-4.1,6.4-6.8,9.2c-2,2-4.3,3.9-7.4,5.1
					c-0.7,0.4-1.6,0.5-2.5,0.7c-0.4,0.1-0.9,0.1-1.3,0.1c-0.5,0-0.9,0.1-1.4,0c-1.9-0.1-3.6-0.6-5.2-1.4c-3.1-1.6-5.4-3.9-7.2-6.6
					c-0.9-1.3-1.7-2.7-2.4-4.2l-0.5-1.1l-0.4-1.2c-0.3-0.9-0.5-1.9-0.5-2.8c-0.1-1.8,0-3.4,0.3-5c0.2-1.6,0.6-3.1,1-4.5
					c0.8-2.9,1.9-5.7,3-8.5c2.3-5.5,4.9-10.7,7.9-15.7c1.7-2.9,3.5-5.9,5.5-8.7c0.2-0.3,0.5-0.5,0.7-0.7l0,0c0.7-0.5,1.3-1,2-1.4
					c7.9-5.6,15.6-11.6,22.2-18c3.2-3.2,6.3-6.5,8.2-9.8c0.4-0.8,0.9-1.6,1.1-2.4c0.2-0.4,0.2-0.7,0.3-1c0-0.3,0-0.6,0-0.8
					c-0.1-0.4-0.1-0.7-0.5-1.1c-0.3-0.4-0.9-0.8-1.4-1c-0.6-0.2-1.2-0.3-2-0.1c-0.8,0.1-1.8,0.7-2.8,1.2c-2,1.2-4.1,2.7-6.2,4.2
					c-4.2,3.1-8.6,6.4-13,9.5c-2.3,1.5-4.5,3.1-6.9,4.5c-1.2,0.7-2.4,1.5-3.6,2.1l-3.5,2c-1.1,0.6-1.9,1.2-2.8,2
					c-0.9,0.8-1.8,1.7-2.6,2.6c-1.6,1.8-2.9,3.9-4.2,6.2c-2.5,4-5.6,10.8-7.9,15.6c-2.9,6.2-6.1,12.7-8.8,19.1
					c-2.7,6.5-5.1,13-7.3,19c-1,2.7-2.3,5.9-3.3,9c-1.1,3.2-2.1,7-3,9.2c-0.6,1.6-1.5,1.8-2,4.4c-0.8-0.9-2.8,2-1.7-5.1
					c0.8-4.7,2.5-9.7,3.9-14c2.3-7,4.9-14.4,7.9-22c3.1-7.6,6.8-15.1,10.4-22.7c1.8-3.8,3.6-7.6,5.5-11.4c2-3.7,4-7.5,6.9-10.8
					c1.4-1.6,2.9-3.1,4.8-4.4c1.9-1.3,3.6-2.1,5.3-3.1c3.4-1.9,6.6-4,9.6-6c4.4-2.9,8.8-6.3,13.1-9.5c2.2-1.6,4.4-3.2,6.8-4.6
					c0.6-0.3,1.2-0.6,1.9-0.9c0.7-0.2,1.3-0.6,2.1-0.7c1.4-0.4,3.1-0.4,4.5,0.1c0.4,0.1,0.8,0.2,1.1,0.4c0.4,0.2,0.7,0.3,1,0.6
					c0.6,0.4,1.2,0.9,1.8,1.5c1.1,1.2,1.7,3,1.7,4.6c0,1.6-0.5,3.1-1.1,4.3c-0.6,1.3-1.3,2.5-2,3.6c-3.1,4.4-6.8,8-10.4,11.3
					c-7,6.3-14.5,12-22.1,17.5l0.4-0.4c-3.1,4.5-6,9.2-8.5,14.1c-2.5,4.9-4.7,10-6.4,15.1c-0.8,2.6-1.5,5.2-1.7,7.8
					c-0.1,1.3-0.1,2.5,0.2,3.6c0.3,1.1,0.8,2.4,1.4,3.5c1.2,2.3,2.8,4.3,4.8,5.9c2,1.5,4.3,2.4,6.5,2c1.8-0.3,3.6-1.2,5.2-2.4
					c1.6-1.2,3.1-2.7,4.4-4.3c2.7-3.2,4.9-6.9,6.6-10.9c0.4-1,0.8-2,1.2-3c0.3-1,0.7-2,1-3.1c0.7-2.2,1.3-4.3,2.1-6.5
					c0.8-2.2,1.6-4.3,2.6-6.5c1-2.2,2-4.3,3.8-6.4c0.4-0.4,0.8-0.9,1.4-1.3c0.3-0.2,0.6-0.4,0.9-0.5c0.3-0.1,0.5-0.2,0.8-0.3
					c1.1-0.4,2.2-0.6,3.4-0.7c1.1-0.1,2.3,0,3.4,0.1c0.6,0.1,1.1,0.2,1.7,0.4c0.3,0.1,0.7,0.3,1,0.5c0.3,0.2,0.6,0.5,0.8,0.8
					c0.9,1.1,1.2,2.2,1.4,3.3c0.2,1.1,0.4,2.2,0.4,3.2c0.1,2.1,0.1,4.2-0.1,6.3c-0.7,8.3-2.7,16.2-5.4,23.9
					c-1.4,3.8-2.8,7.6-4.5,11.3c-1.7,3.7-3.5,7.3-5.7,10.8c-1.1,1.7-2.2,3.4-3.4,5.1c-1.2,1.7-2.5,3.3-3.8,4.8
					c-2.7,3-5.6,5.9-8.3,8.9C201.1,628.1,197.3,632.3,195.4,635.2z"/>
				<path class="st1" d="M195.1,594.6l0-0.1c0.2-0.1,0,0.2,0,0.3c0,0.2,0,0.4-0.1,0.4c-0.3,0-0.6,0.1-0.9,0c-0.9-0.1-0.8-0.4-1-0.8
					c-0.3-0.4-0.8-1-0.9-1.2c0-2,0.4-4.1,0.6-6.2c0-0.3,0.1-0.5,0.4-0.8c-0.2-1.2,0.4-2.4,0.6-3.6c0.1-0.3,0-0.7,0.1-1
					c0.1-0.3,0.1-0.6,0.2-0.9c0.2-1.8,0.8-3.9,1-5.7c0.1-0.3,0-0.7,0-1c0.2-0.7,0.2-1.3,0.1-1.8c-0.1-0.4-0.2-0.7-0.4-0.9
					c-0.1-0.1,0-0.1-0.1-0.1c0,0-0.1-0.1-0.3-0.2c-0.3-0.2-0.7-0.4-1.1-0.6c-0.8-0.4-1.7-0.8-2.5-1.3c-0.3-0.4-0.9-0.7-1.2-1
					c-1-0.7-2.2-1.4-2.7-2.7c-0.1-0.3-0.2-0.8-0.3-1.1c-0.1-0.4-0.4-0.7-0.3-1.1c0-0.3,0.4-1,0.2-1.2c0.5-0.8,0.9-2.1,1.7-2.1
					c0.5,0,0.6,0.7,0.9,1.1c1.6,2.5,4.7,3.8,7,5.2c0.4,0.3,0.9,0.5,1.4,0.8c0.2,0.2,0.5,0.3,0.7,0.6c0.2,0.3,0.5,0.6,0.5,0.9
					c0.9,0.8,1.3,2.1,1.4,3.2c0.2,1.7,0,3.2-0.2,4.7c-0.2,1.5-0.4,2.8-0.7,4.2c-0.3,1.5-0.6,3-1.1,4.7c-0.7,2.8-1.3,5.6-2.3,8.4
					C195.2,593.8,194.9,594.2,195.1,594.6z"/>
				<path class="st1" d="M217.7,555.1l0-0.2c0.2-0.1,0,0.2-0.1,0.3c-0.1,0.2,0,0.4-0.2,0.5c-0.3,0-0.6,0-0.9,0
					c-0.9-0.2-0.7-0.5-1-0.8c-0.3-0.4-0.8-0.9-1-1.2c-0.1-1.9-0.2-3.9-0.8-5.5c-0.1-0.2-0.1-0.4,0-0.7c-0.7-0.8-0.8-1.9-1.4-2.7
					c-0.2-0.3-0.4-0.5-0.6-0.7c-0.2-0.2-0.4-0.4-0.5-0.6c-1-1.1-2.4-2-3.8-2.2c-0.3,0-0.5,0.1-0.8,0c-1.3-0.2-2.8,0.3-4.1,0.8
					c-0.8,0.3-1.8,0.8-2.7,1.3c-0.8,0.5-1.6,1-2.4,1.6c-0.5,0-1,0.4-1.4,0.7c-1.1,0.6-2.1,1.5-3.5,1.7c-0.3,0-0.8,0-1.2,0
					c-0.4,0-0.8,0.2-1.2,0.1c-0.3-0.1-0.9-0.6-1.2-0.4c-0.6-0.7-1.9-1.4-1.6-2.1c0.2-0.5,1-0.6,1.5-0.8c1.6-0.6,3.1-1.6,4.6-2.5
					c1.5-0.9,3-1.9,4.4-2.6c1-0.5,1.9-1.2,3-1.2c0.9-0.6,2-0.9,3.1-1.1c1.7-0.3,3.6-0.4,5.4,0c1.8,0.4,3.5,1.3,4.8,2.6
					c1.4,1.4,2.5,2.9,3.3,4.8c1.4,3.3,1.6,6.8,0.7,10C217.8,554.2,217.5,554.8,217.7,555.1z"/>
				<path class="st1" d="M204.7,549.3L204.7,549.3C204.5,549.2,204.7,549.3,204.7,549.3c0.1-0.1,0.2-0.2,0.3-0.2
					c0.2,0.2,0.4,0.4,0.7,0.6c0.6,0.7,0.4,0.7,0.5,1.1c0.1,0.4,0.3,1,0.3,1.2c-0.6,1-1.4,1.7-2.1,2.5c-0.1,0.1-0.2,0.2-0.5,0.1
					c-0.2,0.7-0.9,0.9-1.4,1.3c-0.1,0.1-0.2,0.3-0.3,0.4l-0.4,0.4c-0.7,0.7-1.5,1.4-2.3,2.2c-0.1,0.1-0.2,0.4-0.4,0.5
					c-0.8,0.5-1.4,1.3-1.9,1.8c-0.7,0.7-1.2,1.6-1.8,2.4c-0.3,0-0.5,0.3-0.7,0.5c-0.5,0.4-1,0.9-2.1,0.8c-0.2,0-0.6-0.2-0.9-0.2
					c-0.3,0-0.5,0-0.9-0.2c-0.3-0.1-0.9-0.6-1-0.6c-0.7-0.6-1.8-1.4-1.8-1.9c0-0.3,0.6-0.2,0.9-0.2c1.9-0.2,3-1.7,3.9-2.8
					c0.4-0.4,0.5-1,1.2-1c0.2-0.5,0.6-0.8,1-1.1c1.2-1,2.1-2.3,3.2-3.3c0.6-0.6,1.3-1.1,2.1-1.6c1.3-0.9,2.5-1.9,4-2.6
					C204.4,549.6,204.7,549.6,204.7,549.3z"/>
				<path class="st1" d="M204.6,561.8L204.6,561.8C204.4,561.8,204.6,561.8,204.6,561.8c0.1-0.1,0-0.2,0.2-0.1
					c0.2,0.1,0.5,0.2,0.8,0.4c0.8,0.4,0.7,0.4,0.9,0.7c0.2,0.3,0.7,0.7,0.8,0.9c-0.1,0.8-0.5,1.5-0.9,2.2c-0.1,0.1-0.1,0.2-0.4,0.1
					c0.1,0.6-0.5,0.8-0.8,1.1c-0.1,0.1-0.1,0.2-0.2,0.3l-0.2,0.3c-0.4,0.5-1.1,1.1-1.6,1.5c-0.1,0.1-0.1,0.3-0.3,0.3
					c-0.6,0.3-1.1,0.8-1.6,1c-0.6,0.4-1.1,0.9-1.7,1.4c-0.3-0.1-0.5,0-0.6,0.1c-0.5,0.1-0.9,0.3-1.7-0.3c-0.2-0.1-0.4-0.5-0.6-0.6
					c-0.2-0.2-0.4-0.3-0.6-0.7c-0.2-0.3-0.4-1-0.5-1c-0.3-0.9-0.9-2.2-0.9-2.5c0-0.2,0.3,0.2,0.5,0.4c1.2,1,2,0.2,2.6-0.2
					c0.2-0.1,0.3-0.6,0.8-0.3c0.1-0.3,0.4-0.4,0.6-0.5c0.7-0.4,1.2-1.1,1.8-1.7c0.3-0.3,0.7-0.6,1.1-0.9c0.7-0.5,1.3-1.2,2.2-1.7
					C204.5,562,204.8,562,204.6,561.8z"/>
				<path class="st1" d="M210.9,569.4L210.9,569.4C210.9,569.2,210.9,569.4,210.9,569.4c0.1,0.1,0.3,0.1,0.3,0.2
					c-0.1,0.3-0.2,0.5-0.3,0.8c-0.4,0.8-0.5,0.7-0.8,0.8c-0.4,0.2-0.9,0.6-1.1,0.7c-1.3-0.4-2.5-1.3-3.6-2.4
					c-0.1-0.2-0.2-0.3-0.2-0.6c-0.4-0.1-0.8-0.7-1-1.2c-0.2-0.5-0.3-1-0.4-1.4c-0.1-0.2-0.2-0.4-0.3-0.6c-0.1-0.2-0.1-0.4-0.2-0.6
					c-0.4-1-0.6-2.3-0.8-3.4c0-0.2-0.2-0.4-0.2-0.6c0-1-0.3-1.9-0.4-2.7c-0.1-1-0.6-2-0.9-3c0.2-0.3,0.1-0.6,0.1-0.9
					c0-0.7-0.1-1.5,0.7-2.3c0.2-0.2,0.5-0.4,0.8-0.6c0.2-0.2,0.4-0.5,0.8-0.6c0.1,0,0.2,0,0.3,0c0.1,0,0.1,0,0.2,0c0,0,0.1,0,0.1,0
					c0,0,0.1,0,0,0c0,0,0,0-0.1,0c0,0,0,0,0,0c0,0-0.1,0.1-0.3,0.3c0.1-0.1-0.1,0.1,0,0c0,0,0.1-0.1,0.2-0.2c0.1-0.1,0-0.1,0.1-0.1
					c0.1,0.1,0.3,0.1,0.7,0.1c0.3,0,0.5,0,0.9,0c0.4,0,0.7,0,1.1,0c0.2,0,0.3,0,0.5,0c0,0,0,0,0,0c0,0-0.1,0-0.1,0
					c-0.1,0.1-0.3,0.2-0.4,0.3c-0.6,0.6-0.7,1.5-0.7,2.3c0,0.8,0.3,1.6,0.4,2.3c0.1,0.5,0.5,1,0.1,1.5c0.3,0.4,0.3,0.9,0.4,1.4
					c0.2,1.5,0.7,2.9,1,4.3c0.2,0.8,0.3,1.6,0.5,2.2c0,0.1,0.1,0.3,0.1,0.4c0.1,0.1,0.2,0.3,0.3,0.4c0.2,0.3,0.4,0.6,0.6,0.9
					c0.4,0.6,0.9,1.1,1.5,1.7C210.5,569.2,210.7,569.5,210.9,569.4z"/>
			</g>
			<g id="Head">
				<path id="Hair" d="M273.5,494.1c2.5,13.7,6.4,29.3,12.3,46.1c4.4,12.4,9.1,23.5,13.9,33.3c20.9-0.6,41.9-1.3,62.8-1.9
					c7.2-16.6,14.5-33.2,21.7-49.7c-2.3-2.3-9.9-10.5-11.1-23.5c-0.9-10,2.4-17.7,4-20.9c-4.4,0.3-10.9,0.8-18.7,1.4
					c-13.7,1.1-27.8,2.1-36.2,3.2C310.5,483.5,293.8,486.6,273.5,494.1z"/>
				<g id="Hat">
					<path class="st1" d="M441,459.4c-0.1-0.5-0.2-1-0.3-1.4c0-0.5,0.1,0,0.3,0.8c0,0.4,0.1,0.8,0.2,1.3c0,0.4,0,0.8,0,1.2
						c0.1,1.7-0.4,3.8-1,4.6c-0.6,0.7-1.2,1-1.5,0.8c-0.2-0.2-0.2-0.4-0.2-0.7c0-0.3,0.2-0.7,0.3-1.2c0.2-0.9,0.5-2.2,0.2-3.7
						c-0.2-1.6-1-3.3-1.9-4.8c-0.9-1.5-2-2.7-2.7-3.4c-2.8-3.5-6.9-5.9-11.5-7.3c-4.7-1.4-9.8-2.1-15-2.3
						c-10.5-0.5-21.3,0.3-31.8,1.2c-3,0.3-5.5,0.5-8.3,0.6c-5.7,0.8-11.9,1.5-18.2,2.2c-6.3,0.7-12.8,1.4-18.8,2.2
						c-3.4,0.4-6.8,1-10.2,1.5c-3.2,0.4-6.5,1-9.6,1.5c-9.1,1.6-19,3.4-28.7,6.3c-4.8,1.5-9.7,3.3-13.6,5.9c-1,0.6-1.8,1.4-2.5,2.1
						c-0.7,0.8-1.3,1.6-1.9,2.6c-1.2,2-2,4.1-2.4,6.4c-0.2,0.8-0.2,1.6-0.3,2.5c0,0.8-0.1,1.7,0,2.5c0,0.8,0.2,1.6,0.3,2.4
						c0.2,0.8,0.4,1.5,0.7,2.2c1.2,3.4,3.9,5.7,7.3,6.1c3.5,0.4,7.7-0.9,11.8-2.1c4.1-1.3,8.2-2.6,12-3.8c3.9-1.2,7.7-2.3,11.2-3.2
						c2.3-0.6,4.8-1.2,7.3-1.6c2.4-0.4,4.9-0.8,7.3-1.1c4.9-0.6,9.8-1.2,14.8-1.6c9.9-1,19.9-1.8,29.9-2.6c4.5-0.1,11.4-0.7,16.4-1
						c6.3-0.4,12.9-0.8,19.5-1.1c6.5-0.3,13-0.6,18.9-0.8c2.6-0.1,5.8-0.1,8.8-0.5c0.8-0.1,1.5-0.2,2.3-0.4c0.4-0.1,0.8-0.1,1.2-0.2
						c0.4-0.1,0.7-0.2,1.1-0.3c0.4-0.1,0.7-0.2,1.1-0.3c0.3-0.1,0.7-0.2,1-0.3c0.3-0.1,0.6-0.2,0.9-0.3c0.3-0.1,0.5-0.2,0.8-0.3
						c0.3-0.1,0.7-0.2,1-0.3c0.3-0.1,0.6-0.2,0.9-0.3c0.3-0.1,0.6-0.2,1-0.5c0.3-0.3,0.7-0.6,1.1-1.1c0.2,0.6,1,0.4,1.3,0.8
						c0.1,0.2,0.1,0.6-0.2,1.4c-0.1,0.2-0.2,0.4-0.4,0.7c-0.2,0.2-0.4,0.5-0.6,0.7c-0.2,0.3-0.5,0.6-0.8,0.9
						c-0.3,0.3-0.7,0.6-1.1,0.9c-2.2,1.6-4.8,2.4-7.1,2.8c-1.2,0.3-2.4,0.4-3.5,0.6c-1.1,0.2-2.2,0.2-3.3,0.4
						c-6.8,0.7-14,0.9-21.5,1.3c-7.4,0.4-15.1,0.8-22.8,1.3c-15.4,1-30.9,2.2-44.4,3.4c-4.9,0.4-9.9,1-14.8,1.6
						c-4.9,0.7-9.7,1.3-13.9,2.2c-4.4,1.2-8.9,2.6-13.4,4c-4.4,1.4-8.8,2.9-13.3,4.1c-1.8,0.5-3.6,0.9-5.5,1.2
						c-1.9,0.2-3.9,0.4-5.9,0.1c-2-0.4-4-1.2-5.7-2.4c-1.7-1.2-3-2.9-3.9-4.7c-0.5-0.9-0.8-1.8-1.2-2.8c-0.3-1-0.6-1.9-0.7-2.9
						c-0.3-1.9-0.3-3.9-0.2-5.9c0.1-1.9,0.6-3.8,1.2-5.7c0.4-0.9,0.7-1.8,1.1-2.7c0.2-0.4,0.4-0.9,0.6-1.3l0.8-1.3
						c1-1.7,2.4-3.2,3.9-4.5c1.5-1.3,3.2-2.2,4.9-3.1c0.8-0.5,1.7-0.8,2.6-1.2c0.9-0.4,1.7-0.8,2.6-1.1c0.9-0.3,1.7-0.7,2.6-1
						l2.6-0.9c7-2.3,14.2-3.8,21.4-5.2c8-1.6,15.9-2.7,24-3.8c4.1-0.5,8.2-1,12.3-1.5c4.2-0.5,8.4-0.9,12.7-1.4
						c15.1-1.6,30-3.3,45-3.6c7.5-0.1,15,0,22.4,1.4c3.7,0.7,7.4,1.7,10.8,3.4c1.7,0.8,3.3,1.8,4.8,3c1.5,1.2,2.9,2.5,4,4.1
						c0.3,0.5,1.2,1.8,2,3.5C440,455.8,440.7,457.8,441,459.4z"/>
					<path class="st1" d="M270.4,456.3l0.2-0.7c0.3-0.4-0.2,1-0.4,1.6c-0.2,0.9-0.3,2-0.5,2.4c-0.3,0.4-0.7,0.7-1,0.6
						c-0.9-0.2-0.6-1.7-0.5-3.6c0.1-2.1,0.1-4.8,0.3-6.1c2.7-11,8-22.4,15.3-31.9c0.5-0.7,1-1.3,1.5-1.9c0.5-0.6,1.1-1.1,1.6-1.6
						c1.9-2.6,4.4-5.1,7-7.5c1.4-1.1,2.8-2.3,4.1-3.4c1.4-1.1,2.9-2,4.3-3.1c0.8-0.5,1.5-1.2,2.3-1.7c0.8-0.5,1.6-1,2.4-1.5
						c1.5-1,3.2-1.8,4.7-2.7c9.1-4.9,21.1-8.4,32.7-9.3c2.1-0.2,4.3-0.3,6.4-0.4c10,0.2,20.2,1.9,27.8,4.7c2.5,1,5,1.8,7.5,3
						c2.5,1.1,4.9,2.4,7.3,3.7c4.7,2.8,9.3,6,13.5,9.8c0.8,0.9,1.9,2.1,3.1,3.3c1.1,1.1,2.2,2.4,3.1,3.4c4.6,5.3,8.9,11.9,11.1,18.1
						c0.5,1.4,0.9,3.1,1.4,4.7c0.5,1.6,1.1,3.5,1.1,4.8c0,0.9-0.6,1.3-0.3,2.6c-1,0-1.8,1.9-3.3-1.2c-1-2-1.5-4.4-2.2-6.5
						c-1.2-3.3-2.8-6.7-4.9-10c-1-1.7-2.1-3.3-3.3-5c-1.2-1.6-2.4-3.2-3.8-4.7c-5.3-6.1-11.7-11.3-17.9-14.9
						c-4.4-2.6-9.6-4.7-13.8-6.7c-4.7-1.3-9.5-2.8-14.2-3.4c-7.5-1.2-15.3-1.2-22.9-0.2c-7.6,1.1-15,3.3-22,6.3
						c-7.8,3.4-15,7.8-21.8,13.9c-6,5.3-11,11.6-15.1,18.3c-4.1,6.7-7.3,14-9.7,21.6C271.5,451.9,270.6,454.6,270.4,456.3z"/>
					<path class="st1" d="M300.5,484.2l0-0.1c0.2-0.1,0.1,0.1,0.1,0.2c0,0.1,0.1,0.3,0,0.4c-0.2,0.1-0.5,0.3-0.8,0.4
						c-0.8,0.3-0.8,0-1.2-0.1c-0.4-0.2-1.1-0.4-1.3-0.5c-0.8-1.5-1.2-3.2-1.7-4.9c-0.1-0.2-0.1-0.4,0.1-0.7c-0.6-0.8-0.5-2-0.6-2.9
						c0-0.3-0.2-0.5-0.2-0.8c0-0.3-0.1-0.5-0.1-0.8c-0.3-1.5-0.5-3.2-0.7-4.9c0-0.3-0.2-0.6-0.2-0.9c0-1.5-0.2-2.9-0.3-4.1
						c-0.1-1.5-0.4-3.1-0.6-4.7c0.2-0.4,0.2-0.9,0.2-1.3c0.1-1,0.1-2.1,1-3.1c0.2-0.2,0.6-0.4,0.8-0.7c0.3-0.2,0.4-0.5,0.9-0.7
						c0.3-0.1,1.1-0.1,1.1-0.3c0.9,0.1,2.3-0.1,2.6,0.4c0.2,0.3-0.3,0.7-0.6,1c-1.4,2-1.1,4.7-1,6.8c0,0.7,0.4,1.5,0,2.2
						c0.3,0.7,0.2,1.4,0.3,2.1c0.1,2.2,0.6,4.4,0.9,6.6c0.2,1.2,0.3,2.4,0.4,3.8c0.2,2.3,0.7,4.6,0.9,6.9
						C300.3,483.5,300.2,484,300.5,484.2z"/>
					<path class="st1" d="M329.3,480.6l0-0.1c0.2-0.1,0,0.2,0.1,0.3c0,0.1,0.1,0.3,0,0.4c-0.2,0.1-0.5,0.2-0.9,0.3
						c-0.9,0.2-0.8-0.1-1.2-0.3c-0.4-0.2-1.1-0.5-1.3-0.7c-0.7-1.7-1-3.6-1.4-5.5c-0.1-0.3-0.1-0.5,0.1-0.8
						c-0.5-0.9-0.3-2.2-0.5-3.3c0-0.3-0.1-0.6-0.2-0.9c0-0.3-0.1-0.6-0.1-0.9c-0.2-1.6-0.3-3.6-0.4-5.4c0-0.3-0.2-0.7-0.1-1
						c0.1-1.6,0-3.2,0-4.5c0-1.7-0.2-3.4-0.2-5.2c0.3-0.4,0.2-1,0.3-1.4c0.2-1.1,0.3-2.3,1.2-3.3c0.2-0.2,0.6-0.5,0.9-0.7
						c0.3-0.2,0.5-0.5,0.9-0.7c0.3-0.1,1.1-0.1,1.2-0.3c0.9,0.1,2.3,0,2.6,0.6c0.2,0.4-0.4,0.7-0.6,1c-1.5,2.1-1.4,5.1-1.4,7.4
						c0,0.8,0.3,1.7-0.2,2.5c0.2,0.8,0.1,1.6,0.1,2.3c-0.1,2.5,0.3,4.9,0.5,7.3c0.1,1.4,0.2,2.7,0.2,4.2c0.1,2.6,0.4,5.1,0.4,7.7
						C329.1,479.8,329,480.3,329.3,480.6z"/>
					<path class="st1" d="M364.8,477.7c0,0,0-0.1,0-0.1c0.2-0.1,0,0.2,0,0.3c0,0.1,0.1,0.3,0,0.4c-0.3,0.1-0.5,0.2-0.9,0.2
						c-0.9,0-0.8-0.2-1.2-0.5c-0.4-0.3-1-0.7-1.2-0.9c-0.4-1.8-0.6-3.7-0.8-5.6c0-0.3,0-0.5,0.2-0.7c-0.5-1-0.2-2.2-0.2-3.3
						c0-0.3-0.1-0.6-0.1-0.9c0-0.3,0-0.6-0.1-0.9c-0.1-1.6-0.2-3.6-0.3-5.4c0-0.3-0.2-0.7-0.1-1c0.1-1.6-0.1-3.2-0.2-4.5
						c-0.1-1.7-0.4-3.4-0.7-5.2c0.2-0.4,0.1-1,0.1-1.4c0-1.1,0-2.3,0.7-3.4c0.2-0.2,0.5-0.5,0.8-0.8c0.2-0.3,0.4-0.6,0.8-0.8
						c0.3-0.2,1-0.2,1.1-0.5c0.9,0,2.3-0.4,2.7,0.2c0.2,0.4-0.3,0.8-0.4,1.2c-1.2,2.4-0.7,5.4-0.5,7.8c0.1,0.9,0.4,1.8,0,2.6
						c0.3,0.8,0.2,1.6,0.2,2.4c0,2.5,0.4,5.1,0.5,7.6c0,1.4,0,2.8,0,4.3c-0.1,2.7,0,5.2-0.4,7.9
						C364.8,476.9,364.6,477.4,364.8,477.7z"/>
					<path class="st1" d="M394.6,475.6c0,0,0-0.1,0-0.1c0.2-0.1,0,0.2,0,0.3c0,0.1,0.1,0.3-0.1,0.4c-0.3,0.1-0.6,0.1-0.9,0.1
						c-0.9,0-0.8-0.2-1.1-0.5c-0.3-0.3-1-0.7-1.1-0.9c-0.4-1.8-0.4-3.6-0.5-5.5c0-0.3,0-0.5,0.2-0.7c-0.4-1-0.1-2.1,0-3.2
						c0-0.3-0.1-0.6-0.1-0.9c0-0.3,0-0.6,0-0.8c-0.1-1.6,0-3.5,0-5.3c0-0.3-0.1-0.7-0.1-1c0.2-1.5,0.1-3.1,0.1-4.4
						c0-1.6-0.2-3.3-0.4-5.1c0.2-0.4,0.2-1,0.2-1.4c0.1-1.1,0.1-2.3,0.9-3.3c0.2-0.2,0.6-0.5,0.8-0.8c0.2-0.3,0.4-0.6,0.8-0.8
						c0.3-0.1,1.1-0.2,1.1-0.4c0.9,0,2.3-0.2,2.6,0.3c0.2,0.4-0.3,0.8-0.5,1.1c-1.3,2.3-1,5.3-0.9,7.6c0,0.8,0.3,1.7-0.1,2.5
						c0.2,0.8,0.1,1.6,0.1,2.4c-0.1,2.5,0.2,5,0.1,7.5c0,1.4-0.1,2.7-0.2,4.2c-0.2,2.6-0.3,5.1-0.8,7.7
						C394.6,474.9,394.4,475.3,394.6,475.6z"/>
					<path class="st1" d="M420.6,473.5l0-0.1c0.2-0.1,0,0.2,0,0.2c0,0.1,0.1,0.3-0.1,0.4c-0.3,0.1-0.6,0.1-0.9,0.1
						c-0.9,0-0.8-0.2-1.1-0.5c-0.3-0.3-1-0.7-1.1-0.9c-0.3-1.6-0.3-3.3-0.5-5c0-0.2,0-0.4,0.2-0.7c-0.4-0.9-0.1-1.9-0.1-2.9
						c0-0.3-0.1-0.5-0.1-0.8c0-0.3,0-0.5,0-0.8c-0.1-1.4-0.2-3.1-0.3-4.8c0-0.3-0.2-0.6-0.2-0.9c0.1-1.4-0.2-2.8-0.3-3.9
						c-0.1-1.5-0.6-3-0.9-4.5c0.2-0.4,0-0.9,0-1.3c0-1-0.2-2.1,0.5-3.1c0.1-0.2,0.5-0.5,0.7-0.8c0.2-0.3,0.3-0.6,0.7-0.8
						c0.3-0.2,1-0.3,1-0.5c0.9-0.1,2.3-0.6,2.7-0.2c0.3,0.3-0.2,0.8-0.3,1.1c-0.9,2.3-0.2,5,0.1,7.2c0.1,0.8,0.5,1.6,0.2,2.3
						c0.3,0.7,0.3,1.5,0.3,2.2c0.1,2.3,0.5,4.6,0.6,6.9c0,1.3,0,2.6-0.1,3.9c-0.2,2.4-0.2,4.8-0.7,7.1
						C420.6,472.8,420.4,473.2,420.6,473.5z"/>
					<path class="st1" d="M279.9,490.2l-0.1-0.1c0.1-0.2,0.1,0.1,0.1,0.2c0,0.1,0.2,0.2,0.1,0.4c-0.2,0.2-0.4,0.4-0.7,0.5
						c-0.8,0.4-0.8,0.2-1.2,0.1c-0.4-0.1-1.2-0.2-1.4-0.3c-1.1-1.4-1.8-3.2-2.5-4.9c-0.1-0.2-0.1-0.5,0-0.8c-0.7-0.8-0.7-2-1-3.1
						c-0.1-0.3-0.2-0.6-0.3-0.8c-0.1-0.3-0.1-0.5-0.2-0.8c-0.4-1.5-0.8-3.4-1-5.2c0-0.3-0.2-0.6-0.2-1c0-1.6-0.3-3.1-0.3-4.4
						c-0.1-1.6-0.3-3.4-0.4-5.1c0.3-0.4,0.2-1,0.3-1.4c0.2-1.1,0.3-2.3,1.3-3.2c0.2-0.2,0.6-0.4,0.9-0.6c0.3-0.2,0.5-0.5,0.9-0.6
						c0.3-0.1,1.1,0,1.2-0.2c0.9,0.2,2.3,0.2,2.6,0.7c0.2,0.4-0.4,0.6-0.7,0.9c-1.6,1.9-1.5,4.7-1.4,6.8c0,0.8,0.4,1.6-0.1,2.3
						c0.3,0.7,0.2,1.5,0.3,2.2c0.1,2.3,0.7,4.5,1.2,6.8c0.3,1.2,0.5,2.5,0.8,3.8c0.5,2.4,1.3,4.6,1.9,7
						C279.6,489.6,279.6,490.1,279.9,490.2z"/>
				</g>
				<g id="Face">
					<path class="st1" d="M423.6,477.7l0.1,0.5c-0.2,0.3-0.1-0.6-0.1-1c-0.1-0.5-0.2-1.2-0.1-1.5c0.2-0.3,0.5-0.5,0.8-0.6
						c0.9-0.1,0.9,0.8,1.4,1.9c0.5,1.1,1.3,2.6,1.6,3.3c1.1,6.5,1.8,13.6,2.4,20.4c0.1,1,0.1,1.8,0,2.7c0.7,3.7,0.6,8,0.7,12
						c0,1.1,0.2,2.2,0.2,3.3c0,1.1,0.1,2.1,0.1,3.1c0.2,6,0.3,13,0.1,19.8c0,1.2,0.1,2.5,0,3.7c-0.4,5.8-0.9,11.9-2.2,16.7
						c-0.4,1.6-0.9,3.2-1.6,4.8c-0.7,1.6-1.6,3.3-2.7,4.7c-2.1,2.9-4.8,5.3-7.8,7.3c-1.5,0.7-3.6,1.8-5.2,2.4
						c-4.1,1.6-8.8,2.7-12.8,2.3c-0.9,0-2-0.4-3-0.5c-1-0.1-2.2-0.3-2.9-0.7c-0.5-0.3-0.7-1-1.4-1.1c0.2-0.9-0.7-2.3,1.3-2.7
						c0.7-0.1,1.3-0.1,2,0c0.7,0.1,1.4,0.2,2,0.2c2.1,0.1,4.3,0,6.5-0.3c2.2-0.4,4.5-1,6.7-1.9c4.4-1.8,8.2-4.7,10.6-7.9
						c1.8-2.2,2.6-5.3,3.7-7.8c0.5-2.8,1-5.7,1.4-8.5c1-9.1,0.7-18.4,0.5-27.6c-0.1-5.1-0.2-10.2-0.4-15.7c-0.3-9.7-1.1-19-1.7-28.5
						C423.9,480.3,423.9,478.6,423.6,477.7z"/>
					<path class="st1" d="M426.3,496.9l0.1,0.1c-0.1,0.2-0.2-0.1-0.2-0.2c-0.1-0.1-0.3-0.2-0.3-0.3c0.1-0.3,0.2-0.5,0.4-0.8
						c0.5-0.7,0.7-0.5,1.2-0.5c0.5,0,1.3-0.2,1.6-0.2c1.8,1,3.5,2.5,5.2,3.9c0.2,0.2,0.4,0.4,0.5,0.7c1.1,0.5,1.8,1.7,2.7,2.7
						c0.2,0.3,0.5,0.5,0.8,0.7c0.2,0.2,0.4,0.5,0.7,0.7c1.3,1.3,2.7,2.9,4.1,5c0.3,0.4,0.6,0.8,0.8,1.3c0.2,0.6,0.5,1.3,0.6,2.2
						c0.1,0.8,0,1.8-0.2,2.5c-0.5,1.6-1.4,2.6-2.1,3.3c-2,1.8-4.1,2.8-6.2,3.6c-0.5-0.1-1.3,0.2-1.8,0.2c-1.3,0.2-2.8,0.4-4.1-0.3
						c-0.3-0.2-0.7-0.5-1-0.7c-0.3-0.2-0.7-0.4-1-0.7c-0.2-0.3-0.3-1-0.5-1.1c0-0.9-0.4-2.3,0.2-2.7c0.4-0.2,0.8,0.3,1.2,0.4
						c2.6,1.1,5.8,0.1,7.9-0.9c0.8-0.4,1.3-1.1,2.1-1.1c0.3-0.6,0.7-1,0.8-1.4c0.1-0.3,0.1-0.7-0.1-1.1c-0.2-0.5-0.5-1-0.9-1.5
						c-0.8-1-1.8-2-2.7-3.1c-1-1.2-2-2.4-3.1-3.6c-1.9-2.2-3.9-4.2-5.8-6.4C427,497.4,426.7,496.9,426.3,496.9z"/>
					<path class="st1" d="M300.3,568.1C300.3,568.2,300.3,568.2,300.3,568.1c-0.2,0.1,0,0,0-0.1c0-0.1,0-0.2,0.1-0.3
						c0.3,0,0.6,0,0.9,0c0.9,0.1,0.8,0.3,1.1,0.5c0.3,0.3,0.9,0.6,1.1,0.8c0.2,1.3,0.1,2.7,0,4.1c0,0.2-0.1,0.4-0.3,0.5
						c0.3,0.8-0.1,1.6-0.2,2.4c0,0.2,0,0.4,0,0.7c0,0.2,0,0.4-0.1,0.6c-0.1,1.2-0.3,2.6-0.4,3.9c0,0.2,0.1,0.5,0,0.7
						c-0.3,1.1-0.3,2.3-0.4,3.2c-0.2,1.2,0,2.5,0,3.8c-0.3,0.3-0.2,0.7-0.3,1c-0.2,0.8-0.3,1.7-1.2,2.4c-0.2,0.2-0.6,0.3-0.9,0.5
						c-0.3,0.2-0.5,0.4-0.9,0.5c-0.3,0.1-1.1,0-1.2,0.2c-0.9-0.1-2.3-0.1-2.6-0.5c-0.2-0.3,0.4-0.6,0.6-0.8c1.5-1.6,1.4-3.8,1.5-5.6
						c0.1-0.6-0.2-1.3,0.3-1.9c-0.2-0.6,0-1.2,0.1-1.8c0.3-1.8,0.2-3.7,0.5-5.6c0.1-1,0.3-2,0.6-3.1c0.4-1.9,0.7-3.8,1.4-5.6
						C300.3,568.7,300.5,568.4,300.3,568.1z"/>
					<path class="st1" d="M393.3,589.3C393.3,589.3,393.3,589.3,393.3,589.3C393.5,589.3,393.3,589.3,393.3,589.3
						c0,0.1,0,0.1-0.1,0.1c-0.3,0-0.5-0.1-0.9-0.1c-0.9-0.2-0.8-0.2-1.1-0.4c-0.3-0.2-0.9-0.4-1.1-0.5c-0.2-0.6-0.1-1.1-0.1-1.6
						c0-0.1,0-0.1,0.3-0.2c-0.3-0.3,0.1-0.6,0.2-0.9c0-0.1,0-0.2,0-0.3c0-0.1,0-0.2,0-0.2c0.1-0.4,0.2-1,0.4-1.4
						c0-0.1-0.1-0.2,0-0.3c0.3-0.4,0.3-0.8,0.4-1.2c0.1-0.4,0-1,0-1.5c0.3-0.1,0.2-0.2,0.3-0.3c0.2-0.3,0.3-0.6,1.1-0.7
						c0.2,0,0.6,0,0.9-0.1c0.3,0,0.4-0.1,0.9-0.1c0.3,0,1,0.2,1.1,0.1c0.9,0.2,2.3,0.4,2.6,0.6c0.2,0.1-0.4,0.2-0.6,0.2
						c-1.5,0.4-1.3,1.3-1.4,1.9c0,0.2,0.2,0.5-0.3,0.7c0.2,0.3,0,0.5-0.1,0.7c-0.3,0.7-0.2,1.4-0.4,2.1c-0.1,0.4-0.3,0.7-0.5,1.1
						c-0.4,0.7-0.7,1.3-1.3,2C393.4,589.1,393.1,589.2,393.3,589.3z"/>
					<path class="st1" d="M415.1,537.7C415.1,537.7,415.1,537.7,415.1,537.7C415.1,537.9,415.1,537.7,415.1,537.7
						c-0.1,0-0.2,0-0.2-0.1c0-0.3,0-0.6,0.1-0.9c0.1-0.9,0.2-0.8,0.3-1.1c0.2-0.3,0.4-0.9,0.5-1.1c0.7-0.2,1.3-0.1,2-0.1
						c0.1,0,0.2,0,0.2,0.3c0.4-0.3,0.8,0.1,1.1,0.1c0.1,0,0.2,0,0.3,0c0.1,0,0.2,0,0.3,0c0.6,0,1.2,0.2,1.8,0.3c0.1,0,0.2-0.1,0.4,0
						c0.5,0.3,1.1,0.3,1.5,0.3c0.6,0.1,1.2,0,1.8-0.1c0.1,0.3,0.3,0.2,0.5,0.3c0.4,0.2,0.8,0.2,1,1.1c0.1,0.2,0.1,0.6,0.2,0.9
						c0.1,0.3,0.2,0.4,0.2,0.9c0,0.3-0.1,1.1,0,1.1c-0.1,0.9-0.2,2.3-0.5,2.6c-0.2,0.2-0.2-0.4-0.3-0.6c-0.6-1.4-1.7-1.3-2.5-1.4
						c-0.3,0-0.7,0.2-0.9-0.3c-0.3,0.2-0.6,0-0.8,0c-0.9-0.2-1.8-0.1-2.6-0.3c-0.5-0.1-0.9-0.3-1.4-0.5c-0.9-0.4-1.7-0.6-2.6-1.2
						C415.3,537.7,415.2,537.5,415.1,537.7z"/>
					<path class="st1" d="M391.5,523.7L391.5,523.7C391.4,523.5,391.6,523.7,391.5,523.7c0.2,0,0.2-0.1,0.3,0
						c0.1,0.3,0.2,0.5,0.2,0.9c0.2,0.9,0,0.8-0.1,1.2c-0.1,0.4-0.3,1-0.4,1.2c-1,0.5-2.2,0.6-3.5,0.6c-0.2,0-0.3,0-0.5-0.3
						c-0.7,0.3-1.5-0.2-2.2-0.4c-0.2-0.1-0.4,0-0.6-0.1c-0.2-0.1-0.4-0.1-0.6-0.2c-1.1-0.4-2.3-1.2-3.1-2c-0.2-0.1-0.4-0.2-0.5-0.4
						c-0.6-0.8-1.2-1.4-1.5-1.7c-0.2-0.3-0.5-0.4-0.7-0.5c-0.2-0.1-0.3,0-0.3,0.1c0.1-0.2,0-0.2,0-0.2c-0.1-0.1-0.2-0.2-0.7-0.9
						c-0.1-0.2-0.3-0.5-0.5-0.7c-0.2-0.2-0.4-0.3-0.7-0.6c-0.2-0.2-0.6-0.9-0.7-0.9c-0.4-0.8-1.3-1.9-1.1-2.4c0.2-0.3,0.7,0,1.1,0.1
						c1.1,0.3,2.1,0.4,3.1,0.6c1,0.2,2,0.6,2.6,1c0.5,0.3,1.1,0.5,1.1,1.1c0.5,0.2,0.7,0.5,1,0.9c0.8,1,1.7,1.5,2.6,2
						c0.5,0.3,1,0.5,1.6,0.8c1.1,0.5,2.3,0.5,3.7,0.9C391.2,523.8,391.4,523.9,391.5,523.7z"/>
					<path d="M395.7,502.9c-5.1-13.8-11.5-28.7-15.3-27.5c-1,0.3-1.4,1.6-1.6,2c-3.8,10.3,12.6,25.8,12.6,25.8c-0.8,0.4-9,4.1-9,8
						c0,0.3,0,1.6,0.7,2.4c0.8,0.8,2,0.5,2.5,0.4C389.3,513.1,395,504.1,395.7,502.9z"/>
					<path class="st1" d="M401.8,485.2L401.8,485.2C401.9,485,401.8,485.2,401.8,485.2c0,0.1,0.1,0.1,0,0.2
						c-0.2,0.1-0.5,0.2-0.8,0.4c-0.8,0.3-0.8,0.2-1.1,0.3c-0.4,0-1,0.2-1.2,0.2c-0.5-0.4-0.7-0.9-1-1.4c0-0.1,0-0.1,0.1-0.3
						c-0.5-0.1-0.3-0.6-0.4-0.9c0-0.1-0.1-0.1-0.2-0.2c0-0.1-0.1-0.2-0.1-0.2c-0.3-0.4-0.4-1-0.7-1.4c0-0.1-0.2-0.1-0.2-0.2
						c-0.1-0.5-0.4-0.9-0.5-1.2c-0.2-0.5-0.7-0.8-1.1-1.1c0.1-0.2,0-0.3,0-0.5c-0.1-0.3-0.3-0.6,0.2-1.4c0.1-0.2,0.4-0.5,0.5-0.7
						c0.2-0.2,0.2-0.4,0.5-0.7c0.2-0.2,0.8-0.7,0.8-0.8c0.8-0.5,1.8-1.4,2.2-1.5c0.2,0-0.1,0.4-0.2,0.6c-0.6,1.4,0.2,2.1,0.6,2.8
						c0.2,0.2,0.6,0.3,0.3,0.8c0.3,0.1,0.4,0.4,0.5,0.7c0.3,0.8,0.9,1.4,1.2,2.2c0.2,0.4,0.3,0.9,0.4,1.4c0.1,0.9,0.4,1.7,0.2,2.7
						C401.7,484.9,401.6,485.2,401.8,485.2z"/>
					<path class="st1" d="M428.8,478.1L428.8,478.1C428.7,477.9,428.9,478.1,428.8,478.1c0.2,0,0.2-0.1,0.3,0
						c0.1,0.3,0.2,0.5,0.2,0.9c0.1,0.9,0,0.8-0.1,1.2c-0.1,0.4-0.2,1-0.3,1.2c-0.8,0.5-1.8,0.6-2.7,0.9c-0.1,0-0.2,0-0.4-0.1
						c-0.4,0.5-1,0.3-1.6,0.4c-0.1,0-0.3,0.2-0.4,0.2c-0.1,0-0.3,0.1-0.4,0.1c-0.8,0.3-1.7,0.5-2.6,0.7c-0.2,0.1-0.3,0.2-0.4,0.2
						c-0.8,0.1-1.5,0.5-2.1,0.7c-0.8,0.3-1.5,0.8-2.2,1.3c-0.3-0.1-0.5,0.1-0.7,0.1c-0.6,0.1-1.1,0.4-2-0.1
						c-0.2-0.1-0.5-0.4-0.7-0.5c-0.2-0.2-0.5-0.2-0.8-0.5c-0.2-0.2-0.6-0.9-0.7-0.9c-0.4-0.8-1.2-2-1.1-2.4c0.1-0.3,0.5,0.1,0.8,0.2
						c1.8,0.6,3.1-0.4,4.3-0.9c0.4-0.2,0.8-0.7,1.3-0.4c0.3-0.4,0.8-0.5,1.2-0.6c1.3-0.4,2.6-1,3.9-1.4c0.8-0.2,1.5-0.3,2.3-0.3
						c1.5-0.1,2.8-0.3,4.3,0C428.5,478.2,428.7,478.3,428.8,478.1z"/>
				</g>
			</g>
			<g id="Body">
				<path class="st1" d="M677,567.7l-0.2,1.6c-0.3,1,0.2-2.2,0.4-3.6c0.2-1.9,0.3-4.2,0.6-5.2c0.4-0.9,0.7-1.7,1.1-1.6
					c0.9,0.3,0.5,3.4,0.4,7.3c-0.1,4.3,0,9.8-0.2,12.6c-2.2,23.5-5.8,48.7-10,72.8c-0.6,3.4-1.1,6.3-1.9,9.4c-2,13-5.4,28.1-8.2,42
					c-0.8,3.9-1.6,7.8-2.3,11.6c-0.8,3.7-1.6,7.4-2.4,11c-2.3,10.4-5,21.8-8.4,33.4c-1.7,5.8-3.7,11.6-6,17.4
					c-1.1,2.9-2.5,5.7-3.9,8.5c-1.5,2.8-3,5.5-4.8,8.1c-0.6,1-1.4,1.9-2,2.8c-0.7,0.9-1.5,1.8-2.2,2.7c-1.6,1.7-3.2,3.5-5.1,4.9
					c-2.2,1.8-4.6,3.3-7.1,4.5c-0.6,0.3-1.3,0.6-1.9,0.9l-1.9,0.7c-1.3,0.5-2.6,0.9-3.9,1.2c-5.3,1.4-10.7,1.9-15.9,1.8
					c-10.4-0.3-19.9-3-27.8-5.8c-10.5-3.8-20.7-8.8-30.8-14.3c-10-5.5-19.8-11.5-29.5-17.8c-4.2-3-10.8-7.3-15.5-10.6
					c-6-4.1-12.3-8.5-18.3-13.1c-6-4.6-11.7-9.5-16.6-14.2c-2.2-2.1-4.7-4.8-7.2-7.3c-2.5-2.6-5.4-5.5-7-7.5
					c-1.1-1.4-0.9-2.3-2.8-4.2c1.2-0.1-0.2-3.4,5.4,1.5c3.7,3.2,7.3,7.2,10.8,10.5c11,10.5,24.7,21.4,39.4,31.1
					c14.6,9.9,29.5,19.5,43,27.1c9.7,5.5,20.7,10.5,30,14.3c9.9,3.3,20.5,5.9,30.6,5.7c4-0.1,8-0.7,11.9-1.8l1.4-0.4l1.4-0.5
					c0.9-0.4,1.9-0.7,2.8-1.1l1.3-0.6l1.3-0.7c0.9-0.5,1.7-1.1,2.5-1.6c3.2-2.3,6-5.3,8.4-8.5c2.4-3.2,4.5-6.8,6.3-10.4
					c1.8-3.7,3.4-7.5,4.8-11.3c1.4-3.9,2.7-7.8,3.9-11.8c2.4-7.9,4.4-16,6.4-24c4.2-17.9,7.9-35.7,11.9-55.2
					c7.1-34,12.4-67.1,16.6-101.1C676,577.3,676.9,571.3,677,567.7z"/>
				<path class="st1" d="M70.4,804.4l1.2-2c0.9-1.1-1.6,2.7-2.5,4.4c-1.4,2.4-2.9,5.3-3.7,6.4c-0.9,1-1.7,1.9-1.9,1.6
					c-0.6-0.7,1.6-4.5,4-9.5c2.7-5.4,6-12.4,8-15.8c8.5-14.4,17.8-29,28-43.3c10.1-14.3,21-28.2,32.2-41.5c3.2-3.7,6-6.7,9.2-10
					c3-3.6,6.4-7.1,9.8-10.8c1.7-1.8,3.5-3.7,5.2-5.5c1.8-1.8,3.7-3.6,5.5-5.4c7.3-7.3,15.3-14.2,22.9-20.8c4.3-3.6,8.7-7.2,13-10.7
					c4.3-3.2,8.6-6.4,12.8-9.5c3-2.3,6.3-4.3,9.6-6.6c3.3-2.2,6.6-4.4,10.1-6.6c6.9-4.3,14.2-8.5,21.9-12.3
					c3.8-1.9,7.7-3.8,11.7-5.5c4-1.7,8-3.3,12.1-4.8c8.2-3,16.5-5.5,24.8-7.3c6.1-1.4,12.3-2.6,18.5-3.5c14.6-2,29.5-2.6,43.7-2
					c14.2,0.6,27.6,2.5,39.1,5.2c7.6,1.8,15.3,3.9,22.8,6.6c7.6,2.7,14.9,5.8,22.3,9.5c7.3,3.7,14.2,8.3,20.8,13
					c6.6,4.7,13.1,9.8,19.5,14.8c5.6,4.8,14.2,11.8,20.4,16.9c15.7,12.9,33,27.8,46.6,41.4c3,3,6.5,6.8,10,10.4
					c3.5,3.6,7.6,7.8,9.9,10.5c1.6,1.9,1.5,2.9,4.2,5.7c-1.4-0.1,1,4.2-6.8-2.9c-5.1-4.7-10.4-10.3-15.1-15
					c-7.7-7.6-16.1-15.5-25.1-23.5c-9-8-18.5-16-28.1-23.9c-9.6-7.9-19.3-15.9-28.9-23.3c-9.6-7.4-19.1-14.2-28.7-19.3
					c-6.9-3.5-14.5-6.8-22-9.4c-7.5-2.7-15-4.9-21.9-6.7c-14.5-3.2-29.8-5.1-44.3-5.4c-11.6-0.3-23.3,0.4-34.9,1.8
					c-11.6,1.5-23.1,3.8-34.2,7.3c-11.2,3.4-22,7.8-32.5,13c-5.2,2.6-10.4,5.4-15.4,8.3c-2.5,1.5-5,3-7.5,4.5
					c-2.5,1.5-4.9,3.2-7.3,4.8c-21.7,14.2-41.7,30.4-61.8,49.9c-17.5,17.1-33.4,35.3-48.1,54.3c-14.7,18.9-28.1,38.8-40.8,59.3
					C77.3,792.6,72.8,799.8,70.4,804.4z"/>
				<path class="st1" d="M600,560.3c0,0.2-0.1,0.4-0.1,0.5c-0.2,0.3,0.1-0.7,0.2-1.2c0.1-0.6,0.2-1.4,0.4-1.7c0.3-0.3,0.6-0.5,1-0.4
					c0.9,0.2,0.6,1.2,0.7,2.6c0.1,1.5,0.4,3.4,0.4,4.3c-0.9,7.8-2.3,16.2-3.6,24.3c-0.2,1.1-0.4,2.1-0.7,3.1
					c-0.3,4.4-1.5,9.5-2.3,14.1c-0.2,1.3-0.4,2.6-0.6,3.9c-0.2,1.2-0.4,2.5-0.6,3.7c-1.1,7-2.5,15.3-3.9,23.2
					c-0.2,1.4-0.4,2.9-0.6,4.4c-1.3,6.8-2.4,13.8-3.3,19.2c-1.2,7.2-2.2,14.8-3.4,22.4c-0.5,1.7-0.9,4.3-1.2,6.2
					c-0.9,4.7-1.8,10-3.3,14.4c-0.3,1-0.9,2.1-1.4,3.2c-0.4,1.1-0.8,2.5-1.4,3.2c-0.4,0.5-1.2,0.6-1.4,1.4c-0.9-0.4-2.4,0.5-2.3-2.1
					c0.1-1.7,0.9-3.4,1.3-4.9c3-9.9,4.8-23.1,6.5-33.4c0.6-3.7,1-7.8,2-11.1c0.3-3.5,1-7.1,1.6-10.5c1.9-10.9,3.5-22,5.4-33
					c1-6.1,2.1-12.1,3.3-18.6c2.1-11.4,4.1-22.5,6.4-33.7C599.5,563.5,600,561.6,600,560.3z"/>
				<path class="st1" d="M677.5,558.6c-0.1,0-0.2,0-0.3,0c-0.2-0.2,0.4,0,0.6,0c0.3,0,0.7-0.1,0.9,0.1c0.2,0.3,0.3,0.5,0.3,0.9
					c0,0.9-0.5,0.8-1.2,1.2c-0.7,0.4-1.6,1-2.1,1.2c-4,0.4-8.3,0.5-12.5,0.6c-0.6,0-1.1,0-1.6-0.2c-2.2,0.4-4.9,0.1-7.3,0.1
					c-0.7,0-1.3,0.1-2,0.1c-0.6,0-1.3,0-1.9,0c-3.6,0.1-7.9,0.1-12,0.2c-0.7,0-1.5,0.1-2.2,0.1c-3.5-0.1-7.1,0-9.9,0
					c-3.7,0-7.6,0.3-11.5,0.5c-0.9-0.2-2.2-0.1-3.2-0.2c-2.5-0.1-5.2,0-7.5-0.8c-0.5-0.2-1.1-0.6-1.7-0.8c-0.6-0.2-1.3-0.4-1.7-0.8
					c-0.3-0.3-0.4-1-0.9-1.1c0.1-0.9-0.5-2.3,0.8-2.7c0.8-0.2,1.8,0.3,2.6,0.5c5.2,1.3,12,0.8,17.3,0.7c1.9,0,4-0.4,5.7,0
					c1.8-0.3,3.7-0.2,5.4-0.2c5.7,0,11.3-0.3,17-0.3c3.1,0,6.2,0,9.6,0.1c5.9,0.2,11.6,0.2,17.5,0.6
					C675.9,558.7,676.9,558.9,677.5,558.6z"/>
				<path class="st1" d="M199.7,645.2c-0.1,0-0.2-0.1-0.2-0.1c-0.1-0.2,0.3,0.1,0.5,0.2c0.3,0.1,0.6,0.2,0.7,0.4
					c0,0.3,0,0.6-0.2,0.9c-0.4,0.8-0.8,0.5-1.5,0.5c-0.7,0-1.8,0.2-2.2,0.2c-3.4-1.3-7-3-10.4-4.5c-0.5-0.2-0.9-0.4-1.2-0.8
					c-2-0.5-4-1.9-6-2.8c-0.5-0.3-1.1-0.5-1.7-0.7c-0.5-0.2-1.1-0.5-1.6-0.7c-3-1.4-6.5-3.1-9.8-4.7c-0.6-0.3-1.3-0.5-1.9-0.8
					c-2.8-1.5-5.8-2.9-8.1-4c-3.1-1.5-6.4-2.8-9.6-4.2c-0.6-0.6-1.8-1-2.5-1.4c-2-1.1-4.2-2.1-5.8-3.8c-0.3-0.4-0.7-1-1.1-1.4
					c-0.4-0.5-0.9-0.9-1.1-1.4c-0.1-0.4,0.1-1.1-0.2-1.3c0.5-0.8,0.6-2.3,1.8-2.1c0.8,0.1,1.3,1,1.9,1.5c3.7,3.2,9.4,5.6,13.8,7.7
					c1.6,0.7,3.4,1.3,4.6,2.4c1.6,0.5,3.1,1.3,4.5,2c4.6,2.3,9.4,4.3,14,6.6c2.6,1.3,5.1,2.6,7.8,4c4.8,2.5,9.4,4.9,14,7.6
					C198.4,644.5,199.1,645.1,199.7,645.2z"/>
				<path class="st1" d="M194.9,774.8l-1,1.7c-0.8,0.9,1.4-2.3,2.2-3.7c1.2-2,2.5-4.4,3.2-5.4c0.8-0.8,1.5-1.5,1.8-1.3
					c0.6,0.6-1.3,3.8-3.4,8.1c-2.3,4.6-5.2,10.5-6.9,13.4c-7.4,12.1-15.7,24.4-24.9,36.2c-4.5,6-9.3,11.7-14.2,17.4
					c-4.9,5.7-10,11.1-15.2,16.4c-3,2.9-5.5,5.4-8.6,7.8c-5.8,5.5-12.5,11.2-19.8,16.3c-7.3,5.1-15.2,9.7-23.2,13.3
					c-1.1,0.5-2.2,1-3.4,1.4c-1.1,0.4-2.3,1-3.4,1.4c-2.3,0.8-4.6,1.6-7,2.2c-2.3,0.7-4.6,1.1-6.9,1.5c-1.2,0.2-2.3,0.3-3.5,0.5
					l-1.7,0.2c-0.6,0-1.2,0.1-1.7,0.1c-6.7,0.4-13.9-0.4-20.9-2.9c-6.8-2.5-13.4-6.1-19.2-11.1c-1.5-1.2-2.8-2.6-4.2-3.9
					c-1.3-1.4-2.6-2.8-3.7-4.4C7,877,5,873.7,3.4,870c-0.8-1.8-1.3-3.7-1.9-5.6c-0.2-0.9-0.4-1.9-0.6-2.9c-0.2-1-0.4-1.9-0.5-2.9
					c-0.2-1.9-0.5-3.8-0.4-5.7c0-1.9-0.1-3.8,0.1-5.7l0.3-4.1c0.2-1.4,0.4-2.7,0.6-4c0.2-1.3,0.3-2.7,0.7-4l0.9-3.9
					c3-12.3,7.6-24.1,12.3-35.2c1.2-2.8,2.4-5.5,3.6-8.1c1.2-2.6,2.5-5.2,3.7-7.7c2.3-5.1,4.9-9.8,7.1-14.2
					c12.2-23.5,25.9-47.3,40.9-70.6c1.8-2.6,4-5.8,6.3-9.1c2.3-3.3,4.6-6.7,6.5-9.5c10-14.2,21.5-29.8,32.3-42.1
					c2.4-2.8,5.4-5.9,8.3-9.1c2.9-3.2,6.2-6.9,8.4-9c1.6-1.4,2.5-1.4,4.6-3.8c0.1,1.3,3.8-0.9-1.7,6.2c-3.6,4.7-8.1,9.4-11.8,13.7
					c-11.9,13.9-24.8,30.6-36.9,48C74,698,62.7,716.1,53.3,732.2c-6.8,11.6-13.6,24.6-19.6,35.1c-1.4,2.9-2.8,5.7-4.3,8.6
					c-1.4,2.9-2.8,5.8-4.2,8.7c-2.8,5.8-5.3,11.6-7.8,17.3c-3.7,9.2-7.2,18.5-9.7,28.1c-2.5,9.6-3.9,19.5-2.6,29.1
					c0.8,4.8,2.3,9.3,4.8,13.5c2.4,4.2,5.6,7.9,9.2,11.1c3.6,3.2,7.7,5.9,12,8.2c2.2,1.1,4.4,2.1,6.7,2.9c1.1,0.4,2.3,0.8,3.4,1.1
					c1.2,0.3,2.3,0.5,3.5,0.8c5.3,1,10.7,1.1,16,0.5c5.4-0.6,10.7-1.9,15.9-3.8c5.2-1.9,10.3-4.2,15.3-6.9c5-2.8,9.9-5.9,14.7-9.3
					c8.5-6,16.3-12.7,23.7-19.8c7.4-7.1,14.4-14.6,21-22.3c13.3-15.5,25.3-32,36.4-49.2c0.5-0.6,1.7-2.4,3.1-4.5
					C192.4,779.2,193.9,776.7,194.9,774.8z"/>
				<path class="st1" d="M424.3,974.7c0-0.3,0-0.6,0.1-0.9c0.2-0.5-0.1,1.2-0.2,2c-0.1,1.1-0.1,2.3-0.3,2.9c-0.3,0.5-0.6,0.9-1,0.8
					c-0.9-0.2-0.7-1.9-0.8-4c-0.2-2.3-0.5-5.4-0.6-6.9c0.7-12.8,1.8-26.6,2.8-39.9c0.1-1.9,0.3-3.4,0.6-5.2
					c0.2-7.2,1.2-15.6,1.9-23.2c0.2-2.1,0.3-4.3,0.4-6.4c0.2-2,0.3-4.1,0.5-6.1c0.9-11.6,2.1-25.2,3.1-38.2c0.2-2.4,0.3-4.8,0.5-7.2
					c1.1-11.2,1.9-22.7,2.7-31.6c1-11.9,1.8-24.3,2.7-36.8c0.5-2.8,0.7-7.1,1-10.2c0.8-7.8,1.5-16.5,2.9-23.9
					c0.3-1.6,0.9-3.6,1.3-5.5c0.4-1.9,0.8-4.2,1.3-5.5c0.4-0.9,1.1-1.1,1.3-2.6c0.9,0.5,2.4-1.2,2.4,2.9c0,2.7-0.8,5.6-1.2,8.2
					c-2.7,16.5-4.1,38.2-5.5,55.1c-0.5,6.1-0.7,12.7-1.6,18.2c-0.2,5.8-0.8,11.7-1.3,17.3c-1.6,18-2.8,36.3-4.4,54.3
					c-0.9,10-1.7,19.9-2.8,30.7c-1.8,18.9-3.4,37.1-5.4,55.7C424.7,969.5,424.3,972.7,424.3,974.7z"/>
				<path class="st1" d="M197.2,917c0-0.2,0-0.4,0-0.6c0.2-0.4,0,0.9,0,1.4c0,0.8,0,1.7-0.1,2.1c-0.3,0.4-0.6,0.7-0.9,0.6
					c-0.9-0.1-0.8-1.3-1-2.9c-0.3-1.7-0.8-3.9-1-5c0-9.3,0.3-19.3,0.5-29c0-1.4,0.1-2.5,0.3-3.8c-0.2-5.2,0.3-11.3,0.5-16.9
					c0.1-1.6,0-3.1,0.1-4.7c0-1.5,0.1-3,0.1-4.4c0.2-8.4,0.6-18.3,0.9-27.8c0.1-1.7,0-3.5,0.1-5.2c0.4-8.1,0.6-16.5,0.9-23
					c0.3-8.6,0.4-17.7,0.5-26.7c0.3-2,0.3-5.1,0.5-7.4c0.3-5.7,0.5-12,1.5-17.4c0.2-1.2,0.7-2.6,1-4c0.3-1.4,0.5-3,1-4
					c0.3-0.7,1.1-0.8,1.2-1.9c0.9,0.3,2.4-0.9,2.6,2c0.1,2-0.4,4.1-0.7,6c-1.7,12-1.9,27.7-2.3,40.1c-0.1,4.4,0,9.2-0.6,13.2
					c0.1,4.2-0.1,8.5-0.3,12.6c-0.6,13.1-0.7,26.3-1.2,39.5c-0.3,7.3-0.6,14.5-1,22.3c-0.7,13.7-1.2,27-2.2,40.5
					C197.3,913.2,197,915.5,197.2,917z"/>
			</g>
			<path d="M194.4,907.2c-22,112.5-44,225-66,337.4h109.8c25-53,50-106,75-159.1c22.6,54.8,45.2,109.6,67.8,164.4
				c39.7-1.8,79.4-3.7,119.1-5.5c-24.5-93.2-48.9-186.4-73.4-279.6C349.3,945.6,271.9,926.4,194.4,907.2z"/>
		</g>
		<g id="Woman">
			<path class="st1" d="M1054.9,845.7l-0.1-0.2c0.1-0.2,0.2,0.3,0.2,0.4c0.1,0.2,0.3,0.5,0.3,0.7c-0.2,0.2-0.4,0.5-0.7,0.7
				c-0.8,0.4-0.9,0-1.5-0.3c-0.6-0.3-1.5-0.7-1.8-0.9c-1.9-2.7-3.5-5.7-5.2-8.6c-0.2-0.4-0.4-0.8-0.4-1.2c-1.2-1.4-1.9-3.5-2.7-5.2
				c-0.2-0.5-0.6-0.9-0.8-1.4c-0.2-0.5-0.5-0.9-0.7-1.4c-1.3-2.6-2.7-5.8-4-8.8c-0.2-0.6-0.6-1.1-0.8-1.6c-0.9-2.7-2.2-5.3-3-7.4
				c-1.1-2.8-2.4-5.6-3.6-8.6c0-0.7-0.4-1.7-0.7-2.5c-0.6-1.9-1.3-4-1-6c0-0.4,0.3-1,0.4-1.6c0.1-0.5,0.1-1.1,0.4-1.6
				c0.2-0.3,0.9-0.6,0.9-1c0.9-0.2,2.1-1,2.7-0.2c0.4,0.6,0.1,1.4,0.1,2.1c0,4.3,2.1,9.3,3.6,13.2c0.6,1.4,1.4,2.8,1.5,4.3
				c0.7,1.2,1.2,2.6,1.7,3.9c1.6,4.2,3.7,8.2,5.6,12.3c1,2.3,2,4.5,3.1,7c2,4.3,4.1,8.3,5.9,12.6
				C1054.2,844.5,1054.4,845.3,1054.9,845.7z"/>
			<path class="st1" d="M1144.6,810.9c-0.1,0-0.2,0.1-0.3,0.1c-0.3-0.1,0.4-0.2,0.7-0.3c0.4-0.1,0.8-0.4,1.1-0.3
				c0.3,0.2,0.5,0.4,0.7,0.7c0.3,0.8-0.4,1-1,1.6c-0.7,0.7-1.6,1.7-2.1,2c-4.6,2.2-9.6,4.1-14.4,6.1c-0.7,0.3-1.3,0.5-2,0.5
				c-2.5,1.4-5.7,2.3-8.5,3.4c-0.8,0.3-1.5,0.7-2.3,1c-0.7,0.3-1.5,0.6-2.2,0.9c-4.2,1.7-9.2,3.6-14,5.5c-0.9,0.3-1.7,0.8-2.6,1.1
				c-4.2,1.4-8.3,3.2-11.6,4.5c-4.4,1.7-8.8,3.7-13.3,5.6c-1.1,0.2-2.7,0.9-3.8,1.3c-2.9,1-6.1,2.3-9.1,2.6c-0.7,0.1-1.5,0-2.3,0
				c-0.8,0-1.7,0.2-2.3,0c-0.5-0.1-0.8-0.8-1.4-0.7c-0.2-0.9-1.4-2,0-2.8c0.9-0.6,2.2-0.5,3.2-0.7c6.6-1.2,14.4-4.6,20.6-7
				c2.2-0.9,4.5-2.1,6.7-2.5c2-1.1,4.2-1.8,6.3-2.6c6.6-2.5,13.2-5.3,19.8-7.9c3.7-1.4,7.3-2.8,11.3-4.2c7-2.5,13.7-5,20.7-7.3
				C1142.7,811.6,1144,811.4,1144.6,810.9z"/>
			<g id="Hands_1_">
				<path class="st1" d="M922,920.5l-2.4-0.2c-1.4-0.4,3.2,0.4,5.2,0.4c2.8,0.2,6.2,0.1,7.7,0.3c1.4,0.3,2.5,0.5,2.4,0.9
					c-0.3,0.9-4.8,1-10.7,1c-3.2,0-6.8-0.2-10.2-0.5c-0.4,0-0.8-0.1-1.2-0.1c-0.4,0-0.7-0.1-1.1-0.1c-0.7-0.1-1.4-0.1-2.1-0.1
					c-1.3,0-2.5,0-3.4,0.1c-1,0-2,0.1-2.9,0.2c-1,0.1-2.1,0.3-3,0.4c-0.9,0.2-1.8,0.4-2.5,0.7c-0.7,0.3-1.3,0.7-1.7,1.1
					c-0.8,0.7-1.3,2.5-1.1,3.4c0.1,0.5,0.2,0.6,0.5,0.8c0.3,0.3,0.9,0.5,1.7,0.7c0.4,0.1,0.8,0.1,1.3,0.2c0.4,0,0.9,0.1,1.5,0.1
					l3.3,0.2c2.2,0.1,4.5,0.2,6.7,0.3c4.5,0.2,9,0.4,13.4,0.6c18,0.9,36.1,1.7,53.8,2c5,0.1,9.2,0.2,13.9,0.4
					c19.1-0.2,41.6-0.6,62.1-2c5.7-0.4,11.5-0.9,17.2-1.4c5.5-0.4,10.9-0.9,16.2-1.3c7.7-0.6,15.8-1.3,24.1-2.2
					c8.3-0.9,16.8-1.9,25.2-3.4c4.2-0.8,8.4-1.7,12.5-2.9c4.1-1.2,8-2.7,11.6-4.7c3.5-2,6.5-4.6,8.7-7.8c2.1-3.4,3.6-7.1,4.3-11
					c1-5.8,0.3-11.9-0.9-17.9c-1.4-7.1-3.9-14.1-6.6-21c-2.8-6.9-5.8-13.6-8.9-20.1c-6.2-13-12.6-25.2-18-35.9
					c-7.3-14.2-14.8-28.7-23.1-42.8c-8.3-14.1-17.4-28-28.5-40.2c-2.4-2.8-5.6-6.2-9.1-9.4c-3.5-3.1-7.3-6.1-10.6-8.3
					c-4.2-2.8-8.8-5.2-13.7-6.9c-4.9-1.8-10-2.8-15.2-3.2c-5.3-0.3-10.7-0.1-16.2-0.4c-2.7-0.2-5.4-0.4-8.1-1l-1-0.2l-1-0.3
					c-0.7-0.2-1.3-0.3-2-0.5c-1.3-0.5-2.6-0.9-3.8-1.5c-2.2-1-4.4-2.6-6.3-4.5c-1.9-2-3.4-4.4-4.5-6.9c-1.1-2.5-1.8-5.4-2.1-8.1
					c-0.3-2.7-0.2-5.2,0-7c0.4-2.6,1.1-3.2,1.7-7.1c0.4,0.6,1.1-0.2,1.5,0.1c0.2,0.2,0.4,0.6,0.5,1.7c0.1,1.1,0,2.7,0,5.3
					c0,3.4,0.3,6.8,1.1,10c0.4,1.6,1,3.1,1.7,4.5c0.7,1.4,1.7,2.7,2.7,3.7c1.7,1.7,3.7,3.2,6.1,4.2c2.4,1,5.1,1.7,7.9,2.1
					c5.6,0.8,11.7,0.6,18,0.8c3.1,0.1,6.4,0.2,9.6,0.8c3.2,0.5,6.4,1.3,9.5,2.3c6.2,2.1,12.1,5.2,17.5,9
					c10.9,7.5,19.8,17.3,27.6,27.2c7.7,10,14.3,20.4,20.1,30.2c8.3,14.1,16.8,29.9,23.1,43.2c7.3,13.7,14.5,27.9,20.9,41.6
					c2.6,5.5,5,11.1,7.3,16.8c2.2,5.7,4.3,11.5,5.8,17.5c1.5,6,2.4,12.2,2,18.5c-0.4,6.3-2.4,12.6-6.2,17.9
					c-1.9,2.6-4.3,4.9-6.9,6.7c-2.6,1.8-5.5,3.2-8.4,4.4c-5.8,2.4-11.8,3.8-17.8,5c-12.1,2.3-24.2,3.6-36.3,4.7
					c-13.5,1.2-26.8,2.2-40.4,3.2c-13.6,1-27.5,1.7-42,2.1c-25.4,0.7-50.4-0.1-75.2-1.3c-12.4-0.6-24.8-1.3-37.2-2
					c-3.1-0.2-6.2-0.3-9.3-0.6c-1.6-0.2-3.3-0.5-4.7-1.5c-0.7-0.5-1.3-1.2-1.7-2c-0.4-0.8-0.5-1.7-0.5-2.5c0-1.7,0.6-3.3,1.6-4.7
					c1-1.4,2.5-2.3,4-2.8c1.5-0.5,3.1-0.8,4.7-1c1.5-0.2,3.1-0.3,4.7-0.3c0.9,0.1,3.6,0.1,6.6,0.7
					C915.9,919.9,919.3,920.4,922,920.5z"/>
				<path class="st1" d="M1121,874.2l-0.5,0.1c-0.4-0.2,0.7-0.1,1.2-0.1c0.6-0.1,1.4-0.2,1.7-0.1c0.3,0.2,0.6,0.5,0.6,0.8
					c0,0.9-1,0.9-2.2,1.4c-1.4,0.5-3.1,1.4-4,1.6c-7.7,1.3-16,2.3-24,3.3c-1.1,0.1-2.1,0.2-3.2,0.2c-4.3,0.9-9.4,1.2-14,1.7
					c-1.3,0.1-2.6,0.4-3.9,0.6c-1.2,0.2-2.5,0.3-3.7,0.4c-7,0.9-15.2,1.8-23.1,2.7c-1.4,0.2-2.9,0.5-4.3,0.6
					c-6.8,0.6-13.7,1.6-19.1,2.2c-7.2,0.8-14.6,2-22.2,3c-1.7,0-4.3,0.3-6.2,0.5c-0.1,0-0.2,0-0.3,0l-0.2,0c-0.5,0-1,0-1.4-0.2
					c-4.3-1.9-9-3.9-12.8-6.3c-0.9-0.6-1.8-1.4-2.8-2c-1-0.7-2.2-1.4-2.8-2c-0.4-0.5-0.3-1.3-1.1-1.7c0.6-0.8,0.1-2.5,2.5-1.8
					c1.6,0.4,3,1.6,4.4,2.4c4.2,2.4,9.2,4.8,14.4,7l-0.9-0.1c6-0.6,12.1-1.5,17.5-2.1c3.7-0.5,7.6-1.2,11-1.2
					c3.5-0.7,7.1-1,10.4-1.4c10.9-1.2,21.8-2.8,32.8-4c6.1-0.7,12-1.3,18.6-2c11.4-1.1,22.5-2.4,33.7-3.2
					C1117.9,874.6,1119.9,874.6,1121,874.2z"/>
				<path class="st1" d="M1092,833c0,0.1,0.1,0.1,0.1,0.2c-0.1,0.2-0.1-0.2-0.2-0.3c-0.1-0.2-0.3-0.4-0.2-0.5
					c0.2-0.2,0.4-0.4,0.7-0.6c0.8-0.4,0.9,0,1.4,0.2c0.5,0.3,1.3,0.5,1.6,0.7c1.4,2.1,2.5,4.5,3.7,6.8c0.2,0.3,0.3,0.6,0.2,1
					c1,1.1,1.3,2.7,2,4.1c0.2,0.4,0.4,0.7,0.6,1.1c0.2,0.4,0.3,0.7,0.5,1.1c1,2,2.1,4.4,3.2,6.7c0.2,0.4,0.5,0.8,0.7,1.2
					c0.8,2,1.8,4,2.5,5.6c1,2.1,2.2,4.2,3.4,6.3c0,0.6,0.4,1.3,0.7,1.9c0.6,1.4,1.3,3,1.1,4.6c0,0.4-0.2,0.9-0.3,1.3
					c-0.1,0.4,0,0.9-0.3,1.3c-0.2,0.3-0.8,0.7-0.8,1c-0.9,0.3-2,1.3-2.6,0.7c-0.4-0.4-0.2-1.1-0.2-1.7c-0.2-3.5-2.3-7.1-3.7-10.1
					c-0.5-1.1-1.4-2.1-1.4-3.3c-0.7-0.9-1.1-2-1.5-3c-1.4-3.2-3.1-6.3-4.6-9.5c-0.8-1.8-1.6-3.5-2.3-5.5c-1.4-3.4-2.8-6.7-3.9-10.1
					C1092.4,834,1092.3,833.3,1092,833z"/>
				<path class="st1" d="M943,893.8l-0.4-0.2c-0.2-0.3,0.6,0.2,1,0.4c0.5,0.2,1.2,0.4,1.4,0.6c0.2,0.3,0.3,0.7,0.1,1
					c-0.4,0.8-1.2,0.4-2.4,0.3c-1.3-0.1-3-0.2-3.8-0.3c-6.4-2.3-13.2-5.1-19.8-7.7c-0.9-0.4-1.7-0.7-2.5-1.3
					c-3.7-1.1-7.7-3.1-11.5-4.7c-1.1-0.4-2.1-0.8-3.2-1.2c-1.1-0.5-2.2-1-3.3-1.7c-0.8-0.5-1.7-1.1-2.5-2.1c-0.8-0.9-1.8-2.3-2-4.3
					l0-0.3l0,0.2c0,0.1,0,0,0,0l0-0.1l0-0.1l0-0.2l0-0.4c0-0.3,0-0.5,0.1-0.7c0.1-0.5,0.2-1,0.4-1.5c0.2-0.5,0.4-1,0.7-1.5
					c0.3-0.5,0.9-1.1,1.4-1.5c1-0.8,2.1-1.1,3-1.3c0.9-0.2,1.7-0.3,2.5-0.3c3.1,0,5.8,0.5,8.4,1.1c1.3,0.3,2.6,0.5,3.8,0.9
					c5.9,1.8,11.7,4,16.1,5.6c5.9,2.2,12.2,4.1,18.5,6.1c1.3,0.7,3.5,1.4,5.1,1.9c3.9,1.4,8.3,2.8,11.8,4.8c0.8,0.4,1.7,1.1,2.6,1.7
					c0.9,0.5,2,1.1,2.6,1.7c0.4,0.4,0.3,1.2,1,1.5c-0.5,0.8,0,2.4-2.1,2.1c-1.4-0.2-2.8-1.2-4-1.8c-8-3.9-19.1-7.3-27.6-10.2
					c-3.1-1.1-6.5-1.9-9.1-3.4c-3-0.8-5.9-2-8.7-3c-4.1-1.5-8.4-2.8-12.6-3.6c-2.1-0.4-4.3-0.7-6.2-0.5c-0.5,0-0.9,0.1-1.3,0.2
					c-0.4,0.1-0.7,0.3-0.8,0.4c-0.1,0.1-0.3,0.4-0.4,0.7c-0.1,0.2-0.1,0.3-0.1,0.5c0,0.1,0,0.2,0,0.3l0,0.1l0,0.2l0-0.2
					c0,0.4,0.2,0.8,0.5,1.2c0.6,0.8,1.5,1.5,2.6,2.1c1,0.6,2.2,1.1,3.5,1.7c2.5,1.1,5,2.2,7.6,3.3c9.2,4.1,18.1,7.8,27.1,12.1
					C940.5,892.7,942,893.6,943,893.8z"/>
				<path class="st1" d="M941.3,909.6l-0.4-0.1c-0.2-0.3,0.6,0.1,1,0.2c0.5,0.1,1.2,0.2,1.4,0.4c0.2,0.3,0.3,0.7,0.2,1
					c-0.2,0.8-1.1,0.6-2.2,0.6c-1.2,0.1-2.8,0.3-3.6,0.3c-6.4-1.2-13.3-2.9-19.8-4.4c-0.9-0.2-1.7-0.5-2.5-0.9
					c-3.6-0.6-7.7-2.1-11.4-3.3c-1-0.3-2.1-0.6-3.2-0.9c-1-0.3-2-0.7-3-1c-2.8-1-5.9-2.1-9.1-3.8c-1.6-0.8-3.2-1.7-4.9-3.3
					c-0.8-0.9-1.7-1.9-2.1-3.4c-0.1-0.3-0.2-0.7-0.2-1.1c-0.1-0.4-0.1-0.8-0.1-1.1c0-0.7,0.1-1.4,0.3-2.1c0.3-1,0.9-2,1.6-2.8
					c0.8-0.8,1.6-1.4,2.5-1.7c2-0.8,3.8-0.9,5.4-0.9c1.6,0,3.1,0.1,4.6,0.3c2.9,0.4,5.5,0.9,7.8,1.4c6,1.4,12.1,2.5,18.3,3.8
					c1.3,0.5,3.5,1,5,1.3c3.9,1,8.2,2,11.6,3.6c0.8,0.4,1.7,1,2.6,1.4c0.9,0.5,2,0.9,2.6,1.4c0.4,0.4,0.4,1.2,1.1,1.4
					c-0.4,0.9,0.2,2.4-1.9,2.3c-1.4-0.1-2.7-0.9-4-1.4c-7.9-3.2-18.7-5.3-27.1-7.1c-3-0.7-6.4-1.1-9-2.2c-2.9-0.4-5.8-1.1-8.5-1.4
					c-2.2-0.2-4.4-0.3-6.2,0.3c-0.9,0.3-1.5,0.7-1.7,1.3c-0.2,0.3-0.2,0.6-0.3,1c0,0.2,0,0.4,0,0.5c0,0.1,0,0.2,0,0.2l0.1,0.2
					c0.2,0.6,0.9,1.3,1.6,1.9c0.8,0.6,1.7,1.1,2.7,1.7c1.9,1,4,1.8,6.1,2.7c4.7,1.8,9.4,3.3,14.6,5c4.6,1.4,9.1,2.7,13.6,3.9
					c4.5,1.2,9,2.5,13.5,3.8C938.8,909,940.3,909.6,941.3,909.6z"/>
				<path class="st1" d="M936,920.5l-0.4-0.1c-0.2-0.2,0.5,0.1,0.9,0.1c0.5,0.1,1.1,0.1,1.3,0.2c0.2,0.3,0.3,0.6,0.3,1
					c-0.2,0.9-0.9,0.7-1.9,0.9c-1.1,0.2-2.5,0.6-3.2,0.7c-5.8-0.5-12-1.3-18-2c-0.8-0.1-1.6-0.2-2.3-0.5c-3.3-0.1-7.1-1-10.5-1.5
					c-1-0.2-2-0.2-3-0.4c-0.9-0.2-1.9-0.3-2.8-0.5c-1.3-0.3-2.7-0.6-4.2-1c-0.7-0.2-1.5-0.4-2.3-0.7c-0.8-0.3-1.6-0.7-2.5-1.1
					c-0.5-0.3-0.9-0.5-1.3-0.9c-0.5-0.4-0.9-0.8-1.3-1.4c-0.2-0.3-0.4-0.6-0.6-0.9c-0.1-0.3-0.3-0.7-0.4-1.1
					c-0.2-0.7-0.3-1.5-0.2-2.2c0.1-1.4,0.6-2.6,1.2-3.5c0.2-0.2,0.3-0.5,0.5-0.7c0.2-0.2,0.4-0.5,0.6-0.7c0.4-0.5,0.9-0.8,1.4-1.2
					c1.4-0.9,2.9-1.5,4.2-1.7c1.6-0.2,3.1-0.2,4.5-0.1c1.4,0.1,2.7,0.3,4,0.5c2.6,0.4,4.9,0.9,6.9,1.3c5.3,1.2,10.7,2,16.3,2.6
					c1.2,0.4,3.1,0.6,4.5,0.8c3.5,0.5,7.4,0.8,10.7,1.8c0.7,0.2,1.6,0.7,2.5,1c0.9,0.3,1.9,0.5,2.5,0.9c0.4,0.3,0.5,1.1,1.2,1.2
					c-0.2,0.9,0.6,2.4-1.3,2.6c-1.3,0.2-2.6-0.4-3.8-0.7c-7.6-1.7-17.4-2.4-25.1-3.8c-2.8-0.5-5.8-0.8-8.2-1.8
					c-2.6-0.3-5.2-1-7.6-1.3c-2-0.3-3.9-0.4-5.8-0.2c-0.4,0.1-0.9,0.1-1.3,0.3l-0.6,0.2l-0.5,0.3c-0.2,0.1-0.3,0.2-0.5,0.3
					c-0.1,0.1-0.3,0.2-0.4,0.3c-0.1,0.1-0.2,0.3-0.3,0.4c-0.1,0.2-0.2,0.3-0.3,0.5c-0.4,0.7-0.5,1.3-0.3,1.8
					c0.1,0.1,0.1,0.2,0.1,0.3c0.1,0.1,0.2,0.2,0.2,0.3c0.1,0.1,0.3,0.2,0.4,0.3c0.1,0.1,0.3,0.2,0.5,0.3c1.4,0.9,3.4,1.4,5.3,1.9
					c4.3,1.1,8.8,1.8,13.6,2.7c8.5,1.5,16.7,2.7,25,4.3C933.7,920.2,935.1,920.6,936,920.5z"/>
				<path class="st1" d="M667.9,956.5l0.4,0c0.3,0.2-0.6,0-1-0.1c-0.5,0-1.1,0-1.4-0.2c-0.2-0.3-0.4-0.6-0.4-0.9
					c0.1-0.9,0.9-0.8,2-1c1.1-0.3,2.6-0.8,3.4-0.9c6.2,0,13,0.4,19.4,0.6c0.9,0,1.7,0.1,2.5,0.3c1.7-0.1,3.6-0.1,5.5-0.1
					c2.1,0,4.4,0.2,6.9,1.2c1.3,0.6,2.9,1.5,3.9,3.1c0.5,0.7,0.8,1.4,1,2.2c0.2,0.8,0.4,1.6,0.2,2.8c-0.1,0.4-0.2,0.9-0.4,1.4
					c-0.2,0.5-0.5,0.8-0.8,1.2c-0.3,0.4-0.6,0.6-0.9,0.8c-0.3,0.2-0.6,0.4-0.9,0.6c-1.1,0.6-2.1,0.8-3,1c-1.8,0.4-3.5,0.5-5.2,0.5
					c-3.3,0.1-6.6,0-9.8,0c-1.2,0-2.3,0.1-3.5,0c-5.4-0.2-10.9,0-15.1,0.3c-5.6,0.4-11.3,1.8-16.9,3.6c-1.3,0.1-3.2,0.8-4.6,1.3
					c-3.5,1.1-7.3,2.8-10.8,3.6c-0.8,0.2-1.8,0.3-2.7,0.5c-1,0.2-2,0.6-2.8,0.6c-0.5,0-1-0.6-1.7-0.3c-0.3-0.9-1.8-1.7-0.1-2.9
					c1.1-0.8,2.6-1.1,3.9-1.5c4-1.3,8.4-3,13-4.5c4.5-1.5,9.1-2.9,13.3-3.7c3-0.6,6.2-1.3,9-1.1c2.8-0.5,5.8-0.5,8.5-0.5
					c4.4,0,8.9,0,13.3,0c2.2,0,4.4,0,6.6-0.1c2.1-0.1,4.4-0.2,6-0.8c0.4-0.2,0.7-0.4,0.8-0.5c0,0,0.1,0,0-0.1c0,0,0,0,0-0.1
					c0-0.1,0-0.2,0-0.4c0-0.4-0.2-0.8-0.4-1.2c-0.2-0.4-0.4-0.7-0.8-0.9c-0.7-0.6-1.7-0.9-2.8-1.1c-1.1-0.2-2.3-0.3-3.6-0.3
					c-4.7-0.1-9.2-0.4-13.7-0.8c-4.5-0.3-9-0.8-13.5-1.3C670.5,956.6,668.9,956.3,667.9,956.5z"/>
				<path class="st1" d="M659.2,927.3l0.5-0.3c0.4,0-0.7,0.4-1.1,0.6c-0.6,0.3-1.3,0.8-1.7,0.9c-0.4-0.1-0.8-0.2-1-0.5
					c-0.4-0.8,0.6-1.3,1.7-2.3c1.2-1,2.6-2.6,3.4-3.2c7.2-4.4,15.2-8.9,22.6-13.5c1.1-0.6,1.9-1.2,3-1.6c1.9-1.4,4.1-2.8,6-4.1
					c0.5-0.3,0.8-0.6,1.2-1c0.3-0.3,0.6-0.6,0.7-0.9c0.2-0.2,0.2-0.5,0.2-0.3c0,0,0-0.1-0.1-0.3c-0.1-0.2-0.4-0.5-0.7-0.7
					c-0.1,0-0.1,0-0.2-0.1c-0.1,0-0.2-0.1-0.3-0.1c-0.5-0.1-1.6,0-2.6,0.3c-3.1,0.9-6.7,2.8-10.4,4.9c-3.7,2.2-7.5,4.4-11.3,6.5
					c-1.4,0.8-2.6,1.7-4,2.5c-3.1,1.8-6.3,3.8-8.7,5.9c-1.2,1-2.4,2.3-3.5,3.4c-1.1,1.2-2.1,2.3-3,3.4c-4.9,5.8-9.1,12.7-11.8,20.1
					c-0.9,1.6-1.6,4.1-2.1,6c-0.6,2.4-1.1,4.9-1.4,7.4c-0.3,2.5-0.4,5-0.5,7.4c0,1-0.2,2.3-0.2,3.6c0,1.3,0.3,2.7,0.2,3.7
					c-0.1,0.7-0.7,1.1-0.5,2.1c-1,0-1.8,1.8-3.1-0.9c-0.8-1.8-0.9-4-1-5.8c-0.4-5.9,0-12.7,1.8-19c1.7-6.4,4.5-12.4,7.5-17.3
					c2.2-3.5,4.6-7.4,7.3-9.9c1.2-1.6,2.5-3.1,3.8-4.5c0.7-0.7,1.4-1.4,2.1-2.1c0.7-0.7,1.5-1.4,2.3-1.9c2.5-1.9,5.1-3.5,7.6-5.1
					c2.6-1.6,5.2-3.1,7.8-4.7l7.8-4.6c2.6-1.5,5.3-3,8.2-4.2c1.6-0.7,3.3-1.3,5.1-1.6c0.4-0.1,1-0.1,1.4-0.2c0.5,0,1,0,1.5,0.1
					c1,0.1,2.2,0.6,3.1,1.3c0.8,0.7,1.5,1.5,2,2.5c0.2,0.5,0.4,1.1,0.4,1.7c0.1,0.7-0.1,1.3-0.3,1.8c-0.8,2.2-2.5,3.5-4,4.5
					c-2.7,1.9-5.4,3.4-8,5c-2.7,1.6-5.4,3.1-8.1,4.6c-5.4,3-10.8,5.9-16.3,8.7C662.2,925.7,660.2,926.5,659.2,927.3z"/>
				<path class="st1" d="M659.5,944.8l0.4-0.2c0.3,0.1-0.6,0.2-0.9,0.3c-0.5,0.2-1.1,0.5-1.4,0.4c-0.3-0.2-0.6-0.4-0.7-0.7
					c-0.2-0.8,0.6-1.1,1.5-1.7c1-0.7,2.2-1.8,2.8-2.2c5.9-2.5,12.4-5,18.5-7.6c0.9-0.4,1.6-0.6,2.5-0.8c3.2-1.7,7.2-3.1,10.6-4.7
					c1-0.4,1.9-1,2.9-1.4c0.9-0.5,1.8-0.9,2.7-1.3c2.5-1.3,5.2-2.8,7.6-4.5c1.2-0.8,2.3-1.8,2.9-2.6c0.3-0.4,0.4-0.7,0.5-1
					c0-0.1,0-0.3,0-0.5c0-0.2,0-0.3-0.1-0.4c0-0.1-0.1-0.1-0.1-0.1c0,0-0.1-0.1-0.4-0.1c-0.6-0.2-1.8-0.2-2.9-0.1
					c-1.2,0.2-2.4,0.4-3.7,0.8c-2.5,0.7-4.8,1.6-6.9,2.4c-5.6,2.1-11.4,4.7-17.3,7c-1.4,0.3-3.4,1.1-4.9,1.6
					c-3.8,1.2-7.9,2.7-11.8,3.1c-0.8,0.1-1.9,0.1-2.9,0.1c-1,0.1-2.1,0.3-2.9,0.1c-0.6-0.1-0.9-0.8-1.6-0.6c-0.1-0.9-1.4-2,0.4-2.9
					c1.2-0.6,2.8-0.6,4.1-0.8c8.4-1.4,18.5-5.5,26.5-8.6c2.9-1.1,5.8-2.6,8.6-3.2c2.7-1.3,5.6-2.2,8.4-2.9c1.2-0.3,2.3-0.5,3.6-0.7
					c1.2-0.1,2.5-0.2,3.9,0c0.7,0.1,1.4,0.3,2.1,0.7c0.7,0.4,1.4,1,1.8,1.7c0.4,0.7,0.7,1.5,0.8,2.2c0,0.4,0.1,0.7,0,1.1
					c0,0.4,0,0.8-0.1,1.1c-0.3,1.5-1.2,2.8-2,3.7c-0.4,0.5-0.9,0.9-1.4,1.4c-0.5,0.4-0.9,0.8-1.4,1.2c-1.9,1.5-4,2.6-6,3.8
					c-4.6,2.4-9.2,4.5-14.2,6.5c-8.9,3.6-17.5,6.9-26.5,9.7C662,943.9,660.4,944.3,659.5,944.8z"/>
				<path class="st1" d="M665.5,956.4l0.4-0.1c0.3,0.1-0.5,0.2-0.9,0.3c-0.5,0.1-1,0.4-1.3,0.3c-0.3-0.2-0.6-0.4-0.7-0.8
					c-0.2-0.9,0.6-1,1.5-1.6c1-0.6,2.2-1.6,2.8-2c5.8-2,12.1-3.8,18.2-5.6c0.9-0.3,1.6-0.4,2.4-0.5c3.2-1.3,7.1-2.1,10.5-3.1
					c1-0.3,1.9-0.7,2.8-1c0.9-0.3,1.8-0.6,2.6-0.9c1.2-0.5,2.5-1,3.7-1.5c0.6-0.3,1.1-0.6,1.7-0.9c0.5-0.3,1-0.6,1.3-1
					c0.7-0.7,0.9-1.1,0.9-1.7c0-0.7-0.4-1.5-0.7-1.7c-0.3-0.2-0.9-0.3-1.7-0.5c-0.9-0.2-2-0.1-3.2,0c-1.2,0.1-2.4,0.4-3.5,0.6
					c-2.4,0.6-4.6,1.3-6.7,1.9c-5.4,1.7-11,3.6-16.7,5.5c-1.4,0.2-3.3,0.8-4.7,1.2c-3.6,1-7.6,2.2-11.2,2.4c-0.8,0.1-1.8,0-2.8,0
					c-1,0-2,0.2-2.8,0c-0.5-0.1-0.8-0.8-1.5-0.7c-0.1-0.9-1.3-2,0.5-2.9c1.2-0.6,2.7-0.5,3.9-0.6c8-1,17.7-4.3,25.5-6.7
					c2.8-0.9,5.7-2.1,8.3-2.4c2.6-1.1,5.4-1.8,8.1-2.3c2.2-0.4,4.4-0.8,6.9-0.6c1.2,0.1,2.5,0.4,3.8,1.1c0.6,0.3,1.2,0.8,1.7,1.4
					c0.5,0.6,0.8,1.2,1.1,1.8c0.5,1.3,0.7,2.7,0.4,4.1c-0.1,0.4-0.2,0.7-0.3,1c-0.1,0.3-0.3,0.6-0.5,1c-0.2,0.3-0.4,0.6-0.6,0.9
					c-0.2,0.3-0.4,0.6-0.7,0.8c-1.9,1.8-4,2.8-6.1,3.6c-4.6,1.8-9.2,3.1-14.2,4.4c-8.8,2.3-17.2,4.5-25.8,6.5
					C667.9,955.7,666.4,955.9,665.5,956.4z"/>
			</g>
			<g id="Face_1_">
				<path class="st1" d="M934.3,643.8l-0.8,0.3c-0.5,0,1.1-0.4,1.7-0.6c0.9-0.3,2-0.7,2.6-0.7c0.5,0.1,1,0.3,1.1,0.6
					c0.2,0.9-1.3,1.3-3.1,2.2c-2,1-4.4,2.5-5.8,3c-2.9,0.9-5.8,1.9-8.9,2.6c-3,0.8-6.1,1.5-9.3,2.1c-6.3,1.1-12.9,1.9-19.7,1
					c-1-0.1-1.8-0.3-2.7-0.5c-0.9-0.2-1.7-0.6-2.6-1c-1.9-0.6-3.9-1.5-5.6-3.1c-0.9-0.8-1.7-1.8-2.2-2.8c-0.3-0.5-0.6-1-0.8-1.5
					c-0.2-0.5-0.5-1-0.6-1.5c-1.4-4-1.8-8-2.1-11.7c-0.2-2.1-0.3-4.1-0.4-6.2c0-2,0-3.9,0-5.8c0-2.7,0.1-5.6,0.2-8.5
					c0.1-2.9,0.3-6,0.3-8.7c0-1.3-0.2-2.5-0.5-3.6c-0.3-1.1-0.9-2.2-1.6-3.2c-1.4-2-3.4-3.6-5.8-4.9c-1.8-1-3.8-1.7-5.9-2.7
					c-0.6-0.3-1.3-0.7-2-1.1c-0.7-0.4-1.4-1-2.2-1.8c-0.8-0.8-1.5-2.1-1.6-3.5c-0.2-1.3,0.3-3,1-3.9c0.7-1,1.5-1.6,2.2-2.1
					c0.7-0.5,1.4-0.8,2-1.2c1.3-0.6,2.5-1.2,3.6-1.7c2.3-1,4.5-1.9,6.4-3c2-1,3.7-2.1,5.2-3.3c2-1.5,3.9-3.3,5.4-5.3
					c1.5-2,2.7-4.2,3.4-6.6c0.8-2.4,1.2-5.1,1.6-8c0.4-2.8,0.8-5.7,1.3-8.7c0.3-1.3,0.7-2.9,1.1-4.6c0.4-1.7,0.7-3.4,1.1-4.8
					c0.5-1.8,1-3.7,1.5-5.5c0.5-1.9,1.1-3.7,1.8-5.5c1.3-3.6,2.8-7.2,4.5-10.3c0.7-1.4,1.8-2.9,2.8-4.5c1-1.6,2-3.4,2.9-4.4
					c0.6-0.7,1.4-0.6,2.1-1.8c0.7,0.8,2.6-0.1,1.3,3.4c-0.9,2.3-2.4,4.5-3.5,6.6c-3.6,6.8-6.6,15.1-8.7,23.6
					c-1.1,4.3-1.9,8.6-2.5,12.9c-0.7,4.3-1.2,8.5-2.4,12.5c-0.9,2.9-2.3,5.8-4.2,8.3c-1.8,2.5-4.1,4.5-6.3,6
					c-4.3,3.7-9.8,5.8-14.5,7.8c-0.9,0.4-1.8,0.8-2.6,1.3c-0.4,0.2-0.8,0.5-1.1,0.7c-0.3,0.3-0.5,0.5-0.6,0.7
					c-0.2,0.4-0.1,0.8,0.2,1.3c0.4,0.5,1.2,1,2,1.4c3.5,1.8,7.9,3.3,11.3,6.3c1.8,1.5,3.2,3.3,4.3,5.4c1.1,2,1.7,4.5,1.8,6.7
					c0.1,2.3-0.1,4.4-0.1,6.5l-0.2,6.3c-0.1,4.7-0.3,9.3-0.1,13.9c0.1,2.3,0.3,4.7,0.6,7c0.3,2.3,0.8,4.7,1.6,6.8
					c0.8,1.9,1.8,3.5,3.5,4.6c0.8,0.6,1.7,1,2.6,1.4l1.4,0.5l1.5,0.4c4.1,0.9,8.4,0.8,12.6,0.5c8.5-0.7,16.9-2.6,25.2-4.8
					C929.7,645.3,932.7,644.6,934.3,643.8z"/>
				<path class="st1" d="M912.5,602.1l-0.1,0.1c-0.2-0.1,0.1-0.1,0.2-0.2c0.1-0.1,0.3-0.3,0.4-0.2c0.2,0.2,0.4,0.4,0.6,0.7
					c0.5,0.7,0.2,0.8,0.2,1.3c-0.1,0.5-0.1,1.3-0.2,1.5c-1.5,1.4-3.3,2.6-5.1,3.7c-0.3,0.2-0.5,0.3-0.8,0.2
					c-0.8,0.9-2.1,1.2-3.2,1.8c-0.3,0.1-0.6,0.4-0.9,0.5c-0.3,0.1-0.6,0.3-0.9,0.4c-1.6,0.9-3.6,1.7-5.5,2.5c-0.3,0.1-0.6,0.4-1,0.5
					c-1.7,0.5-3.4,1.2-4.7,1.7c-1.8,0.6-3.6,1.4-5.4,2.1c-0.5-0.1-1.1,0.1-1.6,0.2c-1.2,0.2-2.6,0.5-3.9,0c-0.3-0.1-0.7-0.4-1-0.6
					c-0.3-0.2-0.7-0.3-1-0.6c-0.2-0.3-0.4-1-0.6-1c-0.1-0.9-0.7-2.2-0.1-2.7c0.3-0.3,0.9,0.1,1.3,0.3c2.7,0.8,5.8-0.4,8.2-1.1
					c0.9-0.3,1.7-0.9,2.6-0.7c0.7-0.5,1.6-0.7,2.4-1c2.6-0.9,5-2.2,7.5-3.3c1.4-0.6,2.7-1.2,4.2-1.9c2.6-1.2,5-2.5,7.6-3.7
					C911.8,602.5,912.4,602.4,912.5,602.1z"/>
				<path class="st1" d="M906.2,605.2L906.2,605.2c-0.1-0.2,0,0,0.1,0c0.1,0,0.3,0,0.3,0.2c0,0.3,0,0.6-0.1,0.9
					c-0.2,0.8-0.4,0.7-0.7,1c-0.3,0.3-0.8,0.8-1,0.9c-1.4,0-2.9-0.4-4.3-0.5c-0.2,0-0.4-0.1-0.5-0.3c-0.8,0.3-1.7-0.2-2.5-0.3
					c-0.2,0-0.5,0-0.7,0c-0.2,0-0.4,0-0.6-0.1c-1.2-0.1-2.7-0.2-4.1-0.3c-0.3,0-0.5,0.1-0.8,0.1c-1.2-0.2-2.4,0-3.4,0
					c-1.3,0-2.6,0.4-3.9,0.8c-0.3-0.2-0.8-0.1-1.1,0c-0.9,0-1.8,0.2-2.7-0.4c-0.2-0.1-0.5-0.5-0.8-0.7c-0.3-0.2-0.6-0.3-0.8-0.7
					c-0.2-0.3-0.4-1-0.6-1c-0.2-0.9-0.8-2.2-0.4-2.6c0.3-0.3,0.7,0.1,1.1,0.3c2.2,0.8,4.6,0.1,6.6-0.1c0.7-0.1,1.5-0.5,2.1-0.1
					c0.7-0.3,1.4-0.2,2-0.2c2.1,0.1,4.3-0.1,6.4,0.1c1.2,0.1,2.3,0.4,3.5,0.7c2.1,0.6,4.2,1.1,6.2,2.1
					C905.7,605,906,605.3,906.2,605.2z"/>
				<path class="st1" d="M920,556.8l-0.1-0.1c0-0.2,0.1,0.1,0.2,0.1c0.1,0.1,0.3,0.1,0.3,0.2c-0.1,0.3-0.2,0.5-0.3,0.8
					c-0.4,0.8-0.6,0.6-1,0.8c-0.4,0.2-1,0.6-1.2,0.7c-0.7-0.2-1.5-0.4-2.2-0.6c-0.7-0.2-1.5-0.5-2.2-0.6c-0.2,0-0.4-0.1-0.5-0.4
					c-0.9,0.1-1.7-0.4-2.6-0.6c-0.2,0-0.5,0-0.7,0c-0.2,0-0.5-0.1-0.7-0.1c-0.7-0.1-1.4-0.1-2.1-0.2c-0.7,0-1.5-0.1-2.3-0.1
					c-0.3,0-0.5,0.1-0.8,0.1c-1.3-0.1-2.6,0.1-3.6,0.3c-1.4,0.2-2.7,0.8-4,1.4c-0.4-0.1-0.8,0.1-1.2,0.2c-0.4,0.1-0.9,0.3-1.4,0.3
					c-0.5,0.1-1,0.1-1.6-0.1c-0.3-0.1-0.6-0.3-1-0.4c-0.3-0.1-0.7-0.1-1-0.4c-0.3-0.2-0.7-0.8-0.9-0.8c-0.4-0.8-1.4-1.9-1-2.4
					c0.2-0.4,0.9-0.1,1.3-0.1c2.6,0.1,5.1-1.2,7.4-1.8c0.8-0.2,1.6-0.7,2.4-0.4c0.7-0.4,1.5-0.4,2.3-0.4c2.4-0.1,4.8-0.4,7.2-0.1
					c1.3,0.2,2.6,0.5,4,0.9c2.4,0.8,4.6,1.7,6.6,3.2C919.4,556.5,919.7,556.9,920,556.8z"/>
				<path class="st1" d="M926.8,532.8C926.8,532.8,926.8,532.7,926.8,532.8C926.8,532.5,926.9,532.8,926.8,532.8
					c0.2,0.1,0.3,0.1,0.3,0.3c-0.1,0.3-0.2,0.5-0.3,0.8c-0.4,0.8-0.5,0.6-0.9,0.8c-0.4,0.2-0.9,0.6-1.1,0.7c-1.3-0.3-2.6-1-3.9-1.6
					c-0.2-0.1-0.3-0.2-0.4-0.4c-0.8,0-1.5-0.7-2.2-1.1c-0.2-0.1-0.4-0.1-0.6-0.2c-0.2-0.1-0.4-0.2-0.6-0.3c-1.1-0.5-2.3-1.2-3.5-1.9
					c-0.2-0.1-0.5-0.1-0.7-0.3c-0.9-0.7-2.1-1.2-2.9-1.6c-1.1-0.6-2.3-1-3.6-1.5c-0.2-0.3-0.6-0.5-0.8-0.7c-0.7-0.5-1.5-0.9-1.8-2
					c-0.1-0.2-0.1-0.7-0.1-1c-0.1-0.3-0.2-0.6-0.1-1c0-0.3,0.4-1,0.3-1.1c0.5-0.8,0.9-2.1,1.5-2.2c0.3-0.1,0.4,0.6,0.5,0.9
					c0.9,2,3.1,2.8,4.6,3.6c0.6,0.3,1.3,0.3,1.6,1c0.6,0.1,1.1,0.5,1.6,0.8c1.6,1,3.4,1.6,5,2.6c0.9,0.5,1.8,1.1,2.7,1.7
					c1.6,1.1,3.3,2.1,4.8,3.5C926.3,532.5,926.5,532.9,926.8,532.8z"/>
				<circle cx="898.9" cy="562.3" r="7.5"/>
				<path class="st1" d="M884.8,584.3C884.8,584.3,884.8,584.3,884.8,584.3C884.6,584.2,884.8,584.3,884.8,584.3
					c0.1,0,0.1-0.1,0.2,0c0.1,0.2,0.3,0.5,0.5,0.8c0.4,0.8,0.3,0.8,0.4,1.1c0.1,0.3,0.3,1,0.3,1.1c-0.3,0.5-0.9,0.8-1.3,1.1
					c-0.1,0-0.1,0-0.3-0.1c-0.1,0.5-0.6,0.3-0.9,0.5c-0.1,0-0.1,0.2-0.2,0.2c-0.1,0-0.2,0.1-0.2,0.1c-0.4,0.3-1,0.5-1.5,0.7
					c-0.1,0-0.1,0.2-0.2,0.2c-0.5,0.1-0.9,0.3-1.3,0.5c-0.5,0.2-0.8,0.6-1.2,1c-0.2-0.2-0.3,0-0.5,0c-0.4,0-0.7,0.2-1.4-0.4
					c-0.1-0.1-0.4-0.4-0.6-0.6c-0.2-0.2-0.4-0.3-0.6-0.6c-0.2-0.2-0.5-0.9-0.6-0.9c-0.4-0.8-1.1-2-1.1-2.4c0-0.2,0.4,0.2,0.6,0.3
					c1.3,0.9,1.9,0.2,2.6-0.2c0.2-0.1,0.3-0.5,0.8-0.2c0.1-0.3,0.4-0.3,0.6-0.4c0.7-0.2,1.3-0.8,2-1.1c0.4-0.2,0.8-0.3,1.3-0.3
					c0.8-0.1,1.6-0.4,2.5-0.3C884.6,584.4,884.8,584.6,884.8,584.3z"/>
			</g>
			<g id="Hair_1_">
				<path class="st1" d="M1132.9,554.5c-0.2,0.7-0.5,1.5-0.8,2.2c-0.4,0.6-0.1-0.1,0.4-1.2c0.4-1.1,0.9-2.7,1.1-3.7
					c0.3-1.4,0.5-2.9,0.4-4.2c0-1.3-0.3-2.5-0.5-3.2c-0.2-1.3-0.7-2.4-0.4-2.6c0.4-0.2,1.5,0.8,2.2,2.9c0.7,2.1,0.7,4.9,0.2,7.9
					c-0.5,3.2-1.7,6.7-2.9,9.8c-0.6,1.6-1.3,3-1.9,4.3c-0.7,1.3-1.3,2.4-1.8,3.4c-2.4,3.8-5.3,7.4-8.7,10.4c-3.4,3.1-7.3,5.5-11,7.8
					c-3.7,2.3-7.3,4.5-10.6,7.1c-0.8,0.7-1.6,1.3-2.4,2l-2.3,2.1c-1.4,1.5-2.9,3-4.2,4.7c-2.7,3.2-5.2,6.7-7.2,10.4
					c-2.1,3.7-3.7,7.6-5.6,11.8c-1,2.1-2.1,4.3-3.6,6.3c-0.4,0.5-0.7,1-1.2,1.5l-1.3,1.4c-1,0.9-2,1.7-3.1,2.4
					c-4.3,2.9-9.2,4-13.5,5c-4.9,1.1-8.1,1.9-10.7,4.5c-1.2,1.4-2.2,3.1-2.7,5c-0.2,0.9-0.4,2-0.5,3.1c-0.1,1.2-0.1,2.5-0.6,4.3
					c-0.2,0.9-0.7,1.9-1.3,2.8c-0.7,0.9-1.6,1.7-2.4,2.1c-1.7,1-3.4,1.3-4.9,1.5c-3.1,0.4-5.9,0.1-8.7-0.4
					c-5.5-0.9-10.7-2.6-15.8-4.6c-5-2-9.8-4.4-14.3-6.9c-5-2.8-10-6-14.6-9.5c-4.4-3.3-8.7-6.9-12.5-10.7
					c-5.6-5.4-11-11.7-15.8-18.7c-2.3-3.5-4.6-7.2-6.5-11.1c-0.9-2-1.9-4-2.8-5.9c-0.8-2-1.6-4.1-2.4-6.2c-3-8.3-4.9-17.1-6.4-25.7
					c-1.5-8.6-2.8-17.2-4.8-25.3c-1.5-6-3.7-11.6-6.3-17.1c-0.8-1.6-1.7-3.1-2.5-4.7c-0.9-1.5-1.9-3-2.9-4.5
					c-0.9-1.5-2.1-2.9-3.2-4.3l-1.7-2.1c-0.5-0.7-1.1-1.4-1.7-2.1c-1.2-1.4-2.6-3.1-3.6-5c-1.1-1.9-1.8-4.2-1.9-6.5
					c0-0.6,0-1.2,0-1.7c0.1-0.6,0.1-1.2,0.2-1.7c0.3-1.1,0.5-2.2,0.9-3.1c0.2-0.5,0.4-1,0.6-1.5l0.7-1.4l0.4-0.7l0.4-0.6l0.8-1.2
					c2.3-3.2,5-5.8,7.8-8.2c2.8-2.3,5.7-4.3,8.7-6.1c5.9-3.6,11.8-6.3,17.5-8.5c7.5-2.9,15.4-5.1,23.5-6.6
					c8.1-1.5,16.3-2.3,24.7-2.2c8.3,0.1,16.8,1.1,25,3.3c2.1,0.5,4.1,1.2,6.1,1.8c2,0.7,4,1.3,6,2.1c4,1.5,7.8,3.2,11.7,5.1
					c3.3,1.9,7.6,4.2,11.7,6.9c2.1,1.3,4.1,2.8,6,4.1c1.9,1.4,3.7,2.8,5.4,4.2c4.1,3.4,8.1,7.2,11.8,11.3c1.8,2.1,3.6,4.2,5.3,6.5
					c1.7,2.2,3.3,4.5,4.8,6.7c6.1,9,11.7,17.9,18.3,24.6c2.9,2.9,6.8,6.2,11.4,8c2.3,0.9,4.9,1.5,7.4,1.7c2.5,0.2,5,0.4,6.7,0.8
					c1.3,0.3,2,0.8,2.8,1.3c0.8,0.6,1.7,1.2,2.8,2.6c-0.7-0.1-0.6,0.9-1.2,1c-0.3,0.1-0.6,0-1.2-0.3c-0.6-0.2-1.5-0.7-3.8-0.9
					c-1.5-0.2-3.2-0.2-5.1-0.3c-1.9-0.1-4-0.3-6-0.7c-4.1-0.9-7.7-2.7-10.8-4.7c-5-3.3-9.1-7.7-12.8-12.4
					c-3.7-4.7-7.1-9.8-10.5-14.9c-3.4-5.1-6.9-10.2-10.9-14.8c-4-4.7-8.6-9-13.5-12.9c-9.8-7.9-20.9-14-32.3-18.3
					c-5.7-2.2-11.5-3.9-17.2-5c-5.7-1.1-11.4-1.7-17-1.8c-4-0.1-8,0-12.1,0.4c-2,0.1-4.1,0.4-6.1,0.7c-2,0.3-4,0.6-6,1
					c-8,1.4-15.6,3.6-22.4,5.9c-3.5,1.4-7,2.9-10.4,4.6c-3.4,1.7-6.7,3.6-9.8,5.6c-3.1,2.1-6.1,4.4-8.7,6.9
					c-2.6,2.5-4.9,5.4-6.1,8.6c-1,2.5-1.3,5.2-0.3,7.6c0.9,2.5,2.7,4.6,4.7,6.9l2.8,3.6c0.9,1.2,2,2.3,2.7,3.7l2.5,3.8l0.6,1
					c0.2,0.3,0.4,0.7,0.6,1l1.1,2l1.1,2l0.5,1c0.2,0.3,0.3,0.7,0.5,1l1.8,4.2c0.3,0.7,0.6,1.4,0.8,2.1l0.8,2.2
					c0.5,1.4,1,2.9,1.4,4.3l1.2,4.4l1,4.4c0.4,1.5,0.6,3,0.9,4.4c0.3,1.5,0.6,3,0.8,4.4c1,5.9,2,11.8,3.2,17.7
					c0.6,2.9,1.2,5.8,2,8.7c0.4,1.4,0.7,2.9,1.2,4.3l1.3,4.2l0.3,1.1l0.4,1l0.8,2.1c0.6,1.4,1,2.8,1.7,4.1l1.9,4
					c0.3,0.7,0.6,1.3,1,2l1,1.9c2.8,5.2,6.1,10.1,9.8,14.7c8.1,10.3,18,19,29.1,26.3c5.5,3.6,11.4,6.9,17.6,9.7
					c3.1,1.4,6.3,2.6,9.6,3.6c3.3,1,6.7,1.9,10.1,2.3c1.5,0.2,3,0.3,4.5,0.2c1.4-0.1,2.9-0.3,4-0.8c0.6-0.3,1-0.6,1.4-1
					c0.3-0.4,0.6-1,0.7-1.6c0.3-1.3,0.3-2.9,0.6-4.5c0.4-3.2,1.8-6.6,4.1-9c2.2-2.6,5.3-4.2,8.4-5.1c3.1-0.9,6.1-1.4,9-2.1
					c2.9-0.8,5.7-1.9,8.1-3.5c2.4-1.6,4.3-3.8,5.8-6.4c1.5-2.6,2.6-5.4,3.9-8.2c2.5-5.6,5.7-11,9.5-15.9c3.8-4.9,8.2-9.3,13.3-12.9
					c5-3.7,10.5-6.4,15.5-9.8c5-3.4,9.4-7.8,12.6-12.9c0.5-0.7,2-2.8,3.4-5.5C1130.9,560.2,1132.3,557,1132.9,554.5z"/>
				<path class="st1" d="M1046.2,627.4l-0.7-0.1c-0.4-0.2,0.9,0.1,1.5,0.2c0.8,0.1,1.8,0.1,2.2,0.2c0.4,0.3,0.7,0.6,0.6,1
					c-0.1,0.9-1.5,0.7-3.2,0.9c-1.9,0.2-4.3,0.5-5.6,0.4c-10.3-1.2-21.1-5.1-30.4-10.5c-1.3-0.8-2.4-1.5-3.5-2.4
					c-5.1-2.8-10.2-7.5-14.5-12c-0.6-0.6-1.2-1.3-1.8-1.9c-0.6-0.6-1.2-1.3-1.8-1.9c-1.1-1.3-2.1-2.5-3.1-3.8
					c-2.9-3.7-5.7-8-8.1-12.7c-2.4-4.7-4.5-9.7-6-14.8c-0.6-1.8-1.2-3.7-1.6-5.6c-1-4.4-1.7-8.8-2.5-12.9c-0.8-4.1-1.7-7.9-2.7-11.1
					c-2.6-8.5-7.2-16.8-13.4-23.8c-1.2-1.8-3.4-4.1-5.1-5.7c-0.5-0.5-1-1-1.6-1.5c-0.6-0.5-1.1-1-1.7-1.5c-1.2-1-2.4-2-3.5-2.9
					c-2.4-1.9-4.9-3.7-7.1-5.4c-1-0.7-2.1-1.8-3.4-2.6c-0.6-0.4-1.3-0.9-2-1.3c-0.7-0.4-1.2-0.8-1.7-1.1c-0.6-0.5-0.5-1.3-1.6-1.8
					c0.6-0.7-0.3-2.6,2.9-1.7c1.1,0.3,2.1,0.8,3.1,1.4c1,0.6,2,1.2,2.8,1.8c5.7,3.7,12,8.1,17.4,13.6c2.8,2.7,5.3,5.6,7.6,8.5
					c1.1,1.5,2.2,3,3.2,4.5c0.5,0.8,1,1.5,1.4,2.2c0.4,0.8,0.9,1.5,1.3,2.2c2.4,4.2,4.7,9.1,5.6,13.5c1.6,4.3,2.4,9,3.2,13.3
					c1.3,7,2.6,13.9,5,20.4c1.2,3.3,2.6,6.4,4.2,9.5c1.6,3.1,3.4,6.1,5.3,8.9c4.3,6.4,9.4,12.2,15.7,17.5
					c5.6,4.7,11.7,8.5,18.2,11.5c3.2,1.5,6.6,2.8,10,3.9c3.4,1.1,6.9,2,10.5,2.7c0.2,0.1,1,0.3,1.9,0.5
					C1044.4,627.4,1045.5,627.5,1046.2,627.4z"/>
				<path class="st1" d="M1095.5,573.3l-0.6,0.2c-0.4-0.1,0.8-0.2,1.3-0.4c0.7-0.2,1.5-0.6,1.9-0.6c0.4,0.1,0.8,0.3,0.9,0.6
					c0.3,0.8-0.9,1.2-2.2,2c-1.5,0.8-3.5,2-4.5,2.3c-4.6,1.1-9.7,1.3-14.6,0.7c-4.9-0.6-9.7-1.9-14.2-3.7c-1.3-0.5-2.3-1-3.4-1.7
					c-2.4-1-4.9-2.3-7.3-4c-2.4-1.6-4.6-3.4-6.7-5.2c-1.2-1-2.4-2-3.5-3c-1.1-1-2.1-2-3.1-3c-5.8-5.8-11.7-13.6-16.8-21
					c-0.9-1.4-2-2.7-2.9-4c-4.2-6.5-8.7-13-12.3-17.8c-4.9-6.4-10.7-12.5-17.4-17.2c-1.4-1.3-3.7-2.8-5.5-3.7
					c-2.2-1.3-4.6-2.5-7.1-3.5c-2.5-1-4.9-1.8-7.2-2.6c-0.5-0.2-1.1-0.4-1.7-0.6c-0.6-0.2-1.2-0.4-1.9-0.6c-0.6-0.2-1.3-0.3-2-0.4
					c-0.7-0.1-1.3-0.3-1.7-0.4c-0.7-0.2-0.9-1-1.9-1c0.2-0.9-1.3-2.2,1.8-2.8c1-0.2,2.1,0,3.1,0.1c1,0.2,2.1,0.4,3,0.6
					c6.1,1.3,12.5,3.8,18.4,7.2c5.9,3.4,11.3,7.8,15.4,12.1c3,3.1,6.2,6.5,8.2,9.8c2.6,3.1,5,6.5,7.1,9.7c7,10.4,14,20.8,22.2,29.9
					c4.6,5.1,9.5,9.7,15.5,13.8c5.3,3.6,11.1,6.2,17.2,7.8c6.1,1.5,12.4,2.1,18.7,1.1c0.2,0,0.9,0,1.7-0.1
					C1094,573.9,1094.9,573.6,1095.5,573.3z"/>
				<path class="st1" d="M1095.7,547.6l-0.3,0c-0.2-0.2,0.5,0,0.8,0.1c0.4,0.1,0.9,0,1.1,0.2c0.2,0.3,0.3,0.6,0.3,0.9
					c-0.1,0.9-0.8,0.7-1.7,0.9c-1,0.3-2.3,0.6-3,0.7c-2.7-0.4-5.4-1-8-2c-2.6-1-5.2-2.1-7.6-3.4c-0.7-0.4-1.2-0.7-1.7-1.3
					c-2.7-1.2-5.4-3.4-7.8-5.3c-0.7-0.5-1.4-1-2.1-1.6c-0.6-0.5-1.3-1.1-1.9-1.6c-3.6-3-7.4-7-10.9-10.7c-0.6-0.7-1.4-1.3-2-2
					c-2.9-3.4-5.9-6.6-8.3-9.2c-3.1-3.4-6.7-6.7-10.3-9.7c-0.6-0.9-1.9-1.9-2.8-2.6c-2.2-1.9-4.8-3.7-6.9-5.5
					c-0.5-0.4-1-1.1-1.6-1.6c-0.6-0.5-1.4-0.9-1.7-1.4c-0.3-0.4-0.2-1.1-0.7-1.4c0.4-0.9-0.1-2.4,1.8-2.3c1.2,0.1,2.3,1.1,3.2,1.7
					c3,2,6.2,4.3,9.2,6.8c3,2.5,5.8,5.1,8.2,7.5c1.7,1.7,3.8,3.4,4.9,5.3c1.7,1.5,3.2,3.3,4.7,4.9c4.7,5.3,9.7,10.4,14.8,15.1
					c2.8,2.6,5.8,5.1,9.1,7.6c5.9,4.3,12.3,7.5,19.2,9.3C1093.7,547.2,1094.9,547.7,1095.7,547.6z"/>
			</g>
			<g id="Body_1_">
				<path class="st1" d="M924.3,712.5c0-0.1,0-0.2,0-0.2c0.2-0.1,0,0.3,0,0.5c0,0.3,0.1,0.6-0.1,0.8c-0.3,0.1-0.6,0.2-0.9,0.2
					c-0.9,0-0.8-0.5-1.1-1c-0.3-0.6-1-1.4-1.1-1.8c-0.3-3.4-0.3-7-0.4-10.5c0-0.5,0-0.9,0.2-1.4c-0.4-1.9,0-4.1,0-6.1
					c0-0.6-0.1-1.1-0.1-1.7c0-0.5,0-1.1,0-1.6c0-3,0.1-6.6,0.1-10.1c0-0.6-0.1-1.3-0.1-1.9c0.2-2.9,0.1-6,0.2-8.3
					c0.1-3.1-0.2-6.4-0.3-9.7c0.2-0.7,0.2-1.9,0.2-2.7c0.1-2.1,0.1-4.3,1-6.3c0.2-0.4,0.6-0.9,0.8-1.5c0.3-0.5,0.4-1.1,0.8-1.5
					c0.3-0.3,1.1-0.3,1.1-0.7c0.9,0.1,2.3-0.4,2.6,0.7c0.2,0.7-0.3,1.5-0.5,2.2c-1.4,4.4-1.1,10.1-1.1,14.5c0,1.6,0.3,3.3-0.2,4.8
					c0.2,1.5,0.1,3.1,0.1,4.6c-0.2,4.7,0.1,9.5,0,14.3c-0.1,2.6-0.2,5.2-0.3,8.1c-0.3,5-0.4,9.8-0.9,14.7
					C924.3,711.1,924.1,712,924.3,712.5z"/>
				<path class="st1" d="M824,759.2l0.2-0.5c0.3-0.2-0.2,0.6-0.4,1c-0.2,0.5-0.4,1.2-0.6,1.5c-0.3,0.2-0.7,0.3-1,0.2
					c-0.8-0.4-0.4-1.2-0.3-2.5c0.1-1.3,0.2-3.1,0.3-4c2.4-6.9,5.6-14.1,9.1-20.8c0.5-1,1-1.7,1.6-2.5c1.6-3.8,4.4-7.7,6.8-11.4
					c0.7-1,1.3-2.1,1.9-3.1c0.6-1,1.3-1.9,1.9-2.8c1.8-2.7,3.8-5.7,6-8.7c2.2-3,4.6-6,7.3-8.8c1-1,1.9-2.1,3-3
					c2.6-2.1,5.4-4.1,8.2-5.7c2.8-1.6,5.6-2.8,8.1-3.7c6.6-2.4,13.7-3.8,20.6-5c1.6,0,4-0.4,5.7-0.6c4.4-0.5,9.4-1,13.7-0.4
					c0.9,0.1,2.1,0.5,3.2,0.7c1.1,0.2,2.4,0.3,3.1,0.7c0.5,0.3,0.7,1,1.5,1.1c-0.2,0.9,0.8,2.3-1.4,2.7c-1.5,0.2-3.1-0.2-4.5-0.4
					c-4.6-0.5-9.9-0.2-15.2,0.4c-5.3,0.7-10.7,1.5-15.2,2.5c-3.3,0.7-6.7,1.9-9.7,2.5c-2.9,1.3-5.8,2.5-8.5,4
					c-4.3,2.4-7.9,5.7-11.2,9.5c-3.2,3.8-6.1,7.9-9,12.1c-3.2,4.6-6.4,9.1-9.5,14.2c-5.6,8.9-10.2,18-14.4,27.5
					C825.1,756.5,824.2,758.1,824,759.2z"/>
				<path class="st1" d="M1039.2,885.4c0-0.1,0-0.1,0-0.2c0.2-0.1,0,0.3,0,0.5c0,0.3,0,0.6-0.1,0.7c-0.3,0.1-0.6,0.2-0.9,0.2
					c-0.9-0.1-0.8-0.5-1.1-1c-0.3-0.6-0.9-1.3-1.1-1.7c-0.2-3.1,0-6.4,0.1-9.5c0-0.4,0.1-0.8,0.3-1.2c-0.3-1.7,0.2-3.7,0.3-5.6
					c0-0.5,0-1,0-1.5c0-0.5,0.1-1,0.1-1.5c0.1-2.8,0.3-6,0.5-9.1c0-0.6-0.1-1.1,0-1.7c0.3-2.7,0.4-5.4,0.5-7.6
					c0.2-2.8,0.1-5.8,0.1-8.8c0.3-0.7,0.3-1.7,0.3-2.4c0.2-1.9,0.3-3.9,1.3-5.7c0.2-0.4,0.6-0.8,0.9-1.3c0.3-0.5,0.5-1,0.9-1.3
					c0.3-0.2,1.1-0.2,1.2-0.6c0.9,0.1,2.3-0.2,2.6,0.8c0.2,0.7-0.4,1.3-0.6,1.9c-1.5,3.9-1.5,9.1-1.7,13.2c-0.1,1.5,0.2,3.1-0.4,4.4
					c0.2,1.4,0,2.8-0.1,4.1c-0.4,4.3-0.3,8.7-0.6,13c-0.2,2.4-0.4,4.8-0.7,7.3c-0.5,4.5-0.8,8.9-1.6,13.3
					C1039.3,884.2,1039,884.9,1039.2,885.4z"/>
				<path class="st1" d="M1151,1241.9c-0.1-0.4-0.2-0.7-0.4-1.1c0-0.7,0.5,1.5,0.8,2.4c0.4,1.3,1,2.8,1.1,3.6c0,0.7-0.1,1.3-0.5,1.4
					c-0.9,0.2-1.5-2-2.7-4.5c-1.3-2.7-3.1-6.2-3.9-8c-5.7-15.7-11.4-32.8-17-49.2c-0.8-2.3-1.4-4.3-2-6.5
					c-3.4-8.7-6.5-19.2-9.7-28.7c-0.9-2.6-1.9-5.3-2.8-7.9c-0.9-2.5-1.7-5.1-2.5-7.5c-4.9-14.3-10.5-31.3-15.9-47.3
					c-1-2.9-2.1-5.9-3.1-8.8c-4.5-13.9-9.4-28.1-13.1-39.2c-4.9-14.7-10.3-30-15.7-45.4c-1-3.6-2.8-8.8-4-12.7
					c-3.2-9.7-6.8-20.5-9.1-29.9c-0.5-2.1-1-4.6-1.5-7.1c-0.6-2.5-1.4-5.3-1.5-7.1c-0.1-1.3,0.5-1.8-0.1-3.7
					c1.1,0.2,1.6-2.5,3.6,2.5c1.3,3.3,2.1,7.1,2.9,10.3c5.7,21,15,47.7,22.1,68.7c2.5,7.5,5.6,15.6,7.5,22.6
					c2.6,7.1,5,14.5,7.3,21.4c7.4,22.4,15.3,44.8,22.7,67.2c4.2,12.4,8.2,24.7,12.6,38.1c7.7,23.5,15.2,46.1,22.5,69.3
					C1148.8,1235.5,1150,1239.6,1151,1241.9z"/>
				<path class="st1" d="M766.6,1204.8l0.3-0.7c0.4-0.3-0.4,0.9-0.7,1.5c-0.4,0.8-0.8,1.8-1.2,2.2c-0.4,0.3-0.9,0.5-1.2,0.3
					c-0.8-0.5-0.1-1.8,0.5-3.6c0.6-2,1.1-4.6,1.6-5.8c4.6-10.2,9.8-21.1,14.7-31.6c0.7-1.5,1.3-2.7,2.1-4c2.3-5.8,5.8-12.3,8.6-18.4
					c0.8-1.7,1.5-3.4,2.3-5.1c0.8-1.6,1.5-3.2,2.2-4.8c4.2-9.2,9.3-20.1,14.1-30.4c0.9-1.9,1.6-3.8,2.5-5.7
					c4.2-8.8,8.3-18,11.5-25.2c4.3-9.5,8.5-19.5,12.8-29.6c1.2-2.2,2.7-5.6,3.8-8.1c2.9-6.2,5.9-13.2,9.3-18.8
					c0.7-1.2,1.8-2.7,2.7-4.1c0.9-1.5,1.8-3.2,2.7-4.1c0.6-0.7,1.4-0.6,2-1.7c0.7,0.7,2.6-0.2,1.5,3.2c-0.7,2.2-2.3,4.4-3.3,6.4
					c-7,12.8-14.4,30.3-20.4,43.9c-2.2,4.9-4.2,10.3-6.6,14.5c-1.9,4.7-4.1,9.4-6.2,13.9c-6.6,14.4-13,28.9-19.8,43.3
					c-3.7,8-7.5,15.8-11.6,24.3c-7.3,14.9-14.3,29.3-21.8,43.7C768.6,1200.7,767.1,1203.1,766.6,1204.8z"/>
				<path class="st1" d="M1005.7,689.7l-0.2,0.8c-0.3,0.5,0.3-1.1,0.5-1.9c0.3-1,0.6-2.2,0.8-2.7c0.4-0.4,0.8-0.7,1.1-0.6
					c0.8,0.3,0.3,1.9,0.1,4.1c-0.3,2.3-0.6,5.3-0.9,6.8c-3.5,12.3-8.6,25.1-14.6,37c-0.9,1.7-1.6,3.1-2.6,4.5
					c-1.5,3.2-3.6,6.6-5.8,9.9c-2.2,3.3-4.7,6.6-7.1,9.6c-0.7,0.9-1.4,1.7-2.1,2.5c-0.7,0.9-1.4,1.7-2.1,2.5c-1.4,1.6-2.9,3-4.3,4.4
					c-4.3,4.1-9.5,8.1-15.6,11.1c-1.5,0.8-3,1.4-4.5,2.1c-1.5,0.7-3.1,1.3-4.7,1.9c-3.2,1.1-6.6,2-10,2.4c-2.5,0.3-5.1,0.5-7.8,0.2
					c-3.1-0.4-6.1-1.3-8.9-2.6c-2.8-1.4-5.3-3.2-7.4-5.4c-4.2-4.2-6.7-9.2-8.5-13.3c-1.3-2.8-2.2-5.8-3.1-8.9
					c-0.8-3.1-1.3-6.2-1.7-9.3c-0.7-6.3-0.7-12.7,0-19c0.5-2.8,1.1-7.1,1.8-10.2c1.6-7.7,4.2-16.2,7.5-22.8c0.7-1.5,1.8-3.2,2.7-4.8
					c0.9-1.7,2-3.7,2.9-4.7c0.6-0.7,1.4-0.7,2.1-1.9c0.7,0.8,2.7-0.3,1.3,3.5c-0.9,2.5-2.4,4.9-3.5,7.2c-3.5,7.3-6.6,16.1-8.5,25.3
					c-1.9,9.1-2.5,18.6-1.6,26.7c0.3,2.9,0.9,5.9,1.6,8.8c0.8,2.9,1.6,5.6,2.5,8.1c1.2,2.5,2.5,5,4,7.3c1.5,2.3,3.2,4.4,5.1,6.1
					c1.6,1.4,3.3,2.5,5.2,3.4c1.9,0.8,3.9,1.5,6,1.8c2.1,0.3,4.2,0.4,6.3,0.2c2.1-0.2,4.2-0.6,6.3-1.1c4.2-1.1,8.2-2.8,12.2-4.8
					c3.9-1.8,7.5-4.3,10.9-7c7.5-6.1,13.8-13.5,19.6-22.3c5.1-7.7,9.4-15.8,13.2-24c3.8-8.3,7.1-16.7,10.1-25.3
					C1004.2,694.6,1005.4,691.6,1005.7,689.7z"/>
				<g id="Pattern_1_">
					<circle cx="1012.7" cy="775.9" r="5.5"/>
					<circle cx="1105.2" cy="792" r="2.7"/>
					<circle cx="983.1" cy="1004.8" r="3.8"/>
					<circle cx="855.3" cy="746.6" r="3.8"/>
					<circle cx="1059.7" cy="1022.6" r="5.8"/>
					<circle cx="937.6" cy="1119.7" r="6.8"/>
					<circle cx="881.9" cy="952.2" r="3.9"/>
					<circle cx="1075.5" cy="1134.8" r="3.5"/>
					<circle cx="829.6" cy="1169" r="6.8"/>
					<circle cx="909.4" cy="828.8" r="3.8"/>
					<circle cx="1027.8" cy="1224.8" r="6.3"/>
				</g>
			</g>
		</g>
		<g id="Moon">
			<path class="st1" d="M565.8,486.1c-1.7-0.5-3.4-1.1-5.1-1.7c-1.5-0.6,0.2,0,2.8,0.8c1.3,0.5,2.9,0.9,4.4,1.4
				c1.5,0.4,3,0.9,4.1,1.2c3,0.9,6.4,1.7,9.4,2.4c3,0.8,5.7,1.3,7.3,1.7c3,0.9,5.4,1.7,5.1,2c-0.8,0.7-10.8-1.2-23.4-4.4
				c-1.7-0.4-3.5-0.9-5.3-1.4c-1.8-0.5-3.6-1.1-5.4-1.6c-1.8-0.6-3.7-1-5.5-1.7c-1.8-0.6-3.6-1.2-5.4-1.8c-3.5-1.1-6.8-2.5-9.8-3.6
				c-3-1.1-5.6-2.3-7.7-3.3c-2.2-1-4.4-2-6.6-3.2c-2.2-1.1-4.4-2.3-6.5-3.4c-4.3-2.5-8.6-4.9-12.8-7.6c-4.2-2.6-8.2-5.6-12.3-8.5
				c-3.9-3.1-8-6.1-11.7-9.6c-3.9-3.3-7.4-6.9-11.1-10.4c-1.8-1.8-3.5-3.7-5.2-5.6c-0.9-0.9-1.7-1.9-2.6-2.8l-2.4-2.9
				c-6.6-7.8-12.5-16.2-17.8-25c-5.4-8.8-9.8-18.1-13.8-27.6l-1.4-3.6c-0.5-1.2-1-2.4-1.4-3.6l-2.5-7.3c-1.5-4.9-3-9.8-4.2-14.8
				c-2.5-10-4.4-20.1-5.6-30.2c-1.2-10.1-1.8-20.3-1.9-30.4c-0.1-11.4,0.4-21,1.6-31.5c0.2-2.7,0.5-5.4,0.8-8.2
				c0.4-2.8,0.7-5.5,1.1-8.3c0.8-5.6,1.8-11.3,3-17c1.2-5.7,2.5-11.5,4.2-17.3c1.8-5.7,3.7-11.4,5.8-17.1
				c8.6-22.6,20.8-44.1,34.6-62.9c7.7-10.5,16.2-20.7,25.1-30c8.6-9,17.7-17.5,27-25.2c13.5-11.3,28.5-21.9,44.9-31.5
				c16.4-9.5,34-18.1,52.9-24.2c9.5-3,19.3-5.5,29.5-6.3c5.1-0.3,10.4-0.4,15.9,1.2c2.7,0.8,5.5,2.2,7.8,4.7c0.6,0.6,1,1.3,1.4,1.9
				c0.4,0.7,0.8,1.4,1,2.1l0.4,1.1c0.1,0.4,0.2,0.7,0.3,1.1c0.2,0.7,0.3,1.4,0.5,2.1c0.5,2.8,0.4,5.5,0.2,8.2
				c-0.2,2.6-0.6,5.2-1.1,7.7c-1,5-2.3,9.9-3.6,14.7c-2.8,9.6-5.9,18.9-9,28.2c-4.5,13.6-8.7,27.3-12.1,41.1
				c-4.1,16.2-7,32.8-7.1,49.2c0,8.2,0.6,16.4,2.3,24.3c1.7,7.8,4.3,15.5,8,22.2c1.9,3.4,4.1,6.5,6.6,9.2c1.3,1.3,2.6,2.5,4.1,3.6
				c1.5,1,3,2,4.7,2.8c6.5,3.3,13.9,4.3,21.1,4c7.2-0.3,14.4-1.6,21.3-3.3c6.9-1.6,13.6-3.6,20.5-5c2.3-0.4,4.6-0.8,7.2-0.9
				c1.3,0,2.6,0,4,0.2c1.4,0.2,2.9,0.7,4.3,1.6c1.4,0.9,2.6,2.2,3.3,3.8c0.8,1.6,1,3.3,0.9,4.8c-0.1,1.5-0.5,2.9-0.9,4.1
				c-0.4,1.2-1,2.4-1.5,3.5c-2.3,4.4-5,8.1-7.8,11.8c-2.8,3.7-5.6,7.3-8.4,10.9c-5.6,7.2-11,14.5-15.6,22.2
				c-4.6,7.7-8.5,15.9-10.4,24.5c-0.9,4.3-1.4,8.7-1.2,13c0.2,4.3,1.1,8.6,2.6,12.7c3,8.2,8.3,15.6,14.6,22c6.4,6.4,13.7,12,21.5,17
				c7.8,5,15.9,9.5,24.2,13.8c7.4,3.9,17,8.5,26.9,13c9.9,4.5,20.1,9,28.5,13.1c5.4,2.6,10.8,5.3,16.1,8.5c2.7,1.6,5.3,3.3,7.9,5.2
				c2.6,2,5.1,4.2,7.2,7.1c1,1.5,2,3.1,2.4,5.1c0.5,1.9,0.5,4.1,0,6.1c-0.5,1.9-1.4,3.6-2.4,5.1c-1,1.5-2.1,2.8-3.2,4
				c-4.7,4.8-10,8.3-15.4,11.5c-10.9,6.3-22.4,11-33.8,14.9c-11.4,3.9-22.7,7.1-33.6,9.6c-9.7,2.2-21.4,4.3-33,5.9
				c-11.6,1.7-25.2,3.1-33.3,3.3c-5.8,0.2-7.3-0.4-16.2-0.1c1.2-0.5-0.9-1-0.3-1.5c0.6-0.6,4-1,16.1-2.2c16-1.5,33.6-3.6,48.7-6.5
				c12.2-2.3,24.8-5.3,37.5-9.1c12.7-3.8,25.5-8.5,37.9-14.6c6.1-3.1,12.2-6.5,17.6-10.8c2.7-2.1,5.2-4.5,7-7.2
				c0.9-1.3,1.6-2.8,1.8-4.2c0.2-1.4,0-2.8-0.6-4.2c-0.6-1.4-1.5-2.7-2.6-4c-1.1-1.2-2.4-2.4-3.7-3.5c-2.7-2.2-5.7-4.1-8.7-5.9
				c-6.1-3.6-12.6-6.8-19.1-9.8c-26.1-12.2-53.3-23.1-77.1-38.7c-5.9-3.9-11.6-8.1-16.9-12.8c-2.6-2.3-5.1-4.8-7.5-7.4
				c-2.3-2.6-4.5-5.3-6.5-8.2c-3.9-5.7-6.9-12.1-8.4-18.8c-1.6-6.7-1.5-13.6-0.3-20c1.7-9.3,5.6-18.2,10.4-26.5
				c4.8-8.3,10.4-16,16.2-23.5c2.9-3.7,5.7-7.4,8.5-11c2.8-3.6,5.4-7.3,7.6-11.1c1-1.9,1.9-3.8,2.3-5.7c0.4-1.9,0.1-3.4-1-4.6
				c-1.1-1.1-2.9-1.6-4.8-1.7c-1.9-0.1-3.9,0.1-5.9,0.4c-4.2,0.7-8.4,1.8-12.6,2.9c-4.2,1.1-8.5,2.3-12.8,3.2
				c-8.6,1.9-17.6,3.3-26.6,2.5c-4.5-0.4-9-1.4-13.2-3.1c-4.2-1.8-8.1-4.2-11.4-7.4c-1.6-1.6-3.1-3.3-4.5-5.1
				c-1.4-1.8-2.6-3.6-3.7-5.6c-2.2-3.8-4-7.8-5.4-11.9c-4.7-13.1-6.2-27-5.9-40.8c0.4-13.8,2.5-27.4,5.6-40.8
				c3-13.4,7-26.5,11.1-39.5c4.1-13,8.7-25.9,12.3-39c0.9-3.3,1.7-6.6,2.4-9.8c0.7-3.3,1.2-6.6,1.4-9.9c0.1-1.6,0.1-3.3-0.1-4.9
				c-0.1-1.6-0.5-3.1-1-4.5c-1.1-2.8-3.4-4.7-6.4-5.6c-3-1-6.3-1.4-9.6-1.4c-3.3,0-6.6,0.2-10,0.7c-3.3,0.4-6.6,1-9.9,1.8
				c-3.3,0.7-6.6,1.6-9.8,2.6c-13,3.9-25.5,9.1-37.7,15.1c-12.1,6-23.9,12.9-35.1,20.4c-25,16.8-47.7,36.7-67.3,60
				c-19.6,23.3-36.1,50.1-47.2,80.6l-1.8,5c-0.6,1.7-1.1,3.4-1.6,5c-1.1,3.4-2,6.7-2.9,10.2c-1.7,6.8-3.1,13.8-4.3,20.7
				c-1.2,6.9-2.1,13.9-2.8,20.9c-0.7,7-1.1,14-1.4,21c-0.4,14,0.1,28,1.8,41.8c1.7,13.8,4.6,27.5,8.7,40.7
				c4.1,13.3,9.4,26.1,16.2,38.3c6.7,12.1,14.7,23.6,23.8,34c9.1,10.5,19.4,19.9,30.5,28.2c11.2,8.3,23.2,15.5,35.8,21.5
				c0.9,0.5,2.7,1.3,5,2.5c2.4,1,5.3,2.3,8.5,3.6c3.2,1.2,6.7,2.5,10,3.7C559.7,484.2,563,485.2,565.8,486.1z"/>
			<path class="st1" d="M700.1,343.1l-0.3,0.3c-0.3,0,0.4-0.4,0.7-0.6c0.4-0.3,0.8-0.8,1.1-0.8c0.4,0,0.7,0.1,0.9,0.4
				c0.6,0.7-0.1,1.2-0.6,2.1c-0.6,1-1.3,2.4-1.8,3c-4.6,4.2-10.2,8-15.9,11.1c-0.8,0.4-1.5,0.7-2.4,1c-2.9,1.9-6.9,3.2-10.4,4.4
				c-1,0.3-1.9,0.8-2.9,1.1c-1,0.3-1.9,0.6-2.8,0.9c-1.4,0.3-2.8,0.7-4.3,1.1c-0.7,0.2-1.5,0.4-2.2,0.5c-0.8,0.2-1.5,0.3-2.3,0.4
				c-1.6,0.3-3.1,0.5-4.7,0.8c-1.6,0.1-3.2,0.3-4.8,0.4c-0.6,0.1-1.2,0.1-1.7,0.2c-0.6,0.1-1.2,0.1-1.7,0.1c-1.4,0-2.7,0-4.1,0
				c-1.4,0-2.7-0.1-4-0.1c-2.6,0-5.1-0.3-7.3-0.6c-5.7-0.7-11.7-1.7-17.6-3.2c-1.2-0.6-3.2-1.1-4.6-1.7c-3.6-1.3-7.5-2.9-10.4-5.2
				c-0.6-0.5-1.3-1.3-2-1.9c-0.7-0.6-1.6-1.3-2-1.9c-0.3-0.5,0-1.2-0.6-1.6c0.6-0.7,0.5-2.3,2.3-1.7c1.2,0.4,2.1,1.5,3.1,2.1
				c3.1,2.2,7.2,4.2,11.4,5.7c1,0.4,2.1,0.7,3.2,1c0.5,0.2,1.1,0.3,1.6,0.5c0.5,0.1,1.1,0.3,1.6,0.4c1,0.3,2.1,0.5,3.1,0.8
				c1,0.2,2,0.4,3,0.6c0.7,0.1,1.4,0.3,2.1,0.4c0.7,0.1,1.4,0.2,2.2,0.3c1.4,0.2,2.8,0.5,4,0.8c1.3,0,2.7,0.1,4,0.3
				c1.3,0.1,2.7,0.2,4,0.2c8.4,0.4,16.8-0.7,24.9-2.7c4.5-1,8.9-2.4,13.6-4.3c8.2-3.2,15.5-7.7,22.6-12.8
				C698.2,344.7,699.6,343.9,700.1,343.1z"/>
			<circle cx="599.8" cy="237.9" r="14.7"/>
			<path class="st1" d="M656.5,499.3l-0.1,0c-0.1-0.2,0.2,0,0.3,0c0.2,0,0.3-0.1,0.4,0.1c0.1,0.3,0.1,0.6,0.1,0.9
				c0,0.9-0.3,0.8-0.6,1.1c-0.3,0.3-0.8,1-1,1.1c-1.8,0.3-3.8,0.2-5.7,0.3c-0.3,0-0.5,0-0.7-0.2c-1,0.4-2.2,0-3.3-0.1
				c-0.3,0-0.6,0-0.9,0c-0.3,0-0.6,0-0.9,0c-1.7,0-3.6-0.2-5.5-0.4c-0.3,0-0.7,0.1-1,0c-1.6-0.3-3.3-0.3-4.5-0.5
				c-1.7-0.2-3.5-0.1-5.3-0.1c-0.4-0.3-1-0.3-1.4-0.4c-1.1-0.2-2.4-0.4-3.3-1.3c-0.2-0.2-0.5-0.6-0.7-0.9c-0.2-0.3-0.6-0.5-0.7-0.9
				c-0.1-0.3-0.1-1.1-0.3-1.2c0.2-0.9,0.1-2.3,0.7-2.6c0.4-0.2,0.8,0.4,1.1,0.6c2.2,1.6,5.3,1.6,7.7,1.8c0.9,0.1,1.8-0.2,2.6,0.4
				c0.8-0.2,1.7,0,2.5,0.1c2.6,0.3,5.1,0.2,7.7,0.4c1.4,0.1,2.8,0.3,4.4,0.5c2.7,0.4,5.3,0.5,7.9,1.1
				C655.8,499.2,656.3,499.5,656.5,499.3z"/>
		</g>
	</g>
</g>
</svg>
